<?xml version="1.0" encoding="utf-8"?>
<!-- Generator: Adobe Illustrator 19.2.1, SVG Export Plug-In . SVG Version: 6.00 Build 0)  -->
<svg version="1.1"
	 id="svg3360" inkscape:version="0.91 r13725" sodipodi:docname="Fire.svg" xmlns:cc="http://creativecommons.org/ns#" xmlns:dc="http://purl.org/dc/elements/1.1/" xmlns:inkscape="http://www.inkscape.org/namespaces/inkscape" xmlns:rdf="http://www.w3.org/1999/02/22-rdf-syntax-ns#" xmlns:sodipodi="http://sodipodi.sourceforge.net/DTD/sodipodi-0.dtd" xmlns:svg="http://www.w3.org/2000/svg"
	 xmlns="http://www.w3.org/2000/svg" xmlns:xlink="http://www.w3.org/1999/xlink" x="0px" y="0px" viewBox="0 0 30 30"
	 style="enable-background:new 0 0 30 30;" xml:space="preserve">
<style type="text/css">
	.st0{fill:#B8B8B8;}
	.st1{fill:#B8B8B8;stroke:#B8B8B8;}
	.st2{fill:#FFFFFF;}
	.st3{fill:#0099FF;stroke:#FFFFFF;}
	.st4{fill:none;stroke:#FFFFFF;stroke-width:2;}
</style>
<sodipodi:namedview  bordercolor="#666666" borderopacity="1.0" fit-margin-bottom="0" fit-margin-left="0" fit-margin-right="0" fit-margin-top="0" id="base" inkscape:current-layer="layer1" inkscape:cx="17.139798" inkscape:cy="16.856223" inkscape:document-units="px" inkscape:pageopacity="0.0" inkscape:pageshadow="2" inkscape:window-height="747" inkscape:window-maximized="1" inkscape:window-width="1440" inkscape:window-x="-8" inkscape:window-y="-8" inkscape:zoom="17.884885" pagecolor="#ffffff" showgrid="false" units="px">
	</sodipodi:namedview>
<g id="layer1" transform="translate(-435.51989,-450.105)" inkscape:groupmode="layer" inkscape:label="Layer 1">
	<g id="g5" transform="matrix(0.30190578,0,0,0.30192933,435.55612,449.94256)">
		<g id="g7">
			<path id="path9" inkscape:connector-curvature="0" class="st0" d="M49.6,99.9c-4.5,0-8.7-1.7-11.9-4.9L4.8,62.1
				C1.6,59-0.1,54.7-0.1,50.2s1.7-8.7,4.9-11.9L37.6,5.5c3.2-3.2,7.4-4.9,11.9-4.9s8.7,1.7,11.9,4.9l32.8,32.8
				c6.6,6.6,6.6,17.3,0,23.8L61.5,95C58.3,98.2,54.1,99.9,49.6,99.9z M49.6,9.3c-2.2,0-4.2,0.8-5.7,2.4L11,44.5
				C9.5,46,8.6,48,8.6,50.2S9.5,54.4,11,56l32.8,32.8c3,3,8.4,3,11.5,0L88.1,56c3.2-3.2,3.2-8.3,0-11.5L55.3,11.6
				C53.8,10.1,51.7,9.3,49.6,9.3z"/>
		</g>
	</g>
	<g id="g11" transform="matrix(0.31999996,0,0,0.31999999,434.82677,449.23305)">
		<path id="path13" inkscape:connector-curvature="0" class="st1" d="M67,41.1c0,0,0,3.7-0.9,7.6c-1.9-8.2-7.5-15.1-7.5-15.1
			C57.8,46.4,51,47.7,51,47.7s2.2-3.6,2.4-10.5c0.3-7.9-6.5-13.3-6.5-13.3s0,0-2,7.1c-0.7,2.5-2.5,4.5-4.7,6.5
			c-1.2-4.7-5.4-7.5-5.6-7.7c0.1,0.1,0.9,0.8,1.1,5c0.2,4.5-7.4,8.6-7.9,16.6c-0.6,10.8,9.9,16.7,12.7,18.2c2.4,2.1,4.4,3.3,4.4,3.3
			c-3-8-2.5-12.1-0.3-15.5c2.4-3.7,7.1-4.8,7.1-4.8c-5.1,7.7,3.2,8.7,2.2,20.3c0,0,1.6-0.3,3.8-1.9c3.4-1.5,10-5.5,11.8-14.1
			C71.9,45.2,67,41.1,67,41.1z"/>
		<path id="path15" inkscape:connector-curvature="0" d="M34.6,29.8C34.6,29.8,34.6,29.8,34.6,29.8C34.6,29.8,34.6,29.8,34.6,29.8z"
			/>
	</g>
	<path id="path3399" inkscape:connector-curvature="0" class="st2" d="M450,477.4c-0.1,0-0.4-0.1-0.6-0.2c-0.3-0.2-0.8-0.6-5.6-5.4
		c-5-5-5.2-5.2-5.4-5.6c-0.2-0.3-0.2-0.5-0.2-0.9c0-0.6,0.1-1,0.3-1.4c0.1-0.1,2.5-2.6,5.4-5.5c4.7-4.7,5.3-5.2,5.6-5.4
		c0.5-0.2,0.9-0.3,1.4-0.2c0.9,0.1,0.6-0.1,6.3,5.6c4.8,4.8,5.2,5.2,5.4,5.6c0.3,0.7,0.4,1.4,0,2.1c-0.1,0.3-0.5,0.7-5.3,5.5
		c-2.8,2.8-5.3,5.2-5.4,5.3C451.4,477.3,450.6,477.5,450,477.4z M449,471.9c-0.1-0.4-0.3-0.9-0.3-1.2c-0.4-1.7,0.2-3.2,1.4-4
		c0.3-0.2,1-0.5,1.1-0.5c0,0,0,0.2-0.1,0.4c-0.4,0.8-0.4,1.4,0.2,2.5c0.6,1.2,0.8,1.8,0.8,2.8c0,0.6,0,0.7,0.1,0.7
		c0.2,0,1.9-1,2.5-1.4c0.5-0.4,1.2-1.1,1.5-1.5c0.7-1.1,1.1-2.4,1.1-4.1c0-1-0.1-1.6-0.4-2.3c-0.2-0.4-0.5-0.9-0.6-0.9
		c0,0-0.1,0.2-0.1,0.4c0,0.5-0.2,1.7-0.2,1.8c0,0-0.1-0.1-0.1-0.3c-0.1-0.4-0.5-1.5-0.8-2c-0.4-0.9-1.4-2.4-1.5-2.4
		c0,0-0.1,0.2-0.1,0.5c0,0.6-0.3,1.6-0.5,2.1c-0.2,0.5-0.6,1-0.9,1.3c-0.3,0.3-0.8,0.5-0.8,0.5c0,0,0-0.2,0.1-0.4
		c0.4-1.1,0.6-2.9,0.4-3.9c-0.1-0.5-0.4-1.2-0.7-1.7c-0.3-0.5-0.9-1.2-1.2-1.4l-0.2-0.1l-0.3,1.2c-0.2,0.7-0.4,1.3-0.5,1.5
		c-0.2,0.4-0.7,1-1,1.4c-0.2,0.2-0.2,0.2-0.3,0.1c-0.1-0.3-0.4-0.9-0.6-1.2c-0.2-0.3-1-1.1-1.1-1.1c0,0,0,0.1,0.1,0.3
		c0.1,0.4,0.2,1.4,0.1,1.7c-0.1,0.3-0.4,0.8-1,1.6c-0.9,1.2-1.3,2-1.4,2.9c-0.1,0.8,0,1.9,0.4,2.7c0.5,1.2,1.8,2.4,3.2,3.2
		c0.3,0.1,0.6,0.4,0.7,0.5c0.3,0.3,1.1,0.8,1.2,0.8C449.2,472.6,449.1,472.3,449,471.9z"/>
</g>
<g id="cluster">
	<g>
		<title>Cluster Indicator</title>
		<circle class="st3" cx="8.2" cy="8" r="7"/>
		<line class="st4" x1="8.2" y1="3" x2="8.2" y2="13"/>
		<line class="st4" x1="3.2" y1="8" x2="13.2" y2="8"/>
	</g>
</g>
</svg>
