<?xml version="1.0" encoding="utf-8"?>
<!-- Generator: Adobe Illustrator 19.1.0, SVG Export Plug-In . SVG Version: 6.00 Build 0)  -->
<!DOCTYPE svg PUBLIC "-//W3C//DTD SVG 1.1//EN" "http://www.w3.org/Graphics/SVG/1.1/DTD/svg11.dtd">
<svg version="1.1" xmlns="http://www.w3.org/2000/svg" xmlns:xlink="http://www.w3.org/1999/xlink" x="0px" y="0px"
	 viewBox="0 0 30 30" enable-background="new 0 0 30 30" xml:space="preserve">
<g id="Layer_1">
	<g id="Layer_58">
		<g>
			<circle fill="#FFFFFF" cx="15" cy="15" r="14.1"/>
			<path fill="#1E5DA7" d="M15,30C6.8,30,0,23.2,0,15S6.8,0,15,0s15,6.8,15,15S23.2,30,15,30z M15,1.9C7.8,1.9,1.9,7.8,1.9,15
				S7.8,28.1,15,28.1S28.1,22.2,28.1,15S22.2,1.9,15,1.9z"/>
		</g>
		<path id="YouTube__x28_alt_x29_" fill="#1E5DA7" d="M21.6,12.4c0-1.1-0.8-2.1-2-2.1h-9.2c-1.1,0-2,0.9-2,2.1v5.2
			c0,1.1,0.8,2.1,2,2.1h9.2c1.1,0,2-0.9,2-2.1C21.6,17.6,21.6,12.4,21.6,12.4z M13.7,17.2v-5l3.8,2.4L13.7,17.2z"/>
	</g>
	<g id="Layer_61">
	</g>
</g>
<g id="Layer_2" display="none">
	<g id="Layer_55" display="inline">
		<g>
			<circle fill="#FFFFFF" cx="15" cy="15" r="14.1"/>
			<path fill="#1E5DA7" d="M15,30C6.8,30,0,23.2,0,15S6.8,0,15,0s15,6.8,15,15S23.2,30,15,30z M15,1.9C7.8,1.9,1.9,7.8,1.9,15
				S7.8,28.1,15,28.1S28.1,22.2,28.1,15S22.2,1.9,15,1.9z"/>
		</g>
		<path fill="#1E5DA7" d="M18.5,8.4h-2.2c-1.9,0-3.2,1.3-3.2,3.2v1.5h-1.6c-0.2,0-0.3,0.1-0.3,0.3v2.3c0,0.2,0.1,0.3,0.3,0.3h1.7
			v5.3c0,0.2,0.1,0.3,0.3,0.3h2.3c0.2,0,0.3-0.1,0.3-0.3v-5.3h2.5c0.2,0,0.3-0.1,0.3-0.3v-2.2c0-0.1,0-0.1-0.1-0.2
			c0-0.1-0.1-0.1-0.2-0.1h-2.5v-1.2c0-0.6,0.2-0.9,1-0.9h1.5c0.2,0,0.3-0.1,0.3-0.3v-2C18.8,8.5,18.7,8.4,18.5,8.4z"/>
	</g>
	<g id="Layer_61_1_" display="inline">
	</g>
</g>
<g id="Layer_3" display="none">
	<g id="Layer_57" display="inline">
		<g>
			<circle fill="#FFFFFF" cx="15" cy="15" r="14.1"/>
			<path fill="#1E5DA7" d="M15,30C6.8,30,0,23.2,0,15S6.8,0,15,0s15,6.8,15,15S23.2,30,15,30z M15,1.9C7.8,1.9,1.9,7.8,1.9,15
				S7.8,28.1,15,28.1S28.1,22.2,28.1,15S22.2,1.9,15,1.9z"/>
		</g>
		<path fill="#1E5DA7" d="M10.1,8.4h9.8c0.9,0,1.7,0.7,1.7,1.7v9.8c0,1-0.8,1.7-1.7,1.7h-9.8c-0.9,0-1.7-0.7-1.7-1.7v-9.8
			C8.4,9.1,9.2,8.4,10.1,8.4L10.1,8.4z M17.4,10.3c-0.3,0-0.6,0.3-0.6,0.6v1.4c0,0.3,0.3,0.6,0.6,0.6H19c0.3,0,0.6-0.3,0.6-0.6v-1.4
			c0-0.3-0.3-0.6-0.6-0.6H17.4L17.4,10.3z M19.7,14.1h-1.1c0.1,0.4,0.2,0.7,0.2,1c0,2.2-1.5,3.9-3.8,3.9s-3.8-1.8-3.8-3.9
			c0-0.4,0.1-0.7,0.2-1h-1.1v5.4c0,0.3,0.3,0.6,0.6,0.6h8.3c0.3,0,0.6-0.3,0.6-0.6L19.7,14.1L19.7,14.1z M15,13.1
			c-1,0-1.9,0.8-1.9,1.9s0.8,1.9,1.9,1.9s1.9-0.8,1.9-1.9S16,13.1,15,13.1z"/>
	</g>
	<g id="Layer_61_2_" display="inline">
	</g>
</g>
<g id="Layer_4" display="none">
	<g id="Layer_56" display="inline">
		<g>
			<circle fill="#FFFFFF" cx="15" cy="15" r="14.1"/>
			<path fill="#1E5DA7" d="M15,30C6.8,30,0,23.2,0,15S6.8,0,15,0s15,6.8,15,15S23.2,30,15,30z M15,1.9C7.8,1.9,1.9,7.8,1.9,15
				S7.8,28.1,15,28.1S28.1,22.2,28.1,15S22.2,1.9,15,1.9z"/>
		</g>
		<path fill="#1E5DA7" d="M21.6,11c-0.5,0.2-1,0.4-1.5,0.5c0.6-0.4,0.9-0.8,1.2-1.5c-0.6,0.3-1.1,0.6-1.7,0.7
			c-0.5-0.6-1.2-0.8-2-0.8c-1.5,0-2.7,1.2-2.7,2.7c0,0.2,0,0.4,0.1,0.7c-2.2-0.1-4.2-1.2-5.5-2.8c-0.2,0.4-0.4,0.8-0.4,1.3
			c0,0.9,0.5,1.8,1.2,2.2c-0.5,0-0.8-0.1-1.2-0.4l0,0c0,1.3,0.9,2.4,2.2,2.6c-0.2,0.1-0.5,0.1-0.8,0.1c-0.2,0-0.4,0-0.5-0.1
			c0.4,1,1.3,1.9,2.5,1.9c-0.9,0.8-2.1,1.1-3.4,1.1c-0.2,0-0.5,0-0.7,0c1.2,0.7,2.6,1.2,4.1,1.2c5,0,7.7-4.1,7.7-7.7v-0.4
			C20.7,11.9,21.2,11.4,21.6,11z"/>
	</g>
	<g id="Layer_61_3_" display="inline">
	</g>
</g>
</svg>
