<?xml version="1.0" encoding="utf-8"?>
<!-- Generator: Adobe Illustrator 19.1.0, SVG Export Plug-In . SVG Version: 6.00 Build 0)  -->
<!DOCTYPE svg PUBLIC "-//W3C//DTD SVG 1.1//EN" "http://www.w3.org/Graphics/SVG/1.1/DTD/svg11.dtd">
<svg version="1.1" xmlns="http://www.w3.org/2000/svg" xmlns:xlink="http://www.w3.org/1999/xlink" x="0px" y="0px"
	 viewBox="0 0 30 30" enable-background="new 0 0 30 30" xml:space="preserve">
<g id="Advice">
	<g>
		<g>
			<path fill="#FBE032" d="M2.2,24.9c-1,2.1,0,3.7,2.3,3.7h21.2c2.3,0,3.3-1.7,2.3-3.7L17,2.9c-1-2.1-2.7-2.1-3.7,0L2.2,24.9z"/>
		</g>
		<g>
			<path d="M25.7,30H4.6C3,30,1.7,29.4,1,28.3c-0.7-1.1-0.7-2.5,0-3.9l11-22.1C12.8,0.8,13.9,0,15.1,0s2.3,0.8,3.1,2.3l11,22.1
				c0.7,1.4,0.7,2.8,0,3.9C28.6,29.4,27.3,30,25.7,30z M15.1,2.7c0,0-0.3,0.1-0.7,0.8l-11,22.1c-0.3,0.6-0.3,1.1-0.2,1.4
				c0.2,0.3,0.6,0.5,1.3,0.5h21.2c0.6,0,1.1-0.2,1.3-0.5c0.2-0.3,0.1-0.8-0.2-1.4l-11-22.1C15.5,2.8,15.2,2.7,15.1,2.7z"/>
		</g>
	</g>
	<g>
		<path d="M17.3,21.6c0.2,0.2,0,0.1,0.2,0.2c0,0,0.1,0.2,0.1,0.2c-1.1,1.1-2.4,2-4,2.4c-0.3,0.1-0.6,0.1-1,0.1
			c-0.5,0-0.8-0.4-0.8-0.9c0-0.4,0.1-0.8,0.2-1.2c0.3-1.3,0.7-2.7,1.1-4c0.1-0.4,0-0.5-0.4-0.3c-0.6,0.2-1.1,0.4-1.7,0.6
			c-0.1-0.2-0.1-0.2-0.1-0.4c0.5-0.4,0.9-0.9,1.6-1.3c0.9-0.5,1.9-0.9,3-1.1c0.1,0,0.1,0,0.2,0c0.8-0.1,1.1,0.3,1.1,0.8
			c0,0.5-0.1,0.9-0.2,1.4c-0.3,1.2-0.7,2.4-1.1,3.7c0,0.2-0.1,0.3-0.1,0.5c0,0.2,0.1,0.3,0.4,0.2c0.5-0.2,1-0.4,1.4-0.6
			C17.1,21.7,17.2,21.7,17.3,21.6z"/>
		<circle cx="15.8" cy="13" r="1.9"/>
	</g>
</g>
<g id="Community_Update" display="none">
	<g display="inline">
		<circle fill="#1E5DA7" cx="15" cy="15" r="13.5"/>
		<path fill="#FFFFFF" d="M15,29.9C6.8,29.9,0.2,23.2,0.2,15S6.8,0.1,15,0.1S29.9,6.8,29.9,15S23.2,29.9,15,29.9z M15,2.8
			C8.3,2.8,2.9,8.3,2.9,15S8.3,27.2,15,27.2S27.2,21.7,27.2,15S21.7,2.8,15,2.8z"/>
	</g>
	<g display="inline">
		<path fill="#FFFFFF" d="M18.3,19.2c0.2,0.2,0.1,0.1,0.2,0.3c0,0,0.1,0.2,0.1,0.2c-1.4,1.4-2.9,2.4-4.8,2.9
			c-0.4,0.1-0.8,0.1-1.2,0.1c-0.6-0.1-1-0.4-1-1.1c0-0.5,0.1-1,0.2-1.5c0.4-1.6,0.9-3.2,1.3-4.8c0.1-0.5,0-0.6-0.5-0.4
			c-0.7,0.2-1.3,0.5-2,0.8c-0.1-0.2-0.1-0.2-0.1-0.5c0.6-0.5,1.1-1.1,1.9-1.5c1.1-0.6,2.3-1.1,3.6-1.4c0.1,0,0.2,0,0.2,0
			c0.9-0.2,1.3,0.3,1.3,0.9c0,0.5-0.1,1.1-0.3,1.6c-0.4,1.5-0.9,2.9-1.3,4.4c-0.1,0.2-0.1,0.4-0.1,0.6c0,0.3,0.1,0.4,0.4,0.3
			c0.6-0.2,1.2-0.5,1.7-0.7C18.1,19.3,18.2,19.2,18.3,19.2z"/>
		<circle fill="#FFFFFF" cx="16.5" cy="8.8" r="2.3"/>
	</g>
</g>
<g id="Emergency_Warning" display="none">
	<g display="inline">
		<g>
			<path fill="#EC0A47" d="M2.2,24.9c-1,2.1,0,3.7,2.3,3.7h21.2c2.3,0,3.3-1.7,2.3-3.7L17,2.9c-1-2.1-2.7-2.1-3.7,0L2.2,24.9z"/>
		</g>
		<g>
			<path d="M25.7,30H4.5C3,30,1.7,29.4,1,28.3c-0.7-1.1-0.7-2.5,0-3.9l11-22.1C12.8,0.8,13.9,0,15.1,0s2.3,0.8,3.1,2.3l11,22.1
				c0.7,1.4,0.7,2.8,0,3.9C28.6,29.4,27.3,30,25.7,30z M15.1,2.7c0,0-0.3,0.1-0.7,0.8l-11,22.1c-0.3,0.6-0.3,1.1-0.2,1.4
				c0.2,0.3,0.6,0.5,1.3,0.5h21.2c0.6,0,1.1-0.2,1.3-0.5c0.2-0.3,0.1-0.8-0.2-1.4l-11-22.1C15.5,2.8,15.2,2.7,15.1,2.7z"/>
		</g>
	</g>
	<g display="inline">
		<path fill="#FFFFFF" d="M11.6,24.1c0-0.5,0.4-1.4,1.5-1.4c0.8,0,1.4,0.6,1.4,1.5c0,0.8-0.6,1.3-1.5,1.3
			C12.4,25.5,11.6,25.1,11.6,24.1z M12.8,21.1c-0.1,0-0.1-0.1-0.1-0.2c-0.1-2.2-1-7.8-1-8.8c0-0.9,0.4-1.7,1.4-1.7
			c0.9,0,1.5,0.5,1.4,1.5c0,0.9-1,6.9-1.1,9c0,0.1,0,0.2-0.2,0.2L12.8,21.1L12.8,21.1z"/>
	</g>
	<g display="inline">
		<path fill="#FFFFFF" d="M15.5,24.1c0-0.5,0.4-1.4,1.5-1.4c0.8,0,1.4,0.6,1.4,1.5c0,0.8-0.6,1.3-1.5,1.3
			C16.2,25.5,15.5,25.1,15.5,24.1z M16.6,21.1c-0.1,0-0.1-0.1-0.1-0.2c-0.1-2.2-1-7.8-1-8.8c0-0.9,0.4-1.7,1.4-1.7
			c0.9,0,1.5,0.5,1.4,1.5c0,0.9-1,6.9-1.1,9c0,0.1,0,0.2-0.2,0.2L16.6,21.1L16.6,21.1z"/>
	</g>
</g>
<g id="Evacuate" display="none">
	<g display="inline">
		<g>
			<path d="M2.1,24.9c-1,2.1,0,3.7,2.3,3.7h21.2c2.3,0,3.3-1.7,2.3-3.7l-11-22.1c-1-2.1-2.7-2.1-3.7,0L2.1,24.9z"/>
		</g>
		<g>
			<path fill="#EC0A47" d="M25.6,30H4.5c-1.6,0-2.9-0.6-3.5-1.7c-0.7-1.1-0.7-2.5,0-3.9L12,2.3C12.7,0.8,13.8,0,15,0
				s2.3,0.8,3.1,2.3l11,22.1c0.7,1.4,0.7,2.8,0,3.9C28.5,29.4,27.2,30,25.6,30z M15,2.7c0,0-0.3,0.1-0.7,0.8l-11,22.1
				c-0.3,0.6-0.3,1.1-0.2,1.4c0.2,0.3,0.6,0.5,1.3,0.5h21.2c0.6,0,1.1-0.2,1.3-0.5c0.2-0.3,0.1-0.8-0.2-1.4l-11-22.1
				C15.4,2.8,15.1,2.7,15,2.7z"/>
		</g>
	</g>
	<g display="inline">
		<circle fill="#FFFFFF" cx="15.8" cy="13.8" r="1.1"/>
		<path fill="#FFFFFF" d="M19,17.5l-1.3-0.1l-1.8-1.8c-0.1-0.1-0.3-0.3-0.3-0.3c-0.5-0.2-1.2-0.1-1.2-0.1s-0.4,0-0.6,0h-2.1
			c-0.2,0-0.4,0.1-0.5,0.2l-1.7,2.3c-0.2,0.3-0.2,0.7,0.1,0.9c0.1,0.1,0.2,0.1,0.4,0.1c0.2,0,0.4-0.1,0.5-0.2l1.6-2.1h1.2
			c-0.1,0.2-0.2,0.3-0.4,0.5c-0.6,0.9-0.7,1.8-0.8,2.4c0,0.1,0,0.1,0,0.2l0,2.6H8.9c-0.3,0-0.6,0.3-0.6,0.6s0.3,0.6,0.6,0.6h3.7
			c0.3,0,0.6-0.3,0.6-0.6l0.2-2.3c0.1,0,0.1,0,0.2,0l2.6,4.7c0.1,0.2,0.3,0.3,0.5,0.3c0.1,0,0.2,0,0.3-0.1c0.3-0.2,0.4-0.5,0.2-0.8
			l-2.4-4.4c-0.1-0.4-0.1-0.7,0-1.1c0.1-0.6,0.5-1.3,0.8-2.1l1.5,1.4c0.1,0.1,0.2,0.2,0.4,0.2l1.5,0.1c0,0,0,0,0,0
			c0.3,0,0.6-0.2,0.6-0.6C19.6,17.8,19.3,17.5,19,17.5z"/>
	</g>
	<g display="inline">
		<g>
			<polygon fill="#FFFFFF" points="16.4,21.7 19.5,21.7 20,21.7 20,23.1 22.4,20.8 20,18.4 20,19.8 19.5,19.8 15.4,19.8 			"/>
		</g>
	</g>
</g>
<g id="Warning_Watch_and_Act" display="none">
	<g display="inline">
		<g>
			<path fill="#F57F2F" d="M2.2,24.9c-1,2.1,0,3.7,2.3,3.7h21.2c2.3,0,3.3-1.7,2.3-3.7L17,2.9c-1-2.1-2.7-2.1-3.7,0L2.2,24.9z"/>
		</g>
		<g>
			<path d="M25.7,30H4.5C3,30,1.7,29.4,1,28.3c-0.7-1.1-0.7-2.5,0-3.9l11-22.1C12.8,0.8,13.9,0,15.1,0s2.3,0.8,3.1,2.3l11,22.1
				c0.7,1.4,0.7,2.8,0,3.9C28.6,29.4,27.3,30,25.7,30z M15.1,2.7c0,0-0.3,0.1-0.7,0.8l-11,22.1c-0.3,0.6-0.3,1.1-0.2,1.4
				c0.2,0.3,0.6,0.5,1.3,0.5h21.2c0.6,0,1.1-0.2,1.3-0.5c0.2-0.3,0.1-0.8-0.2-1.4l-11-22.1C15.5,2.8,15.2,2.7,15.1,2.7z"/>
		</g>
	</g>
	<g display="inline">
		<path d="M13.7,23.6c0-0.5,0.4-1.3,1.5-1.3c0.8,0,1.4,0.6,1.4,1.4c0,0.8-0.5,1.3-1.4,1.3C14.5,25,13.7,24.6,13.7,23.6z M14.9,20.8
			c-0.1,0-0.1-0.1-0.1-0.2c-0.1-2.1-0.9-7.5-0.9-8.4s0.4-1.6,1.3-1.6c0.9,0,1.4,0.5,1.4,1.5c0,0.9-1,6.6-1.1,8.6
			c0,0.1,0,0.2-0.2,0.2L14.9,20.8L14.9,20.8z"/>
	</g>
</g>
</svg>
