<?xml version="1.0" encoding="utf-8"?>
<!-- Generator: Adobe Illustrator 19.1.0, SVG Export Plug-In . SVG Version: 6.00 Build 0)  -->
<!DOCTYPE svg PUBLIC "-//W3C//DTD SVG 1.1//EN" "http://www.w3.org/Graphics/SVG/1.1/DTD/svg11.dtd">
<svg version="1.1" xmlns="http://www.w3.org/2000/svg" xmlns:xlink="http://www.w3.org/1999/xlink" x="0px" y="0px"
	 viewBox="0 0 30 30" enable-background="new 0 0 30 30" xml:space="preserve">
<g id="cluster" display="none">
	<g display="inline">
		<title>Cluster Indicator</title>
		<circle fill="#0099FF" stroke="#FFFFFF" cx="8.1" cy="8.1" r="7"/>
		<line fill="none" stroke="#FFFFFF" stroke-width="2" x1="8.1" y1="3.1" x2="8.1" y2="13.1"/>
		<line fill="none" stroke="#FFFFFF" stroke-width="2" x1="3.1" y1="8.1" x2="13.1" y2="8.1"/>
	</g>
</g>
<g id="burn" display="none">
	<g id="Layer_2_1_" display="inline">
		<path fill="#989898" stroke="#676767" stroke-miterlimit="10" d="M17.8,14.8c1.6,0,2-0.9,2-1.8s0.8-3.7,0.8-5.5s0.8-4.2,2-4.2
			c1.3,0,1.7,2,1.7,4.2s-1.3,4.3,0,5.5c1.3,1.3,2,0.5,3.4,1.8s2,4.7,1.3,5.5c-0.8,0.9-2,4.8-3.9,4.8c-1.7,0-3-0.2-4-1.3
			c-1-1-3.4-2-3.4-1.4c0,0.8-0.2,1.7,0.8,2.6c1,0.9,1.4,2.8,0,2.8c-1.4,0-0.5-0.5-1.6-1.6c-1.1-1.1-0.9-2.3-3.1-2.9
			c-2.3-0.8-3.3-4.2-5.4-4.2s-4.9,0.2-4.9-1.1s0-2.6-0.9-3.4c-0.9-0.8-2.4-2.6-1.6-3.4c0.9-0.9,1.6-0.9,1.6-2.3s0.1-4.5,1.1-4.5
			S5.6,8.8,6.6,10c1.2,1.2,5.7-0.9,6.8,0.2s2.9,1.3,2.9,2.4C16.2,13.6,17.8,14.8,17.8,14.8z"/>
	</g>
</g>
<g id="road_closed" display="none">
	<g id="Layer_40" display="inline">
		<g>
			<circle fill="#FFFFFF" cx="15" cy="15" r="14.1"/>
			<path d="M18.9,1.9h-7.9L4.8,25.8L15,30l10.2-4.1L18.9,1.9z M15.9,2.8L16,4.7H14l0.1-1.9H15.9z M13.6,11.3l0.3-4.7h2.3l0.3,4.7
				H13.6z M16.5,13.1l0.5,8.4H13l0.5-8.4H16.5z M12.7,28.1l0.2-3.7h4.2l0.2,3.7H12.7z"/>
			<path fill="#ED2F22" d="M15,0C6.8,0,0,6.8,0,15s6.7,15,15,15s15-6.7,15-15S23.2,0,15,0z M1.9,15C1.9,7.8,7.8,1.9,15,1.9
				c3.6,0,6.7,1.4,9.1,3.7L5.5,24.1C3.3,21.7,1.9,18.6,1.9,15z M15,28.1c-3,0-5.8-1-8.1-2.8L25.3,6.9c1.8,2.2,2.8,5.1,2.8,8.1
				C28.1,22.2,22.2,28.1,15,28.1z"/>
		</g>
	</g>
	<g id="Layer_61" display="inline">
	</g>
</g>
<g id="airport_closure" display="none">
	<g id="Layer_43" display="inline">
		<g>
			<circle fill="#FFFFFF" cx="15" cy="15" r="14.1"/>
			<g>
				<g id="flights_1_">
					<path d="M17.5,13.9"/>
					<path d="M23.4,15c0-0.7-0.6-0.9-1.3-0.9h-4.6l-4.2-7.5h-1.7l2.1,7.5H9l-1.2-1.9H6.6L7.8,15l-1.2,2.8h1.2L9,15.9h4.7l-2.1,7.5
						h1.7l4.2-7.5h4.6C22.9,15.9,23.4,15.7,23.4,15z"/>
				</g>
			</g>
			<path fill="#ED2F22" d="M15,0C6.8,0,0,6.8,0,15s6.7,15,15,15s15-6.7,15-15S23.2,0,15,0z M1.9,15C1.9,7.8,7.8,1.9,15,1.9
				c3.6,0,6.7,1.4,9.1,3.7L5.5,24.1C3.3,21.7,1.9,18.6,1.9,15z M15,28.1c-3,0-5.8-1-8.1-2.8L25.3,6.9c1.8,2.2,2.8,5.1,2.8,8.1
				C28.1,22.2,22.2,28.1,15,28.1z"/>
		</g>
	</g>
	<g id="Layer_61_1_" display="inline">
	</g>
</g>
<g id="other_closed" display="none">
	<g id="Layer_46" display="inline">
		<g>
			<circle fill="#FFFFFF" cx="15" cy="15" r="14.1"/>
			<path fill="#ED2F22" d="M15,0C6.8,0,0,6.8,0,15s6.7,15,15,15s15-6.7,15-15S23.2,0,15,0z M1.9,15C1.9,7.8,7.8,1.9,15,1.9
				c3.6,0,6.7,1.4,9.1,3.7L5.5,24.1C3.3,21.7,1.9,18.6,1.9,15z M15,28.1c-3,0-5.8-1-8.1-2.8L25.3,6.9c1.8,2.2,2.8,5.1,2.8,8.1
				C28.1,22.2,22.2,28.1,15,28.1z"/>
		</g>
	</g>
	<g id="Layer_61_2_" display="inline">
	</g>
</g>
<g id="park_closed" display="none">
	<g id="Layer_45" display="inline">
		<g>
			<circle fill="#FFFFFF" cx="15" cy="15" r="14.1"/>
			<path d="M16.1,25.4v-3.5v-3.5l1.5-0.7c0.6,0.4,1.2,0.7,2,0.7c2,0,3.5-1.6,3.5-3.5c0-1.4-0.8-2.7-2.2-3.2c0.3-0.5,0.4-0.9,0.4-1.4
				c0-1.6-1.3-2.9-2.9-2.9c-0.6,0-1,0.2-1.4,0.4c-0.5-1.4-1.8-2.2-3.2-2.2c-1.8,0-3.2,1.3-3.5,3C8,9.2,6.2,11.3,6.2,13.8
				c0,2.9,2.3,5.2,5.2,5.2c0.8,0,1.6-0.2,2.3-0.6v6.9C13.8,25.4,16.1,25.4,16.1,25.4z"/>
			<path fill="#ED2F22" d="M15,0C6.8,0,0,6.8,0,15s6.7,15,15,15s15-6.7,15-15S23.2,0,15,0z M1.9,15C1.9,7.8,7.8,1.9,15,1.9
				c3.6,0,6.7,1.4,9.1,3.7L5.5,24.1C3.3,21.7,1.9,18.6,1.9,15z M15,28.1c-3,0-5.8-1-8.1-2.8L25.3,6.9c1.8,2.2,2.8,5.1,2.8,8.1
				C28.1,22.2,22.2,28.1,15,28.1z"/>
		</g>
	</g>
	<g id="Layer_61_3_" display="inline">
	</g>
</g>
<g id="port_closure" display="none">
	<g id="Layer_42" display="inline">
		<g>
			<circle fill="#FFFFFF" cx="15" cy="15" r="14.1"/>
			<g>
				<polygon points="21.6,15.9 21.6,14.1 19.7,14.1 19.7,10.3 16.9,10.8 16.9,14.1 15.9,14.1 15.9,10.3 14.1,10.8 14.1,14.1 
					13.1,14.1 13.1,10.3 10.3,10.8 10.3,14.1 8.4,14.1 8.4,15.9 3.8,15.9 7.5,20.6 22.6,20.6 26.2,15.9 				"/>
			</g>
			<path fill="#ED2F22" d="M15,0C6.8,0,0,6.8,0,15s6.8,15,15,15s15-6.8,15-15S23.2,0,15,0z M1.9,15C1.9,7.8,7.8,1.9,15,1.9
				c3.6,0,6.8,1.4,9.1,3.7L5.5,24.1C3.3,21.8,1.9,18.6,1.9,15z M15,28.1c-3,0-5.8-1-8.1-2.8L25.3,6.9c1.8,2.2,2.8,5.1,2.8,8.1
				C28.1,22.2,22.2,28.1,15,28.1z"/>
		</g>
	</g>
	<g id="Layer_61_4_" display="inline">
	</g>
</g>
<g id="rail_disruptions" display="none">
	<g id="Layer_44" display="inline">
		<g>
			<circle fill="#FFFFFF" cx="15" cy="15" r="14.1"/>
			<g>
				<g>
					<circle cx="8.4" cy="18.8" r="1.9"/>
					<circle cx="13.1" cy="18.8" r="1.9"/>
					<circle cx="17.8" cy="18.8" r="1.9"/>
					<polygon points="25.3,20.6 20.6,20.6 20.6,15.9 5.6,15.9 5.6,13.1 4.7,13.1 4.7,11.2 6.6,11.2 9.9,11.2 9.9,11.2 11.9,11.2 
						12.6,13.1 13.9,13.1 13.9,11.2 15.9,11.2 15.9,13.1 16.9,13.1 16.9,9.4 19.7,9.4 19.7,13.1 23.4,13.1 23.4,16.1 					"/>
				</g>
			</g>
			<path fill="#ED2F22" d="M15,0C6.8,0,0,6.8,0,15s6.8,15,15,15s15-6.8,15-15S23.2,0,15,0z M1.9,15C1.9,7.8,7.8,1.9,15,1.9
				c3.6,0,6.8,1.4,9.1,3.7L5.5,24.1C3.3,21.8,1.9,18.6,1.9,15z M15,28.1c-3,0-5.8-1-8.1-2.8L25.3,6.9c1.8,2.2,2.8,5.1,2.8,8.1
				C28.1,22.2,22.2,28.1,15,28.1z"/>
		</g>
	</g>
	<g id="Layer_61_5_" display="inline">
	</g>
</g>
<g id="school_closure" display="none">
	<g id="Layer_41" display="inline">
		<circle fill="#FFFFFF" cx="15" cy="15" r="14.1"/>
		<g>
			<polygon points="18.7,16.1 14.2,17.9 8.4,15.6 8.4,17.9 14.2,20.6 18.7,18.7 			"/>
			<polygon points="21.6,12.9 23.4,12.2 14.1,9.4 4.7,12.2 14.1,15.9 19.7,13.7 19.7,18.7 18.7,18.7 18.7,23.4 22.5,23.4 22.5,18.7 
				21.6,18.7 			"/>
		</g>
		<path fill="#ED2F22" d="M15,0C6.8,0,0,6.8,0,15s6.7,15,15,15s15-6.7,15-15S23.2,0,15,0z M1.9,15C1.9,7.8,7.8,1.9,15,1.9
			c3.6,0,6.7,1.4,9.1,3.7L5.5,24.1C3.3,21.7,1.9,18.6,1.9,15z M15,28.1c-3,0-5.8-1-8.1-2.8L25.3,6.9c1.8,2.2,2.8,5.1,2.8,8.1
			C28.1,22.2,22.2,28.1,15,28.1z"/>
	</g>
	<g id="Layer_61_6_" display="inline">
	</g>
</g>
<g id="total_fire_ban" display="none">
	<polygon display="inline" fill="#FFFFFF" points="15.8,-0.3 0.3,15.2 15.9,30.6 31.4,15.1 	"/>
	<g id="Layer_46_1_" display="inline">
		<g transform="scale(3)">
			<circle fill="#FFFFFF" cx="5" cy="5" r="5"/>
			<path fill="#ED2F22" d="M5,0C2.3,0,0,2.3,0,5s2.2,5,5,5s5-2.2,5-5S7.7,0,5,0z M0.7,5c0-2.4,2-4.4,4.4-4.4c1.2,0,2.2,0.5,3,1.2
				L1.9,8C1.1,7.2,0.7,6.2,0.7,5z M5,9.3C4,9.3,3.1,9,2.3,8.4l6.1-6.1C9,3.1,9.4,4,9.4,5C9.4,7.4,7.4,9.3,5,9.3z"/>
		</g>
	</g>
	<path display="inline" d="M14.4,20.7c0,0-4.2-2.4-4.2-5.6S13.8,11,14.4,9C15,7,15,7,15,7s2.1,1.5,2,3.7c-0.1,1.9-0.7,2.9-0.7,2.9
		s1.8,0.5,2.3-2.9c0,0,3.6,2.9,2.2,6.2c-1.4,3.3-3.6,3.7-3.6,3.7c0.3-3.3-1.6-3.2-0.6-4.7c0,0-1-0.3-1.7,0.7
		C14.2,17.7,14,18.4,14.4,20.7z"/>
</g>
<g id="track_closed" display="none">
	<g id="Layer_40_1_" display="inline">
		<g>
			<circle fill="#FFFFFF" cx="15" cy="15" r="14.1"/>
			<path d="M18.9,1.9h-7.9L4.8,25.8L15,30l10.2-4.1L18.9,1.9z M15.9,2.8L16,4.7H14l0.1-1.9H15.9z M13.6,11.2l0.3-4.7h2.3l0.3,4.7
				H13.6z M16.5,13.1l0.5,8.4H13l0.5-8.4H16.5z M12.7,28.1l0.2-3.8h4.2l0.2,3.8H12.7z"/>
			<path fill="#ED2F22" d="M15,0C6.8,0,0,6.8,0,15s6.8,15,15,15s15-6.8,15-15S23.2,0,15,0z M1.9,15C1.9,7.8,7.8,1.9,15,1.9
				c3.6,0,6.8,1.4,9.1,3.7L5.5,24.1C3.3,21.8,1.9,18.6,1.9,15z M15,28.1c-3,0-5.8-1-8.1-2.8L25.3,6.9c1.8,2.2,2.8,5.1,2.8,8.1
				C28.1,22.2,22.2,28.1,15,28.1z"/>
		</g>
	</g>
	<g id="Layer_61_7_" display="inline">
	</g>
</g>
<g id="Neighbourhood_Safer_Place">
	<g id="Layer_35">
		<g>
			
				<circle fill="#007500" stroke="#FFFFFF" stroke-width="2" stroke-linejoin="round" stroke-miterlimit="10" cx="15" cy="15" r="13.8"/>
			<g>
				<g>
					<circle fill="#FFFFFF" cx="10" cy="12.2" r="1.8"/>
					<path fill="#FFFFFF" d="M11.2,17.8c0-0.7,0.2-1.4,1.1-1.6v-0.3c0-0.4-0.3-0.8-0.6-0.8H8.3c-0.4,0-0.6,0.5-0.6,0.8v4
						c0,0.4,0.3,0.6,0.6,0.6h0.2h2.8C11.2,20.5,11.2,17.7,11.2,17.8z"/>
					<circle fill="#FFFFFF" cx="19.9" cy="12.2" r="1.8"/>
					<path fill="#FFFFFF" d="M21.4,20.5h0.2c0.4,0,0.7-0.7,0.7-1.1v-3.6c0-0.4-0.4-0.8-0.7-0.8h-3.2c-0.4,0-0.6,0.5-0.6,0.8v0.3
						c0.9,0.3,0.9,0.9,0.9,1.6v2.8C18.7,20.5,21.4,20.5,21.4,20.5z"/>
					<path fill="#FFFFFF" d="M16.6,23.2h0.3c0.4,0,0.8-0.5,0.8-0.8v-3.5v-1.2l0,0c0-0.4-0.5-0.9-0.8-0.9H13c-0.4,0-0.7,0.5-0.7,0.9
						l0,0v1.2v3.5c0,0.4,0.4,0.8,0.7,0.8h0.3C13.3,23.2,16.6,23.2,16.6,23.2z"/>
					<circle fill="#FFFFFF" cx="15" cy="14" r="1.8"/>
				</g>
				<circle fill="#FFFFFF" cx="15" cy="9.5" r="1.8"/>
			</g>
		</g>
	</g>
	<g id="Layer_61_8_">
	</g>
</g>
</svg>
