<?xml version="1.0" encoding="utf-8"?>
<!-- Generator: Adobe Illustrator 19.1.0, SVG Export Plug-In . SVG Version: 6.00 Build 0)  -->
<!DOCTYPE svg PUBLIC "-//W3C//DTD SVG 1.1//EN" "http://www.w3.org/Graphics/SVG/1.1/DTD/svg11.dtd">
<svg version="1.1" id="Layer_1" xmlns="http://www.w3.org/2000/svg" xmlns:xlink="http://www.w3.org/1999/xlink" x="0px" y="0px"
	 viewBox="0 0 30 30" enable-background="new 0 0 30 30" xml:space="preserve">
<g id="Layer_39">
	<g>
		<g>
			<g>
				<circle fill="#FFFFFF" cx="15" cy="15" r="14.1"/>
				<path d="M15,30C6.8,30,0,23.2,0,15S6.8,0,15,0s15,6.8,15,15S23.2,30,15,30z M15,1.9C7.8,1.9,1.9,7.8,1.9,15S7.8,28.1,15,28.1
					S28.1,22.2,28.1,15S22.2,1.9,15,1.9z"/>
			</g>
		</g>
		<path d="M20.6,11.2h-5.2L18.6,8l-0.5-0.5l-3.2,3.3l-3.3-3.3L11.2,8l3.1,3.3H9.5c-0.6,0-1,0.5-1,1v8.3c0,0.6,0.5,1,1,1h11.2
			c0.6,0,0.9-0.5,0.9-1v-8.3C21.6,11.7,21.1,11.2,20.6,11.2z M19.7,19.7h-9.4v-6.6h9.4V19.7z"/>
	</g>
</g>
<g id="Layer_61">
</g>
</svg>
