<?xml version="1.0" encoding="UTF-8" standalone="no"?>
<!-- Generator: Adobe Illustrator 17.0.0, SVG Export Plug-In . SVG Version: 6.00 Build 0)  -->

<svg
   xmlns:dc="http://purl.org/dc/elements/1.1/"
   xmlns:cc="http://creativecommons.org/ns#"
   xmlns:rdf="http://www.w3.org/1999/02/22-rdf-syntax-ns#"
   xmlns:svg="http://www.w3.org/2000/svg"
   xmlns="http://www.w3.org/2000/svg"
   xmlns:sodipodi="http://sodipodi.sourceforge.net/DTD/sodipodi-0.dtd"
   xmlns:inkscape="http://www.inkscape.org/namespaces/inkscape"
   version="1.1"
   id="Layer_2"
   x="0px"
   y="0px"
   width="30"
   height="30"
   viewBox="0 0 93.75 93.75"
   overflow="scroll"
   xml:space="preserve"
   inkscape:version="0.91 r13725"
   sodipodi:docname="Cyclone.svg"
   style="overflow:scroll"><metadata
     id="metadata21"><rdf:RDF><cc:Work
         rdf:about=""><dc:format>image/svg+xml</dc:format><dc:type
           rdf:resource="http://purl.org/dc/dcmitype/StillImage" /><dc:title></dc:title></cc:Work></rdf:RDF></metadata><defs
     id="defs19" /><sodipodi:namedview
     pagecolor="#ffffff"
     bordercolor="#666666"
     borderopacity="1"
     objecttolerance="10"
     gridtolerance="10"
     guidetolerance="10"
     inkscape:pageopacity="0"
     inkscape:pageshadow="2"
     inkscape:window-width="684"
     inkscape:window-height="480"
     id="namedview17"
     showgrid="false"
     fit-margin-top="0"
     fit-margin-left="0"
     fit-margin-right="0"
     fit-margin-bottom="0"
     inkscape:zoom="7.375"
     inkscape:cx="18.885858"
     inkscape:cy="15.96768"
     inkscape:window-x="0"
     inkscape:window-y="0"
     inkscape:window-maximized="0"
     inkscape:current-layer="Layer_2" /><polygon
     points="95.5,49 49.5,96.75 2.5,51 50,4.75 "
     id="polygon3"
     transform="matrix(0.96033808,0,0,0.97998806,-0.62830283,-4.2128396)"
     style="fill:#ffffff" /><g
     id="g5"
     transform="matrix(0.94345558,0,0,0.94352917,0.11321467,-0.50761869)"><g
       id="g7"><path
         d="m 49.56,99.899 c -4.512,0 -8.746,-1.746 -11.921,-4.922 L 4.803,62.14 C 1.627,58.966 -0.12,54.731 -0.12,50.219 c 0,-4.512 1.748,-8.746 4.923,-11.921 L 37.639,5.461 c 3.174,-3.176 7.409,-4.923 11.921,-4.923 4.512,0 8.746,1.749 11.92,4.923 l 32.839,32.837 c 6.573,6.573 6.573,17.268 0,23.842 L 61.48,94.977 c -3.173,3.176 -7.408,4.922 -11.92,4.922 z m 0,-90.619 c -2.178,0 -4.216,0.839 -5.74,2.362 L 10.983,44.478 c -1.523,1.524 -2.362,3.562 -2.362,5.74 0,2.178 0.839,4.216 2.362,5.74 L 43.82,88.797 c 3.046,3.044 8.431,3.044 11.479,0 L 88.138,55.959 c 3.163,-3.165 3.163,-8.316 0,-11.481 L 55.299,11.642 C 53.775,10.119 51.737,9.28 49.56,9.28 Z"
         id="path9"
         inkscape:connector-curvature="0" /></g></g><path
     d="m 34.584968,47.260748 c 0,0 -5.291165,26.555525 20.001659,28.811712 C 44.97907,73.45884 44.593006,68.201961 47.04876,60.884175 47.258612,60.259103 34.584968,47.260748 34.584968,47.260748 Z"
     id="path11"
     inkscape:connector-curvature="0" /><path
     d="m 60.856489,47.554917 c 0,0 6.151766,-27.603619 -18.803405,-30.825712 9.425095,2.995271 9.643158,8.307109 6.98675,15.590005 -0.227579,0.62244 11.816655,15.235707 11.816655,15.235707 z"
     id="path13"
     inkscape:connector-curvature="0" /><path
     d="m 47.165383,31.178761 c 8.59184,-0.803983 16.208334,5.508385 17.012336,14.100023 C 64.98172,53.870421 58.669204,61.486735 50.077365,62.290719 41.486404,63.094702 33.86991,56.782334 33.065908,48.190697 32.261027,39.599059 38.573542,31.982745 47.165383,31.178761 Z m 1.896215,20.258622 c 2.697582,-0.252178 4.679029,-2.643918 4.426845,-5.340557 -0.252185,-2.697518 -2.643981,-4.678919 -5.340684,-4.426741 -2.697581,0.252178 -4.67903,2.643918 -4.426845,5.340557 0.252184,2.697518 2.643102,4.67892 5.340684,4.426741 z"
     id="path15"
     inkscape:connector-curvature="0" /></svg>