<?xml version="1.0" encoding="utf-8"?>
<!-- Generator: Adobe Illustrator 19.1.0, SVG Export Plug-In . SVG Version: 6.00 Build 0)  -->
<!DOCTYPE svg PUBLIC "-//W3C//DTD SVG 1.1//EN" "http://www.w3.org/Graphics/SVG/1.1/DTD/svg11.dtd">
<svg version="1.1" id="Layer_1" xmlns="http://www.w3.org/2000/svg" xmlns:xlink="http://www.w3.org/1999/xlink" x="0px" y="0px"
	 viewBox="0 0 30 30" enable-background="new 0 0 30 30" xml:space="preserve">
<g>
	<circle fill="#FFFFFF" cx="15.1" cy="15.2" r="1.7"/>
	<path fill="#FFFFFF" d="M16.7,3.4C16.3,3,15.7,2.7,15,2.7c-0.7,0-1.3,0.3-1.7,0.7l-9.9,9.9c-0.5,0.5-0.7,1.1-0.7,1.7
		s0.3,1.3,0.7,1.7l9.9,9.9c0.9,0.9,2.5,0.9,3.5,0l9.9-9.9c1-1,1-2.5,0-3.5L16.7,3.4z M13.3,23.1c2.3-0.4,3.1-1.3,3.1-2.6
		c-0.4,0.1-0.8,0.1-1.2,0.1c-2.9,0-5.2-2.2-5.4-5.1c-0.1-0.9-0.6-8.2,7-8.3c-2.4,0.4-3.1,1.4-3,2.8c0.4-0.1,0.9-0.2,1.3-0.2
		c3,0,5.4,2.4,5.4,5.4c0,0.1,0,0.1,0,0.2C20.6,16.7,20.6,23.1,13.3,23.1z"/>
	<path d="M28.5,11.5l-9.9-9.9c-1-1-2.2-1.5-3.6-1.5s-2.6,0.5-3.6,1.5l-9.9,9.9c-1,1-1.5,2.2-1.5,3.6s0.5,2.6,1.5,3.6l9.9,9.9
		c1,1,2.2,1.5,3.6,1.5s2.6-0.5,3.6-1.5l9.9-9.9C30.5,16.7,30.5,13.5,28.5,11.5z M26.6,16.8l-9.9,9.9c-0.9,0.9-2.5,0.9-3.5,0
		l-9.9-9.9c-0.5-0.5-0.7-1.1-0.7-1.7s0.3-1.3,0.7-1.7l9.9-9.9C13.7,3,14.3,2.7,15,2.7c0.7,0,1.3,0.3,1.7,0.7l9.9,9.9
		C27.6,14.3,27.6,15.8,26.6,16.8z"/>
	<path d="M20.5,15.2c0-3-2.4-5.4-5.4-5.4c-0.5,0-0.9,0.1-1.3,0.2c-0.1-1.4,0.7-2.4,3-2.8c-7.7,0.1-7.1,7.3-7,8.3
		c0.2,2.8,2.5,5.1,5.4,5.1c0.4,0,0.8-0.1,1.2-0.1c0,1.3-0.8,2.3-3.1,2.6c7.4,0.1,7.3-6.4,7.2-7.7C20.5,15.3,20.5,15.3,20.5,15.2z
		 M15.1,16.8c-0.9,0-1.7-0.8-1.7-1.7c0-0.9,0.8-1.7,1.7-1.7s1.7,0.8,1.7,1.7C16.8,16.1,16.1,16.8,15.1,16.8z"/>
</g>
</svg>
