<?xml version="1.0" encoding="utf-8"?>
<!-- Generator: Adobe Illustrator 19.1.0, SVG Export Plug-In . SVG Version: 6.00 Build 0)  -->
<!DOCTYPE svg PUBLIC "-//W3C//DTD SVG 1.1//EN" "http://www.w3.org/Graphics/SVG/1.1/DTD/svg11.dtd">
<svg version="1.1" id="Layer_1" xmlns="http://www.w3.org/2000/svg" xmlns:xlink="http://www.w3.org/1999/xlink" x="0px" y="0px"
	 viewBox="0 0 30 30" enable-background="new 0 0 30 30" xml:space="preserve">
<g>
	<polygon fill="#FFFFFF" points="15.1,1.3 28.9,14.6 15,29 0.8,15.2 	"/>
	<g>
		<g>
			<path d="M15,30c-1.4,0-2.6-0.5-3.6-1.5l-9.9-9.9c-1-1-1.5-2.2-1.5-3.6s0.5-2.6,1.5-3.6l9.9-9.9c1-1,2.2-1.5,3.6-1.5
				s2.6,0.5,3.6,1.5l9.9,9.9c2,2,2,5.2,0,7.2l-9.9,9.9C17.6,29.5,16.4,30,15,30z M15,2.6c-0.7,0-1.3,0.3-1.7,0.7l-9.9,9.9
				c-0.5,0.5-0.7,1.1-0.7,1.7c0,0.7,0.3,1.3,0.7,1.7l9.9,9.9c0.9,0.9,2.5,0.9,3.5,0l9.9-9.9c1-1,1-2.5,0-3.5l-9.9-9.9
				C16.3,2.9,15.7,2.6,15,2.6z"/>
		</g>
	</g>
	<path d="M17.5,21.3c-1.1,0-2.2-0.7-2.5-1.6c-0.2-0.4-0.4-1.2,0.2-2.2h-8V16h10.2c0.2,0,1.4,0,2.2,0.7c0.3,0.3,0.7,0.9,0.7,1.8
		C20.3,20.2,19.3,21.2,17.5,21.3C17.6,21.3,17.5,21.3,17.5,21.3z M17,17.4L17,17.4c-0.4,0.4-1,1-0.7,1.7c0.2,0.4,0.7,0.8,1.3,0.8
		c0.9,0,1.3-0.4,1.3-1.3c0-0.3-0.1-0.6-0.3-0.8c-0.3-0.3-0.9-0.3-1.1-0.3l0,0H17z"/>
	<path d="M20.6,19.2l-0.1-1.4c1.3-0.1,1.3-1.1,1.3-1.3c0-0.3-0.1-0.5-0.3-0.6c-0.6-0.5-1.8-0.5-2.1-0.5l-0.1,0H7.2v-1.4h12.2
		c0.3,0,2.1-0.1,3.1,0.8c0.5,0.4,0.8,1,0.8,1.6C23.4,18.3,21.8,19.1,20.6,19.2z"/>
	<path d="M17.7,13.2C17.6,13.2,17.6,13.2,17.7,13.2l-10.5,0v-1.4l10.5,0l0,0c0,0,0.6,0,1-0.4c0.2-0.2,0.3-0.5,0.3-0.9
		c0-0.6-0.2-0.9-0.6-1.1c-0.5-0.2-1.1-0.1-1.3,0.1c-0.8,0.7-0.8,1.7-0.8,1.7l-1.4,0c0-0.1,0-1.7,1.3-2.8c0.7-0.6,1.9-0.7,2.9-0.3
		c0.9,0.4,1.5,1.3,1.5,2.4c0,1-0.4,1.6-0.8,2C18.9,13.1,18,13.2,17.7,13.2z"/>
</g>
</svg>
