<?xml version="1.0" encoding="utf-8"?>
<!-- Generator: Adobe Illustrator 19.1.0, SVG Export Plug-In . SVG Version: 6.00 Build 0)  -->
<!DOCTYPE svg PUBLIC "-//W3C//DTD SVG 1.1//EN" "http://www.w3.org/Graphics/SVG/1.1/DTD/svg11.dtd">
<svg version="1.1" id="Layer_1" xmlns="http://www.w3.org/2000/svg" xmlns:xlink="http://www.w3.org/1999/xlink" x="0px" y="0px"
	 viewBox="0 0 30 30" enable-background="new 0 0 30 30" xml:space="preserve">
<g id="Layer_54">
	<path fill="#231F20" d="M15,9.4"/>
	<g>
		<g>
			<path fill="#FFFFFF" d="M15,1.9C7.8,1.9,1.9,7.8,1.9,15S7.8,28.1,15,28.1S28.1,22.2,28.1,15S22.2,1.9,15,1.9z"/>
			<path d="M15,0C6.8,0,0,6.8,0,15s6.8,15,15,15s15-6.8,15-15S23.2,0,15,0z M15,28.1C7.8,28.1,1.9,22.2,1.9,15S7.8,1.9,15,1.9
				S28.1,7.8,28.1,15S22.2,28.1,15,28.1z"/>
		</g>
		<g>
			<path fill="#231F20" d="M16.8,13.6c0.7,0.5,1.4,1.1,1.7,2.1l5.8-4.1c-1.1-1.8-2.8-3.1-4.7-4L16.8,13.6z"/>
			<path fill="#231F20" d="M26.2,17.8c0-2-0.5-3.8-1.4-5.4l-6.1,4.3c0,0.1,0,0.2,0,0.2c0,0.3-0.1,0.7-0.1,0.9H26.2z"/>
			<path fill="#231F20" d="M11.4,15.7c0.3-0.9,0.9-1.7,1.8-2.2l-2.8-6c-2,0.9-3.6,2.3-4.8,4.1L11.4,15.7z"/>
			<path fill="#231F20" d="M14.2,13.2c0.3-0.1,0.6-0.1,0.8-0.1c0.4,0,0.7,0.1,0.9,0.1l2.8-6c-1.1-0.4-2.4-0.7-3.8-0.7
				s-2.5,0.2-3.7,0.7L14.2,13.2z"/>
			<path fill="#231F20" d="M11.2,16.9c0-0.1,0-0.1,0-0.2l-6.1-4.3c-0.9,1.6-1.4,3.5-1.4,5.4h7.6C11.3,17.5,11.2,17.2,11.2,16.9z"/>
		</g>
		<path d="M15.7,22.7c-0.4-0.6-0.2-1.6-0.3-1.6c-2.3,0.4-1.6,3.1-1.6,3.1c-4.4-2.9-0.9-5.7-0.1-6.6c0.8-0.8,0.9-2.7,0.9-2.7
			c1.8,1.3,0.9,4.3,1,4.2c0.9,0,1.3-1.3,1.3-1.3c3.5,4.8-0.9,6.5-0.9,6.5C16.2,23.2,16.1,23.2,15.7,22.7z"/>
	</g>
</g>
<g id="Layer_61">
</g>
</svg>
