<?xml version="1.0" encoding="utf-8"?>
<!-- Generator: Adobe Illustrator 19.1.0, SVG Export Plug-In . SVG Version: 6.00 Build 0)  -->
<!DOCTYPE svg PUBLIC "-//W3C//DTD SVG 1.1//EN" "http://www.w3.org/Graphics/SVG/1.1/DTD/svg11.dtd">
<svg version="1.1" id="Layer_1" xmlns="http://www.w3.org/2000/svg" xmlns:xlink="http://www.w3.org/1999/xlink" x="0px" y="0px"
	 viewBox="0 0 30 30" enable-background="new 0 0 30 30" xml:space="preserve">
<g>
	<polygon fill="#FFFFFF" points="15,1.3 28.7,14.7 14.8,29.1 0.6,15.3 	"/>
	<rect x="8.9" y="14.5" width="12.3" height="5.7"/>
	<polygon points="6,14.9 14.9,7.4 23.7,14.9 	"/>
	<rect x="9.2" y="8.7" width="2" height="3.9"/>
	<rect x="13.3" y="15.2" fill="#FFFFFF" width="3.4" height="3.7"/>
	<polygon points="6.9,21.9 14.6,28.9 22.6,22.2 20.7,20.4 12.8,20.3 5.3,21.3 	"/>
	<path d="M11.5,21.9c-0.3,0-0.7-0.1-1-0.2l-2.6-1.2l-2.5,0.8L4.7,19l2.5-0.9C7.7,18,8.4,18,8.9,18.2l2.6,1.2l2.8-1
		c0.5-0.2,1.1-0.2,1.6,0l2.8,1c0,0,0,0,0.1,0l2.4-0.9c0.5-0.2,1.1-0.2,1.6-0.1l2.5,0.7l-0.7,2.3l-2.5-0.7c0,0-0.1,0-0.1,0l-2.4,0.9
		c-0.5,0.2-1.1,0.2-1.6,0l-2.8-1c0,0,0,0-0.1,0l-2.8,1C12,21.8,11.8,21.9,11.5,21.9z"/>
	<path fill="#FFFFFF" d="M11.6,23.4c-0.3,0-0.7-0.1-1-0.2l-2.2-1l-2.1,0.7l-0.8-2.3l2.2-0.7c0.5-0.2,1.2-0.1,1.7,0.1l2.2,1l2.3-0.9
		c0.5-0.2,1.1-0.2,1.6,0l2.4,0.8c0,0,0,0,0.1,0l2-0.7c0.5-0.2,1.1-0.2,1.6-0.1l2.2,0.6l-0.7,2.3l-2.1-0.6c0,0-0.1,0-0.1,0l-2,0.8
		c-0.5,0.2-1.1,0.2-1.6,0l-2.4-0.8c0,0,0,0-0.1,0l-2.4,0.9C12.1,23.4,11.9,23.4,11.6,23.4z"/>
	<g>
		<g>
			<path d="M15,30c-1.4,0-2.6-0.5-3.6-1.5l-9.9-9.9c-1-1-1.5-2.2-1.5-3.6s0.5-2.6,1.5-3.6l9.9-9.9c1-1,2.2-1.5,3.6-1.5
				s2.6,0.5,3.6,1.5l9.9,9.9c2,2,2,5.2,0,7.2l-9.9,9.9C17.6,29.5,16.4,30,15,30z M15,2.6c-0.7,0-1.3,0.3-1.7,0.7l-9.9,9.9
				c-0.5,0.5-0.7,1.1-0.7,1.7s0.3,1.3,0.7,1.7l9.9,9.9c0.9,0.9,2.5,0.9,3.5,0l9.9-9.9c1-1,1-2.5,0-3.5l-9.9-9.9
				C16.3,2.9,15.7,2.6,15,2.6z"/>
		</g>
	</g>
</g>
</svg>
