<?xml version="1.0" encoding="utf-8"?>
<!-- Generator: Adobe Illustrator 19.1.0, SVG Export Plug-In . SVG Version: 6.00 Build 0)  -->
<!DOCTYPE svg PUBLIC "-//W3C//DTD SVG 1.1//EN" "http://www.w3.org/Graphics/SVG/1.1/DTD/svg11.dtd">
<svg version="1.1" id="Layer_1" xmlns="http://www.w3.org/2000/svg" xmlns:xlink="http://www.w3.org/1999/xlink" x="0px" y="0px"
	 viewBox="0 0 30 30" enable-background="new 0 0 30 30" xml:space="preserve">
<g id="Layer_53">
	<g>
		<path fill="#FFFFFF" d="M28.1,15c0-7.2-5.9-13.1-13.1-13.1S1.9,7.8,1.9,15"/>
		<path d="M15,0C6.8,0,0,6.8,0,15s6.8,15,15,15s15-6.8,15-15S23.2,0,15,0z M15,1.9c7.2,0,13.1,5.9,13.1,13.1c0,2.1-0.5,4-1.3,5.7
			c-0.7-0.1-1.2-0.3-1.5-0.6c-0.5-0.4-1.2-0.9-2.5-0.9c-1.4,0-2.1,0.5-2.5,0.9c-0.4,0.3-0.7,0.6-1.4,0.6v-3.8V15v-1.9v-1.9V9.4V7.5
			V5.6h-7.5l0,0v0.9v14.1c-0.2,0.1-0.5,0.1-0.9,0.1c-0.9,0-1.2-0.3-1.7-0.7c-0.5-0.4-1-0.9-2.4-0.9s-1.7,0.5-2.2,0.9
			c-0.3,0.2-0.7,0.4-1,0.5c-0.7-1.6-1.2-3.5-1.2-5.5C1.9,7.8,7.8,1.9,15,1.9z M17.8,9.4v1.9H15v1.9h2.8V15H15v1.9h2.8v3.8
			c-0.5-0.1-0.7-0.3-0.9-0.6c-0.5-0.4-1-0.9-2.4-0.9c-1.2,0-1.8,0.4-2.2,0.8V6.6h5.6v0.9H15v1.9H17.8z M24.8,23.6
			c-0.5-0.3-1.1-0.7-2.2-0.7c-1.4,0-2.1,0.5-2.5,0.9c-0.4,0.4-0.8,0.7-1.7,0.7s-1.2-0.3-1.7-0.7c-0.5-0.4-1-0.9-2.4-0.9
			s-2,0.5-2.4,0.9c-0.4,0.4-0.8,0.7-1.7,0.7S9,24.3,8.5,23.9c-0.5-0.4-1-0.9-2.4-0.9c-0.8,0-1.1,0.1-1.4,0.4c-0.4-0.5-0.7-0.9-1-1.4
			c0.5-0.2,0.8-0.5,1-0.8c0.4-0.4,0.6-0.6,1.5-0.6c0.8,0,1.1,0.3,1.5,0.6c0.5,0.5,1,0.9,2.5,0.9c1.4,0,2.1-0.6,2.5-0.9
			c0.4-0.4,0.7-0.6,1.5-0.6s1.1,0.3,1.5,0.6c0.5,0.5,1.1,0.9,2.5,0.9s2.1-0.6,2.5-0.9c0.4-0.4,0.7-0.6,1.5-0.6
			c0.8,0,1.4,0.3,1.8,0.6c0.4,0.3,0.8,0.7,1.7,0.8C25.7,22.6,25.3,23.1,24.8,23.6z"/>
	</g>
</g>
<g id="Layer_61">
</g>
</svg>
