<?xml version="1.0" encoding="utf-8"?>
<!-- Generator: Adobe Illustrator 19.1.0, SVG Export Plug-In . SVG Version: 6.00 Build 0)  -->
<!DOCTYPE svg PUBLIC "-//W3C//DTD SVG 1.1//EN" "http://www.w3.org/Graphics/SVG/1.1/DTD/svg11.dtd">
<svg version="1.1" id="Layer_1" xmlns="http://www.w3.org/2000/svg" xmlns:xlink="http://www.w3.org/1999/xlink" x="0px" y="0px"
	 viewBox="0 0 30 30" enable-background="new 0 0 30 30" xml:space="preserve">
<g id="Layer_52">
	<g>
		<g>
			<g>
				<circle fill="#FFFFFF" cx="15" cy="15" r="14.1"/>
				<path d="M15,30C6.8,30,0,23.2,0,15S6.8,0,15,0s15,6.8,15,15S23.2,30,15,30z M15,1.9C7.8,1.9,1.9,7.8,1.9,15S7.8,28.1,15,28.1
					S28.1,22.2,28.1,15S22.2,1.9,15,1.9z"/>
			</g>
		</g>
		<path d="M16.9,15.6V5.6h-3.8v9.9c-1.7,0.8-2.8,2.3-2.8,4.3c0,2.6,2.1,4.7,4.7,4.7s4.7-2.1,4.7-4.7C19.7,18,18.6,16.3,16.9,15.6z
			 M15.9,10.3h-1.9V6.6h1.9V10.3z"/>
	</g>
</g>
<g id="Layer_61">
</g>
</svg>
