<?xml version="1.0" encoding="utf-8"?>
<!-- Generator: Adobe Illustrator 18.0.0, SVG Export Plug-In . SVG Version: 6.00 Build 0)  -->
<!DOCTYPE svg PUBLIC "-//W3C//DTD SVG 1.1//EN" "http://www.w3.org/Graphics/SVG/1.1/DTD/svg11.dtd">
<svg version="1.1" xmlns="http://www.w3.org/2000/svg" xmlns:xlink="http://www.w3.org/1999/xlink" x="0px" y="0px"
	 viewBox="0 0 32 32" enable-background="new 0 0 32 32" xml:space="preserve">
<g id="Layer_1">
</g>
<g id="Layer_2">
</g>
<g id="Layer_3">
</g>
<g id="Layer_4">
</g>
<g id="Layer_5">
</g>
<g id="Layer_6">
</g>
<g id="Layer_7">
</g>
<g id="Layer_8">
</g>
<g id="Layer_9">
</g>
<g id="Layer_10">
</g>
<g id="Layer_11">
</g>
<g id="Layer_12">
</g>
<g id="Layer_13">
</g>
<g id="Layer_14">
</g>
<g id="Layer_15">
</g>
<g id="Layer_16">
</g>
<g id="Layer_17">
</g>
<g id="Layer_18">
</g>
<g id="Layer_19">
</g>
<g id="Layer_20">
</g>
<g id="Layer_21">
</g>
<g id="Layer_22">
</g>
<g id="Layer_23">
</g>
<g id="Layer_24">
</g>
<g id="Layer_25">
</g>
<g id="Layer_26">
</g>
<g id="Layer_27">
</g>
<g id="Layer_28">
</g>
<g id="Layer_29">
</g>
<g id="Layer_30">
</g>
<g id="Layer_31">
</g>
<g id="Layer_32">
</g>
<g id="Layer_33">
</g>
<g id="Layer_34">
</g>
<g id="Layer_35">
</g>
<g id="Layer_36">
</g>
<g id="Layer_37">
</g>
<g id="Layer_38">
</g>
<g id="Layer_39">
</g>
<g id="Layer_40">
</g>
<g id="Layer_41">
</g>
<g id="Layer_42">
</g>
<g id="Layer_43">
</g>
<g id="Layer_44">
</g>
<g id="Layer_45">
</g>
<g id="Layer_46">
</g>
<g id="Layer_47">
</g>
<g id="Layer_48">
</g>
<g id="Layer_49">
</g>
<g id="Layer_50">
</g>
<g id="Layer_51">
	<g>
		<circle fill="#FFFFFF" cx="16" cy="16" r="15"/>
		<path d="M16,0C7.2,0,0,7.2,0,16s7.2,16,16,16s16-7.2,16-16S24.8,0,16,0z M17,29.9V24h8v-2h-8l0-1.8c0.5,0,1-0.1,1.5-0.2
			c1.2-0.3,2.1-1,2.9-1.9c0.1-0.2,0.3-0.4,0.4-0.6c0.4-0.6,0.7-1.2,0.9-1.9c0.1-0.4,0.2-0.7,0.2-1.1c0-0.3,0.1-0.5,0.1-0.8
			c0-0.1,0.1-0.3,0-0.4c-0.1-0.1-0.4,0-0.4,0.2c0-0.1,0-0.1,0-0.2c0-0.1,0-0.3,0-0.4c0-0.1,0.1-0.3,0-0.5c-0.1-0.1-0.2,0.1-0.2,0.2
			c-0.1,0.2-0.1,0.3-0.2,0.4c0,0-0.1,0.1-0.1,0c0-0.4,0.1-0.7,0.1-1c0-0.2,0-0.3,0-0.5c0,0,0-0.2,0-0.2c-0.1-0.1-0.2,0.2-0.2,0.3
			c0,0.2-0.1,0.7-0.4,0.8c0-0.2,0.1-0.4,0.1-0.6c0-0.3,0-0.6,0-0.8c0-0.2,0-0.4-0.2-0.6c0,0.1,0,0.1,0,0.1c-0.2,1-0.4,1.9-1.1,2.7
			c-0.4,0.5-0.9,0.8-1.5,0.9c-0.7,0.1-1.3,0.1-2,0c-1.3-0.2-2.4-0.9-3-2.2c-0.1-0.3-0.2-0.5-0.3-0.8c0-0.2-0.2-0.6-0.1-0.8
			c0.1-0.2,0.7-0.3,0.9-0.5c0.3-0.2,0.6-0.5,0.7-0.8c0,0.1-1,0.1-1,0.1c-0.1,0-0.7,0.1-0.4-0.2c0.6-0.3,1.2-0.9,1.2-1.5
			c0,0.1-0.7,0.3-0.8,0.3c-0.3,0.1-0.5,0.1-0.5-0.3c0-0.3,0.3-0.9,0-1.1c-0.1-0.1-0.1-0.1-0.2,0c-0.3,0.1-0.7,0.5-0.9,0.2
			c0-0.1,0.1-0.8-0.1-0.7c-0.2,0.1-1,1.5-1.1,0.9c0-0.1,0.2-0.8-0.2-0.6c-0.3,0.1-0.3,0.6-0.4,0.8c0,0.1-0.1,0.8-0.3,0.8
			C9.9,8.1,9.9,7.1,9.8,7.4C9.6,7.9,9.5,8.5,9.7,9c0,0.2,0.1,0.4,0,0.5C9.5,9.6,9.4,9.7,9.3,9.8C9.2,9.9,9,10,9,10.1
			c0,0.1,0.2,0.1,0.3,0.1c0.2,0,0.8,0,0.7,0.3c-0.1,0.3-0.3,0.6-0.1,0.9c0.2,0.2,0.5,0.1,0.6-0.1c0.1-0.2,0-0.4-0.1-0.6
			c0.2,0.2,0.4,0.4,0.5,0.6c0.3,0.7,0.2,1.4,0.1,2.1c-0.2,1-0.2,1.9,0,2.9c0.4,1.7,1.5,2.8,3,3.5c0.3,0.1,0.7,0.3,1,0.3l0,2h-4v-1.8
			l-4,2.7l4,2.7V24h4v5.9C7.7,29.4,2,23.4,2,16C2,8.3,8.3,2,16,2s14,6.3,14,14C30,23.4,24.3,29.4,17,29.9z"/>
	</g>
</g>
<g id="Layer_52">
</g>
<g id="Layer_53">
</g>
<g id="Layer_54">
</g>
<g id="Layer_55">
</g>
<g id="Layer_56">
</g>
<g id="Layer_57">
</g>
<g id="Layer_58">
</g>
<g id="Layer_59">
</g>
<g id="Layer_60">
</g>
<g id="Layer_61">
</g>
</svg>
