<?xml version="1.0" encoding="utf-8"?>
<!-- Generator: Adobe Illustrator 19.1.0, SVG Export Plug-In . SVG Version: 6.00 Build 0)  -->
<!DOCTYPE svg PUBLIC "-//W3C//DTD SVG 1.1//EN" "http://www.w3.org/Graphics/SVG/1.1/DTD/svg11.dtd">
<svg version="1.1" id="Layer_1" xmlns="http://www.w3.org/2000/svg" xmlns:xlink="http://www.w3.org/1999/xlink" x="0px" y="0px"
     viewBox="0 0 20 20" enable-background="new 0 0 20 20" xml:space="preserve">
<svg version="1.1" id="Layer_1" xmlns="http://www.w3.org/2000/svg" xmlns:xlink="http://www.w3.org/1999/xlink" x="0px" y="0px"
     viewBox="-1 -1 20 20" enable-background="new -1 -1 20 20" xml:space="preserve">
<path fill="#FFFFFF" d="M19-1l-5,0.7l1.6,1.6l-6,5.9L8.9,7.8l1.3,1.3l0.7-0.7l5.9-6L18.3,4L19-1L19-1z M0.2,0.9C0,0.9-0.4,1-0.7,1.2
    S-1,1.8-1,2.1v15.7c0,0.3,0.1,0.7,0.3,0.9C-0.4,18.9,0,19,0.2,19h15.7c0.3,0,0.7-0.1,0.9-0.3c0.2-0.2,0.3-0.6,0.3-0.9V8.3h-1.9v8.8
    H0.9V2.8h9.3V0.9H0.2L0.2,0.9z"/>
<g id="Layer_61_2_">
</g>
</svg>
</svg>
