<?xml version="1.0" encoding="UTF-8" standalone="no"?>
<!-- Generator: Adobe Illustrator 19.1.0, SVG Export Plug-In . SVG Version: 6.00 Build 0)  -->

<svg
   xmlns:dc="http://purl.org/dc/elements/1.1/"
   xmlns:cc="http://creativecommons.org/ns#"
   xmlns:rdf="http://www.w3.org/1999/02/22-rdf-syntax-ns#"
   xmlns:svg="http://www.w3.org/2000/svg"
   xmlns="http://www.w3.org/2000/svg"
   xmlns:sodipodi="http://sodipodi.sourceforge.net/DTD/sodipodi-0.dtd"
   xmlns:inkscape="http://www.inkscape.org/namespaces/inkscape"
   version="1.1"
   id="Layer_1"
   x="0px"
   y="0px"
   viewBox="0 0 20 20"
   enable-background="new 0 0 20 20"
   xml:space="preserve"
   inkscape:version="0.91 r13725"
   sodipodi:docname="info_icon_white.svg"><metadata
     id="metadata3373"><rdf:RDF><cc:Work
         rdf:about=""><dc:format>image/svg+xml</dc:format><dc:type
           rdf:resource="http://purl.org/dc/dcmitype/StillImage" /></cc:Work></rdf:RDF></metadata><defs
     id="defs3371" /><sodipodi:namedview
     pagecolor="#ffffff"
     bordercolor="#666666"
     borderopacity="1"
     objecttolerance="10"
     gridtolerance="10"
     guidetolerance="10"
     inkscape:pageopacity="0"
     inkscape:pageshadow="2"
     inkscape:window-width="1440"
     inkscape:window-height="747"
     id="namedview3369"
     showgrid="false"
     inkscape:zoom="11.8"
     inkscape:cx="10"
     inkscape:cy="10"
     inkscape:window-x="-8"
     inkscape:window-y="-8"
     inkscape:window-maximized="1"
     inkscape:current-layer="Layer_1" /><path
     d="m 10,2.2864407 c 4.271186,0 7.688136,3.3864407 7.688136,7.6194915 0,4.2330508 -3.41695,7.6194918 -7.688136,7.6194918 -4.2711864,0 -7.6881356,-3.386441 -7.6881356,-7.6194918 C 2.3118644,5.6728814 5.7288136,2.2864407 10,2.2864407 M 10,0.59322034 C 4.6847458,0.59322034 0.50847458,4.8262712 0.50847458,10 c 0,5.173729 4.27118642,9.40678 9.49152542,9.40678 5.220339,0 9.491525,-4.233051 9.491525,-9.40678 0,-5.1737288 -4.271186,-9.40677966 -9.491525,-9.40677966 l 0,0 z M 9.4305085,8.0245763 c 0.4745762,0 0.9491525,0 1.4237285,0 0.379661,0 0.569492,0.1881356 0.569492,0.470339 0,0.2822033 0,0.5644067 -0.09492,0.8466101 -0.189831,1.0347456 -0.379661,2.0694916 -0.569492,3.1042376 -0.09491,0.376271 -0.09491,0.658474 -0.18983,1.034745 0,0.188136 0,0.376272 0.09492,0.470339 0.09491,0.188136 0.18983,0.376272 0.474576,0.282204 0.189831,0 0.379661,-0.09407 0.569492,-0.188136 0.09492,-0.09407 0.284745,-0.188135 0.379661,-0.188135 0.18983,-0.09407 0.379661,0.09407 0.379661,0.282203 0,0.09407 -0.09492,0.282203 -0.189831,0.376271 -0.569491,0.564407 -1.233898,0.84661 -1.99322,0.84661 -0.3796613,0 -0.7593223,0 -1.044068,-0.09407 -0.5694916,-0.09407 -1.3288136,-0.846611 -1.2338983,-1.599153 0.094915,-0.376271 0.094915,-0.84661 0.1898305,-1.411017 0.1898305,-0.940678 0.2847457,-1.881356 0.4745762,-2.727966 0,-0.094068 0,-0.094068 0,-0.1881356 0,-0.3762712 -0.094915,-0.5644068 -0.4745762,-0.5644068 -0.1898305,0 -0.379661,0 -0.4745763,-0.094068 C 7.5322034,8.5889831 7.4372881,8.4949153 7.4372881,8.3067797 c 0,-0.1881356 0.094915,-0.2822034 0.3796611,-0.2822034 0.094915,0 0.1898305,0 0.379661,0 0.379661,0 0.8542373,0 1.2338983,0 z M 10.284746,4.45 c 0.854237,0 1.518644,0.6584746 1.518644,1.5050847 0,0.8466102 -0.664407,1.5050848 -1.518644,1.5050848 -0.8542375,0 -1.5186443,-0.6584746 -1.5186443,-1.5050848 C 8.8610169,5.1084746 9.5254237,4.45 10.284746,4.45 Z"
     id="path3366"
     inkscape:connector-curvature="0"
     style="fill:#ffffff" /><g
     id="Layer_61_2_"
     transform="matrix(0.94915254,0,0,0.94067797,0.50847458,0.59322034)" /></svg>