<?xml version="1.0" encoding="UTF-8" standalone="no"?>
<!-- Generator: Adobe Illustrator 19.1.0, SVG Export Plug-In . SVG Version: 6.00 Build 0)  -->

<svg
   xmlns:dc="http://purl.org/dc/elements/1.1/"
   xmlns:cc="http://creativecommons.org/ns#"
   xmlns:rdf="http://www.w3.org/1999/02/22-rdf-syntax-ns#"
   xmlns:svg="http://www.w3.org/2000/svg"
   xmlns="http://www.w3.org/2000/svg"
   xmlns:sodipodi="http://sodipodi.sourceforge.net/DTD/sodipodi-0.dtd"
   xmlns:inkscape="http://www.inkscape.org/namespaces/inkscape"
   version="1.1"
   id="Layer_1"
   x="0px"
   y="0px"
   viewBox="0 0 20 20"
   enable-background="new 0 0 20 20"
   xml:space="preserve"
   inkscape:version="0.91 r13725"
   sodipodi:docname="info_icon.svg"><metadata
     id="metadata3363"><rdf:RDF><cc:Work
         rdf:about=""><dc:format>image/svg+xml</dc:format><dc:type
           rdf:resource="http://purl.org/dc/dcmitype/StillImage" /></cc:Work></rdf:RDF></metadata><defs
     id="defs3361" /><sodipodi:namedview
     pagecolor="#ffffff"
     bordercolor="#666666"
     borderopacity="1"
     objecttolerance="10"
     gridtolerance="10"
     guidetolerance="10"
     inkscape:pageopacity="0"
     inkscape:pageshadow="2"
     inkscape:window-width="1440"
     inkscape:window-height="747"
     id="namedview3359"
     showgrid="false"
     inkscape:zoom="11.8"
     inkscape:cx="-2.4152542"
     inkscape:cy="10"
     inkscape:window-x="-8"
     inkscape:window-y="-8"
     inkscape:window-maximized="1"
     inkscape:current-layer="Layer_1" /><path
     d="m 10,2.0084746 c 4.385593,0 7.894068,3.5084746 7.894068,7.8940678 0,4.3855936 -3.508475,7.8940676 -7.894068,7.8940676 -4.3855932,0 -7.8940678,-3.508474 -7.8940678,-7.8940676 C 2.1059322,5.5169492 5.6144068,2.0084746 10,2.0084746 M 10,0.25423729 C 4.5423729,0.25423729 0.25423729,4.6398305 0.25423729,10 c 0,5.360169 4.38559321,9.745763 9.74576271,9.745763 5.360169,0 9.745763,-4.385594 9.745763,-9.745763 0,-5.3601695 -4.385594,-9.74576271 -9.745763,-9.74576271 l 0,0 z M 9.4152542,7.9533898 c 0.4872882,0 0.9745768,0 1.4618648,0 0.38983,0 0.584745,0.1949153 0.584745,0.4872882 0,0.2923728 0,0.5847457 -0.09746,0.8771186 -0.194915,1.0720344 -0.389831,2.1440674 -0.584746,3.2161014 -0.09746,0.389831 -0.09746,0.682204 -0.194915,1.072034 0,0.194915 0,0.389831 0.09746,0.487288 0.09746,0.194916 0.194916,0.389831 0.487289,0.292373 0.194915,0 0.38983,-0.09746 0.584745,-0.194915 0.09746,-0.09746 0.292373,-0.194915 0.389831,-0.194915 0.194915,-0.09746 0.38983,0.09746 0.38983,0.292373 0,0.09746 -0.09746,0.292372 -0.194915,0.38983 -0.584746,0.584746 -1.266949,0.877119 -2.04661,0.877119 -0.3898306,0 -0.7796611,0 -1.072034,-0.09746 -0.5847458,-0.09746 -1.3644068,-0.877119 -1.2669492,-1.65678 0.097458,-0.38983 0.097458,-0.877118 0.1949153,-1.461864 0.1949152,-0.974576 0.2923729,-1.949152 0.4872881,-2.8262711 0,-0.097458 0,-0.097458 0,-0.1949153 0,-0.3898305 -0.097458,-0.5847458 -0.4872881,-0.5847458 -0.1949153,0 -0.3898305,0 -0.4872882,-0.097458 C 7.4661017,8.5381356 7.3686441,8.440678 7.3686441,8.2457627 c 0,-0.1949152 0.097458,-0.2923729 0.3898305,-0.2923729 0.097458,0 0.1949152,0 0.3898305,0 0.3898305,0 0.8771186,0 1.2669491,0 z M 10.292373,4.25 c 0.877119,0 1.559322,0.6822034 1.559322,1.559322 0,0.8771187 -0.682203,1.5593221 -1.559322,1.5593221 -0.8771188,0 -1.5593222,-0.6822034 -1.5593222,-1.5593221 C 8.8305085,4.9322034 9.5127119,4.25 10.292373,4.25 Z"
     id="path3356"
     inkscape:connector-curvature="0"
     style="fill:#343434" /><g
     id="Layer_61_2_"
     transform="matrix(0.97457627,0,0,0.97457627,0.25423729,0.25423729)" /></svg>