<?xml version="1.0" encoding="UTF-8" standalone="no"?>
<!-- Generator: Adobe Illustrator 19.1.0, SVG Export Plug-In . SVG Version: 6.00 Build 0)  -->

<svg
   xmlns:dc="http://purl.org/dc/elements/1.1/"
   xmlns:cc="http://creativecommons.org/ns#"
   xmlns:rdf="http://www.w3.org/1999/02/22-rdf-syntax-ns#"
   xmlns:svg="http://www.w3.org/2000/svg"
   xmlns="http://www.w3.org/2000/svg"
   xmlns:sodipodi="http://sodipodi.sourceforge.net/DTD/sodipodi-0.dtd"
   xmlns:inkscape="http://www.inkscape.org/namespaces/inkscape"
   version="1.1"
   id="Layer_1"
   x="0px"
   y="0px"
   viewBox="0 0 146.543 50.210368"
   enable-background="new 0 0 140 47.9"
   xml:space="preserve"
   inkscape:version="0.91 r13725"
   sodipodi:docname="signin_vic_emergency.svg"
   width="146.543"
   height="50.210369"><metadata
     id="metadata3436"><rdf:RDF><cc:Work
         rdf:about=""><dc:format>image/svg+xml</dc:format><dc:type
           rdf:resource="http://purl.org/dc/dcmitype/StillImage" /><dc:title></dc:title></cc:Work></rdf:RDF></metadata><defs
     id="defs3434" /><sodipodi:namedview
     pagecolor="#ffffff"
     bordercolor="#666666"
     borderopacity="1"
     objecttolerance="10"
     gridtolerance="10"
     guidetolerance="10"
     inkscape:pageopacity="0"
     inkscape:pageshadow="2"
     inkscape:window-width="1440"
     inkscape:window-height="747"
     id="namedview3432"
     showgrid="false"
     fit-margin-top="0"
     fit-margin-left="0"
     fit-margin-right="0"
     fit-margin-bottom="0"
     inkscape:zoom="9.1785714"
     inkscape:cx="29.664233"
     inkscape:cy="41.381907"
     inkscape:window-x="-8"
     inkscape:window-y="-8"
     inkscape:window-maximized="1"
     inkscape:current-layer="Layer_1" /><g
     id="g3337"
     transform="scale(1.0482332,1.0482332)"><g
       id="g3339"><path
         d="m 57.3,34 -1.9,0 -3.9,-9.7 2.3,0 2.5,6.8 2.5,-6.8 2.3,0 -3.8,9.7 z"
         id="path3341"
         inkscape:connector-curvature="0"
         style="fill:#626469" /><path
         d="m 62.6,33.9 0,-9.7 2.1,0 0,9.7 -2.1,0 z"
         id="path3343"
         inkscape:connector-curvature="0"
         style="fill:#626469" /><path
         d="m 71.3,34.1 c -2.8,0 -5,-2.2 -5,-5 l 0,0 c 0,-2.7 2.1,-5 5,-5 1.8,0 2.9,0.6 3.8,1.5 l -1.4,1.6 c -0.7,-0.7 -1.5,-1.1 -2.5,-1.1 -1.6,0 -2.8,1.4 -2.8,3 l 0,0 c 0,1.7 1.1,3 2.8,3 1.1,0 1.8,-0.4 2.5,-1.1 l 1.4,1.4 c -0.8,1 -1.9,1.7 -3.8,1.7 z"
         id="path3345"
         inkscape:connector-curvature="0"
         style="fill:#626469" /><path
         d="m 52.4,45.9 0,-9.7 7.3,0 0,1.9 -5.2,0 0,2 4.5,0 0,1.9 -4.6,0 0,2 5.2,0 0,1.9 -7.2,0 z"
         id="path3347"
         inkscape:connector-curvature="0"
         style="fill:#626469" /><path
         d="m 68.9,45.9 0,-6.3 -2.7,4.1 -0.1,0 -2.7,-4.1 0,6.3 -2.1,0 0,-9.7 2.3,0 2.5,4.1 2.5,-4.1 2.4,0 0,9.7 -2.1,0 z"
         id="path3349"
         inkscape:connector-curvature="0"
         style="fill:#626469" /><path
         d="m 73.1,45.9 0,-9.7 7.3,0 0,1.9 -5.2,0 0,2 4.6,0 0,1.9 -4.6,0 0,2 5.2,0 0,1.9 -7.3,0 z"
         id="path3351"
         inkscape:connector-curvature="0"
         style="fill:#626469" /><path
         d="m 87.9,45.9 -2.1,-3.1 -1.7,0 0,3.1 -2.1,0 0,-9.7 4.4,0 c 2.3,0 3.6,1.2 3.6,3.2 l 0,0 c 0,1.6 -0.8,2.5 -2.1,3 l 2.4,3.4 -2.4,0 z m 0,-6.3 c 0,-0.9 -0.6,-1.4 -1.7,-1.4 l -2.1,0 0,2.8 2.2,0 c 1,0 1.6,-0.6 1.6,-1.4 l 0,0 z"
         id="path3353"
         inkscape:connector-curvature="0"
         style="fill:#626469" /><path
         d="m 96.4,46.1 c -3,0 -5.1,-2.1 -5.1,-5 l 0,0 c 0,-2.7 2.1,-5 5.1,-5 1.7,0 2.8,0.5 3.8,1.3 L 98.9,39 c -0.7,-0.6 -1.4,-1 -2.5,-1 -1.5,0 -2.8,1.4 -2.8,3 l 0,0 c 0,1.8 1.2,3.1 2.9,3.1 0.8,0 1.5,-0.2 2,-0.6 l 0,-1.4 -2.1,0 0,-1.8 4.2,0 0,4.2 c -1.1,0.9 -2.5,1.6 -4.2,1.6 z"
         id="path3355"
         inkscape:connector-curvature="0"
         style="fill:#626469" /><path
         d="m 102.3,45.9 0,-9.7 7.3,0 0,1.9 -5.2,0 0,2 4.6,0 0,1.9 -4.6,0 0,2 5.2,0 0,1.9 -7.3,0 z"
         id="path3357"
         inkscape:connector-curvature="0"
         style="fill:#626469" /><path
         d="m 118,45.9 -4.7,-6.1 0,6.1 -2.1,0 0,-9.7 2,0 4.5,5.9 0,-5.9 2.1,0 0,9.7 -1.8,0 z"
         id="path3359"
         inkscape:connector-curvature="0"
         style="fill:#626469" /><path
         d="m 126.1,46.1 c -2.8,0 -5,-2.2 -5,-5 l 0,0 c 0,-2.7 2.1,-5 5,-5 1.8,0 2.9,0.6 3.8,1.5 l -1.4,1.6 c -0.7,-0.7 -1.5,-1.1 -2.5,-1.1 -1.6,0 -2.8,1.4 -2.8,3 l 0,0 c 0,1.7 1.1,3 2.8,3 1.1,0 1.8,-0.4 2.5,-1.1 l 1.4,1.4 c -0.9,1 -2,1.7 -3.8,1.7 z"
         id="path3361"
         inkscape:connector-curvature="0"
         style="fill:#626469" /><path
         d="m 136.1,42.1 0,3.8 -2.1,0 0,-3.8 -3.7,-5.8 2.5,0 2.3,3.9 2.3,-3.9 2.4,0 -3.7,5.8 z"
         id="path3363"
         inkscape:connector-curvature="0"
         style="fill:#626469" /></g><line
       stroke-miterlimit="10"
       x1="43.700001"
       y1="46.299999"
       x2="43.700001"
       y2="23.799999"
       id="line3365"
       style="fill:none;stroke:#626469;stroke-width:0.47319999;stroke-linecap:round;stroke-miterlimit:10" /><g
       id="g3367"><linearGradient
         id="SVGID_1_"
         gradientUnits="userSpaceOnUse"
         x1="24.108101"
         y1="7.8077002"
         x2="24.108101"
         y2="7.8077002"><stop
           offset="0"
           style="stop-color:#FFCB06"
           id="stop3370" /><stop
           offset="0.1539"
           style="stop-color:#FBC410"
           id="stop3372" /><stop
           offset="0.4049"
           style="stop-color:#F2B01C"
           id="stop3374" /><stop
           offset="0.7196"
           style="stop-color:#E69323"
           id="stop3376" /><stop
           offset="1"
           style="stop-color:#DC7627"
           id="stop3378" /></linearGradient><polygon
         points="24.1,7.8 24.1,7.8 24.1,7.8 "
         id="polygon3380"
         style="fill:url(#SVGID_1_)" /><linearGradient
         id="SVGID_2_"
         gradientUnits="userSpaceOnUse"
         x1="22.9783"
         y1="1.8062"
         x2="-1.268"
         y2="35.468498"><stop
           offset="0"
           style="stop-color:#FFCB06"
           id="stop3383" /><stop
           offset="3.017240e-02"
           style="stop-color:#FFCB06"
           id="stop3385" /><stop
           offset="0.1818"
           style="stop-color:#FAC311"
           id="stop3387" /><stop
           offset="0.4385"
           style="stop-color:#F0AD1D"
           id="stop3389" /><stop
           offset="0.7665"
           style="stop-color:#E38D24"
           id="stop3391" /><stop
           offset="0.9781"
           style="stop-color:#DA7727"
           id="stop3393" /></linearGradient><path
         d="m 5.8,24 c 2.8,-4.5 7.3,-10.3 8.6,-11.9 0.2,-0.2 0.3,-0.4 0.4,-0.5 1.1,-1.4 2.7,-3.4 4.3,-5.5 C 19.8,5.2 20.3,4.6 21,3.7 21.9,2.5 24,0 24,0 L 17.7,0 C 17.7,0 13.6,4.7 9.4,10.4 5.5,15.7 1.8,20.6 0.5,25.8 0.2,27.1 0,28.5 0,29.9 0,33.6 1.1,37 2.9,39.8 -0.3,34.3 4,26.9 5.8,24 Z"
         id="path3395"
         style="fill:url(#SVGID_2_)"
         inkscape:connector-curvature="0" /><linearGradient
         id="SVGID_3_"
         gradientUnits="userSpaceOnUse"
         x1="26.3813"
         y1="4.6262002"
         x2="4.0181999"
         y2="41.1133"><stop
           offset="0"
           style="stop-color:#E01F26"
           id="stop3398" /><stop
           offset="0.3002"
           style="stop-color:#D31E25"
           id="stop3400" /><stop
           offset="0.7882"
           style="stop-color:#B51F24"
           id="stop3402" /><stop
           offset="1"
           style="stop-color:#A71F23"
           id="stop3404" /></linearGradient><path
         d="m 5.7,35.2 c 0.3,-2.1 1.5,-4.6 2.8,-6.7 1,-1.6 3.3,-5 9.7,-13.3 L 18.4,15 c 1.1,-1.4 3,-3.6 5.8,-7.1 l 0,0 c 1.4,-1.7 3.3,-4.1 3.3,-4.1 l -6.3,0 C 20.5,4.7 20,5.3 19.3,6.2 17.6,8.3 16,10.3 15,11.7 14.9,11.8 14.8,12 14.6,12.2 13.3,13.9 8.7,19.6 6,24.1 4,26.9 -0.3,34.3 3,39.8 4.7,42.4 7,44.6 9.7,46 6.6,44.2 5,39.5 5.7,35.2 Z"
         id="path3406"
         style="fill:url(#SVGID_3_)"
         inkscape:connector-curvature="0" /><linearGradient
         id="SVGID_4_"
         gradientUnits="userSpaceOnUse"
         x1="33.167801"
         y1="16.919001"
         x2="10.9974"
         y2="46.652"><stop
           offset="0"
           style="stop-color:#1A9CD8"
           id="stop3409" /><stop
           offset="0.1914"
           style="stop-color:#2288B8"
           id="stop3411" /><stop
           offset="0.5775"
           style="stop-color:#1D5D7C"
           id="stop3413" /><stop
           offset="1"
           style="stop-color:#063145"
           id="stop3415" /></linearGradient><path
         d="m 17.4,47.9 c 9,0 18,-6.8 18,-18.3 0,-1.3 -0.1,-2.6 -0.4,-3.9 -1.2,-4.6 -4.2,-9.1 -7.7,-13.8 1.6,-2 3.4,-4.2 3.4,-4.2 l -6.5,0 0,0 0,0 c -2.8,3.4 -4.7,5.7 -5.8,7.1 L 18.2,15 C 11.8,23.3 9.5,26.7 8.5,28.3 7.2,30.4 6.1,33 5.7,35 c -0.7,4.3 0.9,9.1 4,10.8 2.3,1.4 4.9,2.1 7.7,2.1 l 0,0 M 9.9,37.8 c 0,-3.6 2.4,-6.9 4.1,-9.3 1.6,-2.2 3.1,-4 3.6,-4.6 0.1,-0.1 0.1,-0.2 0.1,-0.2 0,0 0.5,0.6 1.3,1.6 0.4,0.5 0.8,1.1 1.3,1.7 0.3,0.4 0.7,0.9 1,1.4 0,0.1 0.1,0.1 0.1,0.2 3.5,4.8 4,6.8 4,8.7 0,4 -3,8.4 -7.9,8.4 -4.9,0.1 -7.6,-3.5 -7.6,-7.9 z"
         id="path3417"
         style="fill:url(#SVGID_4_)"
         inkscape:connector-curvature="0" /><g
         id="g3419"><linearGradient
           id="SVGID_5_"
           gradientUnits="userSpaceOnUse"
           x1="21.627701"
           y1="19.406799"
           x2="31.811701"
           y2="28.924"><stop
             offset="0"
             style="stop-color:#868789"
             id="stop3422" /><stop
             offset="0.1574"
             style="stop-color:#8C8D8E;stop-opacity:0.8426"
             id="stop3424" /><stop
             offset="0.5324"
             style="stop-color:#969595;stop-opacity:0.4676"
             id="stop3426" /><stop
             offset="1"
             style="stop-color:#999897;stop-opacity:0"
             id="stop3428" /></linearGradient><path
           d="m 17.8,23.8 c 0,-0.1 0,0 0,0 l 0,0 0,0 c 0,0 0.5,0.6 1.3,1.6 0.4,0.5 0.8,1.1 1.3,1.7 0.3,0.4 0.7,0.9 1,1.4 0,0.1 0.1,0.1 0.1,0.2 2.5,3.3 3.5,5.3 3.8,6.9 l 9.5,-9.8 c 0,0 0,-0.1 0,-0.1 -1.2,-4.6 -4.2,-9.1 -7.7,-13.8 0,0 0,0 0,0 -2.8,3.8 -6.5,8.4 -9.3,11.9 z"
           id="path3430"
           style="fill:url(#SVGID_5_)"
           inkscape:connector-curvature="0" /></g></g></g></svg>