<?xml version="1.0" encoding="UTF-8" standalone="no"?>
<!-- Generator: Adobe Illustrator 17.0.0, SVG Export Plug-In . SVG Version: 6.00 Build 0)  -->

<svg
   xmlns:dc="http://purl.org/dc/elements/1.1/"
   xmlns:cc="http://creativecommons.org/ns#"
   xmlns:rdf="http://www.w3.org/1999/02/22-rdf-syntax-ns#"
   xmlns:svg="http://www.w3.org/2000/svg"
   xmlns="http://www.w3.org/2000/svg"
   xmlns:sodipodi="http://sodipodi.sourceforge.net/DTD/sodipodi-0.dtd"
   xmlns:inkscape="http://www.inkscape.org/namespaces/inkscape"
   version="1.1"
   id="Layer_2"
   x="0px"
   y="0px"
   width="30"
   height="30"
   viewBox="0 0 30 30"
   xml:space="preserve"
   inkscape:version="0.91 r13725"
   sodipodi:docname="Road_Works.svg"><metadata
     id="metadata3363"><rdf:RDF><cc:Work
         rdf:about=""><dc:format>image/svg+xml</dc:format><dc:type
           rdf:resource="http://purl.org/dc/dcmitype/StillImage" /><dc:title></dc:title></cc:Work></rdf:RDF></metadata><defs
     id="defs3361" /><sodipodi:namedview
     pagecolor="#ffffff"
     bordercolor="#666666"
     borderopacity="1"
     objecttolerance="10"
     gridtolerance="10"
     guidetolerance="10"
     inkscape:pageopacity="0"
     inkscape:pageshadow="2"
     inkscape:window-width="1280"
     inkscape:window-height="657"
     id="namedview3359"
     showgrid="false"
     inkscape:zoom="4.88"
     inkscape:cx="52.151639"
     inkscape:cy="33.606557"
     inkscape:window-x="-8"
     inkscape:window-y="-8"
     inkscape:window-maximized="1"
     inkscape:current-layer="Layer_2" /><rect
     style="fill:#ffffff"
     id="rect3379"
     width="21.239376"
     height="19.254389"
     x="-10.609939"
     y="11.373401"
     transform="matrix(0.70710678,-0.70710678,0.70710678,0.70710678,0,0)" /><g
     id="g3343"
     transform="matrix(0.29989006,0,0,0.29989006,0.27724354,-0.175935)"><g
       id="g3345"><circle
         cx="43.84"
         cy="30.718"
         r="3.2060001"
         id="circle3347" /><path
         d="m 40.727,50.277 c -0.173,-1.067 -0.253,-2.247 -0.092,-3.374 0.17,-1.19 0.831,-2.707 1.501,-4.255 l 2.674,8.53 c 0.261,0.833 1.03,1.367 1.859,1.367 0.193,0 0.39,-0.03 0.585,-0.09 1.027,-0.322 1.6,-1.416 1.277,-2.444 L 44.484,37.1 c -0.136,-0.434 -0.414,-0.78 -0.762,-1.018 -0.301,-0.295 -0.71,-0.698 -0.741,-0.712 -1.525,-0.704 -3.753,-0.43 -3.753,-0.43 0,0 -1.115,-0.078 -1.72,-0.078 l -6.411,0 c -0.589,0 -1.142,0.276 -1.498,0.745 l -5.317,7.037 c -0.624,0.827 -0.461,2.003 0.366,2.629 0.338,0.255 0.735,0.379 1.13,0.379 0.568,0 1.13,-0.257 1.499,-0.745 l 4.753,-6.291 3.748,0 c -0.365,0.478 -0.728,0.998 -1.086,1.564 -1.55,2.447 -2.191,4.978 -2.395,6.876 l -5.056,16.967 c -0.308,1.032 0.28,2.118 1.312,2.426 0.186,0.055 0.373,0.082 0.558,0.082 0.84,0 1.616,-0.547 1.868,-1.394 l 3.704,-12.432 c 0.221,-0.564 0.43,-1.488 1.525,-1.013 l 8.561,13.933 c 0.341,0.627 0.986,0.982 1.652,0.982 0.302,0 0.608,-0.072 0.893,-0.226 0.91,-0.494 1.25,-1.633 0.756,-2.545 L 40.727,50.277 Z"
         id="path3349"
         inkscape:connector-curvature="0" /></g><g
       id="g3351"><path
         d="m 56.377,57.376 c -0.143,0 -0.288,-0.031 -0.427,-0.099 L 26.946,43.141 c -0.484,-0.235 -0.685,-0.819 -0.448,-1.303 0.235,-0.483 0.816,-0.686 1.303,-0.448 l 29.004,14.137 c 0.484,0.235 0.685,0.819 0.448,1.303 -0.167,0.345 -0.514,0.546 -0.876,0.546 z"
         id="path3353"
         inkscape:connector-curvature="0" /></g><g
       id="g3355"><path
         d="m 49.002,66.189 c -0.168,0.301 -0.024,0.547 0.321,0.547 l 26.311,0 c 0.345,0 0.487,-0.245 0.315,-0.544 L 67.678,51.761 c -0.171,-0.299 -0.594,-0.544 -0.939,-0.544 l -8.737,0 c -0.345,0 -0.765,0.246 -0.933,0.547 l -8.067,14.425 z"
         id="path3357"
         inkscape:connector-curvature="0" /></g></g><g
     id="g3337"
     transform="matrix(0.29989006,0,0,0.29989006,-0.01875646,0.19106465)"><g
       id="g3339"><path
         d="m 50.077,99.733 c -4.512,0 -8.746,-1.746 -11.921,-4.922 L 5.319,61.973 C 2.143,58.799 0.396,54.564 0.396,50.052 0.396,45.54 2.144,41.306 5.319,38.131 L 38.156,5.295 c 3.174,-3.176 7.409,-4.923 11.921,-4.923 4.512,0 8.746,1.749 11.92,4.923 l 32.839,32.837 c 6.573,6.573 6.573,17.268 0,23.842 l -32.84,32.837 c -3.173,3.175 -7.407,4.922 -11.919,4.922 z m 0,-90.62 c -2.178,0 -4.216,0.839 -5.74,2.362 L 11.5,44.312 c -1.523,1.524 -2.362,3.562 -2.362,5.74 0,2.178 0.839,4.216 2.362,5.74 L 44.337,88.63 c 3.046,3.044 8.431,3.044 11.479,0 L 88.655,55.792 c 3.163,-3.165 3.163,-8.316 0,-11.481 L 55.816,11.475 C 54.291,9.952 52.254,9.113 50.077,9.113 Z"
         id="path3341"
         inkscape:connector-curvature="0" /></g></g></svg>