<?xml version="1.0" encoding="utf-8"?>
<!-- Generator: Adobe Illustrator 19.1.0, SVG Export Plug-In . SVG Version: 6.00 Build 0)  -->
<!DOCTYPE svg PUBLIC "-//W3C//DTD SVG 1.1//EN" "http://www.w3.org/Graphics/SVG/1.1/DTD/svg11.dtd">
<svg version="1.1" xmlns="http://www.w3.org/2000/svg" xmlns:xlink="http://www.w3.org/1999/xlink" x="0px" y="0px"
	 viewBox="0 0 30 30" enable-background="new 0 0 30 30" xml:space="preserve">
<g id="Layer_1">
	<g id="Layer_59">
		<g>
			<circle fill="#FFFFFF" cx="15" cy="15" r="14.1"/>
			<path d="M11.6,11.3c1.3,0,2.3-1.3,2.3-3.1c0-1.7-1-3.1-2.2-3.2c-1.3,0-2.3,1.3-2.3,3.1S10.4,11.3,11.6,11.3z M18.6,11.3
				c1.3,0,2.3-1.3,2.3-3.1c0-1.7-1-3.1-2.2-3.2c-1.3,0-2.3,1.3-2.3,3.1C16.3,9.9,17.3,11.3,18.6,11.3z M8.2,14.9
				c1-0.2,1.7-1.4,1.4-2.8C9.3,10.7,8.3,9.8,7.2,10c-1,0.2-1.7,1.4-1.4,2.8C6.1,14.2,7.1,15.1,8.2,14.9z M23.1,10.2
				c-1-0.3-2.1,0.7-2.4,2.1c-0.3,1.4,0.3,2.6,1.3,2.9s2.1-0.7,2.4-2.1C24.7,11.7,24.1,10.4,23.1,10.2z M21.5,18
				c-0.8-1.7-1.9-3.6-3.5-4.7c-1.2-0.7-2.7-1-4.1-0.7c-1.1,0.3-2.2,1.1-2.9,2.1c-0.8,1-1.6,2.2-2.2,3.3c-0.7,1.1-1.2,2.3-1.2,3.7
				c0,1.2,0.5,2.2,1.3,2.7c0.4,0.2,0.7,0.4,1.1,0.4c0.8,0,1.6-0.6,2.3-0.9c0.8-0.5,1.7-0.8,2.6-0.8c1.2,0,2.2,0.6,3.1,1.3
				c0.7,0.7,2,0.9,2.9,0.4c1-0.6,1.4-1.8,1.5-2.9c0.1-1.2-0.3-2.4-0.8-3.6C21.6,18.2,21.5,18.1,21.5,18z M20.5,19.8h-1.9v1.9h-0.9
				v-1.9h-1.9v-0.9h1.9V17h0.9v1.9h1.9V19.8z"/>
			<path fill="#ED2F22" d="M15.3,0C6.9-0.1,0.1,6.5,0,14.7S6.5,29.9,14.7,30C23,30.1,29.9,23.5,30,15.3C30.1,7,23.5,0.1,15.3,0z
				 M1.9,14.8C2,7.6,8,1.8,15.2,1.9c3.6,0.1,6.7,1.5,9,3.8L5.4,23.9C3.2,21.6,1.8,18.3,1.9,14.8z M14.8,28.1C11.8,28,9,27,6.8,25.2
				L25.5,7.1c1.7,2.2,2.6,5.1,2.6,8.1C28,22.4,22,28.2,14.8,28.1z"/>
		</g>
	</g>
	<g id="Layer_61">
	</g>
</g>
<g id="Layer_2" display="none">
	<g id="Layer_60" display="inline">
		<g>
			<circle fill="#FFFFFF" cx="15" cy="15" r="14.1"/>
			<path d="M13.5,8.1C11.8,7.5,10.2,6,10.2,6s-2.6,3.7-1.9,8.7c0.4,2.1,2.8,8.1,10.2,7.1c0.5,0.7,0.7,1.7,0.9,2.5
				c0.4,0.1,1.2,0.4,1.2,0.4c-0.4-2.1-1.1-4.1-2.3-5c-3.1-2.2-4.5-5.1-5.2-7.1l-0.1-0.5v1.9h-0.9v-1.9h-1.9v-0.9h1.9V9.4h0.9v1.9H15
				v0.9h-1.6c0.7,1.5,2.2,4,5.2,6.2c0.9,0.7,2.6,0.9,2.6,0.9C21.4,19.3,24.6,12.3,13.5,8.1z"/>
			<path fill="#ED2F22" d="M15,0C6.8,0,0,6.8,0,15s6.7,15,15,15s15-6.7,15-15S23.2,0,15,0z M1.9,15C1.9,7.8,7.8,1.9,15,1.9
				c3.6,0,6.7,1.4,9.1,3.7L5.5,24.1C3.3,21.7,1.9,18.6,1.9,15z M15,28.1c-3,0-5.8-1-8.1-2.8L25.3,6.9c1.8,2.2,2.8,5.1,2.8,8.1
				C28.1,22.2,22.2,28.1,15,28.1z"/>
		</g>
	</g>
	<g id="Layer_61_1_" display="inline">
	</g>
</g>
<g id="Layer_3" display="none">
	<g id="Layer_61_2_" display="inline">
		<g>
			<circle fill="#FFFFFF" cx="15" cy="15" r="14.1"/>
			<path d="M18.4,16.3c1.6-1,2.4-2.8,2.4-4.8c0-3.2-2.6-5.7-5.8-5.7s-5.7,2.5-5.7,5.7c0,2,0.7,3.7,2.3,4.8c-3.7,0.3-6.9,3.4-6.9,7.2
				v0.1c2.8,2.8,6.1,4.6,10.3,4.6s7.5-1.8,10.3-4.7v-0.1C25.3,19.7,22.1,16.6,18.4,16.3z M20.6,22.5h-1.9v1.9h-0.9v-1.9h-1.9v-0.9
				h1.9v-1.9h0.9v1.9h1.9V22.5z"/>
			<path fill="#ED2F22" d="M15,0C6.8,0,0,6.8,0,15s6.7,15,15,15s15-6.7,15-15S23.2,0,15,0z M1.9,15C1.9,7.8,7.8,1.9,15,1.9
				c3.6,0,6.7,1.4,9.1,3.7L5.5,24.1C3.3,21.7,1.9,18.6,1.9,15z M15,28.1c-3,0-5.8-1-8.1-2.8L25.3,6.9c1.8,2.2,2.8,5.1,2.8,8.1
				C28.1,22.2,22.2,28.1,15,28.1z"/>
		</g>
	</g>
</g>
</svg>
