<?xml version="1.0" encoding="utf-8"?>
<!-- Generator: Adobe Illustrator 19.1.0, SVG Export Plug-In . SVG Version: 6.00 Build 0)  -->
<!DOCTYPE svg PUBLIC "-//W3C//DTD SVG 1.1//EN" "http://www.w3.org/Graphics/SVG/1.1/DTD/svg11.dtd">
<svg version="1.1" id="Layer_1" xmlns="http://www.w3.org/2000/svg" xmlns:xlink="http://www.w3.org/1999/xlink" x="0px" y="0px"
	 viewBox="0 0 30 30" enable-background="new 0 0 30 30" xml:space="preserve">
<g>
	<polygon fill="#FFFFFF" points="15.1,0.5 0.4,15.1 15.1,29.6 29.7,15 	"/>
	<g>
		<g>
			<path d="M15,30c-1.4,0-2.6-0.5-3.6-1.5l-9.9-9.9c-1-1-1.5-2.2-1.5-3.6c0-1.4,0.5-2.6,1.5-3.6l9.9-9.9c1-1,2.2-1.5,3.6-1.5
				s2.6,0.5,3.6,1.5l9.9,9.9c2,2,2,5.2,0,7.2l-9.9,9.9C17.6,29.5,16.4,30,15,30z M15,2.6c-0.7,0-1.3,0.3-1.7,0.7l-9.9,9.9
				c-0.5,0.5-0.7,1.1-0.7,1.7c0,0.7,0.3,1.3,0.7,1.7l9.9,9.9c0.9,0.9,2.5,0.9,3.5,0l9.9-9.9c1-1,1-2.5,0-3.5l-9.9-9.9
				C16.3,2.9,15.7,2.6,15,2.6z"/>
		</g>
	</g>
	<g>
		<path d="M14.2,16.4c-0.1,0-0.2,0-0.2,0c-1.2,0-2.4,0-3.7,0c-0.2,0-0.2,0-0.3,0.2c-0.3,0.4-0.7,0.9-1,1.3c-0.3,0.4-0.8,0.5-1.2,0.3
			c-0.4-0.2-0.6-0.7-0.4-1.2c0.2-0.6,0.5-1.1,0.7-1.7c0-0.1,0-0.3,0-0.4c-0.2-0.6-0.5-1.2-0.7-1.7c-0.2-0.5,0-1,0.4-1.2
			c0.4-0.2,0.9-0.1,1.2,0.3c0.3,0.4,0.7,0.9,1,1.3c0.1,0.1,0.2,0.1,0.3,0.1c1.3,0,2.5,0,3.8,0c0,0,0.1,0,0.1,0c0-0.1,0-0.1,0-0.2
			c-0.4-1.5-0.9-3-1.3-4.5c-0.1-0.4-0.1-0.7,0.2-1c0.3-0.2,0.6-0.3,0.9-0.2c0.3,0.1,0.4,0.3,0.6,0.5c1,1.8,2,3.5,3,5.3
			c0.1,0.2,0.2,0.2,0.4,0.2c1.7,0,3.5,0,5.2,0c0.8,0,1.4,0.6,1.4,1.4c0,0.8-0.6,1.4-1.5,1.4c-1.7,0-3.5,0-5.2,0
			c-0.2,0-0.3,0.1-0.4,0.2c-1,1.8-2,3.5-3,5.3c-0.2,0.4-0.6,0.6-1,0.5c-0.4-0.1-0.7-0.3-0.7-0.7c0-0.2,0-0.4,0-0.5
			c0.4-1.5,0.8-3,1.3-4.4C14.2,16.6,14.2,16.5,14.2,16.4z"/>
	</g>
</g>
</svg>
