<?xml version="1.0" encoding="utf-8"?>
<!-- Generator: Adobe Illustrator 17.0.0, SVG Export Plug-In . SVG Version: 6.00 Build 0)  -->
<!DOCTYPE svg PUBLIC "-//W3C//DTD SVG 1.1 Tiny//EN" "http://www.w3.org/Graphics/SVG/1.1/DTD/svg11-tiny.dtd">
<svg version="1.1" baseProfile="tiny" id="Layer_2" xmlns="http://www.w3.org/2000/svg" xmlns:xlink="http://www.w3.org/1999/xlink"
	 x="0px" y="0px" width="32px" height="32px" viewBox="0 0 100 100" overflow="scroll" xml:space="preserve">
<polygon fill="#FFFFFF" points="50,4.75 95.5,49 49.5,96.75 2.5,51 "/>
<g>
	<g>
		<path d="M49.56,99.899c-4.512,0-8.746-1.746-11.921-4.922L4.803,62.14c-3.176-3.174-4.923-7.409-4.923-11.921
			s1.748-8.746,4.923-11.921L37.639,5.461c3.174-3.176,7.409-4.923,11.921-4.923s8.746,1.749,11.92,4.923l32.839,32.837
			c6.573,6.573,6.573,17.268,0,23.842L61.48,94.977C58.306,98.153,54.072,99.899,49.56,99.899z M49.56,9.28
			c-2.178,0-4.216,0.839-5.74,2.362L10.983,44.478c-1.523,1.524-2.362,3.562-2.362,5.74s0.839,4.216,2.362,5.74L43.82,88.797
			c3.046,3.044,8.431,3.044,11.479,0l32.839-32.838c3.163-3.165,3.163-8.316,0-11.481L55.299,11.642
			C53.775,10.119,51.737,9.28,49.56,9.28z"/>
	</g>
</g>
<g>
	<path d="M58.883,73.072c-0.067-0.011-0.135-0.026-0.202-0.032c-1-0.084-1.973-0.308-2.939-0.567
		c-0.937-0.251-1.872-0.511-2.811-0.757c-0.699-0.183-1.407-0.324-2.122-0.426c-0.842-0.12-1.689-0.172-2.539-0.125
		c-0.62,0.034-1.233,0.13-1.842,0.252c-1.048,0.21-2.076,0.503-3.107,0.783c-0.842,0.229-1.685,0.453-2.544,0.613
		c-0.59,0.11-1.184,0.188-1.784,0.218c-0.739,0.037-1.467-0.021-2.185-0.197c-1.074-0.264-2.003-0.797-2.816-1.538
		c-1.195-1.089-1.972-2.42-2.314-4.002c-0.156-0.722-0.206-1.452-0.167-2.19c0.076-1.424,0.467-2.761,1.091-4.035
		c0.626-1.28,1.454-2.416,2.44-3.442c0.379-0.395,0.784-0.763,1.195-1.123c0.86-0.752,1.622-1.597,2.335-2.488
		c0.763-0.954,1.463-1.953,2.165-2.952c0.599-0.851,1.198-1.703,1.852-2.514c0.529-0.656,1.091-1.28,1.727-1.834
		c0.68-0.592,1.424-1.078,2.273-1.392c0.66-0.245,1.342-0.375,2.046-0.388c1.056-0.02,2.092,0.101,3.102,0.422
		c1.097,0.348,2.051,0.935,2.885,1.724c0.671,0.635,1.245,1.351,1.759,2.113c0.543,0.805,1.067,1.623,1.595,2.438
		c0.558,0.86,1.13,1.709,1.763,2.516c0.718,0.915,1.511,1.756,2.387,2.522c1.133,0.992,2.124,2.111,2.929,3.388
		c0.655,1.039,1.158,2.145,1.46,3.338c0.209,0.828,0.314,1.668,0.278,2.522c-0.079,1.836-0.712,3.45-1.992,4.782
		c-1.013,1.055-2.225,1.792-3.649,2.16c-0.372,0.096-0.752,0.147-1.134,0.188c-0.035,0.004-0.069,0.015-0.104,0.024
		C59.569,73.072,59.226,73.072,58.883,73.072z"/>
	<path d="M58.785,26.938c0.1,0.014,0.199,0.029,0.299,0.043c0.993,0.138,1.851,0.562,2.586,1.237
		c0.758,0.696,1.28,1.549,1.648,2.503c0.291,0.754,0.467,1.536,0.542,2.341c0.193,2.074-0.181,4.046-1.075,5.922
		c-0.48,1.007-1.108,1.913-1.906,2.695c-0.707,0.693-1.508,1.246-2.443,1.591c-0.643,0.237-1.306,0.358-1.992,0.32
		c-1.451-0.08-2.611-0.73-3.533-1.83c-0.628-0.75-1.045-1.612-1.325-2.544c-0.183-0.607-0.301-1.228-0.35-1.86
		c-0.191-2.481,0.371-4.78,1.691-6.889c0.617-0.986,1.396-1.827,2.362-2.486c0.681-0.465,1.42-0.8,2.234-0.954
		c0.16-0.03,0.323-0.044,0.484-0.067c0.031-0.004,0.062-0.014,0.092-0.021C58.328,26.938,58.556,26.938,58.785,26.938z"/>
	<path d="M74.734,45.73c-0.007,0.027-0.019,0.053-0.021,0.08c-0.022,0.516-0.125,1.02-0.26,1.516
		c-0.415,1.52-1.155,2.862-2.233,4.012c-0.821,0.875-1.779,1.556-2.911,1.974c-0.7,0.259-1.424,0.395-2.171,0.353
		c-1.484-0.083-2.66-0.738-3.524-1.945c-0.465-0.65-0.747-1.381-0.909-2.161c-0.123-0.594-0.169-1.196-0.142-1.801
		c0.045-1.012,0.263-1.987,0.641-2.926c0.444-1.106,1.065-2.102,1.883-2.97c0.837-0.889,1.811-1.58,2.967-1.997
		c0.619-0.224,1.257-0.347,1.917-0.341c1.24,0.012,2.312,0.444,3.197,1.316c0.519,0.512,0.889,1.124,1.15,1.802
		c0.196,0.509,0.318,1.036,0.385,1.577c0.012,0.096,0.021,0.192,0.031,0.287C74.734,44.913,74.734,45.322,74.734,45.73z"/>
	<path d="M24.436,44.823c0.016-0.086,0.039-0.172,0.047-0.259c0.088-0.967,0.338-1.885,0.825-2.731
		c0.445-0.773,1.043-1.397,1.833-1.825c0.67-0.364,1.389-0.535,2.151-0.526c0.953,0.012,1.831,0.291,2.654,0.757
		c0.975,0.552,1.772,1.303,2.431,2.203c0.825,1.127,1.366,2.38,1.639,3.749c0.102,0.509,0.153,1.024,0.162,1.544
		c0.015,0.978-0.131,1.926-0.494,2.837c-0.265,0.663-0.633,1.262-1.136,1.771c-0.656,0.663-1.442,1.087-2.362,1.253
		c-0.952,0.171-1.869,0.03-2.758-0.328c-0.832-0.335-1.557-0.836-2.203-1.455c-0.733-0.702-1.316-1.514-1.77-2.419
		c-0.472-0.941-0.789-1.932-0.924-2.978c-0.027-0.21-0.048-0.421-0.073-0.632c-0.002-0.018-0.014-0.036-0.021-0.054
		C24.436,45.428,24.436,45.126,24.436,44.823z"/>
	<path d="M47.252,35.952c0.016,1.384-0.213,2.72-0.786,3.988c-0.341,0.755-0.791,1.436-1.388,2.014
		c-0.713,0.691-1.549,1.15-2.533,1.317c-0.844,0.144-1.666,0.048-2.466-0.252c-0.811-0.303-1.516-0.775-2.14-1.369
		c-1.086-1.035-1.826-2.29-2.322-3.696c-0.293-0.831-0.479-1.687-0.565-2.563c-0.115-1.171-0.049-2.331,0.24-3.475
		c0.262-1.036,0.685-1.997,1.347-2.843c0.552-0.707,1.222-1.268,2.054-1.619c1.08-0.455,2.179-0.478,3.288-0.117
		c0.864,0.282,1.611,0.764,2.274,1.38c0.973,0.905,1.676,1.995,2.18,3.218c0.382,0.925,0.626,1.887,0.743,2.881
		C47.222,35.193,47.253,35.571,47.252,35.952z"/>
</g>
<g>
	<rect x="54.478" y="57.715" fill="#FFFFFF" width="2.564" height="9.903"/>
	<rect x="50.809" y="61.34" fill="#FFFFFF" width="9.903" height="2.564"/>
</g>
</svg>
