<?xml version="1.0" encoding="utf-8"?>
<!-- Generator: Adobe Illustrator 17.0.0, SVG Export Plug-In . SVG Version: 6.00 Build 0)  -->
<!DOCTYPE svg PUBLIC "-//W3C//DTD SVG 1.1 Tiny//EN" "http://www.w3.org/Graphics/SVG/1.1/DTD/svg11-tiny.dtd">
<svg version="1.1" baseProfile="tiny" id="Layer_2" xmlns="http://www.w3.org/2000/svg" xmlns:xlink="http://www.w3.org/1999/xlink"
	 x="0px" y="0px" width="32px" height="32px" viewBox="0 0 100 100" overflow="scroll" xml:space="preserve">
<g>
	<g>
		<circle fill="#FFFFFF" cx="50.033" cy="49.983" r="44.75"/>
	</g>
</g>
<g>
	<g>
		<g>
			<g>
				<circle fill="#FFFFFF" cx="72.868" cy="44.568" r="7.066"/>
			</g>
		</g>
		<g>
			<g>
				<path fill="#FFFFFF" d="M43.223,74.685c1.267-2.018,2.851-4.089,4.758-5.721c2.9-2.481,8.474-4.605,13.055-6.997l1.061,13.714
					c0.076,0.978,0.496,1.895,1.185,2.591l7.052,7.118c0.067,0.07,0.138,0.136,0.211,0.2c1.618,1.422,4.083,1.367,5.637-0.172
					c1.625-1.608,1.636-4.226,0.029-5.848l-5.983-6.042l-1.331-17.197c-0.053-0.675-0.208-2.952-0.249-3.044
					c-1.5-3.384-5.587-6.174-5.587-6.174s-1.733-1.753-2.734-2.633L49.715,35.15c-0.975-0.857-2.293-1.205-3.564-0.946
					l-19.042,3.911c-2.237,0.461-3.678,2.646-3.22,4.885c0.189,0.915,0.666,1.697,1.319,2.272c0.94,0.827,2.244,1.22,3.566,0.948
					L45.8,42.723l6.205,5.455c-1.3,0.26-2.657,0.593-4.074,1.008c-6.663,1.952-11.625,5.837-14.676,8.835
					c-0.462,0.224-0.891,0.533-1.257,0.935l-11.86,13.065"/>
			</g>
		</g>
		<g>
			<g>
				<path fill="#FFFFFF" d="M17.733,80.922c1.697,1.492,4.275,1.345,5.795-0.327l11.125-10.957c0.28,0.221,0.876,0.403,0.784,0.804"
					/>
			</g>
		</g>
	</g>
	<g>
		<g>
			<g>
				<circle cx="72.868" cy="44.568" r="7.066"/>
			</g>
		</g>
		<g>
			<g>
				<path d="M43.223,74.685c1.267-2.018,2.851-4.089,4.758-5.721c2.9-2.481,8.474-4.605,13.055-6.997l1.061,13.714
					c0.076,0.978,0.496,1.895,1.185,2.591l7.052,7.118c0.067,0.07,0.138,0.136,0.211,0.2c1.618,1.422,4.083,1.367,5.637-0.172
					c1.625-1.608,1.636-4.226,0.029-5.848l-5.983-6.042l-1.331-17.197c-0.053-0.675-0.208-2.952-0.249-3.044
					c-1.5-3.384-5.587-6.174-5.587-6.174s-1.733-1.753-2.734-2.633L49.715,35.15c-0.975-0.857-2.293-1.205-3.564-0.946
					l-19.042,3.911c-2.237,0.461-3.678,2.646-3.22,4.885c0.189,0.915,0.666,1.697,1.319,2.272c0.94,0.827,2.244,1.22,3.566,0.948
					L45.8,42.723l6.205,5.455c-1.3,0.26-2.657,0.593-4.074,1.008c-6.663,1.952-11.625,5.837-14.676,8.835
					c-0.462,0.224-0.891,0.533-1.257,0.935l-11.86,13.065"/>
			</g>
		</g>
		<g>
			<g>
				<path d="M17.733,80.922c1.697,1.492,4.275,1.345,5.795-0.327l11.125-10.957c0.28,0.221,0.876,0.403,0.784,0.804"/>
			</g>
		</g>
	</g>
</g>
<g>
	<g>
		<path fill="#FFFFFF" d="M21.74,87.331c0,0-22.574-25.281-16.074-27.031s7.75-5.95,14.5-5.95s8,6.45,14,6.45s8.25-6.5,15-6.5
			s9.125,6.5,15,6.5s8.375-6.5,15.5-6.5c6.5,0,6.875,4.5,12.25,4.5s3.25,6.5,3.25,6.5l-15.26,21.198l-29.833,9.667L21.74,87.331z"/>
	</g>
	<g>
		<path d="M50.083,98l-29.433-9.176l-0.343-0.487C15.806,81.925,0.794,66.702,2.981,60.672c0.378-1.044,1.171-1.776,2.23-2.062
			c2.523-0.68,4.2-1.789,5.822-2.861c2.341-1.548,4.762-3.149,9.133-3.149c4.116,0,6.488,2.01,8.581,3.782
			c1.759,1.49,3.148,2.668,5.419,2.668c2.325,0,4.017-1.276,5.975-2.754c2.327-1.756,4.965-3.746,9.025-3.746
			c4.075,0,6.746,2.002,9.104,3.769c1.955,1.466,3.644,2.731,5.896,2.731c2.229,0,3.944-1.243,5.93-2.683
			c2.47-1.789,5.269-3.817,9.57-3.817c3.966,0,6.086,1.518,7.789,2.737c1.43,1.023,2.463,1.763,4.461,1.763
			c2.441,0,3.735,1.078,4.392,1.982c1.841,2.54-1.584,6.538-1.725,6.968l-0.25,1.25L79.896,86.688L50.083,98z M22.831,85.838
			l27.314,11.725l28.58-12.521l14.823-20.44c0.253-0.893,0.52-2.699-0.077-3.517c-0.097-0.132-0.391-0.534-1.556-0.534
			c-3.122,0-4.915-1.284-6.498-2.417c-1.562-1.118-2.909-2.083-5.752-2.083c-3.167,0-5.279,1.531-7.517,3.151
			c-2.271,1.646-4.62,3.349-7.983,3.349c-3.419,0-5.851-1.822-7.996-3.431c-2.105-1.578-4.095-3.069-7.004-3.069
			c-2.888,0-4.846,1.477-6.917,3.04c-2.149,1.622-4.585,3.46-8.083,3.46c-3.554,0-5.747-1.858-7.682-3.497
			c-1.87-1.585-3.485-2.953-6.318-2.953c-3.318,0-5.032,1.134-7.202,2.568c-1.746,1.155-3.723,2.463-6.731,3.291
			C5.371,64.559,13.123,71.938,22.831,85.838z"/>
	</g>
</g>
<g>
	<g>
		<path d="M11.975,74.426c0.378-1.044,1.171-1.776,2.23-2.062c2.523-0.68,4.2-1.789,5.822-2.861
			c2.341-1.548,4.762-3.149,9.133-3.149c4.116,0,6.488,2.01,8.581,3.782c1.759,1.49,3.148,2.668,5.419,2.668
			c2.325,0,4.017-1.276,5.975-2.754c2.327-1.756,4.965-3.746,9.025-3.746c4.075,0,6.746,2.002,9.104,3.769
			c1.955,1.466,3.644,2.731,5.896,2.731c2.229,0,3.944-1.243,5.93-2.683c2.47-1.789,5.269-3.817,9.57-3.817
			c3.966,0,0.631,2.335,2.334,3.554c1.43,1.023-23.917,23.896-23.917,23.896l-35.333,1 M28.578,92.254l37.38,3.433
			c0,0,25.557-23.821,23.974-24.954c-1.562-1.118,1.572-0.929-1.271-0.929c-3.167,0-5.279,1.531-7.517,3.151
			c-2.271,1.646-4.62,3.349-7.983,3.349c-3.419,0-5.851-1.822-7.996-3.431c-2.105-1.578-4.095-3.069-7.004-3.069
			c-2.888,0-4.846,1.477-6.917,3.04c-2.149,1.622-4.585,3.46-8.083,3.46c-3.554,0-5.747-1.858-7.682-3.497
			c-1.87-1.585-3.485-2.953-6.318-2.953c-3.318,0-5.032,1.134-7.202,2.568c-1.746,1.155-3.723,2.463-6.731,3.291
			C14.366,78.313,18.87,78.355,28.578,92.254z"/>
	</g>
</g>
<g>
	
		<rect x="46.053" y="5.315" transform="matrix(0.7071 0.7071 -0.7071 0.7071 49.4435 -20.1563)" fill="#EC0A47" width="5.999" height="88.581"/>
</g>
<g>
	<path fill="#EC0A47" d="M50.15,99.233c-26.927,0-48.833-21.906-48.833-48.833S23.223,1.566,50.15,1.566S98.984,23.474,98.984,50.4
		S77.076,99.233,50.15,99.233z M50.15,7.566C26.532,7.566,7.317,26.781,7.317,50.4c0,23.618,19.215,42.833,42.833,42.833
		c23.619,0,42.834-19.215,42.834-42.833C92.984,26.781,73.769,7.566,50.15,7.566z"/>
</g>
</svg>
