<?xml version="1.0" encoding="utf-8"?>
<!-- Generator: Adobe Illustrator 17.0.0, SVG Export Plug-In . SVG Version: 6.00 Build 0)  -->
<!DOCTYPE svg PUBLIC "-//W3C//DTD SVG 1.1 Tiny//EN" "http://www.w3.org/Graphics/SVG/1.1/DTD/svg11-tiny.dtd">
<svg version="1.1" baseProfile="tiny" id="Layer_2" xmlns="http://www.w3.org/2000/svg" xmlns:xlink="http://www.w3.org/1999/xlink"
	 x="0px" y="0px" width="32px" height="32px" viewBox="0 0 100 100" overflow="scroll" xml:space="preserve">
<g>
	<circle fill="#FFFFFF" cx="50.033" cy="49.983" r="44.75"/>
</g>
<g>
	<g>
		<g>
			<circle fill="#FFFFFF" cx="72.868" cy="38.068" r="7.066"/>
		</g>
		<g>
			<path fill="#FFFFFF" d="M43.223,68.185c1.267-2.018,2.851-4.089,4.758-5.721c2.9-2.481,8.474-4.605,13.055-6.997l1.061,13.714
				c0.076,0.978,0.496,1.895,1.185,2.591l7.052,7.118c0.067,0.07,0.138,0.136,0.211,0.2c1.618,1.422,4.083,1.367,5.637-0.172
				c1.625-1.608,1.636-4.226,0.029-5.848l-5.983-6.042l-1.331-17.197c-0.053-0.675-0.208-2.952-0.249-3.044
				c-1.5-3.384-5.587-6.174-5.587-6.174s-1.733-1.753-2.734-2.633L49.715,28.65c-0.975-0.857-2.293-1.205-3.564-0.946l-19.042,3.911
				c-2.237,0.461-3.678,2.646-3.22,4.885c0.189,0.915,0.666,1.697,1.319,2.272c0.94,0.827,2.244,1.22,3.566,0.948L45.8,36.223
				l6.205,5.455c-1.3,0.26-2.657,0.593-4.074,1.008c-6.663,1.952-11.625,5.837-14.676,8.835c-0.462,0.224-0.891,0.533-1.257,0.935
				l-11.86,13.065"/>
		</g>
		<g>
			<path fill="#FFFFFF" d="M17.733,74.422c1.697,1.492,4.275,1.345,5.795-0.327l11.125-10.957c0.28,0.221,0.876,0.403,0.784,0.804"
				/>
		</g>
	</g>
	<g>
		<g>
			<circle cx="72.868" cy="38.068" r="7.066"/>
		</g>
		<g>
			<path d="M43.223,68.185c1.267-2.018,2.851-4.089,4.758-5.721c2.9-2.481,8.474-4.605,13.055-6.997l1.061,13.714
				c0.076,0.978,0.496,1.895,1.185,2.591l7.052,7.118c0.067,0.07,0.138,0.136,0.211,0.2c1.618,1.422,4.083,1.367,5.637-0.172
				c1.625-1.608,1.636-4.226,0.029-5.848l-5.983-6.042l-1.331-17.197c-0.053-0.675-0.208-2.952-0.249-3.044
				c-1.5-3.384-5.587-6.174-5.587-6.174s-1.733-1.753-2.734-2.633L49.715,28.65c-0.975-0.857-2.293-1.205-3.564-0.946l-19.042,3.911
				c-2.237,0.461-3.678,2.646-3.22,4.885c0.189,0.915,0.666,1.697,1.319,2.272c0.94,0.827,2.244,1.22,3.566,0.948L45.8,36.223
				l6.205,5.455c-1.3,0.26-2.657,0.593-4.074,1.008c-6.663,1.952-11.625,5.837-14.676,8.835c-0.462,0.224-0.891,0.533-1.257,0.935
				l-11.86,13.065"/>
		</g>
		<g>
			<path d="M17.733,74.422c1.697,1.492,4.275,1.345,5.795-0.327l11.125-10.957c0.28,0.221,0.876,0.403,0.784,0.804"/>
		</g>
	</g>
</g>
<g>
	<path fill="#FFFFFF" d="M21.25,87c0,0-22.083-31.45-15.583-33.2s7.75-5.95,14.5-5.95s8,6.45,14,6.45s8.25-6.5,15-6.5
		s9.125,6.5,15,6.5s8.375-6.5,15.5-6.5c6.5,0,6.875,4.5,12.25,4.5s3.25,6.5,3.25,6.5l-15.75,27.367l-29.833,9.667L21.25,87z"/>
	<path d="M49.593,97.669L20.16,88.493l-0.343-0.487C15.316,81.594,0.794,60.202,2.981,54.172c0.378-1.044,1.171-1.776,2.23-2.062
		c2.523-0.68,4.2-1.789,5.822-2.861c2.341-1.548,4.762-3.149,9.133-3.149c4.116,0,6.488,2.01,8.581,3.782
		c1.759,1.49,3.148,2.668,5.419,2.668c2.325,0,4.017-1.276,5.975-2.754c2.327-1.756,4.965-3.746,9.025-3.746
		c4.075,0,6.746,2.002,9.104,3.769c1.955,1.466,3.644,2.731,5.896,2.731c2.229,0,3.944-1.243,5.93-2.683
		c2.47-1.789,5.269-3.817,9.57-3.817c3.966,0,6.086,1.518,7.789,2.737c1.43,1.023,2.463,1.763,4.461,1.763
		c2.441,0,3.735,1.078,4.392,1.982c1.841,2.54,0.662,6.382,0.521,6.812l-0.146,0.329L80.597,87.624L49.593,97.669z M22.341,85.507
		l27.232,8.49l28.662-9.287l15.313-26.609c0.253-0.893,0.52-2.699-0.077-3.517c-0.097-0.132-0.391-0.534-1.556-0.534
		c-3.122,0-4.915-1.284-6.498-2.417c-1.562-1.118-2.909-2.083-5.752-2.083c-3.167,0-5.279,1.531-7.517,3.151
		c-2.271,1.646-4.62,3.349-7.983,3.349c-3.419,0-5.851-1.822-7.996-3.431c-2.105-1.578-4.095-3.069-7.004-3.069
		c-2.888,0-4.846,1.477-6.917,3.04c-2.149,1.622-4.585,3.46-8.083,3.46c-3.554,0-5.747-1.858-7.682-3.497
		c-1.87-1.585-3.485-2.953-6.318-2.953c-3.318,0-5.032,1.134-7.202,2.568c-1.746,1.155-3.723,2.463-6.731,3.291
		C5.371,58.059,12.633,71.607,22.341,85.507z"/>
</g>
<g>
	<path d="M47.833,97c0,0-28.181-12.597-32.25-16.667c-4-4-8.395-18.291-2.624-18.291s6.839,5.514,11.969,5.514S31.981,62,37.752,62
		s7.801,5.557,12.824,5.557S57.736,62,63.827,62c5.557,0,6.911,4.75,11.506,4.75s7.083-4.083,12.083-4.417
		c5-0.333,5.119,1.625,4.167,4c-2.892,7.213-16.313,21.354-16.313,21.354L47.833,97z"/>
	<path d="M47.769,98.376l-0.459-0.205c-1.159-0.519-28.444-12.742-32.634-16.931c-3.313-3.313-7.168-13.492-5.272-18.068
		c0.645-1.555,1.907-2.411,3.556-2.411c3.44,0,5.437,1.69,7.197,3.183c1.478,1.251,2.753,2.331,4.771,2.331
		c2.06,0,3.532-1.111,5.237-2.397c1.963-1.48,4.187-3.159,7.587-3.159c3.412,0,5.666,1.688,7.654,3.179
		c1.702,1.276,3.173,2.378,5.17,2.378c1.975,0,3.467-1.082,5.194-2.334c2.085-1.511,4.448-3.223,8.057-3.223
		c3.334,0,5.338,1.485,7.105,2.796c1.473,1.092,2.636,1.954,4.4,1.954c1.972,0,3.512-0.898,5.294-1.938
		c1.841-1.073,3.926-2.29,6.703-2.476c0.406-0.027,0.782-0.04,1.13-0.04c2.195,0,3.621,0.53,4.359,1.622
		c0.916,1.354,0.412,3.031-0.046,4.175c-2.95,7.355-16.018,21.175-16.572,21.76L75.983,88.8L47.769,98.376z M12.959,63.325
		c-0.606,0-0.939,0.232-1.186,0.828c-1.335,3.222,1.819,12.376,4.717,15.272c3.14,3.141,23.299,12.559,31.407,16.198l26.658-9.048
		c1.726-1.844,13.265-14.307,15.837-20.721c0.521-1.299,0.363-1.692,0.303-1.782c-0.187-0.276-1.208-0.59-3.194-0.461
		c-2.176,0.146-3.83,1.11-5.582,2.133c-1.927,1.124-3.921,2.287-6.586,2.287c-2.611,0-4.298-1.249-5.928-2.458
		c-1.59-1.179-3.092-2.292-5.578-2.292c-2.777,0-4.61,1.329-6.552,2.735c-1.914,1.387-3.894,2.821-6.699,2.821
		c-2.852,0-4.813-1.469-6.708-2.89c-1.83-1.372-3.559-2.667-6.116-2.667c-2.541,0-4.241,1.283-6.042,2.643
		c-1.899,1.433-3.863,2.914-6.782,2.914c-2.959,0-4.803-1.562-6.429-2.938C16.868,64.519,15.459,63.325,12.959,63.325z"/>
</g>
<g>
	<path fill="#FFFFFF" d="M44.917,94.333c0,0-21.349-8.195-25.667-12c-5.311-4.681,0.739-6.345,6.51-6.42
		c5.77-0.075,6.91,5.425,12.04,5.358c5.129-0.067,7.481-5.605,13.251-5.68c5.82-0.076,8.727,5.306,13.7,5.241
		c5.022-0.065,7.576-5.754,13.667-5.833c5.557-0.072,7.832,2.977,5.333,6.833C82.77,83.346,77.083,87,77.083,87l-18.667,6.833
		L44.917,94.333z"/>
	<path d="M44.749,95.34l-0.191-0.073c-0.879-0.337-21.567-8.304-25.969-12.184c-2.011-1.771-2.757-3.408-2.218-4.864
		c1.03-2.783,6.316-3.266,9.376-3.306l0.128-0.001c3.26,0,5.208,1.607,6.927,3.025c1.518,1.253,2.829,2.335,4.905,2.335
		c2.253-0.029,3.86-1.186,5.721-2.525c2.027-1.459,4.324-3.112,7.609-3.155l0.134-0.001c3.257,0,5.687,1.558,7.831,2.933
		c1.854,1.188,3.605,2.311,5.659,2.311c2.153-0.027,3.772-1.182,5.648-2.519c2.15-1.532,4.589-3.27,8.094-3.315l0.205-0.001
		c3.275,0,5.638,1.026,6.65,2.891c0.85,1.563,0.611,3.511-0.67,5.487c-1.044,1.612-5.985,4.835-6.966,5.465l-0.196,0.098
		l-18.974,6.893L44.749,95.34z M25.875,76.912l-0.103,0.001c-4.685,0.061-7.186,1.079-7.526,2c-0.213,0.576,0.394,1.55,1.665,2.67
		c3.924,3.458,23.051,10.921,25.174,11.743l13.136-0.486l18.414-6.74c2.14-1.381,5.656-3.854,6.276-4.811
		c0.863-1.333,1.073-2.556,0.591-3.444c-0.638-1.173-2.421-1.846-4.894-1.846L78.429,76c-2.879,0.037-4.86,1.449-6.959,2.944
		c-1.969,1.403-4.004,2.854-6.707,2.889l-0.102,0.001c-2.64,0-4.724-1.336-6.738-2.627c-2.099-1.346-4.081-2.616-6.752-2.616
		l-0.108,0.001c-2.654,0.034-4.506,1.367-6.466,2.778c-1.957,1.408-3.98,2.865-6.785,2.901l-0.104,0.001
		c-2.795,0-4.515-1.42-6.179-2.792C29.928,78.16,28.416,76.912,25.875,76.912z"/>
</g>
<g>
	
		<rect x="5.983" y="44.766" transform="matrix(0.7051 0.7091 -0.7091 0.7051 50.3411 -20.5195)" fill="#EC0A47" width="87.717" height="11"/>
</g>
<g>
	<g>
		<path fill="#EC0A47" d="M49.7,98.9c-27.156,0-49.25-22.094-49.25-49.25S22.544,0.4,49.7,0.4s49.25,22.094,49.25,49.25
			S76.856,98.9,49.7,98.9z M49.7,9.4C27.506,9.4,9.45,27.456,9.45,49.65S27.506,89.9,49.7,89.9s40.25-18.056,40.25-40.25
			S71.894,9.4,49.7,9.4z"/>
	</g>
</g>
</svg>
