<?xml version="1.0" encoding="UTF-8" standalone="no"?>
<!-- Generator: Adobe Illustrator 17.0.0, SVG Export Plug-In . SVG Version: 6.00 Build 0)  -->

<svg
   xmlns:dc="http://purl.org/dc/elements/1.1/"
   xmlns:cc="http://creativecommons.org/ns#"
   xmlns:rdf="http://www.w3.org/1999/02/22-rdf-syntax-ns#"
   xmlns:svg="http://www.w3.org/2000/svg"
   xmlns="http://www.w3.org/2000/svg"
   xmlns:sodipodi="http://sodipodi.sourceforge.net/DTD/sodipodi-0.dtd"
   xmlns:inkscape="http://www.inkscape.org/namespaces/inkscape"
   version="1.1"
   id="Layer_2"
   x="0px"
   y="0px"
   width="30"
   height="30"
   viewBox="0 0 93.75 93.75"
   overflow="scroll"
   xml:space="preserve"
   inkscape:version="0.91 r13725"
   sodipodi:docname="Dam_Failure.svg"
   style="overflow:scroll"><metadata
     id="metadata21"><rdf:RDF><cc:Work
         rdf:about=""><dc:format>image/svg+xml</dc:format><dc:type
           rdf:resource="http://purl.org/dc/dcmitype/StillImage" /><dc:title></dc:title></cc:Work></rdf:RDF></metadata><defs
     id="defs19" /><sodipodi:namedview
     pagecolor="#ffffff"
     bordercolor="#666666"
     borderopacity="1"
     objecttolerance="10"
     gridtolerance="10"
     guidetolerance="10"
     inkscape:pageopacity="0"
     inkscape:pageshadow="2"
     inkscape:window-width="684"
     inkscape:window-height="480"
     id="namedview17"
     showgrid="false"
     fit-margin-top="0"
     fit-margin-left="0"
     fit-margin-right="0"
     fit-margin-bottom="0"
     inkscape:zoom="7.375"
     inkscape:cx="19.157044"
     inkscape:cy="15.967679"
     inkscape:window-x="227"
     inkscape:window-y="17"
     inkscape:window-maximized="0"
     inkscape:current-layer="Layer_2" /><polygon
     points="95.5,49 49.5,96.75 2.5,51 50,4.75 "
     id="polygon3"
     transform="matrix(0.97266267,0,0,0.93551953,-0.65911487,-2.4528851)"
     style="fill:#ffffff" /><path
     d="m 41.489006,88.714846 c 0,0 -38.8377703,-37.758683 -33.0675878,-39.421016 5.7701838,-1.662332 6.8798348,-8.074184 12.8719478,-8.074184 5.992113,0 7.101763,8.549136 12.428086,8.549136 5.326322,0 7.323693,-8.549136 13.315807,-8.549136 5.992113,0 8.10045,8.549136 13.315807,8.549136 5.215358,0 7.434659,-8.549136 13.759667,-8.549136 5.770184,0 6.103078,6.649328 10.874576,6.649328 4.771498,0 2.885092,6.174376 2.885092,6.174376 L 52.585512,89.427274 41.489006,88.714846 Z"
     id="path5"
     inkscape:connector-curvature="0" /><polygon
     points="18.167,68.5 23.333,70.5 48.833,93.667 75.333,71.667 69.167,65.667 42.833,65.333 "
     id="polygon7"
     transform="matrix(0.91105297,0,0,0.73081391,3.430816,15.251297)" /><path
     stroke-miterlimit="10"
     d="m 16.86612,65.592004 7.418247,-5.233835 c 0.904752,-0.639034 2.328085,-0.507469 3.16204,0.290699 l 7.657309,7.330127 c 0.833956,0.798171 2.243494,0.895905 3.133539,0.21677 l 8.076585,-6.166077 c 0.889122,-0.679134 2.356588,-0.710457 3.261343,-0.07144 l 8.020496,5.66863 c 0.904754,0.639035 2.373142,0.607711 3.262263,-0.07016 l 6.836227,-5.21003 c 0.889121,-0.677879 2.380497,-0.774361 3.313753,-0.215518 l 7.367676,4.419377"
     id="path9"
     inkscape:connector-curvature="0"
     style="fill:none;stroke:#ffffff;stroke-width:12.21043968;stroke-linejoin:round;stroke-miterlimit:10" /><g
     id="g11"
     transform="matrix(0.94345558,0,0,0.94352917,0.96067232,-0.08388987)"><g
       id="g13"><path
         d="m 49.56,99.899 c -4.512,0 -8.746,-1.746 -11.921,-4.922 L 4.803,62.14 C 1.627,58.966 -0.12,54.731 -0.12,50.219 c 0,-4.512 1.748,-8.746 4.923,-11.921 L 37.639,5.461 c 3.174,-3.176 7.409,-4.923 11.921,-4.923 4.512,0 8.746,1.749 11.92,4.923 l 32.839,32.837 c 6.573,6.573 6.573,17.268 0,23.842 L 61.48,94.977 c -3.173,3.176 -7.408,4.922 -11.92,4.922 z m 0,-90.619 c -2.178,0 -4.216,0.839 -5.74,2.362 L 10.983,44.478 c -1.523,1.524 -2.362,3.562 -2.362,5.74 0,2.178 0.839,4.216 2.362,5.74 L 43.82,88.797 c 3.046,3.044 8.431,3.044 11.479,0 L 88.138,55.959 c 3.163,-3.165 3.163,-8.316 0,-11.481 L 55.299,11.642 C 53.775,10.119 51.737,9.28 49.56,9.28 Z"
         id="path15"
         inkscape:connector-curvature="0" /></g></g></svg>