<?xml version="1.0" encoding="utf-8"?>
<!-- Generator: Adobe Illustrator 19.1.0, SVG Export Plug-In . SVG Version: 6.00 Build 0)  -->
<!DOCTYPE svg PUBLIC "-//W3C//DTD SVG 1.1//EN" "http://www.w3.org/Graphics/SVG/1.1/DTD/svg11.dtd">
<svg version="1.1" id="Layer_1" xmlns="http://www.w3.org/2000/svg" xmlns:xlink="http://www.w3.org/1999/xlink" x="0px" y="0px"
	 viewBox="0 0 30 30" enable-background="new 0 0 30 30" xml:space="preserve">
<g>
	<polygon fill="#FFFFFF" points="15.2,0.5 0.5,15.1 15.2,29.6 29.8,15 	"/>
	<polygon points="7.3,21.7 22.8,21.7 15.3,28.9 	"/>
	<rect x="9.2" y="15.3" width="12.3" height="5.7"/>
	<polygon points="6.4,15.7 15.2,8.3 24,15.7 	"/>
	<rect x="9.5" y="9.5" width="2" height="3.9"/>
	<path fill="#FFFFFF" d="M14.3,28.9c-1.8-5.9-1.8-6-1.8-6.2c0-0.6,0-0.7,4.2-3.8L14,16.3c-0.4-0.4-0.4-1-0.1-1.4l3.3-4l1.6,1.4
		l-2.7,3.2l2.9,2.8c0.2,0.2,0.3,0.5,0.3,0.8c0,0.3-0.2,0.6-0.4,0.8c-1.6,1.2-3.4,2.5-4.2,3.2c0.3,1.1,1.1,3.6,1.6,5.3L14.3,28.9z"/>
	<g>
		<g>
			<path d="M15.1,30c-1.4,0-2.6-0.5-3.6-1.5l-9.9-9.9c-1-1-1.5-2.2-1.5-3.6s0.5-2.6,1.5-3.6l9.9-9.9c1-1,2.2-1.5,3.6-1.5
				s2.6,0.5,3.6,1.5l9.9,9.9c2,2,2,5.2,0,7.2l-9.9,9.9C17.8,29.5,16.5,30,15.1,30z M15.1,2.6c-0.7,0-1.3,0.3-1.7,0.7l-9.9,9.9
				C3,13.7,2.8,14.3,2.8,15s0.3,1.3,0.7,1.7l9.9,9.9c0.9,0.9,2.5,0.9,3.5,0l9.9-9.9c1-1,1-2.5,0-3.5l-9.9-9.9
				C16.4,2.9,15.8,2.6,15.1,2.6z"/>
		</g>
	</g>
</g>
</svg>
