<?xml version="1.0" encoding="utf-8"?>
<!-- Generator: Adobe Illustrator 19.1.0, SVG Export Plug-In . SVG Version: 6.00 Build 0)  -->
<!DOCTYPE svg PUBLIC "-//W3C//DTD SVG 1.1//EN" "http://www.w3.org/Graphics/SVG/1.1/DTD/svg11.dtd">
<svg version="1.1" id="Layer_1" xmlns="http://www.w3.org/2000/svg" xmlns:xlink="http://www.w3.org/1999/xlink" x="0px" y="0px"
	 viewBox="0 0 30 30" enable-background="new 0 0 30 30" xml:space="preserve">
<polygon fill="#FFFFFF" points="15,0.7 0.3,15.3 15,29.8 29.6,15.2 "/>
<g>
	<g>
		<path d="M15,30c-1.4,0-2.6-0.5-3.6-1.5l-9.9-9.9c-1-1-1.5-2.2-1.5-3.6c0-1.4,0.5-2.6,1.5-3.6l9.9-9.9c1-1,2.2-1.5,3.6-1.5
			s2.6,0.5,3.6,1.5l9.9,9.9c2,2,2,5.2,0,7.2l-9.9,9.9C17.6,29.5,16.4,30,15,30z M15,2.6c-0.7,0-1.3,0.3-1.7,0.7l-9.9,9.9
			c-0.5,0.5-0.7,1.1-0.7,1.7c0,0.7,0.3,1.3,0.7,1.7l9.9,9.9c0.9,0.9,2.5,0.9,3.5,0l9.9-9.9c1-1,1-2.5,0-3.5l-9.9-9.9
			C16.3,2.9,15.7,2.6,15,2.6z"/>
	</g>
</g>
<path d="M13.6,20.6c0,0-4-2.3-4-5.3s3.4-3.9,4-5.8c0.6-1.9,0.6-1.9,0.6-1.9s1.9,1.4,1.9,3.5c-0.1,1.8-0.7,2.8-0.7,2.8
	s1.7,0.5,2.1-2.7c0,0,3.4,2.8,2.1,5.9c-1.3,3.1-3.4,3.5-3.4,3.5c0.3-3.1-1.6-3.1-0.6-4.4c0,0-0.9-0.3-1.6,0.7
	C13.4,17.7,13.2,18.3,13.6,20.6z"/>
</svg>
