<?xml version="1.0" encoding="UTF-8" standalone="no"?>
<!-- Created with Inkscape (http://www.inkscape.org/) -->

<svg
   xmlns:dc="http://purl.org/dc/elements/1.1/"
   xmlns:cc="http://creativecommons.org/ns#"
   xmlns:rdf="http://www.w3.org/1999/02/22-rdf-syntax-ns#"
   xmlns:svg="http://www.w3.org/2000/svg"
   xmlns="http://www.w3.org/2000/svg"
   xmlns:sodipodi="http://sodipodi.sourceforge.net/DTD/sodipodi-0.dtd"
   xmlns:inkscape="http://www.inkscape.org/namespaces/inkscape"
   width="30"
   height="30"
   viewBox="0 0 30 30"
   id="svg3360"
   version="1.1"
   inkscape:version="0.91 r13725"
   sodipodi:docname="Fire.svg">
  <defs
     id="defs3362" />
  <sodipodi:namedview
     id="base"
     pagecolor="#ffffff"
     bordercolor="#666666"
     borderopacity="1.0"
     inkscape:pageopacity="0.0"
     inkscape:pageshadow="2"
     inkscape:zoom="17.884885"
     inkscape:cx="17.139798"
     inkscape:cy="16.856223"
     inkscape:document-units="px"
     inkscape:current-layer="layer1"
     showgrid="false"
     fit-margin-top="0"
     fit-margin-left="0"
     fit-margin-right="0"
     fit-margin-bottom="0"
     units="px"
     inkscape:window-width="1440"
     inkscape:window-height="747"
     inkscape:window-x="-8"
     inkscape:window-y="-8"
     inkscape:window-maximized="1" />
  <metadata
     id="metadata3365">
    <rdf:RDF>
      <cc:Work
         rdf:about="">
        <dc:format>image/svg+xml</dc:format>
        <dc:type
           rdf:resource="http://purl.org/dc/dcmitype/StillImage" />
        <dc:title></dc:title>
      </cc:Work>
    </rdf:RDF>
  </metadata>
  <g
     inkscape:label="Layer 1"
     inkscape:groupmode="layer"
     id="layer1"
     transform="translate(-435.51989,-450.105)">
    <g
       id="g5"
       transform="matrix(0.30190578,0,0,0.30192933,435.55612,449.94256)">
      <g
         id="g7">
        <path
           d="m 49.56,99.899 c -4.512,0 -8.746,-1.746 -11.921,-4.922 L 4.803,62.14 C 1.627,58.966 -0.12,54.731 -0.12,50.219 c 0,-4.512 1.748,-8.746 4.923,-11.921 L 37.639,5.461 c 3.174,-3.176 7.409,-4.923 11.921,-4.923 4.512,0 8.746,1.749 11.92,4.923 l 32.839,32.837 c 6.573,6.573 6.573,17.268 0,23.842 L 61.48,94.977 c -3.173,3.176 -7.408,4.922 -11.92,4.922 z m 0,-90.619 c -2.178,0 -4.216,0.839 -5.74,2.362 L 10.983,44.478 c -1.523,1.524 -2.362,3.562 -2.362,5.74 0,2.178 0.839,4.216 2.362,5.74 L 43.82,88.797 c 3.046,3.044 8.431,3.044 11.479,0 L 88.138,55.959 c 3.163,-3.165 3.163,-8.316 0,-11.481 L 55.299,11.642 C 53.775,10.119 51.737,9.28 49.56,9.28 Z"
           id="path9"
           inkscape:connector-curvature="0" />
      </g>
    </g>
    <g
       id="g11"
       transform="matrix(0.31999996,0,0,0.31999999,434.82677,449.23305)">
      <path
         d="m 67.008,41.14 c 0,0 -0.002,3.737 -0.871,7.573 -1.893,-8.191 -7.502,-15.107 -7.502,-15.107 -0.79,12.842 -7.674,14.086 -7.674,14.086 0,0 2.155,-3.649 2.397,-10.473 0.28,-7.898 -6.495,-13.288 -6.495,-13.288 0,0 0,0 -1.965,7.1 -0.68,2.455 -2.535,4.455 -4.671,6.492 -1.203,-4.705 -5.391,-7.542 -5.591,-7.675 0.112,0.08 0.945,0.806 1.093,4.957 0.158,4.452 -7.425,8.561 -7.898,16.608 -0.636,10.798 9.86,16.744 12.715,18.157 2.418,2.127 4.353,3.348 4.353,3.348 -3.008,-7.978 -2.508,-12.074 -0.323,-15.512 2.37,-3.728 7.109,-4.794 7.109,-4.794 -5.055,7.705 3.157,8.653 2.249,20.306 0,0 1.624,-0.312 3.811,-1.883 C 61.102,69.526 67.782,65.508 69.536,56.892 71.905,45.249 67.008,41.14 67.008,41.14 Z"
         id="path13"
         inkscape:connector-curvature="0" />
      <path
         d="m 34.638,29.848 c -0.008,-0.006 -0.013,-0.009 -0.013,-0.009 0,0 0.008,0.006 0.013,0.009 z"
         id="path15"
         inkscape:connector-curvature="0" />
    </g>
    <path
       style="fill:#ffffff"
       d="M 14.489516,27.265485 C 14.351131,27.236519 14.074361,27.133998 13.874471,27.037659 13.541251,26.877059 13.078118,26.429595 8.3037242,21.65537 3.3507559,16.702578 3.087351,16.429127 2.9108856,16.056851 2.7500154,15.717476 2.722296,15.593725 2.702315,15.125704 2.6763378,14.517229 2.7593443,14.167124 3.0316911,13.736456 3.1192034,13.598071 5.5505978,11.129871 8.4347896,8.2515667 13.149102,3.5468783 13.709775,3.0053873 13.98569,2.8905779 c 0.481894,-0.2005184 0.939012,-0.2593506 1.400388,-0.1802335 0.851849,0.1460759 0.566901,-0.1083846 6.295376,5.6218205 4.7847,4.7861451 5.221353,5.2382821 5.383708,5.5746181 0.343896,0.712423 0.352107,1.388943 0.02594,2.137342 -0.141776,0.325309 -0.490298,0.687547 -5.300343,5.508929 -2.831724,2.838398 -5.259164,5.234529 -5.394311,5.324736 -0.525668,0.350868 -1.315602,0.511468 -1.906933,0.387695 z m -1.008462,-5.463559 c -0.117759,-0.361339 -0.268612,-0.921169 -0.335228,-1.244067 -0.354209,-1.716902 0.177802,-3.200742 1.436202,-4.00573 0.287406,-0.183852 1.016652,-0.523234 1.124295,-0.523234 0.02682,0 -0.03479,0.169836 -0.136905,0.377413 -0.407373,0.828087 -0.36704,1.379325 0.181279,2.477576 0.574825,1.151339 0.751732,1.78296 0.793809,2.834172 0.02541,0.634821 0.04267,0.740849 0.120628,0.740849 0.196103,0 1.932354,-0.961384 2.511104,-1.390429 0.475187,-0.352271 1.19607,-1.099555 1.490425,-1.54501 0.749369,-1.134041 1.100564,-2.438294 1.099065,-4.081659 -9.11e-4,-0.99938 -0.116879,-1.63308 -0.418208,-2.285266 -0.199453,-0.43169 -0.503258,-0.873826 -0.600432,-0.873826 -0.02817,0 -0.05121,0.186485 -0.05121,0.414411 0,0.451203 -0.154826,1.712233 -0.218626,1.780667 -0.02175,0.02333 -0.0726,-0.08989 -0.112998,-0.251609 -0.09486,-0.37975 -0.522868,-1.472526 -0.767933,-1.960666 -0.448911,-0.894173 -1.431538,-2.4189514 -1.522598,-2.3626726 -0.02469,0.015258 -0.06116,0.2394366 -0.08105,0.4981736 -0.04499,0.585254 -0.303084,1.621589 -0.526244,2.11302 -0.229937,0.506353 -0.566487,0.988507 -0.89811,1.286665 -0.284556,0.25584 -0.763483,0.542837 -0.816833,0.489487 -0.0165,-0.0165 0.04174,-0.217031 0.12943,-0.445627 C 16.319654,12.700751 16.51506,10.950111 16.31128,9.9889086 16.197721,9.4532624 15.927018,8.7918168 15.61371,8.284438 15.311353,7.7947952 14.709863,7.0685453 14.448544,6.8775967 L 14.282504,6.75627 13.959139,7.9399463 c -0.17785,0.6510221 -0.39671,1.3408543 -0.486356,1.5329612 -0.171413,0.3673314 -0.657188,1.0097535 -1.043159,1.3795445 -0.206177,0.197535 -0.23235,0.208576 -0.265074,0.111827 -0.109665,-0.324231 -0.390955,-0.864988 -0.608606,-1.1699996 -0.229765,-0.3219869 -0.997993,-1.0900053 -1.090303,-1.0900053 -0.02224,0 0.0089,0.1446753 0.06916,0.3215005 0.140745,0.4129046 0.197132,1.4124714 0.09724,1.7238174 -0.100824,0.31426 -0.379848,0.759746 -0.9862261,1.574592 -0.9053421,1.216592 -1.2752232,1.976831 -1.4233192,2.925436 -0.1241903,0.795477 0.036026,1.867119 0.3987418,2.667072 0.5452934,1.202618 1.7643675,2.445312 3.1761225,3.237658 0.259971,0.145909 0.575772,0.35221 0.701781,0.458447 0.348564,0.293872 1.099621,0.846108 1.150731,0.846108 0.02491,0 -0.05106,-0.29564 -0.168822,-0.656979 z"
       id="path3399"
       inkscape:connector-curvature="0"
       transform="translate(435.51989,450.105)" />
  </g>
</svg>
