<?xml version="1.0" encoding="utf-8"?>
<!-- Generator: Adobe Illustrator 17.0.0, SVG Export Plug-In . SVG Version: 6.00 Build 0)  -->
<!DOCTYPE svg PUBLIC "-//W3C//DTD SVG 1.1 Tiny//EN" "http://www.w3.org/Graphics/SVG/1.1/DTD/svg11-tiny.dtd">
<svg version="1.1" baseProfile="tiny" id="Layer_2" xmlns="http://www.w3.org/2000/svg" xmlns:xlink="http://www.w3.org/1999/xlink"
	 x="0px" y="0px" width="32px" height="32px" viewBox="0 0 100 100" overflow="scroll" xml:space="preserve">
<polygon fill="#FBE032" points="50,4.75 95.5,49 49.5,96.75 2.5,51 "/>
<g>
	<g>
		<path d="M49.56,99.899c-4.512,0-8.746-1.746-11.921-4.922L4.803,62.14c-3.176-3.174-4.923-7.409-4.923-11.921
			s1.748-8.746,4.923-11.921L37.639,5.461c3.174-3.176,7.409-4.923,11.921-4.923s8.746,1.749,11.92,4.923l32.839,32.837
			c6.573,6.573,6.573,17.268,0,23.842L61.48,94.977C58.307,98.153,54.072,99.899,49.56,99.899z M49.56,9.28
			c-2.178,0-4.216,0.839-5.74,2.362L10.983,44.478c-1.523,1.524-2.362,3.562-2.362,5.74s0.839,4.216,2.362,5.74L43.82,88.797
			c3.046,3.044,8.431,3.044,11.479,0l32.839-32.838c3.163-3.165,3.163-8.316,0-11.481L55.299,11.642
			C53.775,10.119,51.737,9.28,49.56,9.28z"/>
	</g>
</g>
<path d="M45.091,67.933c0,0-13.092-7.621-13.092-17.641S43.221,37.384,45.091,31.15s1.87-6.234,1.87-6.234s6.449,4.734,6.182,11.669
	c-0.23,5.992-2.282,9.197-2.282,9.197s5.623,1.692,7.121-8.966c0,0,11.207,9.126,6.924,19.511
	C60.625,66.71,53.691,67.933,53.691,67.933c0.864-10.233-5.156-10.117-1.882-14.662c0,0-3.142-0.98-5.398,2.294
	C44.331,58.584,43.695,60.494,45.091,67.933z"/>
</svg>
