<?xml version="1.0" encoding="utf-8"?>
<!-- Generator: Adobe Illustrator 19.1.0, SVG Export Plug-In . SVG Version: 6.00 Build 0)  -->
<!DOCTYPE svg PUBLIC "-//W3C//DTD SVG 1.1//EN" "http://www.w3.org/Graphics/SVG/1.1/DTD/svg11.dtd">
<svg version="1.1" id="Layer_1" xmlns="http://www.w3.org/2000/svg" xmlns:xlink="http://www.w3.org/1999/xlink" x="0px" y="0px"
	 viewBox="0 0 30 30" enable-background="new 0 0 30 30" xml:space="preserve">
<polygon fill="#FFFFFF" points="14.8,0.1 0.2,14.7 14.8,29.2 29.5,14.6 "/>
<g>
	<path d="M15,29.7c-1.4,0-2.6-0.5-3.6-1.5l-9.9-9.9c-1-1-1.5-2.2-1.5-3.6s0.5-2.6,1.5-3.6l9.9-9.9c1-1,2.2-1.5,3.6-1.5
		s2.6,0.5,3.6,1.5l9.9,9.9c2,2,2,5.2,0,7.2l-9.9,9.9C17.6,29.2,16.4,29.7,15,29.7z M15,2.4c-0.7,0-1.3,0.3-1.7,0.7L3.4,13
		c-0.5,0.5-0.7,1.1-0.7,1.7c0,0.7,0.3,1.3,0.7,1.7l9.9,9.9c0.9,0.9,2.5,0.9,3.5,0l9.9-9.9c1-1,1-2.5,0-3.5l-9.9-9.9
		C16.3,2.6,15.7,2.4,15,2.4z"/>
</g>
<path d="M15.2,21.2c-0.1,0-0.1,0-0.2,0l0.2-4.9l0.1,0c0,0,0,0,0,0c0.7,0,1.4-0.4,1.8-1l4.2,2.5C20,19.9,17.7,21.2,15.2,21.2z
	 M9,17.4c-0.5-1-0.8-2.1-0.8-3.2c0-1.4,0.4-2.7,1.1-3.8l4.1,2.7c-0.2,0.3-0.3,0.7-0.3,1.2c0,0.3,0.1,0.7,0.2,1L9,17.4z M17.1,13.1
	c-0.4-0.7-1.1-1.1-1.8-1.1V7.2c2.5,0,4.9,1.4,6.1,3.6L17.1,13.1z"/>
<ellipse cx="15" cy="14.2" rx="0.1" ry="0"/>
<circle cx="15.2" cy="14.2" r="1.1"/>
</svg>
