<?xml version="1.0" encoding="utf-8"?>
<!-- Generator: Adobe Illustrator 19.1.0, SVG Export Plug-In . SVG Version: 6.00 Build 0)  -->
<!DOCTYPE svg PUBLIC "-//W3C//DTD SVG 1.1//EN" "http://www.w3.org/Graphics/SVG/1.1/DTD/svg11.dtd">
<svg version="1.1" id="Layer_1" xmlns="http://www.w3.org/2000/svg" xmlns:xlink="http://www.w3.org/1999/xlink" x="0px" y="0px"
	 viewBox="0 0 30 30" enable-background="new 0 0 30 30" xml:space="preserve">
<g>
	<polygon fill="#FFFFFF" points="15.1,0.4 0.4,15 15.1,29.5 29.7,14.9 	"/>
	<g>
		<g>
			<path d="M15,30c-1.4,0-2.6-0.5-3.6-1.5l-9.9-9.9c-1-1-1.5-2.2-1.5-3.6c0-1.4,0.5-2.6,1.5-3.6l9.9-9.9c1-1,2.2-1.5,3.6-1.5
				s2.6,0.5,3.6,1.5l9.9,9.9c2,2,2,5.2,0,7.2l-9.9,9.9C17.6,29.5,16.4,30,15,30z M15,2.6c-0.7,0-1.3,0.3-1.7,0.7l-9.9,9.9
				c-0.5,0.5-0.7,1.1-0.7,1.7c0,0.7,0.3,1.3,0.7,1.7l9.9,9.9c0.9,0.9,2.5,0.9,3.5,0l9.9-9.9c1-1,1-2.5,0-3.5l-9.9-9.9
				C16.3,2.9,15.7,2.6,15,2.6z"/>
		</g>
	</g>
	<circle cx="14.7" cy="13.7" r="4.6"/>
	<path d="M6,21.5c0,0,2.1-4.3,8.9-4.3s8.5,5.2,8.5,5.2s-6.6,5.9-8.7,5.9S6,21.5,6,21.5z"/>
	<g>
		<g>
			<rect x="15.7" y="18.9" fill="#FFFFFF" width="1.8" height="5.4"/>
			<g>
				<rect x="13.9" y="20.7" fill="#FFFFFF" width="5.4" height="1.8"/>
			</g>
		</g>
	</g>
	<path d="M14.5,18.9L14.5,18.9c-1.7,0-3-1.3-3-3v0c0-1.7,1.3-3,3-3h0c1.7,0,3,1.3,3,3v0C17.5,17.5,16.2,18.9,14.5,18.9z M14.5,13.1
		c-1.5,0-2.7,1.2-2.7,2.7v0c0,1.5,1.2,2.7,2.7,2.7h0c1.5,0,2.7-1.2,2.7-2.7v0C17.2,14.3,16,13.1,14.5,13.1L14.5,13.1z"/>
</g>
</svg>
