<?xml version="1.0" encoding="utf-8"?>
<!-- Generator: Adobe Illustrator 19.1.0, SVG Export Plug-In . SVG Version: 6.00 Build 0)  -->
<!DOCTYPE svg PUBLIC "-//W3C//DTD SVG 1.1//EN" "http://www.w3.org/Graphics/SVG/1.1/DTD/svg11.dtd">
<svg version="1.1" xmlns="http://www.w3.org/2000/svg" xmlns:xlink="http://www.w3.org/1999/xlink" x="0px" y="0px"
	 viewBox="0 0 30 30" enable-background="new 0 0 30 30" xml:space="preserve">
<g id="Layer_1" display="none">
	<g display="inline">
		<polygon fill="#FFFFFF" points="15,1.5 28.7,14.9 14.8,29.3 0.6,15.5 		"/>
		<g>
			<g>
				<path d="M15,30.2c-1.4,0-2.6-0.5-3.6-1.5l-9.9-9.9c-1-1-1.5-2.2-1.5-3.6s0.5-2.6,1.5-3.6l9.9-9.9c1-1,2.2-1.5,3.6-1.5
					s2.6,0.5,3.6,1.5l9.9,9.9c2,2,2,5.2,0,7.2l-9.9,9.9C17.6,29.7,16.4,30.2,15,30.2z M15,2.9c-0.7,0-1.3,0.3-1.7,0.7l-9.9,9.9
					c-0.5,0.5-0.7,1.1-0.7,1.7c0,0.7,0.3,1.3,0.7,1.7l9.9,9.9c0.9,0.9,2.5,0.9,3.5,0l9.9-9.9c1-1,1-2.5,0-3.5l-9.9-9.9
					C16.3,3.1,15.7,2.9,15,2.9z"/>
			</g>
		</g>
		<path d="M9,10.9c0.1-0.1,0.2-0.1,0.2-0.3c0.5-1.7,2.3-2.6,4-2c0.2,0.1,0.2,0,0.3-0.1c0.9-1.3,2.2-1.9,3.8-1.7
			c1.9,0.3,3.2,1.9,3.2,3.8c0,0.2,0,0.2,0.2,0.3c1.1,0.5,1.6,1.8,1.4,2.9c-0.3,1.3-1.4,2.2-2.7,2.2c-1.5,0-3.1,0-4.6,0
			c-1.5,0-3,0-4.6,0c-0.1,0-0.3,0-0.4,0c-1.2-0.2-2.1-1.1-2.3-2.4C7.3,12.6,7.9,11.5,9,10.9z"/>
		<path d="M18.1,16.5c-0.1,0.1-3,2.4-3.1,2.5c0.8,0,1.5,0,2,0c0,0.1-5.2,4.2-5.3,4.3c-0.1-0.2,1.5-2,1.8-3.1c-0.6,0-2.4,0.1-3,0.1
			c0,0.1,3.5-3.7,3.5-3.7"/>
	</g>
</g>
<g id="Layer_2" display="none">
	<g display="inline">
		<polygon fill="#FFFFFF" points="15.2,1.2 28.9,14.5 15,28.9 0.8,15.1 		"/>
		<g>
			<g>
				<path d="M15,29.9c-1.4,0-2.6-0.5-3.6-1.5l-9.9-9.9c-1-1-1.5-2.2-1.5-3.6s0.5-2.6,1.5-3.6l9.9-9.9c1-1,2.2-1.5,3.6-1.5
					s2.6,0.5,3.6,1.5l9.9,9.9c2,2,2,5.2,0,7.2l-9.9,9.9C17.7,29.4,16.4,29.9,15,29.9z M15,2.5c-0.7,0-1.3,0.3-1.7,0.7l-9.9,9.9
					c-0.5,0.5-0.7,1.1-0.7,1.7s0.3,1.3,0.7,1.7l9.9,9.9c0.9,0.9,2.5,0.9,3.5,0l9.9-9.9c1-1,1-2.5,0-3.5l-9.9-9.9
					C16.3,2.8,15.7,2.5,15,2.5z"/>
			</g>
		</g>
		<path d="M17.6,21.2c-1.1,0-2.2-0.7-2.5-1.6c-0.2-0.4-0.4-1.2,0.2-2.2h-8v-1.4h10.2c0.2,0,1.4,0,2.2,0.7c0.3,0.3,0.7,0.9,0.7,1.8
			C20.3,20.1,19.3,21.1,17.6,21.2C17.6,21.2,17.6,21.2,17.6,21.2z M17.1,17.3L17.1,17.3c-0.4,0.4-1,1-0.7,1.7
			c0.2,0.4,0.7,0.8,1.3,0.8c0.9,0,1.3-0.4,1.3-1.3c0-0.3-0.1-0.6-0.3-0.8c-0.3-0.3-0.9-0.3-1.1-0.3l0,0H17.1z"/>
		<path d="M20.7,19.1l-0.1-1.4c1.3-0.1,1.3-1.1,1.3-1.3c0-0.3-0.1-0.5-0.3-0.6c-0.6-0.5-1.8-0.5-2.1-0.5l-0.1,0H7.2v-1.4h12.2
			c0.3,0,2.1-0.1,3.1,0.8c0.5,0.4,0.8,1,0.8,1.6C23.5,18.2,21.8,19,20.7,19.1z"/>
		<path d="M17.7,13.1C17.7,13.1,17.7,13.1,17.7,13.1l-10.5,0v-1.4l10.5,0l0,0c0,0,0.6,0,1-0.4c0.2-0.2,0.3-0.5,0.3-0.9
			c0-0.6-0.2-0.9-0.6-1.1C17.9,9,17.3,9.1,17,9.3c-0.8,0.7-0.8,1.7-0.8,1.7l-1.4,0c0-0.1,0-1.7,1.3-2.8C16.8,7.6,18,7.5,19,7.9
			c0.9,0.4,1.5,1.3,1.5,2.4c0,1-0.4,1.6-0.8,2C19,13,18,13.1,17.7,13.1z"/>
	</g>
</g>
<g id="Layer_3" display="none">
	<g display="inline">
		<polygon fill="#FFFFFF" points="15.2,1.3 28.9,14.6 15,29 0.9,15.2 		"/>
		<g>
			<g>
				<path d="M15.1,30c-1.4,0-2.6-0.5-3.6-1.5l-9.9-9.9c-1-1-1.5-2.2-1.5-3.6c0-1.4,0.5-2.6,1.5-3.6l9.9-9.9c1-1,2.2-1.5,3.6-1.5
					s2.6,0.5,3.6,1.5l9.9,9.9c2,2,2,5.2,0,7.2l-9.9,9.9C17.7,29.5,16.4,30,15.1,30z M15.1,2.6c-0.7,0-1.3,0.3-1.7,0.7l-9.9,9.9
					C3,13.7,2.7,14.3,2.7,15c0,0.7,0.3,1.3,0.7,1.7l9.9,9.9c0.9,0.9,2.5,0.9,3.5,0l9.9-9.9c1-1,1-2.5,0-3.5l-9.9-9.9
					C16.3,2.9,15.7,2.6,15.1,2.6z"/>
			</g>
		</g>
		<path d="M22.1,16.5c0-0.1,0-0.2,0-0.4c0.9-1.7,0.2-3.8-1.5-4.5c-0.2-0.1-0.2-0.1-0.2-0.3c0.3-1.7-0.2-3.1-1.6-4.2
			c-1.6-1.2-3.9-1-5.3,0.4c-0.1,0.1-0.2,0.1-0.4,0.1c-1.2-0.4-2.6,0.1-3.3,1.2c-0.8,1.2-0.6,2.7,0.4,3.7c1.2,1.2,2.3,2.3,3.5,3.5
			c1.2,1.2,2.3,2.3,3.5,3.5c0.1,0.1,0.2,0.2,0.4,0.3c1.1,0.8,2.4,0.8,3.6-0.1C22.1,19,22.5,17.7,22.1,16.5z"/>
		<rect x="10.4" y="13.9" transform="matrix(-0.7071 -0.7071 0.7071 -0.7071 7.1615 38.9091)" width="2.5" height="8.2"/>
	</g>
</g>
<g id="Layer_4" display="none">
	<g display="inline">
		<polygon fill="#FFFFFF" points="15.1,1.3 28.9,14.6 15,29 0.8,15.2 		"/>
		<g>
			<g>
				<path d="M15,30c-1.4,0-2.6-0.5-3.6-1.5l-9.9-9.9c-1-1-1.5-2.2-1.5-3.6s0.5-2.6,1.5-3.6l9.9-9.9c1-1,2.2-1.5,3.6-1.5
					s2.6,0.5,3.6,1.5l9.9,9.9c2,2,2,5.2,0,7.2l-9.9,9.9C17.6,29.5,16.4,30,15,30z M15,2.6c-0.7,0-1.3,0.3-1.7,0.7l-9.9,9.9
					c-0.5,0.5-0.7,1.1-0.7,1.7c0,0.7,0.3,1.3,0.7,1.7l9.9,9.9c0.9,0.9,2.5,0.9,3.5,0l9.9-9.9c1-1,1-2.5,0-3.5l-9.9-9.9
					C16.3,2.9,15.7,2.6,15,2.6z"/>
			</g>
		</g>
		<rect x="9.1" y="14.4" width="12.3" height="5.7"/>
		<polygon points="6.2,14.8 15.1,7.3 23.9,14.8 		"/>
		<rect x="9.4" y="8.6" width="2" height="3.9"/>
		<rect x="13.5" y="16" fill="#FFFFFF" width="3.4" height="4.1"/>
		<path fill="#FFFFFF" d="M15.1,16.6c-0.6-1.9-0.6-2-0.6-2.2c0-0.5,0.2-0.8,1.8-1.6l-0.6-1.2c-0.1-0.3-0.1-0.7,0.1-1l1.7-2.1L19,9.7
			l-1.4,1.7l0.7,1.5c0.2,0.4,0,1-0.4,1.2c-0.5,0.2-1,0.5-1.4,0.7c0.1,0.4,0.2,0.8,0.4,1.3L15.1,16.6z"/>
	</g>
</g>
<g id="Layer_5" display="none">
	<g display="inline">
		<polygon fill="#FFFFFF" points="15.2,1.3 28.9,14.6 15,29 0.8,15.2 		"/>
		<g>
			<g>
				<path d="M15,30c-1.4,0-2.6-0.5-3.6-1.5l-9.9-9.9c-1-1-1.5-2.2-1.5-3.6s0.5-2.6,1.5-3.6l9.9-9.9c1-1,2.2-1.5,3.6-1.5
					s2.6,0.5,3.6,1.5l9.9,9.9c2,2,2,5.2,0,7.2l-9.9,9.9C17.7,29.5,16.4,30,15,30z M15,2.6c-0.7,0-1.3,0.3-1.7,0.7l-9.9,9.9
					c-0.5,0.5-0.7,1.1-0.7,1.7c0,0.7,0.3,1.3,0.7,1.7l9.9,9.9c0.9,0.9,2.5,0.9,3.5,0l9.9-9.9c1-1,1-2.5,0-3.5l-9.9-9.9
					C16.3,2.9,15.7,2.6,15,2.6z"/>
			</g>
		</g>
	</g>
</g>
<g id="Layer_6" display="none">
	<g display="inline">
		<polygon fill="#FFFFFF" points="15.1,1.3 28.9,14.6 15,29 0.8,15.2 		"/>
		<g>
			<g>
				<path d="M15,30c-1.4,0-2.6-0.5-3.6-1.5l-9.9-9.9c-1-1-1.5-2.2-1.5-3.6c0-1.4,0.5-2.6,1.5-3.6l9.9-9.9c1-1,2.2-1.5,3.6-1.5
					s2.6,0.5,3.6,1.5l9.9,9.9c2,2,2,5.2,0,7.2l-9.9,9.9C17.6,29.5,16.4,30,15,30z M15,2.6c-0.7,0-1.3,0.3-1.7,0.7l-9.9,9.9
					c-0.5,0.5-0.7,1.1-0.7,1.7c0,0.7,0.3,1.3,0.7,1.7l9.9,9.9c0.9,0.9,2.5,0.9,3.5,0l9.9-9.9c1-1,1-2.5,0-3.5l-9.9-9.9
					C16.3,2.9,15.7,2.6,15,2.6z"/>
			</g>
		</g>
		<path d="M13,28.6c0,0-13.2-12-11.2-12.5c2-0.5,2.3-2.6,4.4-2.6s2.4,2.7,4.2,2.7s2.5-2.7,4.5-2.7s2.8,2.7,4.5,2.7
			c1.8,0,2.5-2.7,4.7-2.7c2,0,2.1,2.1,3.7,2.1s1,2,1,2l-12,11.2L13,28.6z"/>
	</g>
</g>
<g id="Layer_7" display="none">
	<polygon display="inline" fill="#FFFFFF" points="14,-30 59.5,14.2 13.5,62 -33.5,16.2 	"/>
	<g display="inline">
		<g>
			<path d="M13.6,64.9C9,64.9,4.8,63.2,1.6,60l-32.8-32.8c-3.2-3.2-4.9-7.4-4.9-11.9s1.7-8.7,4.9-11.9L1.6-29.5
				c3.2-3.2,7.4-4.9,11.9-4.9s8.7,1.7,11.9,4.9L58.3,3.3c6.6,6.6,6.6,17.3,0,23.8L25.5,60C22.3,63.2,18.1,64.9,13.6,64.9z
				 M13.6-25.7c-2.2,0-4.2,0.8-5.7,2.4L-25,9.5c-1.5,1.5-2.4,3.6-2.4,5.7s0.8,4.2,2.4,5.7L7.8,53.8c3,3,8.4,3,11.5,0L52.1,21
				c3.2-3.2,3.2-8.3,0-11.5L19.3-23.4C17.8-24.9,15.7-25.7,13.6-25.7z"/>
		</g>
	</g>
	<g display="inline">
		<path d="M31.4-3.8C33.6-1.2,4.5,44,2.7,43c-1.8-1,7.3-16.7,3.8-22c-5.4-3.5-20.8,5.8-21.8,4C-16.4,23.2,28.8-6,31.4-3.8
			C31.4-3.8,31.4-3.8,31.4-3.8"/>
		
			<line fill="none" stroke="#000000" stroke-width="2.7787" stroke-linecap="round" stroke-miterlimit="10" x1="10.2" y1="-7.7" x2="35.3" y2="17.4"/>
		
			<line fill="none" stroke="#000000" stroke-width="2.7787" stroke-linecap="round" stroke-miterlimit="10" x1="3.3" y1="-0.8" x2="28.4" y2="24.3"/>
	</g>
</g>
<g id="Layer_8" display="none">
	<polygon display="inline" fill="#FFFFFF" points="14,-30.2 59.5,14 13.5,61.8 -33.5,16 	"/>
	<g display="inline">
		<g>
			<path d="M13.6,64.9C9,64.9,4.8,63.2,1.6,60l-32.8-32.8c-3.2-3.2-4.9-7.4-4.9-11.9s1.7-8.7,4.9-11.9L1.6-29.5
				c3.2-3.2,7.4-4.9,11.9-4.9s8.7,1.7,11.9,4.9L58.3,3.3c6.6,6.6,6.6,17.3,0,23.8L25.5,60C22.3,63.2,18.1,64.9,13.6,64.9z
				 M13.6-25.7c-2.2,0-4.2,0.8-5.7,2.4L-25,9.5c-1.5,1.5-2.4,3.6-2.4,5.7s0.8,4.2,2.4,5.7L7.8,53.8c3,3,8.4,3,11.5,0L52.1,21
				c3.2-3.2,3.2-8.3,0-11.5L19.3-23.4C17.8-24.9,15.7-25.7,13.6-25.7z"/>
		</g>
	</g>
	<g display="inline">
		<path d="M30.8,31.1c0,7-5.7,12.7-12.7,12.7H9.6C2.7,43.8-3,38-3,31.1V10.8c0-7,5.7-12.7,12.7-12.7h8.5c7,0,12.7,5.7,12.7,12.7
			V31.1z"/>
		<path d="M21.4-1.7c0,1.6-1.3,3-3,3h-10c-1.6,0-3-1.3-3-3v-6.3c0-1.6,1.3-3,3-3h10c1.6,0,3,1.3,3,3V-1.7z"/>
		<path fill="#FFFFFF" d="M18.8-3.6c0,0.8-0.7,1.5-1.5,1.5h-1c-0.8,0-1.5-0.7-1.5-1.5v-2.5c0-0.8,0.7-1.5,1.5-1.5h1
			c0.8,0,1.5,0.7,1.5,1.5V-3.6z"/>
		<path fill="#FFFFFF" d="M12.3-3.6c0,0.8-0.7,1.5-1.5,1.5h-1c-0.8,0-1.5-0.7-1.5-1.5v-2.5c0-0.8,0.7-1.5,1.5-1.5h1
			c0.8,0,1.5,0.7,1.5,1.5V-3.6z"/>
	</g>
</g>
<g id="Layer_9">
	<g>
		<polygon fill="#FFFFFF" points="15.1,1.3 28.9,14.6 15,29 0.8,15.2 		"/>
		<g>
			<g>
				<path d="M15,30c-1.4,0-2.6-0.5-3.6-1.5l-9.9-9.9c-1-1-1.5-2.2-1.5-3.6s0.5-2.6,1.5-3.6l9.9-9.9c1-1,2.2-1.5,3.6-1.5
					s2.6,0.5,3.6,1.5l9.9,9.9c2,2,2,5.2,0,7.2l-9.9,9.9C17.6,29.5,16.4,30,15,30z M15,2.6c-0.7,0-1.3,0.3-1.7,0.7l-9.9,9.9
					c-0.5,0.5-0.7,1.1-0.7,1.7c0,0.7,0.3,1.3,0.7,1.7l9.9,9.9c0.9,0.9,2.5,0.9,3.5,0l9.9-9.9c1-1,1-2.5,0-3.5l-9.9-9.9
					C16.3,2.9,15.7,2.6,15,2.6z"/>
			</g>
		</g>
		<path d="M15.5,7.4c-0.3-0.1-8.6,11.6-8.6,11.6c-0.2,0.3-0.1,0.5,0.3,0.5c0,0,11.9,0.1,11.9,0.1C12.9,15.6,15.8,7.4,15.5,7.4z"/>
		<path d="M16.3,9.4c0,0-0.6,0.6-0.5,1c0.1,0.4,0.4,0.8,0.7,0.9c0.3,0.1,1-0.3,1-0.6C17.6,10.3,17,9.1,16.3,9.4z"/>
		<path d="M16.4,13c-0.7,0.3-0.4,0.8-0.1,1.5c0.3,0.7,1,1,1.6,0.9c0.6-0.1,0.3-1.2-0.1-1.5C17.4,13.5,16.9,12.8,16.4,13z"/>
		<path d="M18,11.6c-0.2,0.4-0.2,0.7,0,0.9s0.9,0.1,1.1-0.1c0.2-0.2,0.3-1-0.2-1.1C18.4,11.2,18,11.6,18,11.6z"/>
		<path d="M19.9,14.9c-0.8,0.3-1.2,1-0.9,1.9c0.3,0.9,0.1,2,0.6,2.2c0.5,0.2,2.7,0.4,2.6-0.5c0-1-0.4-2.4-0.9-2.7
			C21,15.5,20.3,14.8,19.9,14.9z"/>
		<path d="M19.4,13.4c0.1-0.2,0.2-0.3,0.5-0.1c0.3,0.1,0.6,0.5,0.3,0.7C20,14.1,19.2,13.9,19.4,13.4z"/>
	</g>
</g>
<g id="Layer_10" display="none">
	<g display="inline">
		<polygon fill="#FFFFFF" points="15.1,1.3 28.9,14.6 15,29 0.8,15.2 		"/>
		<g>
			<g>
				<path d="M15,30c-1.4,0-2.6-0.5-3.6-1.5l-9.9-9.9c-1-1-1.5-2.2-1.5-3.6c0-1.4,0.5-2.6,1.5-3.6l9.9-9.9c1-1,2.2-1.5,3.6-1.5
					s2.6,0.5,3.6,1.5l9.9,9.9c2,2,2,5.2,0,7.2l-9.9,9.9C17.6,29.5,16.4,30,15,30z M15,2.6c-0.7,0-1.3,0.3-1.7,0.7l-9.9,9.9
					c-0.5,0.5-0.7,1.1-0.7,1.7c0,0.7,0.3,1.3,0.7,1.7l9.9,9.9c0.9,0.9,2.5,0.9,3.5,0l9.9-9.9c1-1,1-2.5,0-3.5l-9.9-9.9
					C16.3,2.9,15.7,2.6,15,2.6z"/>
			</g>
		</g>
		<path d="M19,16.4c-0.4-3.1-3-4.4-3.9-9.1v0c0,0,0,0,0,0c0,0,0,0,0-0.1v0.1c-0.9,4.7-3.6,6.2-3.9,9.1c-0.5,4,2.4,5,3.9,5
			S19.4,20.2,19,16.4z"/>
	</g>
</g>
<g id="Layer_11" display="none">
	<g display="inline">
		<polygon fill="#FFFFFF" points="15,1.3 28.8,14.6 14.9,29 0.7,15.2 		"/>
		<g>
			<g>
				<path d="M14.9,30c-1.4,0-2.6-0.5-3.6-1.5l-9.9-9.9c-1-1-1.5-2.2-1.5-3.6s0.5-2.6,1.5-3.6l9.9-9.9c1-1,2.2-1.5,3.6-1.5
					s2.6,0.5,3.6,1.5l9.9,9.9c2,2,2,5.2,0,7.2l-9.9,9.9C17.5,29.5,16.2,30,14.9,30z M14.9,2.6c-0.7,0-1.3,0.3-1.7,0.7l-9.9,9.9
					c-0.5,0.5-0.7,1.1-0.7,1.7c0,0.7,0.3,1.3,0.7,1.7l9.9,9.9c0.9,0.9,2.5,0.9,3.5,0l9.9-9.9c1-1,1-2.5,0-3.5l-9.9-9.9
					C16.2,2.9,15.5,2.6,14.9,2.6z"/>
			</g>
		</g>
		<g>
			<ellipse cx="14.9" cy="10.4" rx="1" ry="1.5"/>
			<ellipse cx="14.9" cy="14" rx="2.1" ry="3"/>
			<ellipse cx="14.9" cy="18.8" rx="1.7" ry="3.9"/>
			<path d="M20.3,15.3C20.2,15.3,20.2,15.3,20.3,15.3l-0.9-0.1c-0.2,0-0.3-0.1-0.3-0.3l-0.7-2.3l-2.1,0c-0.2,0-0.4-0.2-0.4-0.4
				c0-0.2,0.2-0.4,0.4-0.4l2.4,0c0.2,0,0.3,0.1,0.4,0.3l0.7,2.3l0.6,0.1c0.2,0,0.4,0.2,0.3,0.4C20.6,15.2,20.5,15.3,20.3,15.3z"/>
			<path d="M20,16.8c-0.2,0-0.3,0-1.9-2.3l-1.7,0.1c-0.2,0-0.4-0.1-0.4-0.4c0-0.2,0.1-0.4,0.4-0.4l1.9-0.1c0.1,0,0.2,0.1,0.3,0.2
				c0.6,0.9,1.3,1.8,1.6,2.1c0.3,0,0.8,0,0.8,0l0,0.8C20.9,16.7,20.1,16.8,20,16.8z"/>
			<path d="M19.7,21.4c-0.1,0-0.1,0-0.2-0.1c-1-0.7-1-0.8-1-1c0-0.1-0.2-1.7-0.3-2.9l-2.2-1.7c-0.2-0.1-0.2-0.4-0.1-0.5
				c0.1-0.2,0.4-0.2,0.5-0.1l2.3,1.8c0.1,0.1,0.1,0.2,0.1,0.3c0.1,1.2,0.2,2.5,0.3,3c0.1,0.1,0.4,0.3,0.7,0.5
				c0.2,0.1,0.2,0.3,0.1,0.5C20,21.4,19.8,21.4,19.7,21.4z"/>
			<path d="M15.4,9.8c-0.1,0-0.1,0-0.2,0c-0.1-0.1-0.2-0.3-0.1-0.4l1.9-3.2C17.2,6,17.3,5.9,17.5,6c0.1,0.1,0.2,0.3,0.1,0.4
				l-1.9,3.2C15.6,9.7,15.5,9.8,15.4,9.8z"/>
			<path d="M9.6,15.2c-0.2,0-0.4-0.1-0.4-0.3c0-0.2,0.1-0.4,0.3-0.4l0.6-0.1l0.7-2.3c0-0.2,0.2-0.3,0.4-0.3c0,0,0,0,0,0l2.4,0
				c0.2,0,0.4,0.2,0.4,0.4c0,0.2-0.2,0.4-0.4,0.4l-2.1,0l-0.7,2.3c0,0.1-0.2,0.3-0.3,0.3L9.6,15.2C9.6,15.2,9.6,15.2,9.6,15.2z"/>
			<path d="M9.9,16.7c-0.1,0-1,0-1,0l0-0.8c0,0,0.5,0,0.8,0c0.3-0.3,1-1.3,1.6-2.1c0.1-0.1,0.2-0.2,0.3-0.2l1.9,0.1
				c0.2,0,0.4,0.2,0.4,0.4c0,0.2-0.2,0.4-0.4,0.4l-1.7-0.1C10.2,16.7,10.1,16.7,9.9,16.7z"/>
			<path d="M10.2,21.3c-0.1,0-0.2-0.1-0.3-0.2C9.7,21,9.8,20.8,10,20.6c0.3-0.2,0.6-0.4,0.7-0.5c0-0.5,0.2-1.8,0.3-3
				c0-0.1,0.1-0.2,0.1-0.3l2.3-1.8c0.2-0.1,0.4-0.1,0.5,0.1c0.1,0.2,0.1,0.4-0.1,0.5l-2.2,1.7c-0.1,1.2-0.3,2.8-0.3,2.9
				c0,0.2,0,0.3-1,0.9C10.3,21.3,10.2,21.3,10.2,21.3z"/>
			<path d="M14.5,9.7c-0.1,0-0.2-0.1-0.3-0.1l-1.9-3.2c-0.1-0.1,0-0.3,0.1-0.4c0.1-0.1,0.3,0,0.4,0.1l1.9,3.2c0.1,0.1,0,0.3-0.1,0.4
				C14.6,9.7,14.5,9.7,14.5,9.7z"/>
		</g>
	</g>
</g>
<g id="Layer_12" display="none">
	<g display="inline">
		<polygon fill="#FFFFFF" points="15.1,1.3 28.9,14.6 15,29 0.8,15.2 		"/>
		<g>
			<g>
				<path d="M15,30c-1.4,0-2.6-0.5-3.6-1.5l-9.9-9.9c-1-1-1.5-2.2-1.5-3.6s0.5-2.6,1.5-3.6l9.9-9.9c1-1,2.2-1.5,3.6-1.5
					s2.6,0.5,3.6,1.5l9.9,9.9c2,2,2,5.2,0,7.2l-9.9,9.9C17.6,29.5,16.4,30,15,30z M15,2.6c-0.7,0-1.3,0.3-1.7,0.7l-9.9,9.9
					c-0.5,0.5-0.7,1.1-0.7,1.7c0,0.7,0.3,1.3,0.7,1.7l9.9,9.9c0.9,0.9,2.5,0.9,3.5,0l9.9-9.9c1-1,1-2.5,0-3.5l-9.9-9.9
					C16.3,2.9,15.7,2.6,15,2.6z"/>
			</g>
		</g>
		<g>
			<g>
				<path d="M12.4,20.5c0.2-0.3,0.2-0.6,0.1-0.9c-0.1-0.7-0.3-1.4-0.4-2.2c-0.2-1-0.2-1.9-0.2-2.9c0-0.1,0-0.2,0-0.3c0,0,0,0,0,0
					c-0.1,0.6-0.5,1-1,1.4c-0.7,0.6-1.2,1.2-1.7,2c-0.1,0.1-0.1,0.2-0.2,0.3C8.9,18,8.9,18,8.8,18c0-0.1-0.1-0.1-0.1-0.2
					c0-0.2,0-0.4,0-0.5c0.1-0.4,0.3-0.8,0.5-1.2c0.4-0.9,1-1.6,1.7-2.4c0.5-0.6,1-1.2,1.5-1.9c0.4-0.5,0.7-1.2,0.8-1.8
					c0.1-0.4,0.1-0.8,0.1-1.2c0-0.4,0-0.7,0.1-1.1c0.3-1.1,1.2-1.6,2.3-1.3c0.3,0.1,0.5,0.2,0.7,0.3c0.1,0,0.2,0.1,0.4,0.1
					c0.2,0,0.5,0,0.7,0C17.7,6.9,17.9,7,18,7c0.1,0.1,0.1,0.1,0,0.2c-0.2,0.1-0.3,0.2-0.5,0.4C17.2,7.7,17,7.9,16.8,8
					c-0.1,0.1-0.2,0.2-0.3,0.4c-0.3,0.8-0.3,1.6,0,2.4c0.4,1,0.9,1.9,1.6,2.8c0.6,0.8,1.2,1.6,1.8,2.4c0.3,0.4,0.5,0.8,0.6,1.3
					c0.1,0.3,0,0.5-0.1,0.7c0,0.1-0.1,0.1-0.2,0c-0.1-0.1-0.3-0.2-0.4-0.3c-0.4-0.4-0.7-0.9-1.1-1.3c-0.2-0.3-0.5-0.5-0.7-0.7
					c-0.3-0.3-0.5-0.5-0.7-0.8c0,0.1,0,0.2,0,0.3c0,1.2-0.1,2.4-0.4,3.5c-0.1,0.5-0.3,0.9-0.5,1.3c-0.1,0.2-0.2,0.5-0.3,0.7
					c0,0.1-1.6,1.3-1.8,1.2c-0.2,0-0.4-0.1-0.6-0.1c-0.1,0-0.3-0.1-0.3-0.3c0,0-0.1-0.1-0.1-0.1C12.9,21.5,12.3,20.5,12.4,20.5z
					 M15.2,19.5c0,0.1,0,0.1,0,0.2c0,0.3,0.1,0.6,0.1,0.9c0,0.1,0.1,0.2,0.2,0.2c0.1,0,0.2,0,0.3-0.1c0.1-0.1,0.2-0.2,0.3-0.4
					c0.5-1,0.8-2.1,0.9-3.2c0.1-1,0.2-2.1,0.1-3.1c0-0.4,0-0.8-0.1-1.1c-0.1-0.5-0.3-1-0.5-1.5c-0.2-0.6-0.4-1.2-0.4-1.9
					c0-0.2,0-0.3,0-0.5c0,0,0,0,0,0c0,0-0.1,0.1-0.1,0.1c0,0.1-0.1,0.1-0.1,0.2c-0.3,0.4-0.8,0.5-1.2,0.1c-0.1-0.1-0.1-0.1-0.2-0.2
					C14.3,9.1,14.3,9,14.2,9c-0.1-0.1-0.3-0.1-0.3,0.1c-0.1,0.2-0.1,0.3-0.1,0.5c-0.1,0.3-0.1,0.6-0.2,0.9c-0.1,0.4-0.3,0.9-0.4,1.3
					c-0.1,0.3-0.2,0.7-0.2,1.1c0,0.3,0.1,0.6,0.1,0.9c0.1,0.6,0.1,1.1-0.2,1.7c-0.4,0.9-0.6,1.9-0.4,2.9c0.1,0.7,0.3,1.3,0.7,1.9
					c0.1,0.2,0.3,0.4,0.5,0.5c0.2,0.1,0.5,0.2,0.7,0.2c0.4,0.1,0.5-0.1,0.6-0.4c0,0,0,0,0-0.1C15.1,20.2,15.1,19.9,15.2,19.5z"/>
			</g>
			<path fill="#FFFFFF" d="M15.2,19.5c-0.1,0.4-0.1,0.7-0.2,1.1c0,0,0,0,0,0.1c-0.1,0.4-0.3,0.5-0.6,0.4c-0.2,0-0.5-0.1-0.7-0.2
				c-0.2-0.1-0.4-0.3-0.5-0.5c-0.3-0.6-0.5-1.2-0.7-1.9c-0.2-1,0-2,0.4-2.9c0.2-0.6,0.2-1.1,0.2-1.7c0-0.3-0.1-0.6-0.1-0.9
				c0-0.4,0.1-0.7,0.2-1.1c0.1-0.4,0.3-0.9,0.4-1.3c0.1-0.3,0.1-0.6,0.2-0.9c0-0.2,0.1-0.3,0.1-0.5C13.9,8.9,14,8.9,14.2,9
				c0.1,0.1,0.2,0.1,0.2,0.2c0.1,0.1,0.1,0.1,0.2,0.2c0.4,0.4,0.9,0.3,1.2-0.1c0-0.1,0.1-0.1,0.1-0.2c0,0,0.1-0.1,0.1-0.1
				c0,0,0,0,0,0c0,0.2,0,0.3,0,0.5c-0.1,0.7,0.1,1.3,0.4,1.9c0.2,0.5,0.4,1,0.5,1.5c0.1,0.4,0.1,0.8,0.1,1.1c0,1,0,2.1-0.1,3.1
				c-0.1,1.1-0.4,2.2-0.9,3.2c-0.1,0.1-0.2,0.3-0.3,0.4c-0.1,0.1-0.2,0.1-0.3,0.1c-0.1,0-0.2-0.1-0.2-0.2c-0.1-0.3-0.1-0.6-0.1-0.9
				C15.2,19.6,15.2,19.6,15.2,19.5z"/>
		</g>
		<path d="M15.7,18.5c0,0,5-0.2,7.2,0.4c1.8,0.5-3.7,1.5-5.5,1.8c-2.7,0.5-2.9,1.2-1.9,1.5c2.7,0.8,3,1.9,2,2.5s-2.4,0.9-4.6,0.5
			s-2.5-2-1.5-2.6c0.9-0.5,1.6-1.8,0.5-2.2c-1.1-0.4-4.5,0-4.8-1c-0.3-1,3.9-0.9,3.9-0.9"/>
		<path d="M12.1,17.5c0,0,0,1-0.5,1.2c-0.5,0.2,6.2,0.2,5.8,0c-0.4-0.2-0.3-1.5-0.3-1.5S13.6,19.1,12.1,17.5z"/>
	</g>
</g>
<g id="Layer_13" display="none">
	<g display="inline">
		<polygon fill="#FFFFFF" points="15.1,1.3 28.9,14.6 15,29 0.8,15.2 		"/>
		<g>
			<g>
				<path d="M15,30c-1.4,0-2.6-0.5-3.6-1.5l-9.9-9.9c-1-1-1.5-2.2-1.5-3.6c0-1.4,0.5-2.6,1.5-3.6l9.9-9.9c1-1,2.2-1.5,3.6-1.5
					s2.6,0.5,3.6,1.5l9.9,9.9c2,2,2,5.2,0,7.2l-9.9,9.9C17.6,29.5,16.4,30,15,30z M15,2.6c-0.7,0-1.3,0.3-1.7,0.7l-9.9,9.9
					c-0.5,0.5-0.7,1.1-0.7,1.7c0,0.7,0.3,1.3,0.7,1.7l9.9,9.9c0.9,0.9,2.5,0.9,3.5,0l9.9-9.9c1-1,1-2.5,0-3.5l-9.9-9.9
					C16.3,2.9,15.7,2.6,15,2.6z"/>
			</g>
		</g>
		<path d="M11.1,18.5c0,0-4.3-0.1-3.9,0.9c0.3,1,3.7,0.6,4.8,1c1.1,0.4,0.5,1.7-0.5,2.2s-0.7,2.2,1.5,2.6s3.7,0.1,4.6-0.5
			c1-0.6,0.7-1.7-2-2.5c-1-0.3-0.8-1.1,1.9-1.5c1.8-0.3,7.3-1.3,5.5-1.8c-2.2-0.6-7.2-0.4-7.2-0.4"/>
		<g>
			<ellipse transform="matrix(6.199881e-03 -1 1 6.199881e-03 4.1758 23.7462)" cx="14" cy="9.8" rx="1.3" ry="3.3"/>
			<rect x="10.7" y="9.8" width="6.7" height="9.2"/>
			<ellipse fill="#FFFFFF" cx="14" cy="9.7" rx="2.7" ry="0.9"/>
			<ellipse cx="12.8" cy="9.7" rx="0.9" ry="0.3"/>
			<path fill="#FFFFFF" d="M11.9,10.9C11.9,10.9,11.9,10.9,11.9,10.9c0,0.1,0.1,0.2,0.1,0.2c0,0.1,0.1,0.1,0.1,0.2
				c0,0.1,0.1,0.1,0.2,0.1c0.1,0,0.1,0,0.1,0c0,0,0.1-0.1,0.1-0.1c0,0,0.1,0,0.2,0c0,0,0.1,0,0.1,0l0.2,0.1l0.1,0c0,0,0.1,0,0.1,0.1
				c0.1,0,0.2,0.1,0.2,0.1c0.1,0.1,0.3,0.2,0.4,0.3c0.1,0.1,0.2,0.3,0.3,0.4c0.1,0.1,0.1,0.3,0.1,0.4c0,0.1,0,0.3,0,0.4
				c0,0.1-0.1,0.2-0.1,0.3c0,0.1-0.1,0.1-0.1,0.1c0,0,0,0,0,0s0,0-0.1,0c0,0-0.1-0.1-0.1-0.1c-0.1,0-0.1-0.1-0.2-0.1
				c-0.1,0-0.2-0.1-0.2-0.1c-0.1,0-0.2,0-0.2,0c-0.1,0-0.1,0-0.2,0c0,0-0.1,0-0.1,0c0,0-0.1,0-0.1,0c0,0-0.1,0-0.1,0l0,0l-0.1,0
				l-0.1,0l0,0l0,0l0,0c0,0,0.1,0,0,0l0,0l0,0l0,0c-0.1,0-0.2-0.1-0.2-0.1c-0.2-0.1-0.3-0.2-0.5-0.3c-0.1-0.1-0.3-0.3-0.4-0.5
				c-0.1-0.2-0.1-0.4,0-0.6c0-0.2,0.1-0.3,0.2-0.4c0.1-0.1,0.2-0.1,0.2-0.2C11.7,10.9,11.7,10.9,11.9,10.9
				C11.8,10.9,11.9,10.9,11.9,10.9z"/>
			<path fill="#FFFFFF" d="M11.9,13.2C11.9,13.2,11.9,13.2,11.9,13.2c0,0.1,0.1,0.2,0.1,0.2c0,0.1,0.1,0.1,0.1,0.2
				c0,0.1,0.1,0.1,0.2,0.1c0.1,0,0.1,0,0.1,0c0,0,0.1-0.1,0.1-0.1c0,0,0.1,0,0.2,0c0,0,0.1,0,0.1,0l0.2,0.1l0.1,0c0,0,0.1,0,0.1,0.1
				c0.1,0,0.2,0.1,0.2,0.1c0.1,0.1,0.3,0.2,0.4,0.3c0.1,0.1,0.2,0.3,0.3,0.4c0.1,0.1,0.1,0.3,0.1,0.4c0,0.1,0,0.3,0,0.4
				c0,0.1-0.1,0.2-0.1,0.3c0,0.1-0.1,0.1-0.1,0.1c0,0,0,0,0,0s0,0-0.1,0c0,0-0.1-0.1-0.1-0.1c-0.1,0-0.1-0.1-0.2-0.1
				c-0.1,0-0.2-0.1-0.2-0.1c-0.1,0-0.2,0-0.2,0c-0.1,0-0.1,0-0.2,0c0,0-0.1,0-0.1,0c0,0-0.1,0-0.1,0c0,0-0.1,0-0.1,0l0,0l-0.1,0
				l-0.1,0l0,0l0,0l0,0c0,0,0.1,0,0,0l0,0l0,0l0,0c-0.1,0-0.2-0.1-0.2-0.1c-0.2-0.1-0.3-0.2-0.5-0.3c-0.1-0.1-0.3-0.3-0.4-0.5
				c-0.1-0.2-0.1-0.4,0-0.6c0-0.2,0.1-0.3,0.2-0.4c0.1-0.1,0.2-0.1,0.2-0.2C11.7,13.3,11.7,13.2,11.9,13.2
				C11.8,13.2,11.9,13.2,11.9,13.2z"/>
			<path fill="#FFFFFF" d="M11.9,15.5C11.9,15.5,11.9,15.6,11.9,15.5c0,0.1,0.1,0.2,0.1,0.2c0,0.1,0.1,0.1,0.1,0.2
				c0,0.1,0.1,0.1,0.2,0.1c0.1,0,0.1,0,0.1,0c0,0,0.1-0.1,0.1-0.1c0,0,0.1,0,0.2,0c0,0,0.1,0,0.1,0l0.2,0.1l0.1,0c0,0,0.1,0,0.1,0.1
				c0.1,0,0.2,0.1,0.2,0.1c0.1,0.1,0.3,0.2,0.4,0.3c0.1,0.1,0.2,0.3,0.3,0.4c0.1,0.1,0.1,0.3,0.1,0.4c0,0.1,0,0.3,0,0.4
				c0,0.1-0.1,0.2-0.1,0.3c0,0.1-0.1,0.1-0.1,0.1c0,0,0,0,0,0s0,0-0.1,0c0,0-0.1-0.1-0.1-0.1c-0.1,0-0.1-0.1-0.2-0.1
				c-0.1,0-0.2-0.1-0.2-0.1c-0.1,0-0.2,0-0.2,0c-0.1,0-0.1,0-0.2,0c0,0-0.1,0-0.1,0c0,0-0.1,0-0.1,0c0,0-0.1,0-0.1,0l0,0l-0.1,0
				l-0.1,0l0,0l0,0l0,0c0,0,0.1,0,0,0l0,0l0,0l0,0c-0.1,0-0.2-0.1-0.2-0.1c-0.2-0.1-0.3-0.2-0.5-0.3c-0.1-0.1-0.3-0.3-0.4-0.5
				c-0.1-0.2-0.1-0.4,0-0.6c0-0.2,0.1-0.3,0.2-0.4c0.1-0.1,0.2-0.1,0.2-0.2C11.7,15.6,11.7,15.6,11.9,15.5
				C11.8,15.5,11.9,15.5,11.9,15.5z"/>
		</g>
	</g>
</g>
<g id="Layer_14" display="none">
	<g display="inline">
		<polygon fill="#FFFFFF" points="15.1,1.3 28.9,14.6 15,29 0.8,15.2 		"/>
		<g>
			<g>
				<path d="M15,30c-1.4,0-2.6-0.5-3.6-1.5l-9.9-9.9c-1-1-1.5-2.2-1.5-3.6s0.5-2.6,1.5-3.6l9.9-9.9c1-1,2.2-1.5,3.6-1.5
					s2.6,0.5,3.6,1.5l9.9,9.9c2,2,2,5.2,0,7.2l-9.9,9.9C17.6,29.5,16.3,30,15,30z M15,2.6c-0.7,0-1.3,0.3-1.7,0.7l-9.9,9.9
					c-0.5,0.5-0.7,1.1-0.7,1.7s0.3,1.3,0.7,1.7l9.9,9.9c0.9,0.9,2.5,0.9,3.5,0l9.9-9.9c1-1,1-2.5,0-3.5l-9.9-9.9
					C16.3,2.9,15.6,2.6,15,2.6z"/>
			</g>
		</g>
		<g>
			<path d="M18.2,19.5c-0.2,0.1-6.1,0.7-7.6-3.4C9.3,12.7,11,6.7,11,6.7s0.4,2.2,3.8,3.3s5.6,3.1,4.6,7.7L18.2,19.5z"/>
			<path fill="#FFFFFF" d="M18.2,19.5c0,0-0.1-0.1-0.3-0.2c-0.2-0.2-0.5-0.4-0.8-0.6c-0.6-0.6-1.4-1.4-2.1-2.3
				c-0.3-0.5-0.6-0.9-0.8-1.4c-0.1-0.2-0.2-0.5-0.3-0.7c-0.1-0.2-0.2-0.4-0.2-0.6c-0.1-0.4-0.2-0.7-0.2-1c0-0.2-0.1-0.4-0.1-0.4
				s0.1,0.1,0.1,0.3c0.1,0.2,0.2,0.5,0.4,0.9c0.1,0.2,0.2,0.4,0.3,0.6c0.1,0.2,0.3,0.4,0.4,0.6c0.3,0.4,0.6,0.8,1,1.1
				c0.7,0.7,1.6,1.3,2.3,1.7c0.3,0.2,0.6,0.3,0.8,0.4C18.9,18,19,18,19,18c0.4,0.2,0.6,0.7,0.3,1.1C19.1,19.6,18.6,19.7,18.2,19.5z"
				/>
			<path d="M19.2,22.6C19.2,22.6,19.2,22.6,19.2,22.6C19.2,22.7,19.3,22.7,19.2,22.6C19.3,22.6,19.2,22.6,19.2,22.6
				C19.1,22.7,19.2,22.7,19.2,22.6L19.2,22.6L19.2,22.6c-0.1,0-0.1,0-0.1,0c-0.1-0.1-0.2-0.3-0.4-0.6c-0.3-0.4-0.7-0.9-1.2-1.4
				c-0.5-0.5-1-0.9-1.4-1.3c-0.2-0.2-0.4-0.4-0.5-0.5c-0.1-0.1-0.2-0.2-0.2-0.2s0.1,0,0.3,0c0.2,0,0.4,0,0.7,0.1
				c0.6,0.1,1.4,0.5,2,1.1c0.6,0.6,1,1.4,1,2.1c0,0.3,0,0.6-0.1,0.8C19.3,22.6,19.3,22.6,19.2,22.6L19.2,22.6l0.1,0.1l0,0
				c0,0-0.1,0-0.1,0C19.1,22.7,19.2,22.7,19.2,22.6C19.2,22.6,19.2,22.6,19.2,22.6z"/>
		</g>
		<g>
			<rect x="11.8" y="9.8" fill="#FFFFFF" width="0.8" height="3"/>
			<rect x="10.7" y="10.9" fill="#FFFFFF" width="3" height="0.8"/>
		</g>
	</g>
</g>
<g id="Layer_15" display="none">
	<g display="inline">
		<polygon fill="#FFFFFF" points="15.1,1.2 28.9,14.6 15,29 0.8,15.2 		"/>
		<g>
			<g>
				<path d="M15,30c-1.4,0-2.6-0.5-3.6-1.5l-9.9-9.9c-1-1-1.5-2.2-1.5-3.6s0.5-2.6,1.5-3.6l9.9-9.9c1-1,2.2-1.5,3.6-1.5
					s2.6,0.5,3.6,1.5l9.9,9.9c2,2,2,5.2,0,7.2l-9.9,9.9C17.6,29.4,16.4,30,15,30z M15,2.6c-0.7,0-1.3,0.3-1.7,0.7l-9.9,9.9
					c-0.5,0.5-0.7,1.1-0.7,1.7c0,0.7,0.3,1.3,0.7,1.7l9.9,9.9c0.9,0.9,2.5,0.9,3.5,0l9.9-9.9c1-1,1-2.5,0-3.5l-9.9-9.9
					C16.3,2.9,15.7,2.6,15,2.6z"/>
			</g>
		</g>
		<path d="M22,15.1c-0.2,0-0.3-0.1-0.3-0.3v-1.1c0-0.2-0.1-0.3-0.3-0.3H20c-0.2,0-0.3-0.1-0.3-0.3v-2.1c0-0.2-0.1-0.3-0.3-0.3h-1.3
			c-0.2,0-0.3,0.1-0.3,0.3V13c0,0.2-0.1,0.3-0.3,0.3h-1c-0.2,0-0.3-0.1-0.3-0.3v-2.1c0-0.2-0.1-0.3-0.3-0.3h-1.3
			c-0.2,0-0.3,0.1-0.3,0.3V13c0,0.2-0.1,0.3-0.3,0.3h-1c-0.2,0-0.3-0.1-0.3-0.3v-2.1c0-0.2-0.1-0.3-0.3-0.3h-1.3
			c-0.2,0-0.3,0.1-0.3,0.3V13c0,0.2-0.1,0.3-0.3,0.3H8.9c-0.2,0-0.3,0.1-0.3,0.3v1.1c0,0.2-0.1,0.3-0.3,0.3H5.4
			c-0.2,0-0.2,0.1-0.1,0.2L8.5,19c0.1,0.1,0.4,0.2,0.5,0.2h11.6c0.2,0,0.4-0.1,0.6-0.2l3.7-3.7c0.1-0.1,0.1-0.2-0.1-0.2L22,15.1
			L22,15.1z"/>
	</g>
</g>
<g id="Layer_16" display="none">
	<polygon display="inline" fill="#FFFFFF" points="15.1,1.3 28.9,14.6 15,29 0.8,15.2 	"/>
	<g display="inline">
		<g>
			<path d="M15,30c-1.4,0-2.6-0.5-3.6-1.5l-9.9-9.9c-1-1-1.5-2.2-1.5-3.6c0-1.4,0.5-2.6,1.5-3.6l9.9-9.9c1-1,2.2-1.5,3.6-1.5
				s2.6,0.5,3.6,1.5l9.9,9.9c2,2,2,5.2,0,7.2l-9.9,9.9C17.7,29.5,16.4,30,15,30z M15,2.6c-0.7,0-1.3,0.3-1.7,0.7l-9.9,9.9
				c-0.5,0.5-0.7,1.1-0.7,1.7c0,0.7,0.3,1.3,0.7,1.7l9.9,9.9c0.9,0.9,2.5,0.9,3.5,0l9.9-9.9c1-1,1-2.5,0-3.5l-9.9-9.9
				C16.3,2.9,15.7,2.6,15,2.6z"/>
		</g>
	</g>
	<g display="inline">
		<path d="M19.3,14.9c-1,1.4-10.2,0.7-11.8,0.4s4.5-5.5,7.9-4.7C18.7,11.3,19.4,14.6,19.3,14.9z"/>
		<ellipse transform="matrix(0.2341 -0.9722 0.9722 0.2341 -2.7417 19.4322)" cx="11" cy="11.5" rx="1.7" ry="1.1"/>
		<path d="M17.1,19.4c-0.1,0-0.2,0-0.3,0c-0.3,0-0.6-0.3-0.6-0.6c0-0.3,0.3-0.6,0.6-0.6c0,0,0,0,0,0c4.7,0,5.5-0.8,5.6-1
			c0,0,0.1-0.1,0-0.3c-0.5-0.8-2.5-1.8-3.8-1.8c-0.3,0-0.6-0.3-0.6-0.6c0-0.3,0.3-0.6,0.6-0.6c1.6,0,4,1.1,4.8,2.4
			c0.3,0.5,0.3,1,0,1.5C22.7,18.9,20.6,19.4,17.1,19.4z"/>
	</g>
</g>
</svg>
