<?xml version="1.0" encoding="utf-8"?>
<!-- Generator: Adobe Illustrator 17.0.0, SVG Export Plug-In . SVG Version: 6.00 Build 0)  -->
<!DOCTYPE svg PUBLIC "-//W3C//DTD SVG 1.1 Tiny//EN" "http://www.w3.org/Graphics/SVG/1.1/DTD/svg11-tiny.dtd">
<svg version="1.1" baseProfile="tiny" id="Layer_2" xmlns="http://www.w3.org/2000/svg" xmlns:xlink="http://www.w3.org/1999/xlink"
	 x="0px" y="0px" width="32px" height="32px" viewBox="0 0 100 100" overflow="scroll" xml:space="preserve">
<polygon fill="#FFFFFF" points="49.75,1.5 1.25,49.75 49.81,97.899 98.25,49.5 "/>
<g>
	<g>
		<path d="M49.56,99.399c-4.512,0-8.746-1.746-11.921-4.922L4.803,61.64c-3.176-3.174-4.923-7.409-4.923-11.921
			s1.748-8.746,4.923-11.921L37.639,4.961c3.174-3.176,7.409-4.923,11.921-4.923s8.746,1.749,11.92,4.923l32.839,32.837
			c6.573,6.573,6.573,17.268,0,23.842L61.48,94.477C58.307,97.653,54.072,99.399,49.56,99.399z M49.56,8.78
			c-2.178,0-4.216,0.839-5.74,2.362L10.983,43.978c-1.523,1.524-2.362,3.562-2.362,5.74s0.839,4.216,2.362,5.74L43.82,88.297
			c3.046,3.044,8.431,3.044,11.479,0l32.839-32.838c3.163-3.165,3.163-8.316,0-11.481L55.299,11.142
			C53.775,9.619,51.737,8.78,49.56,8.78z"/>
	</g>
</g>
<g>
	<path d="M53.335,68.084c0,2.648-2.147,4.794-4.794,4.794c-2.648,0-4.794-2.147-4.794-4.794c0-2.648,2.147-4.794,4.794-4.794
		C51.188,63.29,53.335,65.437,53.335,68.084z M59.374,30.999c-2.708-2.303-6.06-3.454-10.06-3.454c-3.92,0-7.237,1.172-9.953,3.515
		c-2.718,2.344-4.391,6.559-5.016,11.124L34.737,43h8.062c0.637-3,2.586-7.21,5.878-7.21c1.352,0,2.504,0.049,3.454,0.908
		c0.949,0.859,1.424,1.846,1.424,3.34c0,1.212-0.254,2.132-0.758,2.95c-0.506,0.818-1.405,1.655-2.697,2.604
		c-2.466,1.818-3.84,3.449-4.414,4.409C45.11,50.96,44,52.989,44,56.665V60h8.495c0-2,0.434-4.335,0.848-5.063
		c0.413-0.727,1.373-2.342,3.333-3.636c4.504-2.949,6.757-6.888,6.757-11.272C63.434,36.494,62.08,33.302,59.374,30.999z"/>
</g>
</svg>
