<?xml version="1.0" encoding="utf-8"?>
<!-- Generator: Adobe Illustrator 19.1.0, SVG Export Plug-In . SVG Version: 6.00 Build 0)  -->
<!DOCTYPE svg PUBLIC "-//W3C//DTD SVG 1.1//EN" "http://www.w3.org/Graphics/SVG/1.1/DTD/svg11.dtd">
<svg version="1.1" id="Layer_1" xmlns="http://www.w3.org/2000/svg" xmlns:xlink="http://www.w3.org/1999/xlink" x="0px" y="0px"
	 viewBox="0 0 30 30" enable-background="new 0 0 30 30" xml:space="preserve">
<g>
	<g>
		<g>
			<path fill="#FFFFFF" d="M17.6,27.6c-1.4,1.4-3.7,1.4-5.2,0l-10-10c-1.4-1.4-1.4-3.7,0-5.2l10-10c1.4-1.4,3.7-1.4,5.2,0l10,10
				c1.4,1.4,1.4,3.7,0,5.2L17.6,27.6z"/>
		</g>
		<g>
			<path fill="#FFFFFF" d="M15,30c-1.3,0-2.6-0.5-3.5-1.5l-10-10C0.5,17.6,0,16.3,0,15c0-1.3,0.5-2.6,1.5-3.5l10-10
				C12.4,0.5,13.7,0,15,0c1.3,0,2.6,0.5,3.5,1.5l10,10c0.9,0.9,1.5,2.2,1.5,3.5c0,1.3-0.5,2.6-1.5,3.5l-10,10
				C17.6,29.5,16.3,30,15,30z M15,2.7c-0.6,0-1.2,0.2-1.6,0.7l-10,10c-0.4,0.4-0.7,1-0.7,1.6c0,0.6,0.2,1.2,0.7,1.6l10,10
				c0.4,0.4,1,0.7,1.6,0.7s1.2-0.2,1.6-0.7l10-10c0.4-0.4,0.7-1,0.7-1.6c0-0.6-0.2-1.2-0.7-1.6l-10-10C16.2,2.9,15.6,2.7,15,2.7z"/>
		</g>
		<g>
			<path d="M15,30c-1.2,0-2.3-0.4-3.2-1.1l1.7-2.1c0.4,0.3,0.9,0.5,1.5,0.5c0.6,0,1.2-0.2,1.6-0.7l0.5-0.5l1.9,1.9l-0.5,0.5
				C17.6,29.5,16.3,30,15,30z M9.9,27l-3.8-3.8l1.9-1.9l3.8,3.8L9.9,27z M20.8,26.3l-1.9-1.9l3.8-3.8l1.9,1.9L20.8,26.3z M4.4,21.4
				l-2.9-2.9c-0.4-0.4-0.7-0.9-1-1.4L2.9,16c0.1,0.2,0.3,0.5,0.4,0.6l2.9,2.9L4.4,21.4z M26.4,20.7l-1.9-1.9l2.2-2.2
				c0.3-0.3,0.6-0.8,0.6-1.3l2.7,0.4c-0.2,1-0.6,2-1.4,2.7L26.4,20.7z M2.8,14.4l-2.6-0.7c0.2-0.9,0.7-1.7,1.3-2.3l2.4-2.4L5.8,11
				l-2.4,2.4C3.1,13.7,2.9,14,2.8,14.4z M27,13.8c-0.1-0.2-0.2-0.3-0.4-0.5l-3.1-3.1l1.9-1.9l3.1,3.1c0.3,0.3,0.6,0.6,0.8,1L27,13.8
				z M7.6,9.2L5.7,7.3l3.8-3.8l1.9,1.9L7.6,9.2z M21.7,8.5l-3.8-3.8l1.9-1.9l3.8,3.8L21.7,8.5z M13.1,3.6l-1.9-1.9l0.2-0.2
				C12.4,0.5,13.7,0,15,0c1,0,2,0.3,2.8,0.9l-1.5,2.2c-0.4-0.3-0.8-0.4-1.3-0.4c-0.6,0-1.2,0.2-1.6,0.7L13.1,3.6z"/>
		</g>
	</g>
	<path d="M13.7,21.3c0,0-3.9-2.3-3.9-5.3s3.4-3.9,3.9-5.8s0.6-1.9,0.6-1.9s1.9,1.4,1.9,3.5c-0.1,1.8-0.7,2.8-0.7,2.8
		s1.7,0.5,2.1-2.7c0,0,3.4,2.7,2.1,5.9c-1.3,3.1-3.4,3.5-3.4,3.5c0.3-3.1-1.6-3-0.6-4.4c0,0-0.9-0.3-1.6,0.7
		C13.4,18.5,13.2,19,13.7,21.3z"/>
</g>
</svg>
