<?xml version="1.0" encoding="utf-8"?>
<!-- Generator: Adobe Illustrator 19.1.0, SVG Export Plug-In . SVG Version: 6.00 Build 0)  -->
<!DOCTYPE svg PUBLIC "-//W3C//DTD SVG 1.1//EN" "http://www.w3.org/Graphics/SVG/1.1/DTD/svg11.dtd">
<svg version="1.1" id="Layer_1" xmlns="http://www.w3.org/2000/svg" xmlns:xlink="http://www.w3.org/1999/xlink" x="0px" y="0px"
	 viewBox="0 0 30 30" enable-background="new 0 0 30 30" xml:space="preserve">
<g>
	<polygon fill="#FFFFFF" points="15,0.5 0.3,15.1 15,29.6 29.6,15 	"/>
	<g>
		<g>
			<path d="M15,30c-1.4,0-2.6-0.5-3.6-1.5l-9.9-9.9c-1-1-1.5-2.2-1.5-3.6c0-1.4,0.5-2.6,1.5-3.6l9.9-9.9c1-1,2.2-1.5,3.6-1.5
				s2.6,0.5,3.6,1.5l9.9,9.9c2,2,2,5.2,0,7.2l-9.9,9.9C17.6,29.5,16.4,30,15,30z M15,2.6c-0.7,0-1.3,0.3-1.7,0.7l-9.9,9.9
				c-0.5,0.5-0.7,1.1-0.7,1.7c0,0.7,0.3,1.3,0.7,1.7l9.9,9.9c0.9,0.9,2.5,0.9,3.5,0l9.9-9.9c1-1,1-2.5,0-3.5l-9.9-9.9
				C16.3,2.9,15.7,2.6,15,2.6z"/>
		</g>
	</g>
	<g>
		<ellipse cx="15" cy="13.1" rx="1.1" ry="0.9"/>
		<circle cx="9.7" cy="17.4" r="1.4"/>
		<circle cx="13.4" cy="17.4" r="1.4"/>
		<circle cx="17.2" cy="17.4" r="1.4"/>
		<path d="M22.6,18.7c0.2,0,0.2-0.1,0.2-0.3l-1.1-2.1c-0.1-0.1-0.1-0.4-0.1-0.6v-2.3c0-0.2-0.1-0.3-0.3-0.3h-2.5
			c-0.2,0-0.3-0.1-0.3-0.3v-0.6c0-0.2,0.1-0.3,0.3-0.3c0.1,0,0.3-0.1,0.3-0.3V11c0-0.2-0.1-0.3-0.3-0.3h-1.5c-0.2,0-0.3,0.1-0.3,0.3
			v0.6c0,0.2,0.1,0.3,0.3,0.3c0.1,0,0.3,0.1,0.3,0.3v0.6c0,0.2-0.1,0.3-0.3,0.3h-4.1c-0.2,0-0.3-0.1-0.3-0.3v-0.5
			c0-0.2-0.1-0.3-0.3-0.3H6.7c-0.2,0-0.3,0.1-0.3,0.3v0.9c0,0.2,0.1,0.3,0.3,0.3h0.5c0.2,0,0.3,0.1,0.3,0.3v2c0,0.2,0.1,0.3,0.3,0.3
			h11.7c0.2,0,0.3,0.1,0.3,0.3v1.9c0,0.2,0.1,0.3,0.3,0.3L22.6,18.7L22.6,18.7z"/>
	</g>
</g>
</svg>
