<?xml version="1.0" encoding="UTF-8" standalone="no"?>
<!-- Created with Inkscape (http://www.inkscape.org/) -->

<svg
   xmlns:dc="http://purl.org/dc/elements/1.1/"
   xmlns:cc="http://creativecommons.org/ns#"
   xmlns:rdf="http://www.w3.org/1999/02/22-rdf-syntax-ns#"
   xmlns:svg="http://www.w3.org/2000/svg"
   xmlns="http://www.w3.org/2000/svg"
   xmlns:sodipodi="http://sodipodi.sourceforge.net/DTD/sodipodi-0.dtd"
   xmlns:inkscape="http://www.inkscape.org/namespaces/inkscape"
   width="29.999998"
   height="30.000002"
   viewBox="0 0 29.999998 30.000002"
   id="svg3359"
   version="1.1"
   inkscape:version="0.91 r13725"
   sodipodi:docname="Rescue.svg">
  <defs
     id="defs3361" />
  <sodipodi:namedview
     id="base"
     pagecolor="#ffffff"
     bordercolor="#666666"
     borderopacity="1.0"
     inkscape:pageopacity="0.0"
     inkscape:pageshadow="2"
     inkscape:zoom="16.121699"
     inkscape:cx="15.152477"
     inkscape:cy="15.66612"
     inkscape:document-units="px"
     inkscape:current-layer="layer1"
     showgrid="false"
     fit-margin-top="0"
     fit-margin-left="0"
     fit-margin-right="0"
     fit-margin-bottom="0"
     units="px"
     inkscape:window-width="1440"
     inkscape:window-height="747"
     inkscape:window-x="-8"
     inkscape:window-y="-8"
     inkscape:window-maximized="1"
     borderlayer="true" />
  <metadata
     id="metadata3364">
    <rdf:RDF>
      <cc:Work
         rdf:about="">
        <dc:format>image/svg+xml</dc:format>
        <dc:type
           rdf:resource="http://purl.org/dc/dcmitype/StillImage" />
        <dc:title></dc:title>
      </cc:Work>
    </rdf:RDF>
  </metadata>
  <g
     inkscape:label="Layer 1"
     inkscape:groupmode="layer"
     id="layer1"
     transform="translate(-367.85714,-214.50506)">
    <g
       style="overflow:scroll"
       id="g5"
       transform="matrix(0.30190578,0,0,0.30192933,367.89337,214.49359)">
      <path
         d="m 49.56,99.399 c -4.512,0 -8.746,-1.746 -11.921,-4.922 L 4.803,61.64 C 1.627,58.466 -0.12,54.231 -0.12,49.719 c 0,-4.512 1.748,-8.746 4.923,-11.921 L 37.639,4.961 c 3.174,-3.176 7.409,-4.923 11.921,-4.923 4.512,0 8.746,1.749 11.92,4.923 l 32.839,32.837 c 6.573,6.573 6.573,17.268 0,23.842 L 61.48,94.477 c -3.173,3.176 -7.408,4.922 -11.92,4.922 z m 0,-90.619 c -2.178,0 -4.216,0.839 -5.74,2.362 L 10.983,43.978 c -1.523,1.524 -2.362,3.562 -2.362,5.74 0,2.178 0.839,4.216 2.362,5.74 L 43.82,88.297 c 3.046,3.044 8.431,3.044 11.479,0 L 88.138,55.459 c 3.163,-3.165 3.163,-8.316 0,-11.481 L 55.299,11.142 C 53.775,9.619 51.737,8.78 49.56,8.78 Z"
         id="path7"
         inkscape:connector-curvature="0" />
    </g>
    <g
       style="overflow:scroll"
       id="g9"
       transform="matrix(0.31999999,0,0,0.31999999,367.34797,213.46816)">
      <path
         stroke-miterlimit="10"
         d="M 70.5,49.375 C 70.5,37.294 60.706,27.5 48.625,27.5 l -0.25,0 C 36.294,27.5 26.5,37.294 26.5,49.375 l 0,0.25 c 0,12.081 9.794,21.875 21.875,21.875 l 0.25,0 C 60.706,71.5 70.5,61.706 70.5,49.625 l 0,-0.25 z M 60.5,49 c 0,6.351 -5.149,11.5 -11.5,11.5 l 0,0 C 42.649,60.5 37.5,55.351 37.5,49 l 0,0 c 0,-6.351 5.149,-11.5 11.5,-11.5 l 0,0 c 6.351,0 11.5,5.149 11.5,11.5 l 0,0 z"
         id="path11"
         inkscape:connector-curvature="0"
         style="fill:none;stroke:#000000;stroke-width:3;stroke-miterlimit:10" />
      <path
         d="m 47.781,36.433 0.092,-9.108 c 0,0 9.384,0.152 16.14,6.907 6.756,6.755 5.617,14.6 5.617,14.6 L 60.522,48.74 c 0,0 0.124,-4.871 -3.654,-8.649 -3.779,-3.777 -9.087,-3.658 -9.087,-3.658 z"
         id="path13"
         inkscape:connector-curvature="0" />
      <path
         d="m 50.083,61.973 -0.096,9.524 c 0,0 -9.812,-0.159 -16.876,-7.222 -7.063,-7.063 -5.873,-15.266 -5.873,-15.266 l 9.524,0.096 c 0,0 -0.129,5.094 3.821,9.044 3.95,3.95 9.5,3.824 9.5,3.824 z"
         id="path15"
         inkscape:connector-curvature="0" />
    </g>
    <path
       style="fill:#ffffff"
       d="M 14.569412,27.262192 C 13.785647,27.139462 13.940145,27.276987 8.5618373,21.914613 5.8205774,19.181474 3.4436791,16.786517 3.2798411,16.592486 2.8607435,16.096155 2.700108,15.652513 2.700108,14.991381 c 0,-0.399923 0.034317,-0.617111 0.1421126,-0.899409 0.1358307,-0.355718 0.3766286,-0.607036 5.4474476,-5.6854399 5.6780508,-5.6865442 5.5081198,-5.5329296 6.3004108,-5.6954716 0.470099,-0.096443 1.059076,8.342e-4 1.532352,0.2530878 0.512582,0.2732033 10.771319,10.5559177 10.972082,10.9977247 0.20873,0.459344 0.27854,0.958107 0.198056,1.415026 -0.14902,0.846 0.03082,0.643391 -5.428025,6.115107 -2.767107,2.773629 -5.174593,5.154226 -5.349969,5.290215 -0.534045,0.414106 -1.245187,0.589581 -1.945163,0.479971 z m 2.011799,-5.08105 c 2.955616,-0.602176 5.251294,-2.932148 5.844833,-5.932147 0.145809,-0.73698 0.145809,-2.150418 0,-2.887398 C 22.126326,11.846696 21.436392,10.553746 20.345776,9.4631293 19.269101,8.386454 17.937535,7.6701452 16.511747,7.4006321 12.879128,6.7139681 9.4069073,8.5739847 8.0123459,11.953633 7.5837368,12.992345 7.3955681,14.287345 7.5001234,15.47881 c 0.352129,4.012701 3.7741376,7.02769 7.7826126,6.856935 0.37527,-0.01599 0.959584,-0.08556 1.298475,-0.154603 z"
       id="path3403"
       inkscape:connector-curvature="0"
       transform="translate(367.85714,214.50506)" />
  </g>
</svg>
