<?xml version="1.0" encoding="utf-8"?>
<!-- Generator: Adobe Illustrator 17.0.0, SVG Export Plug-In . SVG Version: 6.00 Build 0)  -->
<!DOCTYPE svg PUBLIC "-//W3C//DTD SVG 1.1 Tiny//EN" "http://www.w3.org/Graphics/SVG/1.1/DTD/svg11-tiny.dtd">
<svg version="1.1" baseProfile="tiny" id="Layer_2" xmlns="http://www.w3.org/2000/svg" xmlns:xlink="http://www.w3.org/1999/xlink"
	 x="0px" y="0px" width="32px" height="32px" viewBox="0 0 100 100" xml:space="preserve">
<g>
	<polygon fill="#FFFFFF" points="49.75,1.5 1.25,49.75 49.81,97.899 98.25,49.5 	"/>
</g>
<g>
	<g>
		<path d="M49.56,99.399c-4.512,0-8.746-1.746-11.921-4.922L4.803,61.64c-3.176-3.174-4.923-7.409-4.923-11.921
			s1.748-8.746,4.923-11.921L37.639,4.961c3.174-3.176,7.409-4.923,11.921-4.923s8.746,1.749,11.92,4.923l32.839,32.837
			c6.573,6.573,6.573,17.268,0,23.842L61.48,94.477C58.307,97.653,54.072,99.399,49.56,99.399z M49.56,8.78
			c-2.178,0-4.216,0.839-5.74,2.362L10.983,43.978c-1.523,1.524-2.362,3.562-2.362,5.74s0.839,4.216,2.362,5.74L43.82,88.297
			c3.046,3.044,8.431,3.044,11.479,0l32.839-32.838c3.163-3.165,3.163-8.316,0-11.481L55.299,11.142
			C53.775,9.619,51.737,8.78,49.56,8.78z"/>
	</g>
</g>
<g>
	<g>
		<path d="M48.625,73h-0.25C35.486,73,25,62.514,25,49.625v-0.25C25,36.486,35.486,26,48.375,26h0.25C61.514,26,72,36.486,72,49.375
			v0.25C72,62.514,61.514,73,48.625,73z M48.375,29C37.141,29,28,38.141,28,49.375v0.25C28,60.859,37.141,70,48.375,70h0.25
			C59.859,70,69,60.859,69,49.625v-0.25C69,38.141,59.859,29,48.625,29H48.375z M49,62c-7.168,0-13-5.832-13-13s5.832-13,13-13
			s13,5.832,13,13S56.168,62,49,62z M49,39c-5.514,0-10,4.486-10,10s4.486,10,10,10s10-4.486,10-10S54.514,39,49,39z"/>
	</g>
	<g>
		<path d="M47.781,36.433l0.092-9.108c0,0,9.384,0.152,16.14,6.907s5.617,14.6,5.617,14.6l-9.108-0.092c0,0,0.124-4.871-3.654-8.649
			C53.089,36.314,47.781,36.433,47.781,36.433z"/>
	</g>
	<g>
		<path d="M50.083,61.973l-0.096,9.524c0,0-9.812-0.159-16.876-7.222c-7.063-7.063-5.873-15.266-5.873-15.266l9.524,0.096
			c0,0-0.129,5.094,3.821,9.044S50.083,61.973,50.083,61.973z"/>
	</g>
</g>
</svg>
