<?xml version="1.0" encoding="utf-8"?>
<!-- Generator: Adobe Illustrator 19.1.0, SVG Export Plug-In . SVG Version: 6.00 Build 0)  -->
<!DOCTYPE svg PUBLIC "-//W3C//DTD SVG 1.1//EN" "http://www.w3.org/Graphics/SVG/1.1/DTD/svg11.dtd">
<svg version="1.1" id="Layer_1" xmlns="http://www.w3.org/2000/svg" xmlns:xlink="http://www.w3.org/1999/xlink" x="0px" y="0px"
	 viewBox="0 0 30 30" enable-background="new 0 0 30 30" xml:space="preserve">
<polygon fill="#FFFFFF" points="15.1,0.5 0.5,15 15.1,29.6 29.8,15 "/>
<g>
	<path d="M15.1,30c-1.4,0-2.6-0.5-3.6-1.5l-9.9-9.9c-1-1-1.5-2.2-1.5-3.6s0.5-2.6,1.5-3.6l9.9-9.9c1-1,2.2-1.5,3.6-1.5
		s2.6,0.5,3.6,1.5l9.9,9.9c2,2,2,5.2,0,7.2l-9.9,9.9C17.7,29.5,16.4,30,15.1,30z M15.1,2.7c-0.7,0-1.3,0.3-1.7,0.7l-9.9,9.9
		c-0.5,0.5-0.7,1.1-0.7,1.7c0,0.7,0.3,1.3,0.7,1.7l9.9,9.9c0.9,0.9,2.5,0.9,3.5,0l9.9-9.9c1-1,1-2.5,0-3.5l-9.9-9.9
		C16.3,2.9,15.7,2.7,15.1,2.7z"/>
</g>
<g>
	<path d="M14.9,21.5h-0.1c-3.5,0-6.3-2.8-6.3-6.3v-0.1c0-3.5,2.8-6.3,6.3-6.3h0.1c3.5,0,6.3,2.8,6.3,6.3v0.1
		C21.2,18.6,18.4,21.5,14.9,21.5z M14.8,9.4c-3.1,0-5.7,2.5-5.7,5.7v0.1c0,3.1,2.5,5.7,5.7,5.7h0.1c3.1,0,5.7-2.5,5.7-5.7v-0.1
		c0-3.1-2.5-5.7-5.7-5.7H14.8z"/>
	<path d="M14.9,21.5h-0.1c-3.5,0-6.3-2.8-6.3-6.3v-0.1c0-3.5,2.8-6.3,6.3-6.3h0.1c3.5,0,6.3,2.8,6.3,6.3v0.1
		C21.2,18.6,18.4,21.5,14.9,21.5z M14.8,9.4c-3.1,0-5.7,2.5-5.7,5.7v0.1c0,3.1,2.5,5.7,5.7,5.7h0.1c3.1,0,5.7-2.5,5.7-5.7v-0.1
		c0-3.1-2.5-5.7-5.7-5.7H14.8z M14.8,18.7h-0.1c-2.1,0-3.7-1.7-3.7-3.7v-0.1c0-2.1,1.7-3.7,3.7-3.7h0.1c2.1,0,3.7,1.7,3.7,3.7V15
		C18.5,17.1,16.8,18.7,14.8,18.7z M14.7,11.8c-1.7,0-3.1,1.4-3.1,3.1V15c0,1.7,1.4,3.1,3.1,3.1h0.1c1.7,0,3.1-1.4,3.1-3.1v-0.1
		c0-1.7-1.4-3.1-3.1-3.1H14.7z"/>
	<path d="M11.3,15l-2.5,0c0,0,0-2.6,1.9-4.5s4.1-1.6,4.1-1.6l0,2.5c0,0-1.4,0-2.4,1C11.2,13.5,11.3,15,11.3,15z"/>
	<path d="M18.2,15l2.5,0c0,0,0,2.6-1.9,4.5c-1.9,1.9-4.1,1.6-4.1,1.6l0-2.5c0,0,1.4,0,2.4-1C18.2,16.4,18.2,15,18.2,15z"/>
</g>
</svg>
