<?xml version="1.0" encoding="utf-8"?>
<!-- Generator: Adobe Illustrator 17.0.0, SVG Export Plug-In . SVG Version: 6.00 Build 0)  -->
<!DOCTYPE svg PUBLIC "-//W3C//DTD SVG 1.1 Tiny//EN" "http://www.w3.org/Graphics/SVG/1.1/DTD/svg11-tiny.dtd">
<svg version="1.1" baseProfile="tiny" xmlns="http://www.w3.org/2000/svg" xmlns:xlink="http://www.w3.org/1999/xlink" x="0px"
	 y="0px" width="32px" height="32px" viewBox="0 0 100 100" overflow="scroll" xml:space="preserve">
<g id="Base" display="none">
</g>
<g id="Layer_2">
	<polygon fill="#FFFFFF" points="49.5,4.75 95,49 49,96.75 2,51 	"/>
	<g>
		<g>
			<path d="M49.56,99.899c-4.512,0-8.746-1.746-11.921-4.922L4.803,62.14c-3.176-3.174-4.923-7.409-4.923-11.921
				s1.748-8.746,4.923-11.921L37.639,5.461c3.174-3.176,7.409-4.923,11.921-4.923s8.746,1.749,11.92,4.923l32.839,32.837
				c6.573,6.573,6.573,17.268,0,23.842L61.48,94.977C58.307,98.153,54.072,99.899,49.56,99.899z M49.56,9.28
				c-2.178,0-4.216,0.839-5.74,2.362L10.983,44.478c-1.523,1.524-2.362,3.562-2.362,5.74s0.839,4.216,2.362,5.74L43.82,88.797
				c3.046,3.044,8.431,3.044,11.479,0l32.839-32.838c3.163-3.165,3.163-8.316,0-11.481L55.299,11.642
				C53.775,10.119,51.737,9.28,49.56,9.28z"/>
		</g>
	</g>
	<path d="M29.528,36.054c0.392-0.189,0.581-0.427,0.697-0.839c1.628-5.744,7.691-8.762,13.231-6.565
		c0.543,0.215,0.741,0.105,1.047-0.34c3.033-4.417,7.253-6.373,12.541-5.61c6.195,0.894,10.635,6.212,10.631,12.467
		c0,0.508,0.129,0.776,0.605,1.02c3.536,1.811,5.46,5.893,4.633,9.737c-0.929,4.319-4.516,7.217-8.946,7.22
		c-5.063,0.003-10.126,0.001-15.188,0.001c-5.044,0-10.088,0.001-15.132-0.001c-0.487,0-0.97-0.02-1.456-0.092
		c-4.078-0.605-7.083-3.615-7.66-7.908C24.04,41.489,25.973,37.767,29.528,36.054z"/>
	<path d="M59.667,54.417c-0.167,0.167-9.871,8.03-10.24,8.16c2.593,0,4.822,0,6.759,0c-0.033,0.205-17.265,13.756-17.432,14.09
		c-0.167-0.502,4.877-6.754,5.855-10.372c-1.902,0-7.929,0.335-9.871,0.335c0,0.167,11.711-12.155,11.544-12.155"/>
</g>
</svg>
