<?xml version="1.0" encoding="utf-8"?>
<!-- Generator: Adobe Illustrator 17.0.0, SVG Export Plug-In . SVG Version: 6.00 Build 0)  -->
<!DOCTYPE svg PUBLIC "-//W3C//DTD SVG 1.1 Tiny//EN" "http://www.w3.org/Graphics/SVG/1.1/DTD/svg11-tiny.dtd">
<svg version="1.1" baseProfile="tiny" id="Layer_2" xmlns="http://www.w3.org/2000/svg" xmlns:xlink="http://www.w3.org/1999/xlink"
	 x="0px" y="0px" width="32px" height="32px" viewBox="0 0 100 100" overflow="scroll" xml:space="preserve">
<g>
	<polygon fill="#FFFFFF" points="50,4.75 95.5,49 49.5,96.75 2.5,51 	"/>
</g>
<g>
	<path d="M67.083,53.25c0,0-10.236-26.594-28.486-29.094c-0.727,0.363,6.5,18.25,1.736,27.094
		C37.368,56.754,67.083,53.25,67.083,53.25z"/>
</g>
<g>
	<path fill="#FFFFFF" d="M43.083,95.3c0,0-43.75-39.75-37.25-41.5s7.75-5.95,14.5-5.95s8,6.45,14,6.45s8.25-6.5,15-6.5
		s9.125,6.5,15,6.5s8.375-6.5,15.5-6.5c6.5,0,6.875,4.5,12.25,4.5s3.25,6.5,3.25,6.5l-39.75,37.25L43.083,95.3z"/>
	<path d="M56.231,97.842L42.363,97.01l-0.456-0.415c-0.099-0.089-9.93-9.031-19.478-18.509C2.469,58.271,3.143,55.486,3.504,53.99
		c0.227-0.936,0.909-1.62,1.874-1.88c2.523-0.68,4.2-1.789,5.822-2.861c2.341-1.548,4.762-3.149,9.133-3.149
		c4.116,0,6.488,2.01,8.581,3.782c1.759,1.49,3.148,2.668,5.419,2.668c2.325,0,4.017-1.276,5.975-2.754
		c2.327-1.756,4.965-3.746,9.025-3.746c4.075,0,6.746,2.002,9.104,3.769c1.955,1.466,3.644,2.731,5.896,2.731
		c2.229,0,3.944-1.243,5.93-2.683c2.47-1.789,5.269-3.817,9.57-3.817c3.966,0,6.086,1.518,7.789,2.737
		c1.43,1.023,2.463,1.763,4.461,1.763c2.441,0,3.735,1.078,4.392,1.982c1.841,2.54,0.662,6.382,0.521,6.812l-0.139,0.426
		L56.231,97.842z M43.804,93.59l11.132,0.668l38.844-36.4c0.228-0.946,0.405-2.525-0.141-3.273
		c-0.097-0.132-0.391-0.534-1.556-0.534c-3.122,0-4.915-1.284-6.498-2.417c-1.562-1.118-2.909-2.083-5.752-2.083
		c-3.167,0-5.279,1.531-7.517,3.151c-2.271,1.646-4.62,3.349-7.983,3.349c-3.419,0-5.851-1.822-7.996-3.431
		c-2.105-1.578-4.095-3.069-7.004-3.069c-2.888,0-4.846,1.477-6.917,3.04c-2.149,1.622-4.585,3.46-8.083,3.46
		c-3.554,0-5.747-1.858-7.682-3.497c-1.87-1.585-3.485-2.953-6.318-2.953c-3.318,0-5.032,1.134-7.202,2.568
		c-1.613,1.067-3.423,2.265-6.062,3.094C8.849,59.962,26.589,77.917,43.804,93.59z"/>
</g>
<g>
	<path d="M47.833,96c0,0-22.181-19.681-26.25-23.75c-4-4-14.395-11.207-8.624-11.207s6.839,5.514,11.969,5.514S31.981,61,37.752,61
		s7.801,5.557,12.824,5.557S57.736,61,63.827,61c5.557,0,6.911,4.75,11.506,4.75s7.5-1.25,10.75-5s-30.5,35-30.5,35L47.833,96z"/>
	<path d="M47.365,97.298l-0.383-0.339c-0.906-0.805-22.256-19.752-26.306-23.802c-0.983-0.984-2.379-2.178-3.855-3.442
		c-4.93-4.218-7.468-6.513-6.729-8.513c0.354-0.956,1.318-1.441,2.867-1.441c3.44,0,5.437,1.69,7.197,3.183
		c1.478,1.251,2.753,2.331,4.771,2.331c2.06,0,3.532-1.111,5.237-2.397c1.963-1.48,4.187-3.159,7.587-3.159
		c3.412,0,5.666,1.688,7.654,3.179c1.702,1.275,3.173,2.378,5.17,2.378c1.975,0,3.467-1.082,5.194-2.334
		c2.085-1.511,4.448-3.223,8.057-3.223c3.334,0,5.338,1.485,7.105,2.796c1.473,1.092,2.636,1.954,4.4,1.954
		c4.186,0,6.66-1.096,9.451-4.185c0.147-0.169,0.272-0.313,0.382-0.434l0.153-0.177l0.006,0.005
		c0.375-0.392,0.558-0.466,0.979-0.466h0.824l0.342,0.75c0.272,0.597,0.039,1.053-0.221,1.391l0.004,0.003l-0.075,0.086
		c-0.043,0.053-0.086,0.103-0.126,0.148c-0.116,0.135-0.233,0.267-0.35,0.396C82.513,66.783,56.55,96.592,56.55,96.592l-0.367,0.422
		L47.365,97.298z M12.773,62.329c0.874,1.294,3.844,3.836,5.715,5.438c1.517,1.297,2.948,2.522,4.003,3.576
		c3.703,3.704,22.854,20.732,25.812,23.359l6.681-0.216c2.407-2.765,16.098-18.482,24.248-27.835
		c-1.184,0.261-2.468,0.381-3.898,0.381c-2.611,0-4.298-1.249-5.928-2.458c-1.59-1.179-3.092-2.292-5.578-2.292
		c-2.777,0-4.61,1.329-6.552,2.735c-1.914,1.387-3.894,2.821-6.699,2.821c-2.852,0-4.813-1.469-6.708-2.89
		c-1.83-1.372-3.559-2.667-6.116-2.667c-2.541,0-4.241,1.283-6.042,2.643c-1.899,1.433-3.863,2.914-6.782,2.914
		c-2.959,0-4.803-1.562-6.429-2.938c-1.631-1.382-3.04-2.575-5.54-2.575C12.891,62.325,12.829,62.326,12.773,62.329z"/>
</g>
<g>
	<path fill="#FFFFFF" d="M46.119,94.571c0,0-11.38-11.242-15.697-15.047c-5.311-4.681-10.1-5.702-4.33-5.776
		c5.77-0.075,6.91,5.425,12.04,5.358c5.129-0.067,7.481-5.605,13.251-5.68c5.82-0.076,7.422,5.411,12.394,5.346
		c5.022-0.065,7.087-5.65,13.178-5.729c5.557-0.072-0.528,2.809-3.027,6.665c-0.98,1.513-1.48,1.519-1.48,1.519L56.122,94.691
		L46.119,94.571z"/>
	<path d="M56.475,95.694l-10.771-0.129l-0.287-0.284c-0.113-0.111-11.408-11.266-15.655-15.008
		c-1.835-1.617-3.607-2.786-4.902-3.641c-1.758-1.16-2.641-1.742-2.343-2.759c0.303-1.032,1.552-1.101,3.564-1.127l0.13-0.001
		c3.259,0,5.206,1.607,6.925,3.025c1.518,1.252,2.828,2.334,4.904,2.334c2.254-0.029,3.861-1.186,5.723-2.525
		c2.026-1.459,4.323-3.112,7.609-3.154l0.133-0.001c3.298,0,5.379,1.615,7.215,3.039c1.596,1.238,2.974,2.309,4.972,2.309
		c2.14-0.027,3.652-1.154,5.403-2.458c2.031-1.512,4.333-3.226,7.85-3.271l0.212-0.001c1.311,0,2.577,0.139,2.973,1.145
		c0.452,1.147-0.601,2.13-2.196,3.617c-1.046,0.975-2.348,2.188-3.164,3.448c-0.656,1.013-1.271,1.64-1.835,1.872L56.475,95.694z
		 M46.535,93.575l9.233,0.111l16.315-13.454l0.143-0.002c0.127-0.103,0.421-0.383,0.864-1.066c0.95-1.467,2.352-2.773,3.479-3.823
		c0.427-0.398,0.957-0.893,1.308-1.273c-0.183-0.016-0.419-0.025-0.721-0.025l-0.187,0.001c-2.868,0.037-4.72,1.416-6.68,2.876
		c-1.86,1.385-3.784,2.817-6.499,2.853c0,0-0.001,0-0.002,0c-2.781,0-4.567-1.387-6.296-2.727c-1.735-1.348-3.376-2.62-5.988-2.62
		l-0.107,0.001c-2.654,0.034-4.507,1.367-6.467,2.777c-1.957,1.409-3.98,2.865-6.785,2.901l-0.105,0.001
		c-2.794,0-4.514-1.419-6.177-2.791c-1.601-1.321-3.112-2.568-5.652-2.568l-0.104,0.001c-0.166,0.002-0.319,0.005-0.46,0.009
		c0.105,0.069,0.211,0.14,0.314,0.207c1.344,0.887,3.184,2.101,5.123,3.811C34.989,82.214,44.734,91.8,46.535,93.575z"/>
</g>
<g>
	<g>
		<g>
			<path d="M50.56,99.899c-4.512,0-8.746-1.746-11.921-4.922L5.803,62.14c-3.176-3.174-4.923-7.409-4.923-11.921
				s1.748-8.746,4.923-11.921L38.639,5.461c3.174-3.176,7.409-4.923,11.921-4.923s8.746,1.749,11.92,4.923l32.839,32.837
				c6.573,6.573,6.573,17.268,0,23.842L62.48,94.977C59.307,98.153,55.072,99.899,50.56,99.899z M50.56,9.28
				c-2.178,0-4.216,0.839-5.74,2.362L11.983,44.478c-1.523,1.524-2.362,3.562-2.362,5.74s0.839,4.216,2.362,5.74L44.82,88.797
				c3.046,3.044,8.431,3.044,11.479,0l32.839-32.838c3.163-3.165,3.163-8.316,0-11.481L56.299,11.642
				C54.775,10.119,52.737,9.28,50.56,9.28z"/>
		</g>
	</g>
</g>
</svg>
