<?xml version="1.0" encoding="utf-8"?>
<!-- Generator: Adobe Illustrator 19.1.0, SVG Export Plug-In . SVG Version: 6.00 Build 0)  -->
<!DOCTYPE svg PUBLIC "-//W3C//DTD SVG 1.1//EN" "http://www.w3.org/Graphics/SVG/1.1/DTD/svg11.dtd">
<svg version="1.1" id="Layer_1" xmlns="http://www.w3.org/2000/svg" xmlns:xlink="http://www.w3.org/1999/xlink" x="0px" y="0px"
	 viewBox="0 0 30 30" enable-background="new 0 0 30 30" xml:space="preserve">
<g>
	<polygon fill="#FFFFFF" points="15,1.3 28.7,14.5 14.9,28.8 0.8,15.1 	"/>
	<polygon points="7.5,21.5 15.1,28.4 23.1,21.8 21.2,20 13.3,19.9 6,20.9 	"/>
	<path d="M12.1,21.5c-0.3,0-0.7-0.1-0.9-0.2l-2.6-1.2L6,20.9l-0.8-2.3l2.5-0.9c0.5-0.2,1.2-0.1,1.7,0.1l2.6,1.2l2.8-1
		c0.5-0.2,1.1-0.2,1.6,0l2.8,1c0,0,0,0,0.1,0l2.4-0.9c0.5-0.2,1.1-0.2,1.6-0.1l2.5,0.7l-0.7,2.3l-2.5-0.7c0,0-0.1,0-0.1,0l-2.4,0.9
		c-0.5,0.2-1.1,0.2-1.6,0l-2.8-1c0,0,0,0-0.1,0l-2.8,1C12.6,21.5,12.3,21.5,12.1,21.5z"/>
	<path fill="#FFFFFF" d="M12.2,23c-0.3,0-0.7-0.1-0.9-0.2l-2.2-1l-2.1,0.7l-0.8-2.3l2.2-0.7c0.5-0.2,1.2-0.1,1.7,0.1l2.2,1l2.3-0.9
		c0.5-0.2,1.1-0.2,1.6,0l2.4,0.8c0,0,0,0,0.1,0l2-0.7c0.5-0.2,1.1-0.2,1.6-0.1l2.1,0.6l-0.7,2.3l-2.1-0.6c0,0-0.1,0-0.1,0l-2,0.7
		c-0.5,0.2-1.1,0.2-1.6,0L15.3,22c0,0,0,0-0.1,0l-2.4,0.9C12.7,23,12.4,23,12.2,23z"/>
	<g>
		<g>
			<path d="M14.9,29.8c-1.4,0-2.6-0.5-3.6-1.5l-9.8-9.8c-1-1-1.5-2.2-1.5-3.6s0.5-2.6,1.5-3.6l9.8-9.8c1-1,2.2-1.5,3.6-1.5
				s2.6,0.5,3.6,1.5l9.8,9.8c2,2,2,5.2,0,7.1l-9.8,9.8C17.5,29.3,16.2,29.8,14.9,29.8z M14.9,2.6c-0.7,0-1.3,0.3-1.7,0.7l-9.8,9.8
				c-0.5,0.5-0.7,1.1-0.7,1.7c0,0.7,0.3,1.3,0.7,1.7l9.8,9.8c0.9,0.9,2.5,0.9,3.4,0l9.8-9.8c0.9-0.9,0.9-2.5,0-3.4l-9.8-9.8
				C16.2,2.9,15.5,2.6,14.9,2.6z"/>
		</g>
	</g>
	<g>
		<path d="M10.2,15.6c-0.2,0-0.5-0.1-0.6-0.3c-0.4-0.4-0.4-0.9,0-1.3l1.6-1.6l-1.5-1.5c-0.4-0.4-0.4-0.9,0-1.3
			c0.4-0.4,0.9-0.4,1.3,0l2.2,2.2c0.4,0.4,0.4,0.9,0,1.3l-2.2,2.2C10.6,15.5,10.4,15.6,10.2,15.6z"/>
		<path d="M18.7,13.2h-6.4c-0.4,0-0.8-0.3-0.8-0.8c0-0.4,0.3-0.8,0.8-0.8h6.4c0.4,0,0.8,0.3,0.8,0.8C19.5,12.9,19.2,13.2,18.7,13.2z
			"/>
		<path d="M18.8,16.1c-0.2,0-0.4-0.1-0.5-0.3c-0.2-0.3-0.1-0.6,0.2-0.8c0.8-0.5,2.2-1.7,2.2-2.5c0-0.9-1.3-2.1-2.2-2.7
			c-0.2-0.2-0.3-0.5-0.1-0.8c0.2-0.2,0.5-0.3,0.8-0.1c0.3,0.2,2.6,1.8,2.6,3.6c0,1.7-2.4,3.3-2.7,3.4C19,16.1,18.9,16.1,18.8,16.1z"
			/>
		<path d="M16.4,15.5c-0.1,0-0.3-0.1-0.3-0.3V9.7c0-0.1,0.1-0.3,0.3-0.3s0.3,0.1,0.3,0.3v5.5C16.6,15.4,16.5,15.5,16.4,15.5z"/>
		<path d="M14.2,15.5c-0.1,0-0.3-0.1-0.3-0.3V9.7c0-0.1,0.1-0.3,0.3-0.3s0.3,0.1,0.3,0.3v5.5C14.4,15.4,14.3,15.5,14.2,15.5z"/>
		<polygon points="18.3,9.6 18.9,12.4 18.3,15.4 21.4,13.6 21.4,11.8 		"/>
		<circle fill="#FFFFFF" cx="20" cy="11.5" r="0.6"/>
	</g>
</g>
</svg>
