<?xml version="1.0" encoding="UTF-8" standalone="no"?>
<!-- Created with Inkscape (http://www.inkscape.org/) -->

<svg
   xmlns:dc="http://purl.org/dc/elements/1.1/"
   xmlns:cc="http://creativecommons.org/ns#"
   xmlns:rdf="http://www.w3.org/1999/02/22-rdf-syntax-ns#"
   xmlns:svg="http://www.w3.org/2000/svg"
   xmlns="http://www.w3.org/2000/svg"
   xmlns:sodipodi="http://sodipodi.sourceforge.net/DTD/sodipodi-0.dtd"
   xmlns:inkscape="http://www.inkscape.org/namespaces/inkscape"
   id="svg3384"
   version="1.1"
   inkscape:version="0.91 r13725"
   width="24"
   height="24"
   viewBox="0 0 24 24"
   sodipodi:docname="Earthquake_24x24.svg">
  <metadata
     id="metadata3390">
    <rdf:RDF>
      <cc:Work
         rdf:about="">
        <dc:format>image/svg+xml</dc:format>
        <dc:type
           rdf:resource="http://purl.org/dc/dcmitype/StillImage" />
        <dc:title></dc:title>
      </cc:Work>
    </rdf:RDF>
  </metadata>
  <defs
     id="defs3388" />
  <sodipodi:namedview
     pagecolor="#ffffff"
     bordercolor="#666666"
     borderopacity="1"
     objecttolerance="10"
     gridtolerance="10"
     guidetolerance="10"
     inkscape:pageopacity="1"
     inkscape:pageshadow="2"
     inkscape:window-width="1440"
     inkscape:window-height="747"
     id="namedview3386"
     showgrid="false"
     fit-margin-top="0"
     fit-margin-left="0"
     fit-margin-right="0"
     fit-margin-bottom="0"
     inkscape:zoom="17.504196"
     inkscape:cx="14.344693"
     inkscape:cy="10.704646"
     inkscape:window-x="-8"
     inkscape:window-y="-8"
     inkscape:window-maximized="1"
     inkscape:current-layer="svg3384" />
  <path
     style="fill:#000000"
     d="m 3.6186836,20.98138 0,-2.964008 2.839088,0 2.8390869,0 -0.1855001,0.183732 c -0.3753261,0.371746 -0.5125789,0.589508 -0.5517134,0.875332 -0.020175,0.147369 -0.017749,0.332681 0.00612,0.471259 0.056135,0.325213 0.298126,1.177327 0.9753896,3.434562 0.157232,0.524036 0.285877,0.955119 0.285877,0.957962 0,0.0028 -1.3968893,0.0052 -3.1041968,0.0052 l -3.1041973,0 0,-2.964007 z m 8.8991444,2.366533 c -0.597939,-1.941579 -1.049015,-3.455546 -1.032892,-3.466745 0.0024,-0.0017 0.06447,-0.05413 0.137902,-0.116552 0.419133,-0.356316 1.206069,-0.971652 2.094897,-1.63808 l 0.145594,-0.109164 3.473891,0 c 1.91064,0 3.537913,0.004 3.616158,0.0087 l 0.142267,0.0087 0,2.955303 0,2.955302 -4.196907,0 -4.196909,0 -0.184001,-0.597474 z m -8.3784399,-9.803208 0,-3.53807 -1.8621872,-0.0033 -1.86218615,-0.00333 2.06245775,-1.7342969 2.0624568,-1.734296 0,-2.4012951 0,-2.4012951 1.3350719,0 1.3350709,0 0.00343,1.2757391 0.00343,1.2757391 2.4623924,-2.0706541 C 11.033646,1.0707485 12.149252,0.141843 12.158453,0.14537388 c 0.0092,0.003531 2.651778,2.22225842 5.872395,4.93050612 l 5.855666,4.9240867 -1.662432,0.00343 -1.662434,0.0034 0,3.538065 0,3.538065 -2.719179,0 -2.719181,0 0.337557,-0.250339 c 1.530985,-1.135404 1.658804,-1.233986 1.762094,-1.359039 0.17131,-0.207402 0.284658,-0.404752 0.35627,-0.620303 0.0358,-0.107756 0.03767,-0.125286 0.03686,-0.347136 -7.88e-4,-0.21787 -0.0036,-0.24447 -0.04293,-0.393866 -0.0464,-0.176643 -0.139285,-0.377966 -0.232509,-0.503947 -0.03122,-0.04218 -0.93845,-0.928051 -2.016073,-1.968588 -1.077624,-1.040538 -1.959317,-1.8960584 -1.959317,-1.9011568 0,-0.00504 0.808,-0.9667318 1.795554,-2.1369625 0.987554,-1.1702306 1.794144,-2.1317292 1.792423,-2.1366634 -0.0055,-0.015838 -2.125673,-1.8666687 -2.134528,-1.8633848 -0.0098,0.00363 -4.35793,5.2723409 -4.426579,5.3637426 -0.06777,0.090228 -0.184955,0.3397941 -0.216295,0.4606228 -0.07814,0.3012638 -0.06276,0.5988381 0.04591,0.8882721 0.04165,0.11092 0.134627,0.27435 0.208719,0.366855 0.03167,0.03953 0.879271,0.863512 1.88357,1.831061 1.0043,0.967549 1.824409,1.763306 1.822465,1.768348 -0.0019,0.005 -0.297934,0.227069 -0.657753,0.493392 -1.193072,0.883059 -2.37335,1.772235 -2.883899,2.172619 l -0.173568,0.136114 -3.1409139,1.87e-4 -3.140913,1.72e-4 0,-3.53807 z"
     id="path3394"
     inkscape:connector-curvature="0" />
</svg>
