<?xml version="1.0" encoding="UTF-8" standalone="no"?>
<!-- Created with Inkscape (http://www.inkscape.org/) -->

<svg
   xmlns:dc="http://purl.org/dc/elements/1.1/"
   xmlns:cc="http://creativecommons.org/ns#"
   xmlns:rdf="http://www.w3.org/1999/02/22-rdf-syntax-ns#"
   xmlns:svg="http://www.w3.org/2000/svg"
   xmlns="http://www.w3.org/2000/svg"
   xmlns:sodipodi="http://sodipodi.sourceforge.net/DTD/sodipodi-0.dtd"
   xmlns:inkscape="http://www.inkscape.org/namespaces/inkscape"
   id="svg3438"
   version="1.1"
   inkscape:version="0.91 r13725"
   width="24"
   height="24"
   viewBox="0 0 24 24"
   sodipodi:docname="ExtremeHeat_24x24.svg">
  <metadata
     id="metadata3444">
    <rdf:RDF>
      <cc:Work
         rdf:about="">
        <dc:format>image/svg+xml</dc:format>
        <dc:type
           rdf:resource="http://purl.org/dc/dcmitype/StillImage" />
        <dc:title></dc:title>
      </cc:Work>
    </rdf:RDF>
  </metadata>
  <defs
     id="defs3442" />
  <sodipodi:namedview
     pagecolor="#ffffff"
     bordercolor="#666666"
     borderopacity="1"
     objecttolerance="10"
     gridtolerance="10"
     guidetolerance="10"
     inkscape:pageopacity="0"
     inkscape:pageshadow="2"
     inkscape:window-width="1440"
     inkscape:window-height="747"
     id="namedview3440"
     showgrid="false"
     fit-margin-top="0"
     fit-margin-left="0"
     fit-margin-right="0"
     fit-margin-bottom="0"
     inkscape:zoom="14.503257"
     inkscape:cx="0.84027659"
     inkscape:cy="18.726164"
     inkscape:window-x="-8"
     inkscape:window-y="-8"
     inkscape:window-maximized="1"
     inkscape:current-layer="svg3438" />
  <path
     style="fill:#000000"
     d="M 10.265601,22.0009 C 9.0111108,20.9015 6.5889008,18.7801 4.8829108,17.2866 c -1.87989,-1.6457 -3.09432,-2.7177 -3.08283,-2.7213 0.0104,0 0.13432,-0.1192 0.27532,-0.2575 1.54768,-1.5181 3.52336,-2.5842 5.86986,-3.1675 0.10123,-0.025 0.2299,-0.056 0.28594,-0.068 0.056,-0.012 0.10188,-0.024 0.10188,-0.027 0,0 -0.0353,-0.068 -0.0785,-0.1456 -0.0745,-0.1339 -0.0864,-0.1478 -0.23335,-0.2725 -0.30987,-0.263 -0.65665,-0.6362001 -0.91765,-0.9875004 -1.17206,-1.5775 -1.499,-3.6404 -0.87412,-5.5155 0.46507,-1.3955 1.44207,-2.5873 2.72642,-3.32590001 0.19955,-0.1147 0.58485,-0.2994 0.80356,-0.3851 1.3077002,-0.5127 2.7814702,-0.5491 4.1213902,-0.1018 2.10106,0.70150001 3.66589,2.52400001 4.03564,4.70020001 0.0661,0.3889 0.0836,0.605 0.0836,1.032 0,0.2784 -0.006,0.4471 -0.0228,0.5981 -0.0636,0.5863 -0.19291,1.1158 -0.40303,1.6499 -0.0942,0.2394 -0.33501,0.7138 -0.47865,0.9429 -0.39999,0.6379 -0.91567,1.1999004 -1.51343,1.6492004 l -0.12772,0.096 0.0513,0.011 c 1.94621,0.4305 3.664,1.2875 5.09951,2.5441 0.22586,0.1977 0.78814,0.7642 0.98057,0.9879 0.25439,0.2958 0.52918,0.6409 0.60891,0.7647 l 0.0226,0.035 -4.83236,4.3394 c -2.6578,2.3866 -4.83373,4.3388 -4.83541,4.3382 -0.002,-6e-4 -1.02945,-0.9006 -2.28395,-2 z m 5.37688,-3.2048 0,-1.1832 1.18318,0 1.18317,0 0,-1.1832 0,-1.1831 -1.18317,0 -1.18318,0 0,-1.1832 0,-1.1832 -1.18318,0 -1.18317,0 0,1.1832 0,1.1832 -1.18318,0 -1.18317,0 0,1.1831 0,1.1832 1.18317,0 1.18318,0 0,1.1832 0,1.1832 1.18317,0 1.18318,0 0,-1.1832 z"
     id="path3448"
     inkscape:connector-curvature="0" />
</svg>
