<?xml version="1.0" encoding="UTF-8" standalone="no"?>
<!-- Generator: Adobe Illustrator 19.1.0, SVG Export Plug-In . SVG Version: 6.00 Build 0)  -->

<svg
   xmlns:dc="http://purl.org/dc/elements/1.1/"
   xmlns:cc="http://creativecommons.org/ns#"
   xmlns:rdf="http://www.w3.org/1999/02/22-rdf-syntax-ns#"
   xmlns:svg="http://www.w3.org/2000/svg"
   xmlns="http://www.w3.org/2000/svg"
   xmlns:sodipodi="http://sodipodi.sourceforge.net/DTD/sodipodi-0.dtd"
   xmlns:inkscape="http://www.inkscape.org/namespaces/inkscape"
   version="1.1"
   id="Layer_1"
   x="0px"
   y="0px"
   viewBox="0 0 25 25"
   enable-background="new 0 0 25 25"
   xml:space="preserve"
   inkscape:version="0.91 r13725"
   sodipodi:docname="facebook_25x25.svg"><metadata
     id="metadata3407"><rdf:RDF><cc:Work
         rdf:about=""><dc:format>image/svg+xml</dc:format><dc:type
           rdf:resource="http://purl.org/dc/dcmitype/StillImage" /></cc:Work></rdf:RDF></metadata><defs
     id="defs3405" /><sodipodi:namedview
     pagecolor="#ffffff"
     bordercolor="#666666"
     borderopacity="1"
     objecttolerance="10"
     gridtolerance="10"
     guidetolerance="10"
     inkscape:pageopacity="0"
     inkscape:pageshadow="2"
     inkscape:window-width="1440"
     inkscape:window-height="747"
     id="namedview3403"
     showgrid="false"
     inkscape:zoom="9.44"
     inkscape:cx="12.182203"
     inkscape:cy="12.5"
     inkscape:window-x="-8"
     inkscape:window-y="-8"
     inkscape:window-maximized="1"
     inkscape:current-layer="Layer_1" /><g
     id="Layer_55"
     transform="matrix(0.98,0,0,0.98,0.21186437,0.3940678)"><g
       id="g3394"><circle
         cx="12.5"
         cy="12.5"
         r="11.7"
         id="circle3396"
         style="fill:none" /><path
         d="M 12.5,25 C 5.6,25 0,19.4 0,12.5 0,5.6 5.6,0 12.5,0 19.4,0 25,5.6 25,12.5 25,19.4 19.4,25 12.5,25 Z m 0,-23.4 c -6,0 -10.9,4.9 -10.9,10.9 0,6 4.9,10.9 10.9,10.9 6,0 10.9,-4.9 10.9,-10.9 0,-6 -4.9,-10.9 -10.9,-10.9 z"
         id="path3398"
         inkscape:connector-curvature="0"
         style="fill:#343434" /></g><path
       d="m 15.4,7 -1.9,0 c -1.6,0 -2.7,1.1 -2.7,2.7 l 0,1.2 -1.3,0 c -0.2,0 -0.2,0.1 -0.2,0.2 l 0,1.9 c 0,0.2 0.1,0.2 0.2,0.2 l 1.4,0 0,4.4 c 0,0.2 0.1,0.2 0.2,0.2 l 1.9,0 c 0.2,0 0.2,-0.1 0.2,-0.2 l 0,-4.4 2.1,0 c 0.2,0 0.2,-0.1 0.2,-0.2 l 0,-1.9 c 0,-0.1 0,-0.1 -0.1,-0.2 0,-0.1 -0.1,-0.1 -0.2,-0.1 l -2.1,0 0,-1 C 13.1,9.3 13.3,9 14,9 l 1.2,0 c 0.2,0 0.2,-0.1 0.2,-0.2 l 0,-1.6 C 15.6,7.1 15.6,7 15.4,7 Z"
       id="path3400"
       inkscape:connector-curvature="0"
       style="fill:#343434" /></g><g
     id="Layer_61_2_"
     transform="matrix(0.98,0,0,0.98,0.1059322,0.5)" /></svg>