<?xml version="1.0" encoding="UTF-8" standalone="no"?>
<!-- Created with Inkscape (http://www.inkscape.org/) -->

<svg
   xmlns:dc="http://purl.org/dc/elements/1.1/"
   xmlns:cc="http://creativecommons.org/ns#"
   xmlns:rdf="http://www.w3.org/1999/02/22-rdf-syntax-ns#"
   xmlns:svg="http://www.w3.org/2000/svg"
   xmlns="http://www.w3.org/2000/svg"
   xmlns:sodipodi="http://sodipodi.sourceforge.net/DTD/sodipodi-0.dtd"
   xmlns:inkscape="http://www.inkscape.org/namespaces/inkscape"
   width="24"
   height="24"
   viewBox="0 0 24 24.000001"
   id="svg3360"
   version="1.1"
   inkscape:version="0.91 r13725"
   sodipodi:docname="fire_24x24.svg">
  <defs
     id="defs3362" />
  <sodipodi:namedview
     id="base"
     pagecolor="#ffffff"
     bordercolor="#666666"
     borderopacity="1.0"
     inkscape:pageopacity="0.0"
     inkscape:pageshadow="2"
     inkscape:zoom="17.884885"
     inkscape:cx="5.9609347"
     inkscape:cy="12.504968"
     inkscape:document-units="px"
     inkscape:current-layer="layer1"
     showgrid="false"
     fit-margin-top="0"
     fit-margin-left="0"
     fit-margin-right="0"
     fit-margin-bottom="0"
     units="px"
     inkscape:window-width="1440"
     inkscape:window-height="747"
     inkscape:window-x="-8"
     inkscape:window-y="-8"
     inkscape:window-maximized="1" />
  <metadata
     id="metadata3365">
    <rdf:RDF>
      <cc:Work
         rdf:about="">
        <dc:format>image/svg+xml</dc:format>
        <dc:type
           rdf:resource="http://purl.org/dc/dcmitype/StillImage" />
        <dc:title></dc:title>
      </cc:Work>
    </rdf:RDF>
  </metadata>
  <g
     inkscape:label="Layer 1"
     inkscape:groupmode="layer"
     id="layer1"
     transform="translate(-435.71182,-456.1206)">
    <g
       id="g11"
       transform="matrix(0.47419359,0,0,0.47419365,424.3629,444.98422)">
      <path
         d="m 67.008,41.14 c 0,0 -0.002,3.737 -0.871,7.573 -1.893,-8.191 -7.502,-15.107 -7.502,-15.107 -0.79,12.842 -7.674,14.086 -7.674,14.086 0,0 2.155,-3.649 2.397,-10.473 0.28,-7.898 -6.495,-13.288 -6.495,-13.288 0,0 0,0 -1.965,7.1 -0.68,2.455 -2.535,4.455 -4.671,6.492 -1.203,-4.705 -5.391,-7.542 -5.591,-7.675 0.112,0.08 0.945,0.806 1.093,4.957 0.158,4.452 -7.425,8.561 -7.898,16.608 -0.636,10.798 9.86,16.744 12.715,18.157 2.418,2.127 4.353,3.348 4.353,3.348 -3.008,-7.978 -2.508,-12.074 -0.323,-15.512 2.37,-3.728 7.109,-4.794 7.109,-4.794 -5.055,7.705 3.157,8.653 2.249,20.306 0,0 1.624,-0.312 3.811,-1.883 C 61.102,69.526 67.782,65.508 69.536,56.892 71.905,45.249 67.008,41.14 67.008,41.14 Z"
         id="path13"
         inkscape:connector-curvature="0" />
      <path
         d="m 34.638,29.848 c -0.008,-0.006 -0.013,-0.009 -0.013,-0.009 0,0 0.008,0.006 0.013,0.009 z"
         id="path15"
         inkscape:connector-curvature="0" />
    </g>
  </g>
</svg>
