<?xml version="1.0" encoding="UTF-8" standalone="no"?>
<!-- Created with Inkscape (http://www.inkscape.org/) -->

<svg
   xmlns:dc="http://purl.org/dc/elements/1.1/"
   xmlns:cc="http://creativecommons.org/ns#"
   xmlns:rdf="http://www.w3.org/1999/02/22-rdf-syntax-ns#"
   xmlns:svg="http://www.w3.org/2000/svg"
   xmlns="http://www.w3.org/2000/svg"
   xmlns:sodipodi="http://sodipodi.sourceforge.net/DTD/sodipodi-0.dtd"
   xmlns:inkscape="http://www.inkscape.org/namespaces/inkscape"
   width="24"
   height="24"
   viewBox="0 0 24 24.000001"
   id="svg3360"
   version="1.1"
   inkscape:version="0.91 r13725"
   sodipodi:docname="fire_white_24x24.svg">
  <defs
     id="defs3362" />
  <sodipodi:namedview
     id="base"
     pagecolor="#000000"
     bordercolor="#666666"
     borderopacity="1.0"
     inkscape:pageopacity="0"
     inkscape:pageshadow="2"
     inkscape:zoom="17.884885"
     inkscape:cx="4.1081886"
     inkscape:cy="12.504968"
     inkscape:document-units="px"
     inkscape:current-layer="layer1"
     showgrid="false"
     fit-margin-top="0"
     fit-margin-left="0"
     fit-margin-right="0"
     fit-margin-bottom="0"
     units="px"
     inkscape:window-width="1440"
     inkscape:window-height="747"
     inkscape:window-x="-8"
     inkscape:window-y="-8"
     inkscape:window-maximized="1" />
  <metadata
     id="metadata3365">
    <rdf:RDF>
      <cc:Work
         rdf:about="">
        <dc:format>image/svg+xml</dc:format>
        <dc:type
           rdf:resource="http://purl.org/dc/dcmitype/StillImage" />
        <dc:title></dc:title>
      </cc:Work>
    </rdf:RDF>
  </metadata>
  <g
     inkscape:label="Layer 1"
     inkscape:groupmode="layer"
     id="layer1"
     transform="translate(-435.71182,-456.1206)">
    <path
       style="fill:#ffffff"
       d="m 445.19294,479.32999 c -0.26469,-0.18828 -0.71508,-0.53516 -1.00088,-0.77086 -0.2858,-0.2357 -0.75867,-0.5638 -1.05081,-0.7291 -3.07608,-1.74054 -4.9997,-4.11106 -5.44508,-6.71011 -0.12731,-0.74288 -0.1179,-1.78023 0.0224,-2.46859 0.2701,-1.32541 0.76328,-2.27535 2.13137,-4.10533 1.43143,-1.91472 1.57541,-2.26563 1.45458,-3.54527 -0.0681,-0.72147 -0.18016,-1.25237 -0.32233,-1.52729 -0.0442,-0.0854 -0.0605,-0.15532 -0.0362,-0.15532 0.0242,0 0.23473,0.16984 0.46772,0.37741 0.93776,0.83547 1.55551,1.69629 1.92806,2.68671 l 0.18056,0.48 0.51293,-0.52799 c 0.64497,-0.6639 1.10927,-1.2744 1.3692,-1.80034 0.13242,-0.26793 0.376,-1.03533 0.70537,-2.22219 0.2767,-0.99711 0.51388,-1.82372 0.52706,-1.83689 0.0373,-0.0373 0.46129,0.36008 0.91252,0.85532 0.75018,0.82333 1.439,1.95713 1.78524,2.93849 0.29947,0.84878 0.37554,1.32794 0.37283,2.34835 -0.004,1.63779 -0.35897,3.47283 -0.89554,4.63417 -0.10515,0.22757 -0.19117,0.4226 -0.19117,0.4334 0,0.0421 0.49177,-0.17858 0.80443,-0.36095 0.71646,-0.4179 1.50449,-1.40113 1.94862,-2.43131 0.38344,-0.88938 0.64483,-1.9672 0.7745,-3.19348 l 0.0705,-0.66656 0.16304,0.1913 c 0.29052,0.34089 1.19265,1.73685 1.63356,2.5278 0.69868,1.25338 1.45014,3.0571 1.6522,3.96578 0.0391,0.17576 0.0898,0.30798 0.11272,0.29382 0.0916,-0.0566 0.31517,-1.68657 0.36873,-2.68841 0.0204,-0.38098 0.0553,-0.69268 0.0776,-0.69268 0.0223,0 0.14185,0.13209 0.2656,0.29354 0.90188,1.17656 1.33118,3.02261 1.18489,5.09521 -0.21015,2.97722 -1.04368,4.94871 -2.83117,6.69634 -0.76829,0.75117 -1.70412,1.41975 -2.65044,1.89356 -0.19788,0.0991 -0.5423,0.29315 -0.76537,0.43128 -0.4281,0.2651 -1.21236,0.62887 -1.35826,0.63002 -0.0736,5.8e-4 -0.083,-0.0782 -0.0633,-0.5285 0.0469,-1.07179 -0.2019,-2.52786 -0.59262,-3.46861 -0.0894,-0.21526 -0.36583,-0.81913 -0.61428,-1.34191 -0.55517,-1.16822 -0.6512,-1.47743 -0.6512,-2.09675 0,-0.64858 0.20537,-1.28487 0.64352,-1.99385 l 0.10919,-0.17669 -0.2439,0.0734 c -1.35658,0.40828 -2.63313,1.3586 -3.22088,2.39779 -0.51773,0.91538 -0.78828,2.12323 -0.70289,3.13801 0.0892,1.05944 0.3854,2.34027 0.81111,3.50674 0.0912,0.24998 0.15725,0.46314 0.14671,0.47368 -0.0105,0.0105 -0.23573,-0.13487 -0.50041,-0.32315 z"
       id="path3341"
       inkscape:connector-curvature="0" />
  </g>
</svg>
