<?xml version="1.0" encoding="UTF-8" standalone="no"?>
<!-- Created with Inkscape (http://www.inkscape.org/) -->

<svg
   xmlns:dc="http://purl.org/dc/elements/1.1/"
   xmlns:cc="http://creativecommons.org/ns#"
   xmlns:rdf="http://www.w3.org/1999/02/22-rdf-syntax-ns#"
   xmlns:svg="http://www.w3.org/2000/svg"
   xmlns="http://www.w3.org/2000/svg"
   xmlns:sodipodi="http://sodipodi.sourceforge.net/DTD/sodipodi-0.dtd"
   xmlns:inkscape="http://www.inkscape.org/namespaces/inkscape"
   id="svg3412"
   version="1.1"
   inkscape:version="0.91 r13725"
   width="24"
   height="24"
   viewBox="0 0 24 24.000001"
   sodipodi:docname="flood_white_24x24.svg">
  <metadata
     id="metadata3418">
    <rdf:RDF>
      <cc:Work
         rdf:about="">
        <dc:format>image/svg+xml</dc:format>
        <dc:type
           rdf:resource="http://purl.org/dc/dcmitype/StillImage" />
        <dc:title></dc:title>
      </cc:Work>
    </rdf:RDF>
  </metadata>
  <defs
     id="defs3416" />
  <sodipodi:namedview
     pagecolor="#ffffff"
     bordercolor="#666666"
     borderopacity="1"
     objecttolerance="10"
     gridtolerance="10"
     guidetolerance="10"
     inkscape:pageopacity="0"
     inkscape:pageshadow="2"
     inkscape:window-width="1440"
     inkscape:window-height="747"
     id="namedview3414"
     showgrid="false"
     showborder="true"
     fit-margin-top="0"
     fit-margin-left="0"
     fit-margin-right="0"
     fit-margin-bottom="0"
     inkscape:zoom="7.7948208"
     inkscape:cx="-2.6033506"
     inkscape:cy="0.83653538"
     inkscape:window-x="-8"
     inkscape:window-y="-8"
     inkscape:window-maximized="1"
     inkscape:current-layer="svg3412" />
  <path
     style="fill:#000000"
     d="m 0.19999906,19.373057 c 0,-2.165926 0.004264,-3.341164 0.0121479,-3.336305 0.006644,0 0.48240025,-0.16204 1.05715344,-0.369202 0.5747551,-0.207261 1.0786874,-0.38388 1.1198505,-0.392507 0.2264491,-0.0476 0.4096457,-0.06148 0.8107967,-0.06148 0.4313304,1.98e-4 0.5684531,0.0119 0.8538568,0.07636 0.121144,0.02678 0.2965956,0.07834 0.3779311,0.11087 0.020736,0.0099 0.021827,-0.09421 0.021827,-2.050891 l 0,-2.059419 -1.8036851,0 -1.80368411,0 1.99079181,-1.6776235 1.9907918,-1.6775237 0,-2.1862552 0,-2.1862551 1.2473134,0 1.2473145,0 0.00317,1.1324973 0.00317,1.132398 2.2993231,-1.9377404 C 10.892701,2.8243173 11.934253,1.95402 11.942635,1.9561025 c 0.0084,0 2.478302,2.1032516 5.488712,4.6691214 l 5.473473,4.6652541 -1.554255,0 -1.554256,0 0,2.24526 c 0,1.234838 0.0022,2.245259 0.0048,2.245259 0.0026,0 0.04165,-0.01388 0.08674,-0.03074 0.177364,-0.06644 0.467935,-0.129811 0.719301,-0.155992 0.278361,-0.02876 0.775605,-0.0099 1.069837,0.04264 0.05671,0.0099 0.566876,0.147959 1.133692,0.306627 l 1.030572,0.288579 0.07938,-0.07834 0.07938,-0.07834 0,3.320836 0,3.320834 -11.900001,0 -11.90000075,0 0,-3.343743 z m 8.14546524,2.502006 c 0.08572,-0.0099 0.2147851,-0.03272 0.2868208,-0.05058 0.080573,-0.01983 0.7193749,-0.252482 1.6600849,-0.605221 1.180385,-0.442488 1.541828,-0.57329 1.584876,-0.57329 0.04028,0 0.507539,0.150934 1.682892,0.543439 0.894919,0.298794 1.683258,0.556432 1.751864,0.572497 0.21668,0.05057 0.335683,0.06247 0.617453,0.06247 0.161201,0 0.312972,-0.0099 0.380451,-0.01686 0.123737,-0.01884 0.33954,-0.06644 0.436582,-0.09718 0.0343,-0.01091 0.651756,-0.254861 1.372118,-0.54235 l 1.309748,-0.522812 1.221374,-1.221451 1.221373,-1.221451 -0.05508,-0.01487 c -0.03028,-0.0099 -0.383445,-0.104126 -0.78479,-0.213212 -0.786424,-0.213805 -0.831063,-0.224218 -1.08522,-0.252778 -0.550842,-0.06247 -1.106172,-0.01487 -1.509329,0.127827 -1.534903,0.543737 -2.644952,0.924741 -2.694425,0.924741 -0.04251,0 -0.48072,-0.141414 -1.684582,-0.543441 -0.894919,-0.298792 -1.683258,-0.55643 -1.751864,-0.572496 -0.216681,-0.05057 -0.335683,-0.06247 -0.617453,-0.06247 -0.289814,0 -0.401097,0.0119 -0.6424,0.06843 -0.194312,0.04562 -0.110978,0.01487 -1.7799642,0.667599 L 7.8228242,18.896257 6.4282086,18.263071 C 5.5141308,17.848053 4.9798664,17.612232 4.8776692,17.578713 4.4540143,17.439779 4.0444887,17.378097 3.6490011,17.393765 3.3728357,17.404675 3.233818,17.432436 2.8742525,17.549161 2.7034924,17.604692 2.4380708,17.690079 2.284424,17.739166 l -0.2793555,0.08925 1.5943522,1.594422 1.5943532,1.594421 0.7037393,0.319717 c 0.6134252,0.278762 0.7288096,0.327056 0.8991006,0.375946 0.2921311,0.08429 0.5987723,0.148356 0.8128166,0.170866 0.1260359,0.01289 0.5942157,0.0099 0.7360309,-0.0099 z m 2.4073647,-6.060051 c 0.860683,-0.307519 0.990591,-0.338162 1.434487,-0.338162 0.440179,0 0.592321,0.0357 1.40642,0.326957 l 0.589388,0.211028 0,-2.174949 0,-2.17505 -2.120546,0 -2.1205451,0 0,2.220171 0,2.220071 0.084202,-0.03074 c 0.04631,-0.01686 0.373279,-0.133579 0.726599,-0.259819 z"
     id="path3422"
     inkscape:connector-curvature="0" />
  <path
     style="fill:#ffffff"
     d="M 0.17200465,19.368134 0.20620729,16.00899 1.4249653,15.576898 c 1.0584469,-0.375258 1.3326632,-0.423761 2.0847175,-0.36874 l 0.8659596,0.06335 0,-1.977416 0,-1.977416 -1.7568392,-0.03569 -1.75683915,-0.03569 1.94626505,-1.6403289 1.9462652,-1.6403287 0.035082,-2.2083807 0.035082,-2.2083809 1.2508306,-0.036718 1.2508305,-0.036718 0,1.1607715 0,1.1607714 2.3067245,-1.9393765 2.3067249,-1.9393763 0.358636,0.3021619 c 0.19725,0.1661891 2.662277,2.2650037 5.477839,4.6640326 l 5.119203,4.361871 -1.562483,0.03602 -1.562484,0.03602 0,2.17216 0,2.17216 0.801814,-0.07385 c 0.631249,-0.05814 1.058199,-0.0034 2.007052,0.257512 0.662881,0.182248 1.254621,0.30084 1.314976,0.263537 0.06036,-0.0373 0.109738,1.436582 0.109738,3.275298 l 0,3.34312 -11.933129,0 -11.93312898,0 0.0342026,-3.359144 z m 9.94874635,1.883805 c 0.858721,-0.317519 1.648058,-0.577306 1.75408,-0.577306 0.106022,0 1.016658,0.264453 2.023636,0.587674 2.126553,0.682586 2.173946,0.681609 4.110071,-0.08467 1.242489,-0.491751 1.37659,-0.582711 2.499611,-1.695469 0.652677,-0.646711 1.186686,-1.209723 1.186686,-1.251135 0,-0.11402 -1.797509,-0.510508 -2.309226,-0.509358 -0.246959,5.13e-4 -1.163099,0.242305 -2.035867,0.537227 -1.786067,0.603535 -1.417192,0.62262 -3.993778,-0.206618 -1.749883,-0.563175 -1.821892,-0.55834 -3.968092,0.266447 L 7.841512,18.913 6.1888792,18.190188 c -1.2348028,-0.540066 -1.804531,-0.722813 -2.2534317,-0.722813 -0.6435235,0 -1.7407404,0.233188 -1.7407404,0.369953 0,0.186133 3.1764076,3.213248 3.5921288,3.423298 1.4667373,0.741092 2.3107292,0.739401 4.3339151,-0.0087 l 0,-1e-6 z m 2.758501,-5.683611 c 0.438591,0.116005 0.898467,0.250539 1.021946,0.298966 0.20834,0.08171 0.224508,-0.06539 0.224508,-2.042468 l 0,-2.130515 -2.052645,0 -2.052645,0 0,2.169446 0,2.169445 1.030698,-0.337896 c 1.020255,-0.334474 1.038779,-0.33576 1.828138,-0.126978 z"
     id="path3424"
     inkscape:connector-curvature="0" />
</svg>
