<?xml version="1.0" encoding="utf-8"?>
<!-- Generator: Adobe Illustrator 19.1.0, SVG Export Plug-In . SVG Version: 6.00 Build 0)  -->
<!DOCTYPE svg PUBLIC "-//W3C//DTD SVG 1.1//EN" "http://www.w3.org/Graphics/SVG/1.1/DTD/svg11.dtd">
<svg version="1.1" id="Layer_1" xmlns="http://www.w3.org/2000/svg" xmlns:xlink="http://www.w3.org/1999/xlink" x="0px" y="0px"
	 viewBox="0 0 32 32" enable-background="new 0 0 32 32" xml:space="preserve">
<path fill="#343434" d="M16,2.9c7.2,0,13,5.8,13,13s-5.8,13-13,13s-13-5.8-13-13S8.8,2.9,16,2.9 M16,0C7.1,0,0,7.2,0,16
	s7.2,16,16,16s16-7.2,16-16S24.8,0,16,0L16,0z M15.1,12.7c0.8,0,1.6,0,2.4,0c0.6,0,0.9,0.3,0.9,0.8c0,0.5,0,1-0.1,1.4
	c-0.3,1.8-0.6,3.6-1,5.3c-0.1,0.6-0.2,1.2-0.3,1.8c0,0.3,0,0.6,0.1,0.8c0.1,0.4,0.4,0.6,0.8,0.5c0.3,0,0.6-0.1,0.9-0.3
	c0.2-0.1,0.5-0.3,0.7-0.3c0.3-0.1,0.7,0.1,0.6,0.5c0,0.2-0.2,0.4-0.3,0.6c-0.9,0.9-2,1.5-3.3,1.5c-0.6,0-1.2,0-1.8-0.1
	c-1-0.1-2.3-1.4-2.1-2.7c0.1-0.9,0.3-1.8,0.4-2.7c0.3-1.6,0.5-3.1,0.8-4.7c0-0.1,0-0.2,0-0.3c0-0.6-0.2-0.9-0.8-1
	c-0.3,0-0.6,0-0.8-0.1c-0.3-0.1-0.5-0.3-0.4-0.6c0-0.3,0.2-0.4,0.6-0.5c0.2,0,0.4,0,0.6,0C13.6,12.7,14.4,12.7,15.1,12.7z M16.6,6.5
	c1.4,0,2.5,1.1,2.5,2.5c0,1.4-1.1,2.5-2.5,2.5c-1.4,0-2.5-1.1-2.5-2.5C14.1,7.7,15.2,6.5,16.6,6.5z"/>
<g id="Layer_61_2_">
</g>
</svg>
