<?xml version="1.0" encoding="utf-8"?>
<!-- Generator: Adobe Illustrator 19.1.0, SVG Export Plug-In . SVG Version: 6.00 Build 0)  -->
<!DOCTYPE svg PUBLIC "-//W3C//DTD SVG 1.1//EN" "http://www.w3.org/Graphics/SVG/1.1/DTD/svg11.dtd">
<svg version="1.1" id="Layer_1" xmlns="http://www.w3.org/2000/svg" xmlns:xlink="http://www.w3.org/1999/xlink" x="0px" y="0px"
     viewBox="0 0 25 25" enable-background="new 0 0 25 25" xml:space="preserve">
<svg version="1.1" id="Layer_1" xmlns="http://www.w3.org/2000/svg" xmlns:xlink="http://www.w3.org/1999/xlink" x="0px" y="0px"
	 viewBox="1 -1 14.8 20" enable-background="new 1 -1 14.8 20" xml:space="preserve">
<path fill="#343434" d="M15.5,4.6c-0.6-2.5-2.5-4.5-5-5.3C9.7-0.9,8.8-1,7.9-1C5.3-0.8,3,0.7,1.8,3c-0.7,1.3-1,2.9-0.8,4.2
	c0.3,2,1.6,4.6,3.8,7.6c0.6,0.8,1.3,1.7,2,2.5c0.5,0.6,1.2,1.4,1.4,1.6C8.2,19,8.2,19,8.3,19c0.1,0,0.2,0,0.3,0
	c0.1-0.1,1-1.1,1.6-1.8c2.9-3.6,4.9-6.8,5.4-9.2c0.1-0.6,0.2-1,0.2-1.5C15.7,5.7,15.7,5.2,15.5,4.6z M11.9,6.2
	c-0.2,0.9-0.6,1.7-1.4,2.3C9.8,9,9,9.3,8.2,9.2C7.8,9.2,7.5,9.1,7.1,9C7,8.9,6.6,8.8,6.5,8.7C5.8,8.3,5.3,7.6,5,6.9
	C4.7,6,4.7,5,5.1,4.2C5.3,3.8,5.6,3.3,5.9,3C6.5,2.5,7.2,2.2,8,2.1c0.2,0,0.7,0,0.8,0c0.6,0.1,1.1,0.3,1.5,0.6
	c0.7,0.5,1.3,1.3,1.5,2.1C11.9,5.1,12,5.3,12,5.7C11.9,5.9,11.9,6,11.9,6.2z"/>
</svg>
</svg>
