<?xml version="1.0" encoding="utf-8"?>
<!-- Generator: Adobe Illustrator 19.1.0, SVG Export Plug-In . SVG Version: 6.00 Build 0)  -->
<!DOCTYPE svg PUBLIC "-//W3C//DTD SVG 1.1//EN" "http://www.w3.org/Graphics/SVG/1.1/DTD/svg11.dtd">
<svg version="1.1" id="Layer_1" xmlns="http://www.w3.org/2000/svg" xmlns:xlink="http://www.w3.org/1999/xlink" x="0px" y="0px"
	 viewBox="0 0 25 25" enable-background="new 0 0 25 25" xml:space="preserve">
<g id="Layer_56_1_">
	<g>
		<circle fill="none" cx="12.5" cy="12.5" r="11.7"/>
		<path fill="#343434" d="M12.5,25C5.6,25,0,19.4,0,12.5S5.6,0,12.5,0S25,5.6,25,12.5S19.4,25,12.5,25z M12.5,1.6
			c-6,0-10.9,4.9-10.9,10.9s4.9,10.9,10.9,10.9s10.9-4.9,10.9-10.9S18.5,1.6,12.5,1.6z"/>
	</g>
	<path fill="#343434" d="M9.3,7.4h6.5v2.4H9.3C9.3,9.8,9.3,7.4,9.3,7.4z M15.7,17.7H9.3v-3.1h6.5V17.7z M17.7,15.1
		c0,0.4-0.3,0.6-0.6,0.6h-0.6V14H8.6v1.8H8c-0.4,0-0.6-0.3-0.6-0.6v-4.1c0-0.4,0.3-0.6,0.6-0.6h9.1c0.4,0,0.6,0.3,0.6,0.6V15.1z
		 M15.6,12.1h0.7v-0.7h-0.7V12.1z"/>
</g>
<g id="Layer_61_2_">
</g>
</svg>
