<?xml version="1.0" encoding="utf-8"?>
<!-- Generator: Adobe Illustrator 19.1.0, SVG Export Plug-In . SVG Version: 6.00 Build 0)  -->
<!DOCTYPE svg PUBLIC "-//W3C//DTD SVG 1.1//EN" "http://www.w3.org/Graphics/SVG/1.1/DTD/svg11.dtd">
<svg version="1.1" id="Layer_1" xmlns="http://www.w3.org/2000/svg" xmlns:xlink="http://www.w3.org/1999/xlink" x="0px" y="0px"
     viewBox="0 0 30 30" enable-background="new 0 0 30 30" xml:space="preserve">
<svg version="1.1" id="Layer_1" xmlns="http://www.w3.org/2000/svg" xmlns:xlink="http://www.w3.org/1999/xlink" x="0px" y="0px"
	 viewBox="0 0 25 25" enable-background="new 0 0 25 25" xml:space="preserve">
<g id="Layer_56">
	<g>
		<circle fill="none" cx="12.5" cy="12.5" r="11.7"/>
		<path fill="#343434" d="M12.5,25C5.6,25,0,19.4,0,12.5S5.6,0,12.5,0S25,5.6,25,12.5S19.4,25,12.5,25z M12.5,1.6
			c-6,0-10.9,4.9-10.9,10.9s4.9,10.9,10.9,10.9s10.9-4.9,10.9-10.9S18.5,1.6,12.5,1.6z"/>
	</g>
	<path fill="#343434" d="M18,9.2c-0.4,0.2-0.9,0.3-1.3,0.4c0.5-0.3,0.8-0.7,1-1.3c-0.5,0.2-0.9,0.5-1.4,0.5c-0.4-0.5-1-0.7-1.6-0.7
		c-1.3,0-2.3,1-2.3,2.3c0,0.2,0,0.3,0.1,0.5c-1.9-0.1-3.5-1-4.6-2.3C7.7,8.9,7.6,9.3,7.6,9.7c0,0.8,0.4,1.5,1,1.9
		c-0.4,0-0.7-0.1-1-0.3l0,0c0,1.1,0.8,2,1.8,2.2c-0.2,0.1-0.4,0.1-0.6,0.1c-0.2,0-0.3,0-0.4-0.1c0.3,0.9,1.1,1.6,2.1,1.6
		C9.7,15.6,8.7,16,7.6,16c-0.2,0-0.4,0-0.5,0c1,0.6,2.2,1,3.4,1c4.1,0,6.4-3.4,6.4-6.4v-0.3C17.3,9.9,17.6,9.5,18,9.2z"/>
</g>
<g id="Layer_61_2_">
</g>
</svg>
</svg>
