<?xml version="1.0" encoding="utf-8"?>
<!-- Generator: Adobe Illustrator 19.1.0, SVG Export Plug-In . SVG Version: 6.00 Build 0)  -->
<!DOCTYPE svg PUBLIC "-//W3C//DTD SVG 1.1//EN" "http://www.w3.org/Graphics/SVG/1.1/DTD/svg11.dtd">
<svg version="1.1" id="Layer_1" xmlns="http://www.w3.org/2000/svg" xmlns:xlink="http://www.w3.org/1999/xlink" x="0px" y="0px"
     viewBox="0 0 36 36" enable-background="new 0 0 36 36" xml:space="preserve">
<svg version="1.1" id="Layer_1" xmlns="http://www.w3.org/2000/svg" xmlns:xlink="http://www.w3.org/1999/xlink" x="0px" y="0px"
	 viewBox="0 0 25 25" enable-background="new 0 0 25 25" xml:space="preserve">
<g id="Layer_55">
	<g>
		<circle fill="none" cx="12.5" cy="12.5" r="11.7"/>
		<path fill="#343434" d="M12.5,25C5.6,25,0,19.4,0,12.5S5.6,0,12.5,0S25,5.6,25,12.5S19.4,25,12.5,25z M12.5,1.6
			c-6,0-10.9,4.9-10.9,10.9s4.9,10.9,10.9,10.9s10.9-4.9,10.9-10.9S18.5,1.6,12.5,1.6z"/>
	</g>
	<path fill="#343434" d="M15.4,7h-1.9c-1.6,0-2.7,1.1-2.7,2.7v1.2H9.5c-0.2,0-0.2,0.1-0.2,0.2V13c0,0.2,0.1,0.2,0.2,0.2h1.4v4.4
		c0,0.2,0.1,0.2,0.2,0.2h1.9c0.2,0,0.2-0.1,0.2-0.2v-4.4h2.1c0.2,0,0.2-0.1,0.2-0.2v-1.9c0-0.1,0-0.1-0.1-0.2c0-0.1-0.1-0.1-0.2-0.1
		h-2.1v-1c0-0.5,0.2-0.8,0.9-0.8h1.2c0.2,0,0.2-0.1,0.2-0.2V7.2C15.6,7.1,15.6,7,15.4,7z"/>
</g>
<g id="Layer_61_2_">
</g>
</svg>
</svg>
