<?xml version="1.0" encoding="UTF-8" standalone="no"?>
<!-- Created with Inkscape (http://www.inkscape.org/) -->

<svg
   xmlns:dc="http://purl.org/dc/elements/1.1/"
   xmlns:cc="http://creativecommons.org/ns#"
   xmlns:rdf="http://www.w3.org/1999/02/22-rdf-syntax-ns#"
   xmlns:svg="http://www.w3.org/2000/svg"
   xmlns="http://www.w3.org/2000/svg"
   xmlns:sodipodi="http://sodipodi.sourceforge.net/DTD/sodipodi-0.dtd"
   xmlns:inkscape="http://www.inkscape.org/namespaces/inkscape"
   id="svg3358"
   version="1.1"
   inkscape:version="0.91 r13725"
   width="24"
   height="24"
   viewBox="0 0 24 24"
   sodipodi:docname="storm_24x24.svg">
  <metadata
     id="metadata3364">
    <rdf:RDF>
      <cc:Work
         rdf:about="">
        <dc:format>image/svg+xml</dc:format>
        <dc:type
           rdf:resource="http://purl.org/dc/dcmitype/StillImage" />
        <dc:title></dc:title>
      </cc:Work>
    </rdf:RDF>
  </metadata>
  <defs
     id="defs3362" />
  <sodipodi:namedview
     pagecolor="#ffffff"
     bordercolor="#666666"
     borderopacity="1"
     objecttolerance="10"
     gridtolerance="10"
     guidetolerance="10"
     inkscape:pageopacity="0"
     inkscape:pageshadow="2"
     inkscape:window-width="1440"
     inkscape:window-height="747"
     id="namedview3360"
     showgrid="false"
     fit-margin-top="0"
     fit-margin-left="0"
     fit-margin-right="0"
     fit-margin-bottom="0"
     inkscape:zoom="15.127053"
     inkscape:cx="12.970262"
     inkscape:cy="9.6400596"
     inkscape:window-x="-8"
     inkscape:window-y="-8"
     inkscape:window-maximized="1"
     inkscape:current-layer="svg3358" />
  <path
     style="fill:#000000"
     d="m 7.4519433,23.833012 c 0,-0.06391 0.2982974,-0.531281 0.8133805,-1.274374 C 8.9553656,21.56313 9.2628615,21.089632 9.5401434,20.595591 9.7835316,20.161947 10.057882,19.527556 10.018891,19.48857 9.9856749,19.45533 9.1710783,19.4724 7.4519433,19.54232 6.6112936,19.57654 5.8870879,19.60465 5.8425972,19.60495 5.7885322,19.605256 5.9956065,19.365829 6.4668951,18.88309 6.8547499,18.485818 7.935544,17.337859 8.8686594,16.332084 9.8017768,15.3263 10.607016,14.45904 10.658083,14.404847 l 0.09284,-0.09852 2.58584,-0.0648 c 1.422208,-0.0357 2.733706,-0.05907 2.914435,-0.05217 l 0.328602,0.01262 -2.202056,1.765259 -2.202053,1.765259 1.433985,0.0215 1.433985,0.0215 -0.742872,0.619253 c -0.82994,0.691839 -6.7945707,5.473041 -6.827702,5.473041 -0.011628,0 -0.021155,-0.01568 -0.021155,-0.03481 z M 4.2228138,13.305277 C 3.0396788,12.952405 2.1069875,12.072897 1.6782299,10.905785 1.4020132,10.153905 1.3226396,9.4565331 1.4421724,8.8317972 1.6585596,7.7008406 2.3414365,6.81078 3.4909303,6.1614378 3.759844,6.0095291 3.826873,5.9225734 3.9006241,5.6299498 3.9995003,5.2376284 4.3600474,4.5514112 4.6676242,4.1701454 5.8037526,2.7618122 7.6980781,2.2170496 9.4854492,2.7846434 c 0.1735258,0.05513 0.3381577,0.092607 0.365851,0.083435 0.027693,-0.00888 0.1858188,-0.1947208 0.3513838,-0.4121938 0.886601,-1.1645772 1.958748,-1.86755043 3.298494,-2.16272839 0.466127,-0.10270575 1.466052,-0.12690778 1.980532,-0.0479307 1.180845,0.18124893 2.143468,0.67296236 2.995,1.52986609 0.495467,0.4985972 0.773227,0.8901691 1.056891,1.4899829 0.323099,0.6831896 0.532664,1.5901344 0.533222,2.3076546 3.44e-4,0.3851317 0.02084,0.4119571 0.509235,0.6652303 0.372357,0.1930935 0.886676,0.6566107 1.136061,1.0238424 0.248483,0.3659004 0.483408,0.8938971 0.59758,1.3430548 0.118312,0.4654403 0.141268,1.3567734 0.04491,1.7437294 -0.16283,0.653889 -0.526705,1.320313 -0.992498,1.817717 -0.50524,0.539535 -0.987063,0.845059 -1.725585,1.0942 l -0.365969,0.123465 -7.362415,0.0089 -7.3624136,0.0089 -0.3229127,-0.09635 z"
     id="path3368"
     inkscape:connector-curvature="0" />
</svg>
