<?xml version="1.0" encoding="UTF-8" standalone="no"?>
<!-- Generator: Adobe Illustrator 18.1.1, SVG Export Plug-In . SVG Version: 6.00 Build 0)  -->

<svg
   xmlns:dc="http://purl.org/dc/elements/1.1/"
   xmlns:cc="http://creativecommons.org/ns#"
   xmlns:rdf="http://www.w3.org/1999/02/22-rdf-syntax-ns#"
   xmlns:svg="http://www.w3.org/2000/svg"
   xmlns="http://www.w3.org/2000/svg"
   xmlns:sodipodi="http://sodipodi.sourceforge.net/DTD/sodipodi-0.dtd"
   xmlns:inkscape="http://www.inkscape.org/namespaces/inkscape"
   version="1.1"
   id="Capa_1"
   x="0px"
   y="0px"
   viewBox="0 0 24 24"
   xml:space="preserve"
   inkscape:version="0.91 r13725"
   sodipodi:docname="thumbup_24x24.svg"
   width="24"
   height="24"><metadata
     id="metadata3502"><rdf:RDF><cc:Work
         rdf:about=""><dc:format>image/svg+xml</dc:format><dc:type
           rdf:resource="http://purl.org/dc/dcmitype/StillImage" /><dc:title></dc:title></cc:Work></rdf:RDF></metadata><defs
     id="defs3500" /><sodipodi:namedview
     pagecolor="#ffffff"
     bordercolor="#666666"
     borderopacity="1"
     objecttolerance="10"
     gridtolerance="10"
     guidetolerance="10"
     inkscape:pageopacity="0"
     inkscape:pageshadow="2"
     inkscape:window-width="1440"
     inkscape:window-height="747"
     id="namedview3498"
     showgrid="false"
     fit-margin-top="0"
     fit-margin-left="0"
     fit-margin-right="0"
     fit-margin-bottom="0"
     inkscape:zoom="22.248998"
     inkscape:cx="13.818457"
     inkscape:cy="13.127534"
     inkscape:window-x="-8"
     inkscape:window-y="-8"
     inkscape:window-maximized="1"
     inkscape:current-layer="Capa_1" /><g
     id="Like_2"
     transform="matrix(0.0993135,0,0,0.0993135,0.19388193,-0.04494486)"><path
       style="clip-rule:evenodd;fill-rule:evenodd"
       d="m 208.632,133.579 c 10.345,0.472 19.121,-7.677 19.574,-18.203 0.453,-10.526 -6.821,-19.989 -17.174,-20.444 l -68.73,-8.63 c 0,0 14.323,-23.958 14.323,-59.455 C 156.625,3.184 139.72,0 129.778,0 c -7.821,-0.003 -9.927,15.151 -9.927,15.151 l -0.016,0 c -1.771,9.717 -4.077,18.203 -12.09,33.827 -8.97,17.512 -21.186,15.869 -35.448,31.467 -2.517,2.747 -5.899,7.281 -9.195,12.86 -0.269,0.295 -0.52,0.708 -0.763,1.289 -0.294,0.692 -0.646,1.172 -0.956,1.812 -0.546,1.003 -1.083,2.006 -1.611,3.059 -8.827,8.827 -22.579,7.925 -28.435,7.925 -11.746,0 -17.898,6.825 -17.898,17.898 l -0.004,81.828 c 0,12.423 5.083,16.613 17.903,16.613 l 17.898,0 c 9.011,0 16.067,5.166 26.848,8.949 14.767,5.116 36.821,8.956 74.811,8.956 6.644,0 27.251,0.025 27.251,0.025 6.309,0 11.377,-2.882 15.034,-6.362 1.392,-1.323 2.844,-3.245 3.465,-6.995 0.101,-0.581 0.209,-3.017 0.193,-3.346 0.477,-10.728 -6.008,-14.612 -9.682,-15.835 0.1,-0.034 0.034,-0.126 0.234,-0.118 l 11.663,0.522 c 10.353,0.472 20.572,-6.986 20.572,-19.669 0,-10.517 -8.525,-17.934 -18.844,-18.439 l 6.184,0.287 c 10.352,0.455 19.103,-7.694 19.582,-18.22 0.451,-10.525 -7.57,-19.432 -17.915,-19.905 z"
       id="path3466"
       inkscape:connector-curvature="0" /></g><g
     id="g3468"
     transform="translate(-13.435,-217.659)" /><g
     id="g3470"
     transform="translate(-13.435,-217.659)" /><g
     id="g3472"
     transform="translate(-13.435,-217.659)" /><g
     id="g3474"
     transform="translate(-13.435,-217.659)" /><g
     id="g3476"
     transform="translate(-13.435,-217.659)" /><g
     id="g3478"
     transform="translate(-13.435,-217.659)" /><g
     id="g3480"
     transform="translate(-13.435,-217.659)" /><g
     id="g3482"
     transform="translate(-13.435,-217.659)" /><g
     id="g3484"
     transform="translate(-13.435,-217.659)" /><g
     id="g3486"
     transform="translate(-13.435,-217.659)" /><g
     id="g3488"
     transform="translate(-13.435,-217.659)" /><g
     id="g3490"
     transform="translate(-13.435,-217.659)" /><g
     id="g3492"
     transform="translate(-13.435,-217.659)" /><g
     id="g3494"
     transform="translate(-13.435,-217.659)" /><g
     id="g3496"
     transform="translate(-13.435,-217.659)" /></svg>