<?xml version="1.0" encoding="UTF-8" standalone="no"?>
<!-- Generator: Adobe Illustrator 18.1.1, SVG Export Plug-In . SVG Version: 6.00 Build 0)  -->

<svg
   xmlns:dc="http://purl.org/dc/elements/1.1/"
   xmlns:cc="http://creativecommons.org/ns#"
   xmlns:rdf="http://www.w3.org/1999/02/22-rdf-syntax-ns#"
   xmlns:svg="http://www.w3.org/2000/svg"
   xmlns="http://www.w3.org/2000/svg"
   xmlns:sodipodi="http://sodipodi.sourceforge.net/DTD/sodipodi-0.dtd"
   xmlns:inkscape="http://www.inkscape.org/namespaces/inkscape"
   version="1.1"
   id="Capa_1"
   x="0px"
   y="0px"
   viewBox="0 0 24 24"
   xml:space="preserve"
   inkscape:version="0.91 r13725"
   sodipodi:docname="thumbup_white_24x24.svg"
   width="24"
   height="24"><metadata
     id="metadata3502"><rdf:RDF><cc:Work
         rdf:about=""><dc:format>image/svg+xml</dc:format><dc:type
           rdf:resource="http://purl.org/dc/dcmitype/StillImage" /><dc:title></dc:title></cc:Work></rdf:RDF></metadata><defs
     id="defs3500" /><sodipodi:namedview
     pagecolor="#ffffff"
     bordercolor="#666666"
     borderopacity="1"
     objecttolerance="10"
     gridtolerance="10"
     guidetolerance="10"
     inkscape:pageopacity="0"
     inkscape:pageshadow="2"
     inkscape:window-width="1440"
     inkscape:window-height="747"
     id="namedview3498"
     showgrid="false"
     fit-margin-top="0"
     fit-margin-left="0"
     fit-margin-right="0"
     fit-margin-bottom="0"
     inkscape:zoom="22.248998"
     inkscape:cx="13.818457"
     inkscape:cy="13.127534"
     inkscape:window-x="-8"
     inkscape:window-y="-8"
     inkscape:window-maximized="1"
     inkscape:current-layer="Capa_1" /><g
     id="Like_2"
     transform="matrix(0.0993135,0,0,0.0993135,0.19388193,-0.04494486)"><path
       style="clip-rule:evenodd;fill-rule:evenodd"
       d="m 208.632,133.579 c 10.345,0.472 19.121,-7.677 19.574,-18.203 0.453,-10.526 -6.821,-19.989 -17.174,-20.444 l -68.73,-8.63 c 0,0 14.323,-23.958 14.323,-59.455 C 156.625,3.184 139.72,0 129.778,0 c -7.821,-0.003 -9.927,15.151 -9.927,15.151 l -0.016,0 c -1.771,9.717 -4.077,18.203 -12.09,33.827 -8.97,17.512 -21.186,15.869 -35.448,31.467 -2.517,2.747 -5.899,7.281 -9.195,12.86 -0.269,0.295 -0.52,0.708 -0.763,1.289 -0.294,0.692 -0.646,1.172 -0.956,1.812 -0.546,1.003 -1.083,2.006 -1.611,3.059 -8.827,8.827 -22.579,7.925 -28.435,7.925 -11.746,0 -17.898,6.825 -17.898,17.898 l -0.004,81.828 c 0,12.423 5.083,16.613 17.903,16.613 l 17.898,0 c 9.011,0 16.067,5.166 26.848,8.949 14.767,5.116 36.821,8.956 74.811,8.956 6.644,0 27.251,0.025 27.251,0.025 6.309,0 11.377,-2.882 15.034,-6.362 1.392,-1.323 2.844,-3.245 3.465,-6.995 0.101,-0.581 0.209,-3.017 0.193,-3.346 0.477,-10.728 -6.008,-14.612 -9.682,-15.835 0.1,-0.034 0.034,-0.126 0.234,-0.118 l 11.663,0.522 c 10.353,0.472 20.572,-6.986 20.572,-19.669 0,-10.517 -8.525,-17.934 -18.844,-18.439 l 6.184,0.287 c 10.352,0.455 19.103,-7.694 19.582,-18.22 0.451,-10.525 -7.57,-19.432 -17.915,-19.905 z"
       id="path3466"
       inkscape:connector-curvature="0" /></g><g
     id="g3468"
     transform="translate(-13.435,-217.659)" /><g
     id="g3470"
     transform="translate(-13.435,-217.659)" /><g
     id="g3472"
     transform="translate(-13.435,-217.659)" /><g
     id="g3474"
     transform="translate(-13.435,-217.659)" /><g
     id="g3476"
     transform="translate(-13.435,-217.659)" /><g
     id="g3478"
     transform="translate(-13.435,-217.659)" /><g
     id="g3480"
     transform="translate(-13.435,-217.659)" /><g
     id="g3482"
     transform="translate(-13.435,-217.659)" /><g
     id="g3484"
     transform="translate(-13.435,-217.659)" /><g
     id="g3486"
     transform="translate(-13.435,-217.659)" /><g
     id="g3488"
     transform="translate(-13.435,-217.659)" /><g
     id="g3490"
     transform="translate(-13.435,-217.659)" /><g
     id="g3492"
     transform="translate(-13.435,-217.659)" /><g
     id="g3494"
     transform="translate(-13.435,-217.659)" /><g
     id="g3496"
     transform="translate(-13.435,-217.659)" /><path
     style="fill:#ffffff"
     d="M 13.398154,23.931006 C 10.496387,23.82089 8.6242343,23.470331 6.8287637,22.700895 5.6389239,22.190997 5.7770125,22.217107 4.0831866,22.181765 2.8397796,22.155821 2.5873662,22.139104 2.3866635,22.069403 2.1047382,21.971496 1.8193573,21.738541 1.7037615,21.511955 1.5217014,21.155088 1.5160844,20.987655 1.5301848,16.337881 l 0.013562,-4.472112 0.102627,-0.253813 C 1.7904722,11.255576 2.0520356,10.976367 2.4042155,10.802989 2.6916062,10.661508 2.716743,10.657492 3.5367322,10.622078 4.5302619,10.579169 4.9775292,10.500619 5.4252491,10.290412 5.8859429,10.074114 6.0861501,9.9019425 6.2466135,9.5840662 6.3217805,9.4351615 6.4948701,9.1403527 6.6312573,8.9289346 7.2894627,7.9086334 7.8289621,7.3908105 9.0272295,6.6292301 10.188817,5.8909623 10.482705,5.5874965 10.973392,4.6196443 11.503978,3.573092 11.795237,2.7918514 11.991871,1.8877918 c 0.199637,-0.91786889 0.237769,-1.05718398 0.35918,-1.31224643 0.240766,-0.50580843 0.508451,-0.67041551 1.012295,-0.6224892 1.265304,0.12035746 2.01268,0.69706509 2.303427,1.77742513 0.06159,0.2288365 0.07787,0.4626023 0.07515,1.0787003 -0.0079,1.7933114 -0.420372,3.646162 -1.169692,5.2546237 -0.108368,0.2326199 -0.188924,0.4310554 -0.179011,0.4409673 0.0099,0.00991 1.623039,0.2194863 3.584726,0.4657203 3.430744,0.430632 3.577277,0.4528415 3.844096,0.5826343 1.036753,0.5043248 1.366854,1.9652968 0.66124,2.9265358 -0.255824,0.348503 -0.838536,0.712009 -1.141371,0.712009 -0.150037,0 -0.09997,0.06471 0.09783,0.126443 0.514413,0.160548 0.996183,0.668721 1.166937,1.230891 0.370718,1.220507 -0.523124,2.459221 -1.778087,2.46413 l -0.272754,0.0011 0.26226,0.107834 c 0.51411,0.211386 0.809241,0.484565 1.027581,0.951146 0.428674,0.916055 0.007,2.057619 -0.920431,2.4916 -0.405676,0.189838 -0.676167,0.227421 -1.399538,0.194456 l -0.632868,-0.02884 0.224729,0.152162 c 0.250965,0.169927 0.487947,0.491946 0.569851,0.774333 0.02981,0.10277 0.05478,0.368886 0.05549,0.591368 0.0022,0.686839 -0.167696,0.996355 -0.756847,1.378902 -0.501443,0.325596 -0.490961,0.324294 -2.677607,0.332634 -1.075329,0.0041 -2.384965,-0.0089 -2.910302,-0.02879 z"
     id="path3504"
     inkscape:connector-curvature="0" /></svg>