<?xml version="1.0" encoding="UTF-8" standalone="no"?>
<!-- Created with Inkscape (http://www.inkscape.org/) -->

<svg
   xmlns:dc="http://purl.org/dc/elements/1.1/"
   xmlns:cc="http://creativecommons.org/ns#"
   xmlns:rdf="http://www.w3.org/1999/02/22-rdf-syntax-ns#"
   xmlns:svg="http://www.w3.org/2000/svg"
   xmlns="http://www.w3.org/2000/svg"
   xmlns:sodipodi="http://sodipodi.sourceforge.net/DTD/sodipodi-0.dtd"
   xmlns:inkscape="http://www.inkscape.org/namespaces/inkscape"
   id="svg3426"
   version="1.1"
   inkscape:version="0.91 r13725"
   width="24"
   height="24"
   viewBox="0 0 24 24"
   sodipodi:docname="Tsunami_24x24.svg">
  <metadata
     id="metadata3432">
    <rdf:RDF>
      <cc:Work
         rdf:about="">
        <dc:format>image/svg+xml</dc:format>
        <dc:type
           rdf:resource="http://purl.org/dc/dcmitype/StillImage" />
        <dc:title></dc:title>
      </cc:Work>
    </rdf:RDF>
  </metadata>
  <defs
     id="defs3430" />
  <sodipodi:namedview
     pagecolor="#ffffff"
     bordercolor="#666666"
     borderopacity="1"
     objecttolerance="10"
     gridtolerance="10"
     guidetolerance="10"
     inkscape:pageopacity="0"
     inkscape:pageshadow="2"
     inkscape:window-width="1440"
     inkscape:window-height="747"
     id="namedview3428"
     showgrid="false"
     fit-margin-top="0"
     fit-margin-left="0"
     fit-margin-right="0"
     fit-margin-bottom="0"
     inkscape:zoom="15.993413"
     inkscape:cx="21.091029"
     inkscape:cy="10.230361"
     inkscape:window-x="-8"
     inkscape:window-y="-8"
     inkscape:window-maximized="1"
     inkscape:current-layer="svg3426" />
  <path
     style="fill:#000000"
     d="m -0.06214774,15.062999 3.11e-4,-6.7489 0.113275,-0.061 c 0.164223,-0.088 0.600203,-0.351 0.856966,-0.5159004 0.31828204,-0.2045 0.62409304,-0.4096 1.34812804,-0.9044 1.125193,-0.7689 1.733172,-1.1655 2.418863,-1.5777 2.003264,-1.2044 4.005489,-2.0704 6.3190417,-2.7329 0.52697,-0.1509 0.901779,-0.2101 1.414663,-0.2237 1.051725,-0.028 2.162843,0.2503 3.325361,0.8319 1.531399,0.7663 3.113999,2.0477 4.559048,3.6913 0.582684,0.6628 1.168476,1.4526004 1.3715,1.8492004 0.07745,0.1513 0.094,0.2146 0.05609,0.2146 -0.01072,0 -0.07688,-0.046 -0.147018,-0.1013 -0.756532,-0.601 -1.538878,-1.1059004 -2.335577,-1.5072004 -1.76585,-0.8897 -3.410854,-1.1514 -4.849532,-0.7714 -0.170336,0.045 -0.722122,0.2332 -0.975712,0.3327 -0.655675,0.2574 -1.135249,0.5577 -1.542593,0.9659 -0.638867,0.6402004 -1.018904,1.5148004 -1.130776,2.6023004 -0.04412,0.4289 -0.04414,0.9741 -1.1e-4,1.264 0.08926,0.5869 0.3721,1.1195 0.828993,1.561 0.534096,0.516 1.326125,0.9282 2.349281,1.2225 1.601237,0.4606 3.850226,0.6479 6.413316,0.5342 0.427647,-0.019 0.454924,-0.022 0.454924,-0.046 0,-0.021 0.03734,-0.021 1.575589,-0.021 l 1.57559,0 0,3.4452 0,3.4452 -12.000002,0 -11.99999774,0 3.22e-4,-6.749 z"
     id="path3436"
     inkscape:connector-curvature="0" />
</svg>
