<?xml version="1.0" encoding="UTF-8" standalone="no"?>
<!-- Generator: Adobe Illustrator 19.1.0, SVG Export Plug-In . SVG Version: 6.00 Build 0)  -->

<svg
   xmlns:dc="http://purl.org/dc/elements/1.1/"
   xmlns:cc="http://creativecommons.org/ns#"
   xmlns:rdf="http://www.w3.org/1999/02/22-rdf-syntax-ns#"
   xmlns:svg="http://www.w3.org/2000/svg"
   xmlns="http://www.w3.org/2000/svg"
   xmlns:sodipodi="http://sodipodi.sourceforge.net/DTD/sodipodi-0.dtd"
   xmlns:inkscape="http://www.inkscape.org/namespaces/inkscape"
   version="1.1"
   id="Layer_1"
   x="0px"
   y="0px"
   viewBox="0 0 25 25"
   enable-background="new 0 0 25 25"
   xml:space="preserve"
   inkscape:version="0.91 r13725"
   sodipodi:docname="twitter_25x25.svg"><metadata
     id="metadata3390"><rdf:RDF><cc:Work
         rdf:about=""><dc:format>image/svg+xml</dc:format><dc:type
           rdf:resource="http://purl.org/dc/dcmitype/StillImage" /></cc:Work></rdf:RDF></metadata><defs
     id="defs3388" /><sodipodi:namedview
     pagecolor="#ffffff"
     bordercolor="#666666"
     borderopacity="1"
     objecttolerance="10"
     gridtolerance="10"
     guidetolerance="10"
     inkscape:pageopacity="0"
     inkscape:pageshadow="2"
     inkscape:window-width="1440"
     inkscape:window-height="747"
     id="namedview3386"
     showgrid="false"
     inkscape:zoom="9.44"
     inkscape:cx="14.936441"
     inkscape:cy="12.5"
     inkscape:window-x="-8"
     inkscape:window-y="-8"
     inkscape:window-maximized="1"
     inkscape:current-layer="Layer_1" /><g
     id="Layer_56"
     transform="matrix(0.984,0,0,0.984,0.31779661,0.18813566)"><g
       id="g3377"><circle
         cx="12.5"
         cy="12.5"
         r="11.7"
         id="circle3379"
         style="fill:none" /><path
         d="M 12.5,25 C 5.6,25 0,19.4 0,12.5 0,5.6 5.6,0 12.5,0 19.4,0 25,5.6 25,12.5 25,19.4 19.4,25 12.5,25 Z m 0,-23.4 c -6,0 -10.9,4.9 -10.9,10.9 0,6 4.9,10.9 10.9,10.9 6,0 10.9,-4.9 10.9,-10.9 0,-6 -4.9,-10.9 -10.9,-10.9 z"
         id="path3381"
         inkscape:connector-curvature="0"
         style="fill:#343434" /></g><path
       d="m 18,9.2 c -0.4,0.2 -0.9,0.3 -1.3,0.4 0.5,-0.3 0.8,-0.7 1,-1.3 -0.5,0.2 -0.9,0.5 -1.4,0.5 -0.4,-0.5 -1,-0.7 -1.6,-0.7 -1.3,0 -2.3,1 -2.3,2.3 0,0.2 0,0.3 0.1,0.5 C 10.6,10.8 9,9.9 7.9,8.6 7.7,8.9 7.6,9.3 7.6,9.7 c 0,0.8 0.4,1.5 1,1.9 -0.4,0 -0.7,-0.1 -1,-0.3 l 0,0 c 0,1.1 0.8,2 1.8,2.2 -0.2,0.1 -0.4,0.1 -0.6,0.1 -0.2,0 -0.3,0 -0.4,-0.1 0.3,0.9 1.1,1.6 2.1,1.6 -0.8,0.5 -1.8,0.9 -2.9,0.9 -0.2,0 -0.4,0 -0.5,0 1,0.6 2.2,1 3.4,1 4.1,0 6.4,-3.4 6.4,-6.4 l 0,-0.3 C 17.3,9.9 17.6,9.5 18,9.2 Z"
       id="path3383"
       inkscape:connector-curvature="0"
       style="fill:#343434" /></g><g
     id="Layer_61_2_" /></svg>