<?xml version="1.0" encoding="UTF-8" standalone="no"?>
<!-- Generator: Adobe Illustrator 19.1.0, SVG Export Plug-In . SVG Version: 6.00 Build 0)  -->

<svg
   xmlns:dc="http://purl.org/dc/elements/1.1/"
   xmlns:cc="http://creativecommons.org/ns#"
   xmlns:rdf="http://www.w3.org/1999/02/22-rdf-syntax-ns#"
   xmlns:svg="http://www.w3.org/2000/svg"
   xmlns="http://www.w3.org/2000/svg"
   xmlns:sodipodi="http://sodipodi.sourceforge.net/DTD/sodipodi-0.dtd"
   xmlns:inkscape="http://www.inkscape.org/namespaces/inkscape"
   version="1.1"
   id="Layer_1"
   x="0px"
   y="0px"
   viewBox="0 0 30.333334 40"
   enable-background="new 0 0 30.9 42"
   xml:space="preserve"
   inkscape:version="0.91 r13725"
   sodipodi:docname="vic_emergency_teardrop1.svg"
   width="30.333334"
   height="40"><metadata
     id="metadata3575"><rdf:RDF><cc:Work
         rdf:about=""><dc:format>image/svg+xml</dc:format><dc:type
           rdf:resource="http://purl.org/dc/dcmitype/StillImage" /><dc:title></dc:title></cc:Work></rdf:RDF></metadata><defs
     id="defs3573" /><sodipodi:namedview
     pagecolor="#ffffff"
     bordercolor="#666666"
     borderopacity="1"
     objecttolerance="10"
     gridtolerance="10"
     guidetolerance="10"
     inkscape:pageopacity="0"
     inkscape:pageshadow="2"
     inkscape:window-width="1440"
     inkscape:window-height="747"
     id="namedview3571"
     showgrid="false"
     fit-margin-right="1"
     fit-margin-top="0"
     fit-margin-left="0"
     fit-margin-bottom="0"
     inkscape:zoom="5.6190476"
     inkscape:cx="20.433051"
     inkscape:cy="21.177966"
     inkscape:window-x="-8"
     inkscape:window-y="-8"
     inkscape:window-maximized="1"
     inkscape:current-layer="Layer_1" /><g
     id="g3504"
     transform="matrix(0.95238095,0,0,0.95238095,0.3559322,0.1779661)"><linearGradient
       id="SVGID_1_"
       gradientUnits="userSpaceOnUse"
       x1="21.004299"
       y1="6.8432999"
       x2="21.004299"
       y2="6.8432999"><stop
         offset="0"
         style="stop-color:#FFCB00"
         id="stop3507" /><stop
         offset="0.1872"
         style="stop-color:#FBC201"
         id="stop3509" /><stop
         offset="0.4925"
         style="stop-color:#F2AA05"
         id="stop3511" /><stop
         offset="0.8757"
         style="stop-color:#E2820B"
         id="stop3513" /><stop
         offset="1"
         style="stop-color:#DC740D"
         id="stop3515" /></linearGradient><polygon
       points="21,6.8 21,6.8 21,6.8 "
       id="polygon3517"
       style="fill:url(#SVGID_1_)" /><linearGradient
       id="SVGID_2_"
       gradientUnits="userSpaceOnUse"
       x1="20.014"
       y1="1.5831"
       x2="-1.2371"
       y2="31.0872"><stop
         offset="0"
         style="stop-color:#FFCB00"
         id="stop3520" /><stop
         offset="3.017240e-02"
         style="stop-color:#FFCB00"
         id="stop3522" /><stop
         offset="0.2153"
         style="stop-color:#FBC100"
         id="stop3524" /><stop
         offset="0.5283"
         style="stop-color:#F0A701"
         id="stop3526" /><stop
         offset="0.9288"
         style="stop-color:#DE7C02"
         id="stop3528" /><stop
         offset="0.9781"
         style="stop-color:#DC7602"
         id="stop3530" /></linearGradient><path
       d="m 5,21.1 c 2.4,-4 6.4,-9 7.6,-10.5 0.2,-0.2 0.3,-0.3 0.3,-0.4 C 13.8,9 15.2,7.2 16.7,5.4 17.3,4.6 17.8,4 18.4,3.3 19.2,2.3 21,0 21,0 L 15.5,0 C 15.5,0 11.9,4.1 8.2,9.1 4.7,13.7 1.5,18 0.4,22.5 0.1,23.7 0,24.9 0,26.1 0,29.3 0.9,32.3 2.5,34.8 -0.4,30 3.4,23.6 5,21.1 Z"
       id="path3532"
       style="fill:url(#SVGID_2_)"
       inkscape:connector-curvature="0" /><linearGradient
       id="SVGID_3_"
       gradientUnits="userSpaceOnUse"
       x1="22.9967"
       y1="4.0546999"
       x2="3.3959999"
       y2="36.034698"><stop
         offset="0"
         style="stop-color:#E1001A"
         id="stop3535" /><stop
         offset="0.2523"
         style="stop-color:#D8031A"
         id="stop3537" /><stop
         offset="0.6624"
         style="stop-color:#C00A1B"
         id="stop3539" /><stop
         offset="1"
         style="stop-color:#A7111C"
         id="stop3541" /></linearGradient><path
       d="M 4.9,30.8 C 5.2,29 6.2,26.7 7.3,24.9 8.2,23.5 10.2,20.5 15.8,13.2 L 16,13 c 0.9,-1.2 2.6,-3.2 5,-6.2 l 0,0 c 1.2,-1.5 2.9,-3.6 2.9,-3.6 l -5.5,0 c -0.6,0.7 -1.1,1.3 -1.7,2.1 -1.5,1.8 -2.9,3.6 -3.8,4.8 -0.1,0.1 -0.2,0.2 -0.3,0.4 C 11.4,12 7.4,17.1 5,21.1 3.4,23.6 -0.4,30.1 2.6,34.9 4,37.1 6,39 8.4,40.3 5.7,38.7 4.3,34.6 4.9,30.8 Z"
       id="path3543"
       style="fill:url(#SVGID_3_)"
       inkscape:connector-curvature="0" /><linearGradient
       id="SVGID_4_"
       gradientUnits="userSpaceOnUse"
       x1="28.944799"
       y1="14.829"
       x2="9.5130997"
       y2="40.889198"><stop
         offset="0"
         style="stop-color:#009DDF"
         id="stop3546" /><stop
         offset="0.1605"
         style="stop-color:#0190CD"
         id="stop3548" /><stop
         offset="0.4844"
         style="stop-color:#036E9D"
         id="stop3550" /><stop
         offset="0.9385"
         style="stop-color:#073950"
         id="stop3552" /><stop
         offset="1"
         style="stop-color:#073145"
         id="stop3554" /></linearGradient><path
       d="m 15.1,42 c 7.9,0 15.7,-6 15.7,-16 0,-1.2 -0.1,-2.3 -0.4,-3.4 -1,-4.1 -3.7,-7.9 -6.7,-12.1 1.4,-1.8 2.9,-3.6 2.9,-3.6 l -5.6,0 0,0 0,0 c -2.4,3 -4.1,5 -5,6.2 l -0.2,0.2 C 10.2,20.5 8.2,23.5 7.3,25 c -1.1,1.8 -2.1,4.1 -2.4,5.9 -0.6,3.8 0.8,7.9 3.5,9.5 2,0.9 4.3,1.6 6.7,1.6 l 0,0 M 8.6,33.2 c 0,-3.1 2.1,-6 3.6,-8.1 1.4,-1.9 2.7,-3.5 3.1,-4 0.1,-0.1 0.1,-0.1 0.1,-0.1 0,0 0.5,0.6 1.2,1.4 0.3,0.4 0.7,0.9 1.1,1.5 0.3,0.4 0.6,0.8 0.9,1.2 0,0.1 0.1,0.1 0.1,0.2 3.1,4.2 3.5,6 3.5,7.6 0,3.5 -2.6,7.4 -6.9,7.4 C 10.9,40.2 8.6,37 8.6,33.2 Z"
       id="path3556"
       style="fill:url(#SVGID_4_)"
       inkscape:connector-curvature="0" /><g
       id="g3558"><linearGradient
         id="SVGID_5_"
         gradientUnits="userSpaceOnUse"
         x1="18.830299"
         y1="17.009501"
         x2="27.7563"
         y2="25.351101"><stop
           offset="0"
           style="stop-color:#868789"
           id="stop3561" /><stop
           offset="0.1588"
           style="stop-color:#8D8D8E;stop-opacity:0.8412"
           id="stop3563" /><stop
           offset="0.5332"
           style="stop-color:#979696;stop-opacity:0.4668"
           id="stop3565" /><stop
           offset="1"
           style="stop-color:#9A9998;stop-opacity:0"
           id="stop3567" /></linearGradient><path
         d="m 15.4,20.9 c 0.1,-0.1 0,0 0,0 l 0,0 0,0 c 0,0 0.5,0.6 1.2,1.4 0.3,0.4 0.7,0.9 1.1,1.5 0.3,0.4 0.6,0.8 0.9,1.2 0,0.1 0.1,0.1 0.1,0.2 2.2,2.9 3,4.7 3.4,6 l 8.3,-8.6 c 0,0 0,0 0,-0.1 -1,-4.1 -3.7,-7.9 -6.7,-12.1 0,0 0,0 0,0 -2.6,3.3 -5.8,7.4 -8.3,10.5 z"
         id="path3569"
         style="fill:url(#SVGID_5_)"
         inkscape:connector-curvature="0" /></g></g></svg>