<?xml version="1.0" encoding="utf-8"?>
<!-- Generator: Adobe Illustrator 19.1.0, SVG Export Plug-In . SVG Version: 6.00 Build 0)  -->
<!DOCTYPE svg PUBLIC "-//W3C//DTD SVG 1.1//EN" "http://www.w3.org/Graphics/SVG/1.1/DTD/svg11.dtd">
<svg version="1.1" id="Layer_1" xmlns="http://www.w3.org/2000/svg" xmlns:xlink="http://www.w3.org/1999/xlink" x="0px" y="0px"
     viewBox="0 0 53 30" enable-background="new 0 0 53 30" xml:space="preserve">
<svg version="1.1" id="Layer_1" xmlns="http://www.w3.org/2000/svg" xmlns:xlink="http://www.w3.org/1999/xlink" x="0px" y="0px"
	 viewBox="0 0 106 60" enable-background="new 0 0 106 60" xml:space="preserve">
<g>
	<line x1="48.3" y1="32.4" x2="52" y2="32.4"/>
	<path d="M63.9,18.6c-4.1,0-7.3,3-7.3,7.1s3.3,7.1,7.3,7.1c4.1,0,7.3-3,7.3-7.1S67.9,18.6,63.9,18.6z M63.9,29.1
		c-1.9,0-3.4-1.5-3.4-3.4s1.5-3.4,3.4-3.4c1.9,0,3.4,1.5,3.4,3.4S65.8,29.1,63.9,29.1z"/>
	<path d="M84.4,23.9c0-2.8-2.3-4.9-5.2-4.9H73v13.5h3.7v-3.7h1.7l1.7,3.7h4.2L82,27.9C83.4,27,84.4,25.7,84.4,23.9z M79.2,25.4h-2.5
		v-3.2h2.5c0.8,0,1.4,0.9,1.4,1.6C80.6,24.5,80.1,25.4,79.2,25.4z"/>
	<rect x="86.7" y="18.9" width="3.7" height="13.5"/>
	<path d="M99.5,18.9h-1.4l-6.3,13.5h4l0.7-1.5h4.6l0.7,1.5h4L99.5,18.9z M97.6,27.7l1.2-2.6h0.1l1.2,2.6H97.6z"/>
	<path d="M46.8,18.9l8.7-18.8H0l8.8,19h4.1l3.4,7.3l3.4-7.3h4.1l-6.2,13.3h-2.6L27.8,60l13.1-28.3c-1,0.6-2.2,0.9-3.5,0.9
		c-4,0-7.1-3-7.1-6.9c0-3.9,3.1-6.9,7.1-6.9c2.5,0,4.7,1.4,5.9,3.4L40.3,24c-0.6-1-1.6-1.6-2.8-1.6c-1.8,0-3.3,1.5-3.3,3.3
		c0,1.8,1.5,3.3,3.3,3.3c1.2,0,2.3-0.7,2.8-1.6l2,1.2l2.9-6.4h3.1v10.2H52V22.3h3.7v-3.3H46.8z M28.6,32.3h-3.8V19.1h3.8V32.3z"/>
	<line x1="48.3" y1="32.4" x2="52" y2="32.4"/>
	<g>
		<g>
			<path d="M52.6,39.7c-0.5-0.3-1.2-0.6-1.9-0.6c-0.8,0-1.3,0.3-1.3,0.8c0,0.5,0.6,0.6,1.4,0.8l0.4,0.1c1.2,0.2,2.2,0.7,2.2,1.9
				c0,1.5-1.3,2.2-2.8,2.2c-1,0-2.1-0.3-2.8-0.9l0.7-1.1c0.5,0.4,1.3,0.7,2.2,0.7c0.7,0,1.3-0.3,1.3-0.8c0-0.5-0.5-0.6-1.4-0.8
				L50,41.9c-1.2-0.2-2.1-0.7-2.1-1.9c0-1.4,1.3-2.1,2.7-2.1c0.9,0,1.7,0.2,2.6,0.7L52.6,39.7z"/>
			<path d="M57.5,41.2h-1.7v1.7c0,0.6,0.3,0.8,0.7,0.8c0.3,0,0.6-0.1,0.9-0.3l0.5,1c-0.4,0.3-0.9,0.5-1.6,0.5
				c-1.2,0-1.8-0.7-1.8-1.9v-1.8h-0.9V40h0.9v-1.4h1.3V40h1.7V41.2z"/>
			<path d="M59.4,42.4c0,0.7,0.5,1.3,1.2,1.3c0.7,0,1.2-0.5,1.2-1.3c0-0.7-0.5-1.3-1.2-1.3C59.8,41.1,59.4,41.7,59.4,42.4 M63,44.7
				h-1.2v-0.5c-0.3,0.4-0.8,0.6-1.4,0.6c-1.3,0-2.3-1.1-2.3-2.5c0-1.4,1-2.5,2.3-2.5c0.6,0,1.1,0.3,1.4,0.6V40H63V44.7z"/>
			<path d="M67.5,41.2h-1.7v1.7c0,0.6,0.3,0.8,0.7,0.8c0.3,0,0.6-0.1,0.9-0.3l0.5,1c-0.4,0.3-0.9,0.5-1.6,0.5
				c-1.2,0-1.8-0.7-1.8-1.9v-1.8h-0.9V40h0.9v-1.4h1.3V40h1.7V41.2z"/>
			<path d="M69.4,41.9h2.1c-0.1-0.6-0.5-0.9-1-0.9C69.8,41,69.5,41.4,69.4,41.9 M72.7,42.4c0,0.1,0,0.3,0,0.4h-3.3
				c0.1,0.7,0.6,1,1.2,1c0.4,0,0.8-0.2,1.2-0.4l0.7,0.8c-0.5,0.5-1.2,0.7-2,0.7c-1.4,0-2.4-1-2.4-2.4c0-1.5,1-2.5,2.4-2.5
				C71.8,39.9,72.7,40.9,72.7,42.4"/>
			<path d="M53.8,47.6l-1,1c-0.4-0.4-0.9-0.7-1.6-0.7c-1.2,0-2.1,0.9-2.1,2.2c0,1.4,0.9,2.2,2.1,2.2c1.1,0,1.7-0.5,1.9-1.5h-1.7
				v-1.1h3.1c0,0.1,0,0.3,0,0.4c0,2-1.4,3.5-3.3,3.5c-1.9,0-3.5-1.3-3.5-3.5c0-2,1.5-3.5,3.6-3.5C52.3,46.5,53.2,46.9,53.8,47.6"/>
			<path d="M56.4,51.1c0,0.8,0.5,1.3,1.2,1.3c0.7,0,1.2-0.5,1.2-1.3c0-0.8-0.5-1.3-1.2-1.3C56.9,49.8,56.4,50.3,56.4,51.1
				 M60.2,51.1c0,1.4-1.1,2.5-2.5,2.5c-1.5,0-2.5-1.1-2.5-2.5c0-1.4,1.1-2.5,2.5-2.5C59.1,48.6,60.2,49.7,60.2,51.1"/>
		</g>
		<polygon points="63.6,53.4 62.2,53.4 60.3,48.7 61.7,48.7 62.9,52.1 64.1,48.7 65.4,48.7 		"/>
		<g>
			<path d="M66.9,50.6H69c-0.1-0.6-0.5-0.9-1-0.9C67.3,49.7,67,50.1,66.9,50.6 M70.2,51.1c0,0.1,0,0.3,0,0.4h-3.3
				c0.1,0.7,0.6,1,1.2,1c0.4,0,0.8-0.2,1.2-0.4l0.7,0.8c-0.5,0.5-1.2,0.7-2,0.7c-1.4,0-2.4-1-2.4-2.4c0-1.5,1-2.5,2.4-2.5
				C69.3,48.6,70.2,49.6,70.2,51.1"/>
			<path d="M74.2,48.7L74.1,50c-0.2-0.1-0.5-0.1-0.8-0.1c-0.6,0-1,0.4-1,1.1v2.5h-1.3v-4.7h1.2v0.5c0.3-0.4,0.7-0.6,1.3-0.6
				C73.9,48.6,74.1,48.6,74.2,48.7"/>
			<path d="M79.3,50.4v3h-1.3v-2.6c0-0.7-0.3-1-0.9-1c-0.5,0-1,0.4-1,1.1v2.6h-1.3v-4.7h1.2v0.5c0.3-0.5,0.8-0.7,1.4-0.7
				C78.6,48.6,79.3,49.3,79.3,50.4"/>
			<path d="M88,50.4v3h-1.3v-2.6c0-0.7-0.3-1-0.9-1c-0.5,0-1,0.4-1,1.1v2.6h-1.3v-2.6c0-0.7-0.3-1-0.9-1c-0.5,0-1,0.4-1,1.1v2.6
				h-1.3v-4.7h1.2v0.5c0.3-0.5,0.8-0.7,1.4-0.7c0.7,0,1.2,0.3,1.5,0.8c0.4-0.6,1-0.8,1.6-0.8C87.3,48.6,88,49.3,88,50.4"/>
			<path d="M90.1,50.6h2.1c-0.1-0.6-0.5-0.9-1-0.9C90.6,49.7,90.2,50.1,90.1,50.6 M93.4,51.1c0,0.1,0,0.3,0,0.4h-3.3
				c0.1,0.7,0.6,1,1.2,1c0.4,0,0.8-0.2,1.2-0.4l0.7,0.8c-0.5,0.5-1.2,0.7-2,0.7c-1.4,0-2.4-1-2.4-2.4c0-1.5,1-2.5,2.4-2.5
				C92.5,48.6,93.4,49.6,93.4,51.1"/>
			<path d="M98.7,50.4v3h-1.3v-2.6c0-0.7-0.3-1-0.9-1c-0.5,0-1,0.4-1,1.1v2.6h-1.3v-4.7h1.2v0.5c0.3-0.5,0.8-0.7,1.4-0.7
				C97.9,48.6,98.7,49.3,98.7,50.4"/>
			<path d="M103.1,49.9h-1.7v1.7c0,0.6,0.3,0.8,0.7,0.8c0.3,0,0.6-0.1,0.9-0.3l0.5,1c-0.4,0.3-0.9,0.5-1.5,0.5
				c-1.2,0-1.8-0.7-1.8-1.9v-1.8h-0.9v-1.1h0.9v-1.4h1.3v1.4h1.7V49.9z"/>
		</g>
	</g>
</g>
</svg>
</svg>
