<?xml version="1.0" encoding="utf-8"?>
<!-- Generator: Adobe Illustrator 19.2.1, SVG Export Plug-In . SVG Version: 6.00 Build 0)  -->
<svg version="1.1"
	 id="svg2" inkscape:version="0.91 r13725" sodipodi:docname="warningwhite_24x24.svg" xmlns:cc="http://creativecommons.org/ns#" xmlns:dc="http://purl.org/dc/elements/1.1/" xmlns:inkscape="http://www.inkscape.org/namespaces/inkscape" xmlns:rdf="http://www.w3.org/1999/02/22-rdf-syntax-ns#" xmlns:sodipodi="http://sodipodi.sourceforge.net/DTD/sodipodi-0.dtd" xmlns:svg="http://www.w3.org/2000/svg"
	 xmlns="http://www.w3.org/2000/svg" xmlns:xlink="http://www.w3.org/1999/xlink" x="0px" y="0px" viewBox="0 0 24 24"
	 style="enable-background:new 0 0 24 24;" xml:space="preserve">
<style type="text/css">
	.st0{display:none;}
	.st1{display:inline;}
	.st2{fill:#FBE032;}
	.st3{fill:#1E5DA7;}
	.st4{fill:#FFFFFF;}
	.st5{fill:#EC0A47;}
	.st6{fill:#FFFFFF;stroke:#FFFFFF;stroke-miterlimit:10;}
</style>
<sodipodi:namedview  bordercolor="#666666" borderopacity="1" fit-margin-bottom="0" fit-margin-left="0" fit-margin-right="0" fit-margin-top="0" gridtolerance="10" guidetolerance="10" id="namedview91" inkscape:current-layer="svg2" inkscape:cx="16.264179" inkscape:cy="14.985075" inkscape:pageopacity="0" inkscape:pageshadow="2" inkscape:snap-bbox="false" inkscape:snap-global="true" inkscape:window-height="604" inkscape:window-maximized="1" inkscape:window-width="1066" inkscape:window-x="0" inkscape:window-y="0" inkscape:zoom="13.4" objecttolerance="10" pagecolor="#ffffff" showgrid="false">
	</sodipodi:namedview>
<g id="Advice" transform="translate(-3.4,-3)" class="st0">
	<g id="g5" class="st1">
		<g id="g7">
			<path id="path9" inkscape:connector-curvature="0" class="st2" d="M2.2,24.9c-1,2.1,0,3.7,2.3,3.7h21.2c2.3,0,3.3-1.7,2.3-3.7
				l-11-22c-1-2.1-2.7-2.1-3.7,0C13.3,2.9,2.2,24.9,2.2,24.9z"/>
		</g>
		<g id="g11">
			<path id="path13" inkscape:connector-curvature="0" d="M25.7,30H4.6C3,30,1.7,29.4,1,28.3c-0.7-1.1-0.7-2.5,0-3.9L12,2.3
				C12.8,0.8,13.9,0,15.1,0s2.3,0.8,3.1,2.3l11,22.1c0.7,1.4,0.7,2.8,0,3.9C28.6,29.4,27.3,30,25.7,30z M15.1,2.7
				c0,0-0.3,0.1-0.7,0.8l-11,22.1c-0.3,0.6-0.3,1.1-0.2,1.4c0.2,0.3,0.6,0.5,1.3,0.5h21.2c0.6,0,1.1-0.2,1.3-0.5
				c0.2-0.3,0.1-0.8-0.2-1.4l-11-22.1C15.5,2.8,15.2,2.7,15.1,2.7z"/>
		</g>
	</g>
	<g id="g15" class="st1">
		<path id="path17" inkscape:connector-curvature="0" d="M17.3,21.6c0.2,0.2,0,0.1,0.2,0.2l0.1,0.2c-1.1,1.1-2.4,2-4,2.4
			c-0.3,0.1-0.6,0.1-1,0.1c-0.5,0-0.8-0.4-0.8-0.9c0-0.4,0.1-0.8,0.2-1.2c0.3-1.3,0.7-2.7,1.1-4c0.1-0.4,0-0.5-0.4-0.3
			c-0.6,0.2-1.1,0.4-1.7,0.6c-0.1-0.2-0.1-0.2-0.1-0.4c0.5-0.4,0.9-0.9,1.6-1.3c0.9-0.5,1.9-0.9,3-1.1c0.1,0,0.1,0,0.2,0
			c0.8-0.1,1.1,0.3,1.1,0.8s-0.1,0.9-0.2,1.4c-0.3,1.2-0.7,2.4-1.1,3.7c0,0.2-0.1,0.3-0.1,0.5s0.1,0.3,0.4,0.2
			c0.5-0.2,1-0.4,1.4-0.6C17.1,21.7,17.2,21.7,17.3,21.6z"/>
		<circle id="circle19" cx="15.8" cy="13" r="1.9"/>
	</g>
</g>
<g id="Community_Update" transform="translate(-3.4,-3)" class="st0">
	<g id="g22" class="st1">
		<circle id="circle24" class="st3" cx="15" cy="15" r="13.5"/>
		<path id="path26" inkscape:connector-curvature="0" class="st4" d="M15,29.9C6.8,29.9,0.2,23.2,0.2,15S6.8,0.1,15,0.1
			S29.9,6.8,29.9,15S23.2,29.9,15,29.9z M15,2.8C8.3,2.8,2.9,8.3,2.9,15S8.3,27.2,15,27.2S27.2,21.7,27.2,15S21.7,2.8,15,2.8z"/>
	</g>
	<g id="g28" class="st1">
		<path id="path30" inkscape:connector-curvature="0" class="st4" d="M18.3,19.2c0.2,0.2,0.1,0.1,0.2,0.3l0.1,0.2
			c-1.4,1.4-2.9,2.4-4.8,2.9c-0.4,0.1-0.8,0.1-1.2,0.1c-0.6-0.1-1-0.4-1-1.1c0-0.5,0.1-1,0.2-1.5c0.4-1.6,0.9-3.2,1.3-4.8
			c0.1-0.5,0-0.6-0.5-0.4c-0.7,0.2-1.3,0.5-2,0.8c-0.1-0.2-0.1-0.2-0.1-0.5c0.6-0.5,1.1-1.1,1.9-1.5c1.1-0.6,2.3-1.1,3.6-1.4
			c0.1,0,0.2,0,0.2,0c0.9-0.2,1.3,0.3,1.3,0.9c0,0.5-0.1,1.1-0.3,1.6c-0.4,1.5-0.9,2.9-1.3,4.4c-0.1,0.2-0.1,0.4-0.1,0.6
			c0,0.3,0.1,0.4,0.4,0.3c0.6-0.2,1.2-0.5,1.7-0.7C18.1,19.3,18.2,19.2,18.3,19.2z"/>
		<circle id="circle32" class="st4" cx="16.5" cy="8.8" r="2.3"/>
	</g>
</g>
<g id="Emergency_Warning" transform="translate(-3.4,-3)" class="st0">
	<g id="g35" class="st1">
		<g id="g37">
			<path id="path39" inkscape:connector-curvature="0" class="st5" d="M2.2,24.9c-1,2.1,0,3.7,2.3,3.7h21.2c2.3,0,3.3-1.7,2.3-3.7
				l-11-22c-1-2.1-2.7-2.1-3.7,0C13.3,2.9,2.2,24.9,2.2,24.9z"/>
		</g>
		<g id="g41">
			<path id="path43" inkscape:connector-curvature="0" d="M25.7,30H4.5C3,30,1.7,29.4,1,28.3c-0.7-1.1-0.7-2.5,0-3.9L12,2.3
				C12.8,0.8,13.9,0,15.1,0s2.3,0.8,3.1,2.3l11,22.1c0.7,1.4,0.7,2.8,0,3.9C28.6,29.4,27.3,30,25.7,30z M15.1,2.7
				c0,0-0.3,0.1-0.7,0.8l-11,22.1c-0.3,0.6-0.3,1.1-0.2,1.4c0.2,0.3,0.6,0.5,1.3,0.5h21.2c0.6,0,1.1-0.2,1.3-0.5
				c0.2-0.3,0.1-0.8-0.2-1.4l-11-22.1C15.5,2.8,15.2,2.7,15.1,2.7z"/>
		</g>
	</g>
	<g id="g45" class="st1">
		<path id="path47" inkscape:connector-curvature="0" class="st4" d="M11.6,24.1c0-0.5,0.4-1.4,1.5-1.4c0.8,0,1.4,0.6,1.4,1.5
			c0,0.8-0.6,1.3-1.5,1.3C12.4,25.5,11.6,25.1,11.6,24.1z M12.8,21.1c-0.1,0-0.1-0.1-0.1-0.2c-0.1-2.2-1-7.8-1-8.8
			c0-0.9,0.4-1.7,1.4-1.7c0.9,0,1.5,0.5,1.4,1.5c0,0.9-1,6.9-1.1,9c0,0.1,0,0.2-0.2,0.2H12.8C12.8,21.1,12.8,21.1,12.8,21.1z"/>
	</g>
	<g id="g49" class="st1">
		<path id="path51" inkscape:connector-curvature="0" class="st4" d="M15.5,24.1c0-0.5,0.4-1.4,1.5-1.4c0.8,0,1.4,0.6,1.4,1.5
			c0,0.8-0.6,1.3-1.5,1.3C16.2,25.5,15.5,25.1,15.5,24.1z M16.6,21.1c-0.1,0-0.1-0.1-0.1-0.2c-0.1-2.2-1-7.8-1-8.8
			c0-0.9,0.4-1.7,1.4-1.7c0.9,0,1.5,0.5,1.4,1.5c0,0.9-1,6.9-1.1,9c0,0.1,0,0.2-0.2,0.2H16.6C16.6,21.1,16.6,21.1,16.6,21.1z"/>
	</g>
</g>
<g id="Evacuate" transform="translate(-3.4,-3)" class="st0">
	<g id="g54" class="st1">
		<g id="g56">
			<path id="path58" inkscape:connector-curvature="0" d="M2.1,24.9c-1,2.1,0,3.7,2.3,3.7h21.2c2.3,0,3.3-1.7,2.3-3.7l-11-22.1
				c-1-2.1-2.7-2.1-3.7,0L2.1,24.9z"/>
		</g>
		<g id="g60">
			<path id="path62" inkscape:connector-curvature="0" class="st5" d="M25.6,30H4.5c-1.6,0-2.9-0.6-3.5-1.7c-0.7-1.1-0.7-2.5,0-3.9
				L12,2.3C12.7,0.8,13.8,0,15,0s2.3,0.8,3.1,2.3l11,22.1c0.7,1.4,0.7,2.8,0,3.9C28.5,29.4,27.2,30,25.6,30z M15,2.7
				c0,0-0.3,0.1-0.7,0.8l-11,22.1C3,26.2,3,26.7,3.1,27c0.2,0.3,0.6,0.5,1.3,0.5h21.2c0.6,0,1.1-0.2,1.3-0.5
				c0.2-0.3,0.1-0.8-0.2-1.4l-11-22.1C15.4,2.8,15.1,2.7,15,2.7z"/>
		</g>
	</g>
	<g id="g64" class="st1">
		<circle id="circle66" class="st4" cx="15.8" cy="13.8" r="1.1"/>
		<path id="path68" inkscape:connector-curvature="0" class="st4" d="M19,17.5l-1.3-0.1l-1.8-1.8c-0.1-0.1-0.3-0.3-0.3-0.3
			c-0.5-0.2-1.2-0.1-1.2-0.1s-0.4,0-0.6,0h-2.1c-0.2,0-0.4,0.1-0.5,0.2l-1.7,2.3c-0.2,0.3-0.2,0.7,0.1,0.9c0.1,0.1,0.2,0.1,0.4,0.1
			s0.4-0.1,0.5-0.2l1.6-2.1h1.2c-0.1,0.2-0.2,0.3-0.4,0.5c-0.6,0.9-0.7,1.8-0.8,2.4c0,0.1,0,0.1,0,0.2v2.6H8.9
			c-0.3,0-0.6,0.3-0.6,0.6c0,0.3,0.3,0.6,0.6,0.6h3.7c0.3,0,0.6-0.3,0.6-0.6l0.2-2.3c0.1,0,0.1,0,0.2,0l2.6,4.7
			c0.1,0.2,0.3,0.3,0.5,0.3c0.1,0,0.2,0,0.3-0.1c0.3-0.2,0.4-0.5,0.2-0.8l-2.4-4.4c-0.1-0.4-0.1-0.7,0-1.1c0.1-0.6,0.5-1.3,0.8-2.1
			l1.5,1.4c0.1,0.1,0.2,0.2,0.4,0.2l1.5,0.1l0,0c0.3,0,0.6-0.2,0.6-0.6C19.6,17.8,19.3,17.5,19,17.5z"/>
	</g>
	<g id="g70" class="st1">
		<g id="g72">
			<polygon id="polygon74" class="st4" points="20,19.8 19.5,19.8 15.4,19.8 16.4,21.7 19.5,21.7 20,21.7 20,23.1 22.4,20.8 
				20,18.4 			"/>
		</g>
	</g>
</g>
<g id="Warning_Watch_and_Act" transform="matrix(0.80683761,0,0,0.79333333,-0.18324786,0.1000001)">
	<g id="g77">
		<g id="g79">
			<path id="path81" inkscape:connector-curvature="0" d="M2.2,24.9c-1,2.1,0,3.7,2.3,3.7h21.2c2.3,0,3.3-1.7,2.3-3.7l-11-22
				c-1-2.1-2.7-2.1-3.7,0C13.3,2.9,2.2,24.9,2.2,24.9z"/>
		</g>
		<g id="g83">
			<path id="path85" inkscape:connector-curvature="0" d="M25.7,30H4.5C3,30,1.7,29.4,1,28.3s-0.7-2.5,0-3.9L12,2.3
				C12.8,0.8,13.9,0,15.1,0s2.3,0.8,3.1,2.3l11,22.1c0.7,1.4,0.7,2.8,0,3.9C28.6,29.4,27.3,30,25.7,30z M15.1,2.7
				c0,0-0.3,0.1-0.7,0.8l-11,22.1c-0.3,0.6-0.3,1.1-0.2,1.4c0.2,0.3,0.6,0.5,1.3,0.5h21.2c0.6,0,1.1-0.2,1.3-0.5
				c0.2-0.3,0.1-0.8-0.2-1.4l-11-22.1C15.5,2.8,15.2,2.7,15.1,2.7z"/>
		</g>
	</g>
	<g id="g87">
		<path id="path89" inkscape:connector-curvature="0" class="st6" d="M13.7,23.6c0-0.5,0.4-1.3,1.5-1.3c0.8,0,1.4,0.6,1.4,1.4
			c0,0.8-0.5,1.3-1.4,1.3C14.5,25,13.7,24.6,13.7,23.6z M14.9,20.8c-0.1,0-0.1-0.1-0.1-0.2c-0.1-2.1-0.9-7.5-0.9-8.4
			c0-0.9,0.4-1.6,1.3-1.6c0.9,0,1.4,0.5,1.4,1.5c0,0.9-1,6.6-1.1,8.6c0,0.1,0,0.2-0.2,0.2L14.9,20.8C14.9,20.8,14.9,20.8,14.9,20.8z
			"/>
	</g>
</g>
</svg>
