<?xml version="1.0" encoding="UTF-8" standalone="no"?>
<svg
   xmlns:dc="http://purl.org/dc/elements/1.1/"
   xmlns:cc="http://creativecommons.org/ns#"
   xmlns:rdf="http://www.w3.org/1999/02/22-rdf-syntax-ns#"
   xmlns:svg="http://www.w3.org/2000/svg"
   xmlns="http://www.w3.org/2000/svg"
   xmlns:sodipodi="http://sodipodi.sourceforge.net/DTD/sodipodi-0.dtd"
   xmlns:inkscape="http://www.inkscape.org/namespaces/inkscape"
   viewBox="0 0 30 30"
   height="30"
   width="30"
   xml:space="preserve"
   id="svg2"
   version="1.1"
   inkscape:version="0.91 r13725"
   sodipodi:docname="watchzone.svg"><title
     id="title3346">Watch Zone ICON</title><sodipodi:namedview
     pagecolor="#ffffff"
     bordercolor="#666666"
     borderopacity="1"
     objecttolerance="10"
     gridtolerance="10"
     guidetolerance="10"
     inkscape:pageopacity="0"
     inkscape:pageshadow="2"
     inkscape:window-width="1440"
     inkscape:window-height="747"
     id="namedview18"
     showgrid="false"
     fit-margin-top="0"
     fit-margin-left="0"
     fit-margin-right="0"
     fit-margin-bottom="0"
     inkscape:zoom="8.34386"
     inkscape:cx="6.4794557"
     inkscape:cy="27.961082"
     inkscape:window-x="-8"
     inkscape:window-y="-8"
     inkscape:window-maximized="1"
     inkscape:current-layer="svg2" /><metadata
     id="metadata8"><rdf:RDF><cc:Work
         rdf:about=""><dc:format>image/svg+xml</dc:format><dc:type
           rdf:resource="http://purl.org/dc/dcmitype/StillImage" /><dc:title>Watch Zone ICON</dc:title></cc:Work></rdf:RDF></metadata><defs
     id="defs6"><clipPath
       id="clipPath18"
       clipPathUnits="userSpaceOnUse"><path
         id="path16"
         d="M 0,30 30,30 30,0 0,0 Z"
         inkscape:connector-curvature="0" /></clipPath></defs><g
     transform="matrix(0.99166667,0,0,-0.99166667,0.1198486,30)"
     id="g10"><g
       id="g12"><g
         clip-path="url(#clipPath18)"
         id="g14"><g
           transform="translate(1.3997,15.2859)"
           id="g20"><path
             id="path22"
             style="fill:#ffffff;fill-opacity:1;fill-rule:nonzero;stroke:none"
             d="M 0,0 C 0,7.409 6.006,13.415 13.415,13.415 20.824,13.415 26.83,7.409 26.83,0 26.83,-7.409 20.824,-13.415 13.415,-13.415 6.006,-13.415 0,-7.409 0,0"
             inkscape:connector-curvature="0" /></g><g
           transform="translate(1.3997,15.2859)"
           id="g24"><path
             id="path26"
             style="fill:none;stroke:#000000;stroke-width:1;stroke-linecap:butt;stroke-linejoin:miter;stroke-miterlimit:10;stroke-dasharray:none;stroke-opacity:1"
             d="M 0,0 C 0,7.409 6.006,13.415 13.415,13.415 20.824,13.415 26.83,7.409 26.83,0 26.83,-7.409 20.824,-13.415 13.415,-13.415 6.006,-13.415 0,-7.409 0,0 Z"
             inkscape:connector-curvature="0" /></g><g
           transform="translate(19.2942,10.4977)"
           id="g28"><path
             id="path30"
             style="fill:#343434;fill-opacity:1;fill-rule:nonzero;stroke:none"
             d="m 0,0 c -1,0 -1.915,0.654 -2.241,1.599 -0.33,0.956 0.003,2.042 0.806,2.655 0.804,0.614 1.944,0.642 2.777,0.068 C 2.173,3.749 2.557,2.683 2.277,1.712 1.987,0.711 1.042,0 0,0 -1.307,0 1.306,0 0,0 m -4.287,1.522 c -0.672,0 -1.074,0.788 -0.675,1.332 0.07,0.095 0.16,0.175 0.262,0.233 l 0,0 c 0.47,0.267 1.08,0.01 1.221,-0.509 0.143,-0.524 -0.266,-1.056 -0.808,-1.056 -0.463,0 0.462,0 0,0 M -8.59,0 c -1,0 -1.915,0.654 -2.241,1.599 -0.33,0.956 0.003,2.042 0.806,2.655 0.804,0.614 1.944,0.642 2.777,0.068 0.831,-0.573 1.216,-1.639 0.935,-2.61 C -6.603,0.711 -7.548,0 -8.59,0 c -1.306,0 1.307,0 0,0 M 3.907,2.594 C 3.901,2.976 3.803,3.371 3.671,3.728 3.106,5.433 1.633,7.882 0.34,8.7 l -0.612,0.898 c -0.365,0.688 -1.156,1.067 -1.921,0.919 C -2.91,10.378 -3.484,9.792 -3.61,9.072 l -0.002,0 -10e-4,-0.015 C -3.617,9.031 -3.622,9.005 -3.625,8.978 l -1.34,0 C -4.969,9.01 -4.974,9.041 -4.98,9.072 l 0,0.01 -10e-4,0 c -0.118,0.652 -0.606,1.2 -1.241,1.392 -0.7,0.211 -1.475,-0.038 -1.925,-0.614 L -8.148,9.861 -8.163,9.839 C -8.199,9.791 -8.233,9.742 -8.264,9.691 L -8.978,8.642 C -10.402,7.706 -12,5.031 -12.351,3.453 c -0.304,-1.058 -0.145,-2.216 0.437,-3.149 0.516,-0.826 1.337,-1.445 2.275,-1.706 0.911,-0.254 1.902,-0.165 2.752,0.247 0.84,0.408 1.52,1.118 1.891,1.975 0.443,-0.205 0.96,-0.207 1.405,-0.006 0.414,-0.953 1.209,-1.718 2.177,-2.095 0.967,-0.376 2.07,-0.347 3.017,0.079 1.464,0.66 2.396,2.192 2.304,3.796 -0.002,0.137 0.005,-0.074 0,0"
             inkscape:connector-curvature="0" /></g><g
           transform="translate(15,3)"
           id="g32"><path
             id="path34"
             style="fill:#343434;fill-opacity:1;fill-rule:nonzero;stroke:none"
             d="m 0,0 c -6.617,0 -12,5.383 -12,12 0,6.617 5.383,12 12,12 C 6.617,24 12,18.617 12,12 12,5.383 6.617,0 0,0 M 0,27 C -8.284,27 -15,20.284 -15,12 -15,3.716 -8.284,-3 0,-3 8.284,-3 15,3.716 15,12 15,20.284 8.284,27 0,27"
             inkscape:connector-curvature="0" /></g></g></g></g></svg>