<?xml version="1.0" encoding="UTF-8" standalone="no"?>
<!-- Generator: Adobe Illustrator 19.1.0, SVG Export Plug-In . SVG Version: 6.00 Build 0)  -->

<svg
   xmlns:dc="http://purl.org/dc/elements/1.1/"
   xmlns:cc="http://creativecommons.org/ns#"
   xmlns:rdf="http://www.w3.org/1999/02/22-rdf-syntax-ns#"
   xmlns:svg="http://www.w3.org/2000/svg"
   xmlns="http://www.w3.org/2000/svg"
   xmlns:sodipodi="http://sodipodi.sourceforge.net/DTD/sodipodi-0.dtd"
   xmlns:inkscape="http://www.inkscape.org/namespaces/inkscape"
   version="1.1"
   id="Livello_1"
   x="0px"
   y="0px"
   viewBox="0 0 9.6166285 11.999999"
   enable-background="new 0 0 34.7 43.4"
   xml:space="preserve"
   inkscape:version="0.91 r13725"
   sodipodi:docname="wz-delete-small.svg"
   width="9.6166286"
   height="12"><metadata
     id="metadata3371"><rdf:RDF><cc:Work
         rdf:about=""><dc:format>image/svg+xml</dc:format><dc:type
           rdf:resource="http://purl.org/dc/dcmitype/StillImage" /><dc:title></dc:title></cc:Work></rdf:RDF></metadata><defs
     id="defs3369" /><sodipodi:namedview
     pagecolor="#ffffff"
     bordercolor="#666666"
     borderopacity="1"
     objecttolerance="10"
     gridtolerance="10"
     guidetolerance="10"
     inkscape:pageopacity="0"
     inkscape:pageshadow="2"
     inkscape:window-width="1440"
     inkscape:window-height="747"
     id="namedview3367"
     showgrid="false"
     fit-margin-top="0"
     fit-margin-left="0"
     fit-margin-right="0"
     fit-margin-bottom="0"
     inkscape:zoom="5.83"
     inkscape:cx="-16.354974"
     inkscape:cy="21.599999"
     inkscape:window-x="-8"
     inkscape:window-y="-8"
     inkscape:window-maximized="1"
     inkscape:current-layer="Livello_1" /><path
     d="m 7.2055427,1.6073897 0,-1.60739017683716 -4.7944573,0 0,1.60739017683716 -2.4110854,0 0,1.1916863 0.60969977,0 0,9.200924 0,0 8.39722873,0 0,0 0,-9.200924 0.6096998,0 0,-1.1916863 -2.4110856,0 z m -3.9907621,-0.80369468 3.2147806,0 0,0.80369468 -3.2147806,0 0,-0.80369468 z m 4.5173211,9.92147798 -5.8475751,0 0,-7.926097 5.8475751,0 0,7.926097 z"
     id="path3361"
     inkscape:connector-curvature="0"
     style="fill:#343434" /><rect
     x="3.4087763"
     y="5.0161643"
     width="0.80369514"
     height="4.018476"
     id="rect3363"
     style="fill:#343434" /><rect
     x="5.4041567"
     y="5.0161643"
     width="0.80369514"
     height="4.018476"
     id="rect3365"
     style="fill:#343434" /></svg>