<?xml version="1.0" encoding="UTF-8" standalone="no"?>
<!-- Generator: Adobe Illustrator 19.1.0, SVG Export Plug-In . SVG Version: 6.00 Build 0)  -->

<svg
   xmlns:dc="http://purl.org/dc/elements/1.1/"
   xmlns:cc="http://creativecommons.org/ns#"
   xmlns:rdf="http://www.w3.org/1999/02/22-rdf-syntax-ns#"
   xmlns:svg="http://www.w3.org/2000/svg"
   xmlns="http://www.w3.org/2000/svg"
   xmlns:sodipodi="http://sodipodi.sourceforge.net/DTD/sodipodi-0.dtd"
   xmlns:inkscape="http://www.inkscape.org/namespaces/inkscape"
   version="1.1"
   id="Livello_1"
   x="0px"
   y="0px"
   viewBox="0 0 12.822171 15.999999"
   enable-background="new 0 0 34.7 43.4"
   xml:space="preserve"
   inkscape:version="0.91 r13725"
   sodipodi:docname="wz-delete.svg"
   width="12.822171"
   height="16"><metadata
     id="metadata3371"><rdf:RDF><cc:Work
         rdf:about=""><dc:format>image/svg+xml</dc:format><dc:type
           rdf:resource="http://purl.org/dc/dcmitype/StillImage" /><dc:title></dc:title></cc:Work></rdf:RDF></metadata><defs
     id="defs3369" /><sodipodi:namedview
     pagecolor="#ffffff"
     bordercolor="#666666"
     borderopacity="1"
     objecttolerance="10"
     gridtolerance="10"
     guidetolerance="10"
     inkscape:pageopacity="0"
     inkscape:pageshadow="2"
     inkscape:window-width="1600"
     inkscape:window-height="837"
     id="namedview3367"
     showgrid="false"
     fit-margin-top="0"
     fit-margin-left="0"
     fit-margin-right="0"
     fit-margin-bottom="0"
     inkscape:zoom="5.83"
     inkscape:cx="17.35"
     inkscape:cy="21.599999"
     inkscape:window-x="-8"
     inkscape:window-y="-8"
     inkscape:window-maximized="1"
     inkscape:current-layer="Livello_1" /><path
     d="m 9.6073903,2.143187 0,-2.143187 -6.3926097,0 0,2.143187 -3.2147806,0 0,1.588915 0.81293303,0 0,12.267898 0,0 11.19630497,0 0,0 0,-12.267898 0.812933,0 0,-1.588915 -3.2147807,0 z m -5.3210162,-1.071593 4.2863742,0 0,1.071593 -4.2863742,0 0,-1.071593 z m 6.0230949,13.228637 -7.7967669,0 0,-10.568129 7.7967669,0 0,10.568129 z"
     id="path3361"
     inkscape:connector-curvature="0"
     style="fill:#343434" /><rect
     x="4.5450349"
     y="6.68822"
     width="1.0715935"
     height="5.3579679"
     id="rect3363"
     style="fill:#343434" /><rect
     x="7.2055426"
     y="6.68822"
     width="1.0715935"
     height="5.3579679"
     id="rect3365"
     style="fill:#343434" /></svg>