<?xml version="1.0" encoding="UTF-8" standalone="no"?>
<!-- Generator: Adobe Illustrator 19.1.0, SVG Export Plug-In . SVG Version: 6.00 Build 0)  -->

<svg
   xmlns:dc="http://purl.org/dc/elements/1.1/"
   xmlns:cc="http://creativecommons.org/ns#"
   xmlns:rdf="http://www.w3.org/1999/02/22-rdf-syntax-ns#"
   xmlns:svg="http://www.w3.org/2000/svg"
   xmlns="http://www.w3.org/2000/svg"
   xmlns:sodipodi="http://sodipodi.sourceforge.net/DTD/sodipodi-0.dtd"
   xmlns:inkscape="http://www.inkscape.org/namespaces/inkscape"
   version="1.1"
   id="icons"
   x="0px"
   y="0px"
   viewBox="0 0 22.711767 16"
   enable-background="new 0 0 64.4 45.3"
   xml:space="preserve"
   inkscape:version="0.91 r13725"
   sodipodi:docname="wz-mail.svg"
   width="22.711767"
   height="16"><title
     id="title3358">Notification mail icon</title><metadata
     id="metadata3356"><rdf:RDF><cc:Work
         rdf:about=""><dc:format>image/svg+xml</dc:format><dc:type
           rdf:resource="http://purl.org/dc/dcmitype/StillImage" /><dc:title>Notification mail icon</dc:title></cc:Work></rdf:RDF></metadata><defs
     id="defs3354" /><sodipodi:namedview
     pagecolor="#ffffff"
     bordercolor="#666666"
     borderopacity="1"
     objecttolerance="10"
     gridtolerance="10"
     guidetolerance="10"
     inkscape:pageopacity="0"
     inkscape:pageshadow="2"
     inkscape:window-width="1600"
     inkscape:window-height="837"
     id="namedview3352"
     showgrid="false"
     fit-margin-top="0"
     fit-margin-left="0"
     fit-margin-right="0"
     fit-margin-bottom="0"
     inkscape:zoom="4.4720496"
     inkscape:cx="32.200001"
     inkscape:cy="22.65"
     inkscape:window-x="-8"
     inkscape:window-y="-8"
     inkscape:window-maximized="1"
     inkscape:current-layer="icons" /><path
     d="M 20.591611,0 2.1192053,0 C 0.9536424,0 0,0.9536424 0,2.1192056 L 0,13.880794 C 0,15.046358 0.9536424,16 2.1192053,16 l 18.4724057,0 c 1.165563,0 2.119206,-0.953642 2.119206,-2.119206 l 0,-11.7615884 C 22.746137,0.9536424 21.792494,0 20.591611,0 Z m -18.9668869,1.624724 5.8984547,5.686534 -6.1103753,4.02649 0,-9.2185424 c 0,-0.1766008 0.07064,-0.3532008 0.2119206,-0.4944816 z m 1.8366445,-0.2119208 15.8233994,0 -7.028698,6.7814578 c -0.49448,0.459161 -1.271523,0.459161 -1.766004,0 L 3.4613686,1.4128032 Z M 21.121413,1.624724 c 0.10596,0.1412808 0.176601,0.3178808 0.176601,0.4944816 l 0,9.2538634 -6.110376,-4.026491 5.933775,-5.721854 z m -0.529802,12.962473 -18.4724057,0 c -0.388521,0 -0.7064018,-0.317881 -0.7064018,-0.706403 l 0,-0.812361 7.1346581,-4.732892 0.9536424,0.918322 c 0.529801,0.494481 1.200882,0.741722 1.871965,0.741722 0.671081,0 1.342163,-0.247241 1.871964,-0.741722 l 0.918322,-0.883002 7.134659,4.697572 0,0.777041 c 0,0.423842 -0.317881,0.741723 -0.706403,0.741723 z"
     id="path3350"
     inkscape:connector-curvature="0"
     style="fill:#343434" /></svg>