<?xml version="1.0" encoding="UTF-8" standalone="no"?>
<!-- Generator: Adobe Illustrator 19.1.0, SVG Export Plug-In . SVG Version: 6.00 Build 0)  -->

<svg
   xmlns:dc="http://purl.org/dc/elements/1.1/"
   xmlns:cc="http://creativecommons.org/ns#"
   xmlns:rdf="http://www.w3.org/1999/02/22-rdf-syntax-ns#"
   xmlns:svg="http://www.w3.org/2000/svg"
   xmlns="http://www.w3.org/2000/svg"
   xmlns:sodipodi="http://sodipodi.sourceforge.net/DTD/sodipodi-0.dtd"
   xmlns:inkscape="http://www.inkscape.org/namespaces/inkscape"
   version="1.1"
   id="icons"
   x="0px"
   y="0px"
   viewBox="0 0 17.033825 12"
   enable-background="new 0 0 64.4 45.3"
   xml:space="preserve"
   inkscape:version="0.91 r13725"
   sodipodi:docname="wz-mail-small.svg"
   width="17.033825"
   height="12"><title
     id="title3358">Notification mail icon</title><metadata
     id="metadata3356"><rdf:RDF><cc:Work
         rdf:about=""><dc:format>image/svg+xml</dc:format><dc:type
           rdf:resource="http://purl.org/dc/dcmitype/StillImage" /><dc:title>Notification mail icon</dc:title></cc:Work></rdf:RDF></metadata><defs
     id="defs3354" /><sodipodi:namedview
     pagecolor="#ffffff"
     bordercolor="#666666"
     borderopacity="1"
     objecttolerance="10"
     gridtolerance="10"
     guidetolerance="10"
     inkscape:pageopacity="0"
     inkscape:pageshadow="2"
     inkscape:window-width="1440"
     inkscape:window-height="747"
     id="namedview3352"
     showgrid="false"
     fit-margin-top="0"
     fit-margin-left="0"
     fit-margin-right="0"
     fit-margin-bottom="0"
     inkscape:zoom="4.4720496"
     inkscape:cx="32.200001"
     inkscape:cy="22.65"
     inkscape:window-x="-8"
     inkscape:window-y="-8"
     inkscape:window-maximized="1"
     inkscape:current-layer="icons" /><path
     d="M 15.443708,0 1.589404,0 C 0.7152318,0 0,0.7152318 0,1.5894042 L 0,10.410595 C 0,11.284769 0.7152318,12 1.589404,12 l 13.854304,0 c 0.874172,0 1.589405,-0.715231 1.589405,-1.589405 l 0,-8.8211908 C 17.059603,0.7152318 16.344371,0 15.443708,0 Z M 1.2185431,1.218543 5.6423841,5.4834435 1.0596026,8.503311 l 0,-6.9139068 c 0,-0.1324506 0.05298,-0.2649006 0.1589405,-0.3708612 z m 1.3774834,-0.1589406 11.8675495,0 -5.2715235,5.0860936 c -0.37086,0.344371 -0.9536422,0.344371 -1.324503,0 L 2.5960265,1.0596024 Z M 15.84106,1.218543 c 0.07947,0.1059606 0.132451,0.2384106 0.132451,0.3708612 l 0,6.9403978 L 11.390729,5.5099335 15.84106,1.218543 Z m -0.397352,9.721855 -13.854304,0 c -0.2913908,0 -0.5298014,-0.238411 -0.5298014,-0.529803 l 0,-0.60927 5.3509936,-3.549669 0.7152318,0.688741 c 0.3973508,0.370861 0.9006615,0.556292 1.4039738,0.556292 0.5033107,0 1.0066222,-0.185431 1.403973,-0.556292 l 0.6887412,-0.662251 5.350995,3.523179 0,0.582781 c 0,0.317881 -0.238411,0.556292 -0.529803,0.556292 z"
     id="path3350"
     inkscape:connector-curvature="0"
     style="fill:#343434" /></svg>