<?xml version="1.0" encoding="utf-8"?>
<!-- Generator: Adobe Illustrator 19.1.0, SVG Export Plug-In . SVG Version: 6.00 Build 0)  -->
<!DOCTYPE svg PUBLIC "-//W3C//DTD SVG 1.1//EN" "http://www.w3.org/Graphics/SVG/1.1/DTD/svg11.dtd">
<svg version="1.1" id="Layer_1" xmlns="http://www.w3.org/2000/svg" xmlns:xlink="http://www.w3.org/1999/xlink" x="0px" y="0px"
     viewBox="0 0 20 20" enable-background="new 0 0 20 20" xml:space="preserve">
<svg version="1.1" id="Layer_1" xmlns="http://www.w3.org/2000/svg" xmlns:xlink="http://www.w3.org/1999/xlink" x="0px" y="0px"
     viewBox="1 -1 20 20" enable-background="new 1 -1 20 20" xml:space="preserve">
<g>
	<path fill="#343434" d="M20.8,17.5l-5.7-5.7c1.1-1.3,1.7-3,1.7-4.9c0-4.4-3.5-7.9-7.9-7.9S1,2.5,1,6.9s3.5,7.9,7.9,7.9
		c1.9,0,3.5-0.6,4.9-1.7l5.7,5.7c0.3,0.3,0.8,0.3,1.1,0l0.2-0.2C21.1,18.3,21.1,17.8,20.8,17.5z M8.9,13.2c-3.5,0-6.3-2.8-6.3-6.3
		s2.8-6.3,6.3-6.3s6.3,2.8,6.3,6.3S12.4,13.2,8.9,13.2z"/>
	<path fill="#343434" d="M11.3,6.2H9.6V4.5c0-0.4-0.3-0.7-0.7-0.7S8.2,4.2,8.2,4.5v1.7H6.5c-0.4,0-0.7,0.3-0.7,0.7
		c0,0.4,0.3,0.7,0.7,0.7h1.7v1.7c0,0.4,0.3,0.7,0.7,0.7s0.7-0.3,0.7-0.7V7.6h1.7c0.4,0,0.7-0.3,0.7-0.7C12,6.5,11.7,6.2,11.3,6.2z"
		/>
</g>
<g id="Layer_61_2_">
</g>
</svg>
</svg>
