<?xml version="1.0" encoding="UTF-8" standalone="no"?>
<!-- Generator: Adobe Illustrator 19.1.0, SVG Export Plug-In . SVG Version: 6.00 Build 0)  -->

<svg
   xmlns:dc="http://purl.org/dc/elements/1.1/"
   xmlns:cc="http://creativecommons.org/ns#"
   xmlns:rdf="http://www.w3.org/1999/02/22-rdf-syntax-ns#"
   xmlns:svg="http://www.w3.org/2000/svg"
   xmlns="http://www.w3.org/2000/svg"
   xmlns:sodipodi="http://sodipodi.sourceforge.net/DTD/sodipodi-0.dtd"
   xmlns:inkscape="http://www.inkscape.org/namespaces/inkscape"
   version="1.1"
   id="Layer_1"
   x="0px"
   y="0px"
   viewBox="0 0 20 20"
   enable-background="new 0 0 20 20"
   xml:space="preserve"
   inkscape:version="0.91 r13725"
   sodipodi:docname="zoom_20x20.svg"
   width="20"
   height="20"><metadata
     id="metadata3350"><rdf:RDF><cc:Work
         rdf:about=""><dc:format>image/svg+xml</dc:format><dc:type
           rdf:resource="http://purl.org/dc/dcmitype/StillImage" /><dc:title></dc:title></cc:Work></rdf:RDF></metadata><defs
     id="defs3348" /><sodipodi:namedview
     pagecolor="#ffffff"
     bordercolor="#666666"
     borderopacity="1"
     objecttolerance="10"
     gridtolerance="10"
     guidetolerance="10"
     inkscape:pageopacity="0"
     inkscape:pageshadow="2"
     inkscape:window-width="1440"
     inkscape:window-height="747"
     id="namedview3346"
     showgrid="false"
     fit-margin-top="0"
     fit-margin-left="0"
     fit-margin-right="0"
     fit-margin-bottom="0"
     inkscape:zoom="14.45"
     inkscape:cx="2.0487322"
     inkscape:cy="15.141587"
     inkscape:window-x="-8"
     inkscape:window-y="-8"
     inkscape:window-maximized="1"
     inkscape:current-layer="svg3337" /><svg
     version="1.1"
     id="svg3337"
     x="0px"
     y="0px"
     viewBox="1 -1 20 20"
     enable-background="new 1 -1 20 20"
     xml:space="preserve"
     inkscape:version="0.91 r13725"
     width="100%"
     height="100%"
     transform="translate(-1,0.75)"><g
       id="g3339"
       transform="matrix(0.94881398,0,0,0.94881398,1.6913909,-0.18363133)"><path
         d="m 20.8,17.5 -5.7,-5.7 c 1.1,-1.3 1.7,-3 1.7,-4.9 C 16.8,2.5 13.3,-1 8.9,-1 4.5,-1 1,2.5 1,6.9 c 0,4.4 3.5,7.9 7.9,7.9 1.9,0 3.5,-0.6 4.9,-1.7 l 5.7,5.7 c 0.3,0.3 0.8,0.3 1.1,0 l 0.2,-0.2 c 0.3,-0.3 0.3,-0.8 0,-1.1 z M 8.9,13.2 c -3.5,0 -6.3,-2.8 -6.3,-6.3 0,-3.5 2.8,-6.3 6.3,-6.3 3.5,0 6.3,2.8 6.3,6.3 0,3.5 -2.8,6.3 -6.3,6.3 z"
         id="path3341"
         inkscape:connector-curvature="0"
         style="fill:#343434" /><path
         d="m 11.3,6.2 -1.7,0 0,-1.7 C 9.6,4.1 9.3,3.8 8.9,3.8 8.5,3.8 8.2,4.2 8.2,4.5 l 0,1.7 -1.7,0 c -0.4,0 -0.7,0.3 -0.7,0.7 0,0.4 0.3,0.7 0.7,0.7 l 1.7,0 0,1.7 C 8.2,9.7 8.5,10 8.9,10 9.3,10 9.6,9.7 9.6,9.3 l 0,-1.7 1.7,0 C 11.7,7.6 12,7.3 12,6.9 12,6.5 11.7,6.2 11.3,6.2 Z"
         id="path3343"
         inkscape:connector-curvature="0"
         style="fill:#343434" /></g><g
       id="Layer_61_2_"
       transform="matrix(1.1317875,0,0,1.0814555,-2.2901143,-1.5073717)" /></svg></svg>