<?xml version="1.0" encoding="utf-8"?>
<!-- Generator: Adobe Illustrator 19.1.0, SVG Export Plug-In . SVG Version: 6.00 Build 0)  -->
<!DOCTYPE svg PUBLIC "-//W3C//DTD SVG 1.1//EN" "http://www.w3.org/Graphics/SVG/1.1/DTD/svg11.dtd">
<svg version="1.1" id="Layer_1" xmlns="http://www.w3.org/2000/svg" xmlns:xlink="http://www.w3.org/1999/xlink" x="0px" y="0px"
     viewBox="0 0 20 20" enable-background="new 0 0 20 20" xml:space="preserve">
<svg version="1.1" id="Layer_1" xmlns="http://www.w3.org/2000/svg" xmlns:xlink="http://www.w3.org/1999/xlink" x="0px" y="0px"
	 viewBox="0 0 20 10" enable-background="new 0 0 20 10" xml:space="preserve">
<g>
	<path d="M6.6,0h2.2L5.4,10.1h-2L0,0h2.2l2.2,7.6L6.6,0z"/>
	<path d="M11.7,1.8h-2V0h2V1.8z M9.7,2.7h2v7.4h-2V2.7z"/>
	<path d="M18,5.3c0-0.3-0.1-0.5-0.3-0.8c-0.2-0.3-0.6-0.5-1-0.5c-0.7,0-1.1,0.3-1.3,1c-0.1,0.3-0.2,0.8-0.2,1.4c0,0.5,0.1,1,0.2,1.3
		c0.2,0.6,0.7,0.9,1.3,0.9c0.5,0,0.8-0.1,1-0.4c0.2-0.2,0.3-0.6,0.3-1h2c0,0.6-0.3,1.2-0.6,1.7c-0.6,0.9-1.5,1.3-2.7,1.3
		S14.5,10,14,9.3c-0.6-0.7-0.8-1.6-0.8-2.8c0-1.3,0.3-2.3,0.9-3c0.6-0.7,1.5-1.1,2.6-1.1c0.9,0,1.7,0.2,2.3,0.6
		c0.6,0.4,0.9,1.2,1.1,2.2H18z"/>
</g>
</svg>
</svg>
