<?xml version="1.0" encoding="UTF-8" standalone="no"?>
<!-- Generator: Adobe Illustrator 19.1.0, SVG Export Plug-In . SVG Version: 6.00 Build 0)  -->

<svg
   xmlns:dc="http://purl.org/dc/elements/1.1/"
   xmlns:cc="http://creativecommons.org/ns#"
   xmlns:rdf="http://www.w3.org/1999/02/22-rdf-syntax-ns#"
   xmlns:svg="http://www.w3.org/2000/svg"
   xmlns="http://www.w3.org/2000/svg"
   xmlns:sodipodi="http://sodipodi.sourceforge.net/DTD/sodipodi-0.dtd"
   xmlns:inkscape="http://www.inkscape.org/namespaces/inkscape"
   version="1.1"
   id="Layer_1"
   x="0px"
   y="0px"
   viewBox="0 0 20 20"
   enable-background="new 0 0 20 20"
   xml:space="preserve"
   inkscape:version="0.91 r13725"
   sodipodi:docname="cross_white.svg"><metadata
     id="metadata3358"><rdf:RDF><cc:Work
         rdf:about=""><dc:format>image/svg+xml</dc:format><dc:type
           rdf:resource="http://purl.org/dc/dcmitype/StillImage" /><dc:title></dc:title></cc:Work></rdf:RDF></metadata><defs
     id="defs3356" /><sodipodi:namedview
     pagecolor="#ffffff"
     bordercolor="#666666"
     borderopacity="1"
     objecttolerance="10"
     gridtolerance="10"
     guidetolerance="10"
     inkscape:pageopacity="0"
     inkscape:pageshadow="2"
     inkscape:window-width="1280"
     inkscape:window-height="657"
     id="namedview3354"
     showgrid="false"
     inkscape:zoom="11.8"
     inkscape:cx="10"
     inkscape:cy="10"
     inkscape:window-x="-8"
     inkscape:window-y="-8"
     inkscape:window-maximized="1"
     inkscape:current-layer="Layer_1" /><g
     id="g3350"><polygon
       fill="#010101"
       points="19.2,20 10,10.8 0.8,20 0,19.2 9.2,10 0,0.8 0.8,0 10,9.2 19.2,0 20,0.8 10.8,10 20,19.2  "
       id="polygon3352" /></g><path
     style="fill:#ffffff"
     d="M 0.33727716,19.583008 -0.03870126,19.199914 4.5568249,14.604387 9.1523508,10.008861 4.5567386,5.4126684 -0.03887383,0.81647559 0.38135706,0.38982936 0.80158797,-0.03681689 5.400794,4.5618085 10,9.1604339 l 4.599206,-4.5986254 4.599206,-4.59862539 0.420231,0.42664625 0.420231,0.42664623 -4.595613,4.59619281 -4.595612,4.5961926 4.595526,4.595526 4.595526,4.595527 -0.375978,0.383094 c -0.206788,0.210701 -0.415576,0.383094 -0.463975,0.383094 -0.0484,0 -2.137915,-2.049656 -4.643372,-4.554791 L 10,10.85652 5.4446236,15.411311 c -2.5054569,2.505135 -4.59497436,4.554791 -4.64337216,4.554791 -0.0483977,0 -0.25718614,-0.172393 -0.46397428,-0.383094 z"
     id="path3360"
     inkscape:connector-curvature="0" /></svg>