<?xml version="1.0" encoding="utf-8"?>
<!-- Generator: Adobe Illustrator 19.1.0, SVG Export Plug-In . SVG Version: 6.00 Build 0)  -->
<!DOCTYPE svg PUBLIC "-//W3C//DTD SVG 1.1//EN" "http://www.w3.org/Graphics/SVG/1.1/DTD/svg11.dtd">
<svg version="1.1" xmlns="http://www.w3.org/2000/svg" xmlns:xlink="http://www.w3.org/1999/xlink" x="0px" y="0px"
	 viewBox="0 0 30 30" enable-background="new 0 0 30 30" xml:space="preserve">
<g id="Layer_1" display="none">
	<g id="Layer_49" display="inline">
		<g>
			<circle fill="#FFFFFF" cx="15" cy="15" r="14.1"/>
			<g>
				<g>
					<path d="M16.9,21.6h-3.8c-0.3,0-0.5-0.2-0.5-0.5s0.2-0.5,0.5-0.5h3.8c0.3,0,0.5,0.2,0.5,0.5S17.2,21.6,16.9,21.6z"/>
				</g>
				<g>
					<path d="M15,24.5c-0.1,0-0.2,0-0.3-0.1l-1.5-1C13,23.2,12.9,23,13,22.8c0.1-0.2,0.3-0.4,0.5-0.4h3c0.2,0,0.4,0.1,0.5,0.3
						c0.1,0.2,0,0.4-0.2,0.6l-1.5,1.1C15.2,24.5,15.1,24.5,15,24.5z"/>
				</g>
				<g>
					<path d="M17.1,19.7c0.2,0,0.3-0.3,0.3-0.5c0-0.9,0.9-2.4,1.3-2.9v-0.1v-0.1c1-1.2,1.7-2.9,1.7-4.4c0-2.9-2.4-5.3-5.4-5.3
						s-5.4,2.4-5.4,5.3c0,1.5,0.7,3.2,1.7,4.4v0.1c0.1,0.2,1.3,1.8,1.3,2.9c0,0.3,0.2,0.5,0.5,0.5L17.1,19.7L17.1,19.7z"/>
				</g>
			</g>
			<path fill="#ED2F22" d="M15,0C6.8,0,0,6.8,0,15s6.8,15,15,15s15-6.8,15-15S23.2,0,15,0z M1.9,15C1.9,7.8,7.8,1.9,15,1.9
				c3.6,0,6.8,1.4,9.1,3.7L5.5,24.1C3.3,21.8,1.9,18.6,1.9,15z M15,28.1c-3,0-5.8-1-8.1-2.8L25.3,6.9c1.8,2.2,2.8,5.1,2.8,8.1
				C28.1,22.2,22.2,28.1,15,28.1z"/>
		</g>
	</g>
	<g id="Layer_61" display="inline">
	</g>
</g>
<g id="Layer_2">
	<g id="Layer_48">
		<g>
			<circle fill="#FFFFFF" cx="15" cy="15" r="14.1"/>
			<path d="M17.8,9.5V6.6h-5.6v2.9c-1.7,0.4-2.8,2.1-2.8,3.9v5.3c0,1.5,0.9,2.2,1.9,2.6v0.8c0,0,0.7,1.2,3.8,1.2
				c3.2,0,3.8-1.2,3.8-1.2v-0.9c0.9-0.6,1.9-1.1,1.9-2.5v-5.3C20.6,11.5,19.5,9.8,17.8,9.5z M13.1,8.4h1.1c-0.1,0.1-0.1,0.3-0.1,0.4
				c0,0.2,0.1,0.4,0.2,0.6h-1.2V8.4z M16.9,9.4h-1.3c0.1-0.2,0.2-0.3,0.2-0.6c0-0.2-0.1-0.3-0.1-0.4h1.2V9.4z"/>
			<path fill="#ED2F22" d="M15,0C6.8,0,0,6.8,0,15s6.8,15,15,15s15-6.8,15-15S23.2,0,15,0z M1.9,15C1.9,7.8,7.8,1.9,15,1.9
				c3.6,0,6.8,1.4,9.1,3.7L5.5,24.1C3.3,21.8,1.9,18.6,1.9,15z M15,28.1c-3,0-5.8-1-8.1-2.8L25.3,6.9c1.8,2.2,2.8,5.1,2.8,8.1
				C28.1,22.2,22.2,28.1,15,28.1z"/>
		</g>
	</g>
	<g id="Layer_61_1_">
	</g>
</g>
<g id="Layer_3" display="none">
	<g id="Layer_50" display="inline">
		<g>
			<circle fill="#FFFFFF" cx="15" cy="15" r="14.1"/>
			<g>
				<path d="M4.7,11.2h5.6c0-0.7,0.8-1.9,1.9-1.9V8h-2C9.6,8,9.1,7.4,9.1,6.8s0.6-1.1,1.1-1.1h6.8c0.7,0,1.1,0.6,1.1,1.1
					c0,0.7-0.6,1.2-1.1,1.2H15v1.4c1.4,0,1.9,1.2,1.9,1.9h1.5c2.2,0,4.1,1.3,4.1,3.6v3.9h-5.6v-2.8H4.7v1.9H1.9V9.8l2.8-4.1V11.2z"
					/>
				<path d="M19.8,19.8l1.5,2.7c0.3,0.6,0.4,1.3,0,1.9c-0.5,0.9-1.7,1.2-2.5,0.8c-0.9-0.6-1.2-1.7-0.7-2.6l1.5-2.7
					C19.6,19.7,19.8,19.7,19.8,19.8z"/>
			</g>
			<path fill="#ED2F22" d="M15,0C6.8,0,0,6.8,0,15s6.8,15,15,15s15-6.8,15-15S23.2,0,15,0z M1.9,15C1.9,7.8,7.8,1.9,15,1.9
				c3.6,0,6.8,1.4,9.1,3.7L5.5,24.1C3.3,21.8,1.9,18.6,1.9,15z M15,28.1c-3,0-5.8-1-8.1-2.8L25.3,6.9c1.8,2.2,2.8,5.1,2.8,8.1
				C28.1,22.2,22.2,28.1,15,28.1z"/>
		</g>
	</g>
	<g id="Layer_61_2_" display="inline">
	</g>
</g>
</svg>
